<svg xmlns="http://www.w3.org/2000/svg" width="153" height="35" viewBox="0 0 153 35">
  <g fill="#FFFFFF" fill-rule="evenodd">
    <polyline points="6.301 28.822 6.301 19.606 .144 3.082 3.24 3.082 7.776 15.826 12.996 .418 15.841 .418 9.144 19.714 9.144 28.822 6.301 28.822"/>
    <path d="M77.437 10.678L74.053 19.174 77.832 28.822 74.916 28.822 72.108 21.334 69.372 28.822 66.601 28.822 70.38 19.426 66.96 10.678 69.876 10.678 72.217 17.266 74.7 10.678 77.437 10.678zM60.229 12.73C59.364 12.73 58.752 13.216 58.393 14.188 58.032 15.16 57.804 16.462 57.708 18.094L62.353 18.094C62.353 17.326 62.316 16.612 62.244 15.952 62.172 15.292 62.059 14.722 61.902 14.242 61.746 13.762 61.53 13.39 61.254 13.126 60.979 12.862 60.636 12.73 60.229 12.73zM65.16 27.598C64.584 28.054 63.942 28.414 63.234 28.678 62.526 28.942 61.716 29.074 60.805 29.074 58.933 29.074 57.456 28.348 56.376 26.896 55.296 25.444 54.756 23.314 54.756 20.506 54.756 19.042 54.858 17.698 55.063 16.474 55.266 15.25 55.59 14.188 56.034 13.288 56.479 12.388 57.048 11.686 57.744 11.182 58.44 10.678 59.269 10.426 60.229 10.426 60.972 10.426 61.656 10.576 62.28 10.876 62.904 11.176 63.433 11.662 63.864 12.334 64.296 13.006 64.632 13.876 64.872 14.944 65.112 16.013 65.232 17.314 65.232 18.85L65.232 20.398 57.672 20.398C57.672 22.462 57.954 24.022 58.519 25.078 59.082 26.134 59.928 26.662 61.057 26.662 61.849 26.662 62.532 26.524 63.108 26.248 63.685 25.972 64.152 25.702 64.513 25.438L65.16 27.598zM49.141 13.598C48.853 13.309 48.546 13.092 48.223 12.947 47.898 12.803 47.496 12.73 47.017 12.73 46.44 12.73 45.942 12.929 45.522 13.327 45.103 13.726 44.754 14.256 44.479 14.919 44.202 15.583 43.998 16.343 43.866 17.199 43.734 18.055 43.668 18.954 43.668 19.895 43.668 22.042 43.885 23.725 44.316 24.943 44.748 26.161 45.48 26.77 46.513 26.77 47.208 26.77 47.76 26.625 48.168 26.336 48.576 26.047 48.9 25.721 49.141 25.359L49.141 13.598zM46.188 29.074C44.389 29.074 43.021 28.342 42.084 26.878 41.148 25.414 40.681 23.266 40.681 20.434 40.681 17.074 41.25 14.566 42.391 12.91 43.53 11.254 45.012 10.426 46.836 10.426 47.269 10.426 47.694 10.492 48.114 10.624 48.534 10.756 48.876 10.918 49.141 11.11L49.141 3.082 51.948 3.082 51.948 28.822 49.86 28.822 49.645 27.382 49.464 27.382C49.056 27.886 48.594 28.294 48.078 28.606 47.562 28.918 46.932 29.074 46.188 29.074zM30.528 28.822L27.721 28.822 27.721 10.642 30.528 10.642 30.528 12.226 30.708 12.226C30.828 12.058 31.002 11.866 31.23 11.65 31.458 11.434 31.729 11.236 32.04 11.056 32.352 10.876 32.694 10.726 33.066 10.606 33.438 10.486 33.84 10.426 34.272 10.426 36.696 10.426 37.908 11.794 37.908 14.53L37.908 28.822 35.064 28.822 35.064 14.782C35.064 14.086 34.92 13.606 34.632 13.342 34.345 13.078 33.924 12.946 33.372 12.946 32.772 12.946 32.232 13.132 31.752 13.504 31.271 13.876 30.864 14.29 30.528 14.746L30.528 28.822zM21.456 19.354L21.132 19.354C20.269 19.354 19.561 19.445 19.009 19.627 18.456 19.808 18.024 20.075 17.712 20.426 17.4 20.778 17.185 21.196 17.064 21.681 16.944 22.166 16.885 22.699 16.885 23.28 16.885 24.347 17.059 25.195 17.406 25.825 17.754 26.455 18.288 26.77 19.009 26.77 19.488 26.77 19.95 26.631 20.395 26.352 20.838 26.074 21.192 25.728 21.456 25.316L21.456 19.354zM24.229 24.718C24.229 25.582 24.265 26.374 24.336 27.094 24.408 27.814 24.48 28.39 24.553 28.822L22.177 28.822C22.128 28.63 22.08 28.403 22.032 28.138 21.984 27.874 21.948 27.622 21.925 27.382L21.744 27.382C21.336 27.886 20.868 28.294 20.34 28.606 19.812 28.918 19.152 29.074 18.36 29.074 17.064 29.074 16.014 28.606 15.21 27.67 14.406 26.734 14.004 25.366 14.004 23.566 14.004 22.606 14.137 21.73 14.4 20.938 14.664 20.146 15.078 19.48 15.643 18.94 16.206 18.4 16.933 17.98 17.82 17.68 18.708 17.38 19.788 17.23 21.061 17.23L21.456 17.23 21.456 16.141C21.456 14.932 21.259 14.061 20.862 13.529 20.467 12.997 19.872 12.73 19.08 12.73 18.36 12.73 17.7 12.896 17.101 13.227 16.5 13.558 15.96 13.933 15.48 14.35L14.94 11.866C15.348 11.53 15.942 11.206 16.723 10.894 17.502 10.582 18.348 10.426 19.261 10.426 20.053 10.426 20.76 10.522 21.385 10.714 22.008 10.907 22.53 11.224 22.95 11.668 23.37 12.112 23.688 12.7 23.904 13.432 24.12 14.164 24.229 15.082 24.229 16.186L24.229 24.718 24.229 24.718zM87.624 5.962C87.624 6.658 87.618 7.487 87.605 8.446 87.594 9.406 87.563 10.33 87.516 11.218L86.76 28.822 85.284 28.822 86.4 3.082 88.38 3.082 92.231 18.958C92.399 19.582 92.531 20.195 92.628 20.794 92.724 21.394 92.796 21.97 92.844 22.522L92.916 22.522C93.036 21.394 93.252 20.206 93.563 18.958L97.523 3.082 99.54 3.082 100.656 28.822 98.928 28.822 98.172 11.074C98.123 10.066 98.1 9.154 98.1 8.338L98.1 5.926 97.992 5.926C97.871 6.742 97.745 7.528 97.614 8.284 97.481 9.04 97.319 9.802 97.128 10.57L93.528 24.79 92.124 24.79 88.56 10.57C88.367 9.874 88.205 9.154 88.074 8.41 87.941 7.666 87.827 6.85 87.731 5.962L87.624 5.962M109.008 27.742C110.063 27.742 110.97 27.087 111.726 25.776 112.481 24.464 112.859 22.45 112.859 19.732 112.859 18.326 112.757 17.117 112.554 16.103 112.35 15.09 112.073 14.261 111.726 13.617 111.377 12.974 110.97 12.503 110.502 12.205 110.033 11.907 109.535 11.758 109.008 11.758 107.951 11.758 107.046 12.402 106.289 13.689 105.533 14.977 105.155 16.991 105.155 19.732 105.155 21.139 105.258 22.349 105.462 23.362 105.665 24.375 105.941 25.203 106.289 25.847 106.637 26.49 107.046 26.967 107.514 27.278 107.981 27.587 108.479 27.742 109.008 27.742zM109.008 29.182C108.216 29.182 107.483 28.984 106.812 28.588 106.14 28.192 105.558 27.611 105.065 26.842 104.573 26.074 104.184 25.108 103.896 23.944 103.607 22.78 103.464 21.418 103.464 19.858 103.464 18.346 103.607 16.996 103.896 15.808 104.184 14.62 104.573 13.624 105.065 12.82 105.558 12.016 106.14 11.398 106.812 10.966 107.483 10.534 108.216 10.318 109.008 10.318 109.8 10.318 110.531 10.51 111.203 10.894 111.875 11.278 112.457 11.861 112.949 12.64 113.441 13.42 113.832 14.392 114.119 15.556 114.407 16.721 114.552 18.082 114.552 19.642 114.552 21.154 114.407 22.498 114.119 23.674 113.832 24.85 113.441 25.846 112.949 26.662 112.457 27.478 111.875 28.102 111.203 28.534 110.531 28.966 109.8 29.182 109.008 29.182L109.008 29.182zM123.407 11.758C122.495 11.758 121.703 12.106 121.031 12.802 120.359 13.498 119.795 14.422 119.34 15.574L119.34 28.822 117.647 28.822 117.647 10.678 119.195 10.678 119.268 13.666 119.34 13.666C119.459 13.33 119.646 12.97 119.897 12.586 120.149 12.202 120.456 11.842 120.815 11.506 121.176 11.17 121.596 10.888 122.075 10.66 122.556 10.432 123.107 10.318 123.731 10.318 124.956 10.318 125.897 10.69 126.558 11.434 127.218 12.178 127.548 13.27 127.548 14.71L127.548 28.822 125.855 28.822 125.855 14.926C125.855 12.814 125.039 11.758 123.407 11.758M135.791 11.758C134.831 11.758 134.009 12.349 133.325 13.531 132.642 14.713 132.264 16.438 132.191 18.706L138.779 18.706C138.923 16.295 138.689 14.534 138.077 13.424 137.465 12.313 136.703 11.758 135.791 11.758zM132.155 20.038C132.203 22.546 132.551 24.457 133.199 25.771 133.848 27.085 134.831 27.742 136.151 27.742 136.751 27.742 137.279 27.645 137.735 27.449 138.19 27.253 138.575 27.021 138.887 26.752 139.247 26.483 139.559 26.154 139.823 25.762L140.363 27.13C140.075 27.538 139.727 27.886 139.319 28.174 138.959 28.438 138.515 28.673 137.987 28.876 137.459 29.08 136.835 29.182 136.115 29.182 134.194 29.182 132.779 28.354 131.867 26.698 130.955 25.042 130.499 22.726 130.499 19.75 130.499 18.263 130.631 16.936 130.896 15.772 131.159 14.608 131.525 13.618 131.993 12.802 132.461 11.987 133.02 11.368 133.667 10.948 134.315 10.529 135.022 10.318 135.791 10.318 136.583 10.318 137.291 10.522 137.915 10.93 138.539 11.339 139.055 11.95 139.463 12.766 139.871 13.582 140.159 14.596 140.327 15.808 140.495 17.02 140.507 18.43 140.363 20.038L132.155 20.038 132.155 20.038zM143.963 34.582C143.771 34.582 143.597 34.576 143.441 34.565 143.284 34.553 143.146 34.536 143.027 34.513L142.847 32.998C142.991 33.046 143.153 33.082 143.333 33.106 143.513 33.13 143.723 33.142 143.963 33.142 144.587 33.142 145.115 32.859 145.547 32.293 145.979 31.727 146.326 30.939 146.591 29.928L146.735 29.386 142.235 10.678 143.927 10.678 146.807 22.522C146.975 23.218 147.118 23.903 147.239 24.574 147.358 25.246 147.467 25.93 147.563 26.626L147.671 26.626C147.791 25.906 147.923 25.21 148.067 24.538 148.211 23.867 148.367 23.194 148.535 22.522L151.343 10.678 152.855 10.678 148.211 29.758C148.067 30.382 147.881 30.982 147.653 31.558 147.425 32.134 147.143 32.644 146.807 33.088 146.471 33.532 146.074 33.892 145.619 34.168 145.163 34.444 144.611 34.582 143.963 34.582"/>
  </g>
</svg>
