<?xml version="1.0" encoding="UTF-8" standalone="no"?>
<!-- Generator: Adobe Illustrator 18.0.0, SVG Export Plug-In . SVG Version: 6.00 Build 0)  -->

<svg
   xmlns:dc="http://purl.org/dc/elements/1.1/"
   xmlns:cc="http://creativecommons.org/ns#"
   xmlns:rdf="http://www.w3.org/1999/02/22-rdf-syntax-ns#"
   xmlns:svg="http://www.w3.org/2000/svg"
   xmlns="http://www.w3.org/2000/svg"
   xmlns:sodipodi="http://sodipodi.sourceforge.net/DTD/sodipodi-0.dtd"
   xmlns:inkscape="http://www.inkscape.org/namespaces/inkscape"
   version="1.1"
   id="Layer_1"
   x="0px"
   y="0px"
   viewBox="0 0 448.70001 132.69999"
   enable-background="new 0 0 492 196.1"
   xml:space="preserve"
   inkscape:version="0.91 r13725"
   sodipodi:docname="ru-alfa.svg"
   width="448.70001"
   height="132.7"><metadata
     id="metadata11"><rdf:RDF><cc:Work
         rdf:about=""><dc:format>image/svg+xml</dc:format><dc:type
           rdf:resource="http://purl.org/dc/dcmitype/StillImage" /><dc:title></dc:title></cc:Work></rdf:RDF></metadata><defs
     id="defs9" /><sodipodi:namedview
     pagecolor="#ffffff"
     bordercolor="#666666"
     borderopacity="1"
     objecttolerance="10"
     gridtolerance="10"
     guidetolerance="10"
     inkscape:pageopacity="0"
     inkscape:pageshadow="2"
     inkscape:window-width="1181"
     inkscape:window-height="684"
     id="namedview7"
     showgrid="false"
     fit-margin-top="0"
     fit-margin-left="0"
     fit-margin-right="0"
     fit-margin-bottom="0"
     inkscape:zoom="0.6300813"
     inkscape:cx="-7.6290323"
     inkscape:cy="62.949997"
     inkscape:window-x="0"
     inkscape:window-y="0"
     inkscape:window-maximized="0"
     inkscape:current-layer="Layer_1" /><path
     stroke-miterlimit="10"
     d="m 42.6,0 c 9,0 11.9,6.5 14.3,13 1,2.7 24.5,67 25.2,69 0.2,0.5 0.1,1.4 -0.8,1.7 -0.8,0.3 -13,5.1 -13.7,5.3 -0.7,0.3 -1.4,-0.1 -1.7,-0.8 -0.2,-0.7 -5.3,-14.7 -5.9,-16.3 -1.7,0 -33.1,0 -34.8,0 -0.6,1.6 -5.7,15.6 -5.9,16.3 -0.2,0.6 -1,1.1 -1.7,0.8 C 16.9,88.7 4.6,84 3.9,83.7 3.2,83.4 2.9,82.6 3.1,82 4,79.6 27.1,16.3 28.3,13 30.7,6.6 33.6,0 42.6,0 Z M 1.3,115 C 0.6,115 0,115.6 0,116.4 l 0,15 c 0,0.7 0.6,1.3 1.3,1.3 l 82.6,0 c 0.7,0 1.3,-0.6 1.3,-1.3 l 0,-15 c 0,-0.7 -0.6,-1.4 -1.3,-1.4 L 1.3,115 M 42.6,21 30.8,56.3 54.5,56.3 42.7,21 42.6,21 Z m 307.3,51.8 c 0,4 -2.2,6.6 -6.3,6.6 -1.6,0 -2.9,0 -5,-0.6 l 0,-12 c 0.9,-0.2 2.8,-0.5 5,-0.4 4.2,0.2 6.3,2.1 6.3,6.4 z m 8.4,-0.6 c 0,-7.4 -4.3,-12.5 -13.5,-12.5 -2.2,0 -3.8,0.2 -6.2,0.8 l 0,-10.7 c 1.5,-0.2 4.1,-0.4 6.9,-0.4 2.7,0 6.1,0.1 9.1,0.5 l 0.2,-6.2 c -3.4,-0.8 -8.3,-1.2 -12.1,-1.2 -3.8,0 -9.6,0.9 -12.4,1.7 l 0,39.4 c 4.3,1.6 8.6,2.3 12.9,2.3 9.9,0.1 15.1,-5.2 15.1,-13.7 z m -94.9,-2.1 c 0,5.5 -2.2,9 -5.8,9 -1.5,0 -2.3,-0.1 -4,-0.6 l 0,-16.5 c 1.9,-0.9 2.9,-0.9 4.4,-0.9 3.6,0 5.4,3 5.4,9 m -27.5,0.2 c 0,-6 1.8,-9.2 5.4,-9.2 1.5,0 2.5,0 4.4,0.9 l 0,16.5 c -1.7,0.6 -2.5,0.6 -4,0.6 -4.1,0 -5.8,-3.3 -5.8,-8.8 m 17.7,24.7 0,-10.7 c 1,0.6 3,1.5 6.3,1.5 6.7,0 11.6,-5.5 11.6,-15.6 0,-10.9 -4.9,-15.6 -12.9,-15.6 -2,0 -3.4,0.2 -5,1 l 0,-12.9 -7.8,0 0,12.8 c -1.6,-0.8 -3,-1 -5,-1 -8,0 -12.9,4.9 -12.9,15.7 0,10.1 4.4,15.5 11.6,15.5 3.4,0 5.3,-0.9 6.3,-1.5 l 0,10.7 7.8,0 m -59.5,-9.7 0,-28.8 c -4.3,-1.3 -7.6,-1.8 -12,-1.8 -4.3,0 -7.6,0.6 -11.9,1.8 l 0,14.8 c 0,4 -0.1,5.2 -0.5,6.5 -0.4,1.1 -1,2.5 -2.6,3.6 l 2.1,4.6 c 6.3,-1.8 8.7,-4.5 8.7,-13.3 l 0,-10.9 c 2.1,-0.3 2.5,-0.4 4.2,-0.4 1.7,0 2,0.1 4.1,0.4 l 0,23.5 7.9,0 z m 96.8,-6.3 c -1.7,0.6 -2.9,0.7 -4.2,0.7 -2.8,0 -4.4,-1.1 -4.4,-4 0,-3 2,-4 5.9,-4 0.9,0 1.9,0.1 2.3,0.3 l 0,2.2 c 0,2.3 0.1,3.8 0.4,4.8 z m 10,3.4 c -2.1,-3.2 -2.6,-5 -2.6,-9 l 0,-8.1 c 0,-4.4 -0.5,-6 -1.7,-7.5 -1.6,-2.2 -4.3,-3.2 -9.2,-3.2 -3.5,0 -6.9,0.4 -10.1,1.2 l 1.2,5.8 c 2.2,-0.3 4.5,-0.6 6.2,-0.6 5.2,0 5.8,0.8 5.8,4.7 l 0,1.5 c -1.2,-0.3 -2.5,-0.5 -4,-0.5 -7.9,0 -12,3.8 -12,10.2 0,5.9 4.4,9.2 9.8,9.2 2,0 4.1,-0.4 5.8,-1 1,-0.4 1.4,-0.7 2.7,-1.5 0.8,1.2 2.3,2.3 3,2.5 l 5.1,-3.7 z m 76.8,-3.4 c -1.7,0.6 -2.9,0.7 -4.2,0.7 -2.8,0 -4.4,-1.1 -4.4,-4 0,-3 2,-4 5.9,-4 0.9,0 1.9,0.1 2.3,0.3 l 0,2.2 c 0,2.3 0.1,3.8 0.4,4.8 z m 10,3.4 c -2.1,-3.2 -2.6,-5 -2.6,-9 l 0,-8.1 c 0,-4.4 -0.5,-6 -1.6,-7.5 -1.6,-2.2 -4.3,-3.2 -9.2,-3.2 -3.5,0 -6.9,0.4 -10.1,1.2 l 1.2,5.8 c 2.2,-0.3 4.5,-0.6 6.2,-0.6 5.2,0 5.8,0.8 5.8,4.7 l 0,1.5 c -1.2,-0.3 -2.5,-0.5 -4,-0.5 -7.9,0 -12,3.8 -12,10.2 0,5.9 4.4,9.2 9.8,9.2 2,0 4.1,-0.4 5.8,-1 1,-0.4 1.4,-0.7 2.7,-1.5 0.8,1.2 2.4,2.3 3,2.5 l 5,-3.7 z M 216.4,74.9 c 0,3 -1,5 -4.8,5 -1.3,0 -1.8,0 -3.4,-0.5 l 0,-8.7 c 2,-0.4 2.2,-0.5 3.4,-0.5 3.6,0.1 4.8,1.8 4.8,4.7 z M 200.3,55 l 0,28.6 c 3.7,1.6 7.8,2.3 11.5,2.3 8.3,0 12.8,-4.3 12.8,-11.4 0,-6.4 -4,-10.4 -11.3,-10.4 -1.9,0 -3,0.2 -5,0.7 l 0,-9.8 -8,0 z m 216.1,30.2 0,-29.9 -7.9,0 0,11.3 -8.9,0 0,-11.3 -7.9,0 0,29.9 7.9,0 0,-12.2 8.9,0 0,12.2 7.9,0 z m 32.3,0 c 0,0 -4.3,-9.2 -5.3,-11.2 -1.2,-2.3 -2.3,-4 -4.7,-4.5 l 0,-0.1 c 1.6,-0.3 2.9,-1.3 4.3,-4.3 1.3,-2.9 1.7,-3.6 2.5,-4.2 0.8,-0.7 1.8,-0.4 1.8,-0.4 l 0.4,-5.4 C 446.6,55 445.3,54.9 444,55 c -2.1,0.1 -3.2,0.7 -4.3,1.8 -0.8,0.8 -1.4,2 -2.1,3.4 -0.7,1.5 -1.3,2.7 -2.1,4.3 -0.8,1.6 -1.1,2.3 -3.2,2.3 l -1.3,0 0,-11.5 -7.9,0 0,29.9 7.9,0 0,-12.2 1.1,0 c 2.2,0 2.6,0.6 3.8,2.9 1.4,2.8 4.1,9.3 4.1,9.3 l 8.7,0 z m -293.1,0 9.1,0 L 151,43.4 c -1.4,-0.5 -3.2,-0.8 -5.1,-0.8 -2.1,0 -2.8,0.3 -4.4,0.8 l -14.5,41.8 8.7,0 c 0,0 1.2,-3.7 2.6,-8.2 l 15,0 c 1.2,4.6 2.3,8.2 2.3,8.2 z M 140.4,70 c 0,0 2.5,-8.4 2.9,-9.7 1,-3.4 2.5,-8.8 2.5,-8.8 l 0.2,0 c 0,0 1.4,5.6 2.3,8.7 0.4,1.2 2.7,9.7 2.7,9.7 l -10.6,0 z m 173.9,-4.8 c -2.8,0 -5,2.3 -5,5 0,2.8 2.2,5 5,5 2.8,0 5,-2.2 5,-5 0,-2.7 -2.2,-5 -5,-5 z"
     id="path3"
     style="fill:#ffffff;stroke:none;stroke-miterlimit:10"
     inkscape:connector-curvature="0" /><rect
     x="-42.599998"
     y="-42.599998"
     width="554"
     height="217.89999"
     id="rect5"
     style="fill:none" /></svg>