<?xml version="1.0" encoding="UTF-8" standalone="no"?>
<!-- Generator: Adobe Illustrator 16.0.0, SVG Export Plug-In . SVG Version: 6.00 Build 0)  -->

<svg
   xmlns:dc="http://purl.org/dc/elements/1.1/"
   xmlns:cc="http://creativecommons.org/ns#"
   xmlns:rdf="http://www.w3.org/1999/02/22-rdf-syntax-ns#"
   xmlns:svg="http://www.w3.org/2000/svg"
   xmlns="http://www.w3.org/2000/svg"
   xmlns:sodipodi="http://sodipodi.sourceforge.net/DTD/sodipodi-0.dtd"
   xmlns:inkscape="http://www.inkscape.org/namespaces/inkscape"
   version="1.1"
   id="Слой_1"
   x="0px"
   y="0px"
   width="183.896"
   height="67.263"
   viewBox="0 0 183.89599 67.262999"
   enable-background="new 0 0 409.1 159.994"
   xml:space="preserve"
   inkscape:version="0.91 r13725"
   sodipodi:docname="ru-atb.svg"><metadata
     id="metadata15"><rdf:RDF><cc:Work
         rdf:about=""><dc:format>image/svg+xml</dc:format><dc:type
           rdf:resource="http://purl.org/dc/dcmitype/StillImage" /><dc:title></dc:title></cc:Work></rdf:RDF></metadata><defs
     id="defs13" /><sodipodi:namedview
     pagecolor="#ffffff"
     bordercolor="#666666"
     borderopacity="1"
     objecttolerance="10"
     gridtolerance="10"
     guidetolerance="10"
     inkscape:pageopacity="0"
     inkscape:pageshadow="2"
     inkscape:window-width="1171"
     inkscape:window-height="760"
     id="namedview11"
     showgrid="false"
     fit-margin-top="0"
     fit-margin-left="0"
     fit-margin-right="0"
     fit-margin-bottom="0"
     inkscape:zoom="0.75776093"
     inkscape:cx="-71.602194"
     inkscape:cy="32.070998"
     inkscape:window-x="0"
     inkscape:window-y="0"
     inkscape:window-maximized="0"
     inkscape:current-layer="g3" /><g
     id="g3"
     transform="translate(-47.848,-44.805)"><path
       d="m 152.605,60.367 c -0.536,-1.544 -1.308,-1.904 -2.967,-1.904 l -4.555,0 c -1.666,0 -2.366,0.359 -2.961,2.013 L 127.968,98.14 c -0.589,1.597 -0.176,2.363 1.606,2.363 l 4.083,0 c 2.957,0 3.734,-0.475 4.321,-2.19 l 1.897,-5.562 14.617,0 1.838,5.562 c 0.54,1.716 1.425,2.19 4.381,2.19 l 4.447,0 c 1.711,0 2.185,-0.767 1.602,-2.363 L 152.605,60.367 Z m -10.19,24.565 3.083,-9.23 c 1.422,-4.209 1.394,-7.211 1.394,-7.211 l 0.527,0 c 0,0 0.147,3.002 1.511,7.271 l 3.079,9.17 -9.594,0 z m 50.539,-26.464 -28.125,0 c -1.836,0 -2.422,0.59 -2.422,2.422 l 0,3.967 c 0,1.777 0.586,2.374 2.422,2.374 l 9.298,0 0,30.851 c 0,1.826 0.591,2.422 2.362,2.422 l 4.8,0 c 1.836,0 2.434,-0.596 2.434,-2.422 l 0,-30.851 9.23,0 c 1.838,0 2.431,-0.597 2.431,-2.374 l 0,-3.967 c 0,-1.831 -0.592,-2.422 -2.43,-2.422 z m 25.288,15.452 -9.59,0 0,-6.865 17.822,0 c 1.777,0 2.429,-0.652 2.429,-2.43 l 0,-3.734 c 0,-1.836 -0.651,-2.427 -2.429,-2.427 l -25.041,0 c -1.775,0 -2.432,0.591 -2.432,2.427 l 0,37.306 c 0,1.773 0.712,2.308 2.361,2.308 l 16.879,0 c 8.174,0 13.503,-5.087 13.503,-13.265 0.001,-8.289 -5.328,-13.32 -13.502,-13.32 z m -1.363,17.998 -8.227,0 0,-9.415 8.227,0 c 3.14,0 4.917,1.898 4.917,4.736 0,2.791 -1.777,4.679 -4.917,4.679 z"
       id="path5"
       inkscape:connector-curvature="0"
       style="fill:#373a36" /><path
       d="m 103.895,44.805 -44.838,0 c -6.166,0 -11.209,5.045 -11.209,11.211 l 0,44.841 c 0,6.165 5.044,11.211 11.209,11.211 l 44.838,0 c 6.165,0 11.21,-5.046 11.21,-11.211 l 0,-44.841 c 0,-6.166 -5.045,-11.211 -11.21,-11.211 z m 7.696,54.862 c -0.101,0.149 -0.301,0.192 -0.454,0.103 -8.662,-5.221 -18.81,-8.226 -29.66,-8.226 -10.85,0 -20.999,3.005 -29.66,8.226 -0.153,0.09 -0.353,0.047 -0.454,-0.103 -0.103,-0.149 -0.069,-0.351 0.071,-0.459 l 0.041,-0.032 c 7.831,-6.037 14.637,-13.673 19.887,-22.766 5.249,-9.092 8.457,-18.799 9.77,-28.594 0.025,-0.169 0.169,-0.3 0.345,-0.3 0.175,0 0.319,0.131 0.343,0.3 1.314,9.795 4.524,19.502 9.772,28.594 5.25,9.093 12.056,16.729 19.885,22.766 l 0.041,0.032 c 0.141,0.108 0.175,0.31 0.073,0.459 z"
       id="path9"
       inkscape:connector-curvature="0"
       style="fill:#fe5000" /></g></svg>