<?xml version="1.0" encoding="UTF-8" standalone="no"?>
<!-- Created with Inkscape (http://www.inkscape.org/) -->

<svg
   xmlns:dc="http://purl.org/dc/elements/1.1/"
   xmlns:cc="http://creativecommons.org/ns#"
   xmlns:rdf="http://www.w3.org/1999/02/22-rdf-syntax-ns#"
   xmlns:svg="http://www.w3.org/2000/svg"
   xmlns="http://www.w3.org/2000/svg"
   xmlns:sodipodi="http://sodipodi.sourceforge.net/DTD/sodipodi-0.dtd"
   xmlns:inkscape="http://www.inkscape.org/namespaces/inkscape"
   width="735"
   height="195"
   id="svg2"
   sodipodi:version="0.32"
   inkscape:version="0.91 r13725"
   version="1.0"
   sodipodi:docname="ru-citi.svg">
  <defs
     id="defs4" />
  <sodipodi:namedview
     id="base"
     pagecolor="#ffffff"
     bordercolor="#666666"
     borderopacity="1.0"
     gridtolerance="10000"
     guidetolerance="10"
     objecttolerance="10"
     inkscape:pageopacity="0.0"
     inkscape:pageshadow="2"
     inkscape:zoom="0.98994949"
     inkscape:cx="421.39676"
     inkscape:cy="62.03347"
     inkscape:document-units="px"
     inkscape:current-layer="g2879"
     width="735px"
     height="195px"
     inkscape:window-width="1348"
     inkscape:window-height="799"
     inkscape:window-x="0"
     inkscape:window-y="0"
     showgrid="false"
     inkscape:window-maximized="0" />
  <metadata
     id="metadata7">
    <rdf:RDF>
      <cc:Work
         rdf:about="">
        <dc:format>image/svg+xml</dc:format>
        <dc:type
           rdf:resource="http://purl.org/dc/dcmitype/StillImage" />
      </cc:Work>
    </rdf:RDF>
  </metadata>
  <g
     inkscape:label="Layer 1"
     inkscape:groupmode="layer"
     id="layer1"
     transform="translate(-2144.866,-4054.926)">
    <g
       id="g2879"
       transform="translate(-26.96955,-39.44887)">
      <path
         d="M 2226.2353,4285.1966 C 2195.5314,4280.686 2175.3658,4256.7267 2175.3658,4224.7573 C 2175.3658,4198.5093 2190.5191,4176.3001 2213.9218,4168.2484 C 2229.7834,4162.7912 2246.5418,4163.314 2259.7118,4169.6768 C 2266.5865,4172.9982 2278.3658,4182.3276 2278.3658,4184.4511 C 2278.3658,4185.014 2275.4049,4189.0246 2271.786,4193.3634 L 2265.2062,4201.2522 L 2260.536,4197.3681 C 2248.6161,4187.4546 2235.9118,4185.1844 2221.7187,4190.4315 C 2211.0564,4194.3734 2202.7226,4205.3486 2200.2906,4218.6516 C 2197.4376,4234.2573 2205.0035,4251.065 2217.9993,4257.9917 C 2232.0389,4265.4747 2246.9612,4263.8505 2260.0965,4253.4095 L 2265.3271,4249.2517 L 2271.5965,4256.8643 C 2275.0446,4261.0512 2278.0311,4264.9257 2278.2331,4265.4743 C 2278.8895,4267.2565 2267.4272,4277.1124 2261.0642,4280.2369 C 2250.3678,4285.4893 2239.1252,4287.0903 2226.2353,4285.1966 z M 2523.8658,4284.9306 C 2516.8181,4282.5813 2511.1491,4279.176 2505.6892,4274.0122 L 2500.3658,4268.9776 L 2500.3658,4276.1226 L 2500.3658,4283.2677 L 2493.3658,4283.2677 L 2486.3658,4283.2677 L 2486.3658,4206.3538 L 2486.3658,4129.4398 L 2492.7783,4125.8538 C 2496.3052,4123.8814 2499.4552,4122.2677 2499.7783,4122.2677 C 2500.1014,4122.2677 2500.3658,4136.0911 2500.3658,4152.9864 L 2500.3658,4183.7051 L 2506.1158,4178.0451 C 2516.8613,4167.4678 2530.7419,4162.7043 2543.5024,4165.2148 C 2557.9815,4168.0634 2567.1148,4176.4121 2572.6674,4191.8746 C 2575.8037,4200.6082 2577.3682,4211.3526 2577.3583,4224.0901 C 2577.3354,4253.3298 2567.1193,4274.9974 2549.567,4283.0331 C 2542.9762,4286.0505 2530.0812,4287.0025 2523.8658,4284.9306 z M 2546.7262,4270.9024 C 2558.1197,4264.2253 2563.381,4249.6812 2563.3484,4224.9523 C 2563.3224,4205.2097 2560.4297,4194.3754 2552.8065,4185.4695 C 2547.5842,4179.3683 2541.4693,4176.8021 2532.2956,4176.8617 C 2522.5506,4176.9251 2513.959,4180.7149 2505.9297,4188.4919 L 2500.3658,4193.8809 L 2500.3658,4224.9335 L 2500.3658,4255.9861 L 2504.3502,4260.5127 C 2512.6574,4269.9501 2522.9088,4274.4244 2535.0101,4273.8945 C 2540.5805,4273.6506 2543.1616,4272.9914 2546.7262,4270.9024 z M 2618.1117,4285.182 C 2612.4998,4283.8594 2605.2706,4279.8692 2601.6699,4276.107 C 2599.9122,4274.2704 2597.2252,4270.0677 2595.6987,4266.7677 C 2593.2302,4261.431 2592.9202,4259.6048 2592.8946,4250.2485 C 2592.8674,4240.3192 2593.0527,4239.3495 2596.1996,4232.9555 C 2601.7573,4221.6631 2611.7973,4215.4393 2628.1178,4213.1694 C 2639.597,4211.5727 2653.7751,4213.8082 2663.2521,4218.7089 L 2666.3658,4220.3191 L 2666.3658,4208.9749 C 2666.3658,4185.5935 2660.0742,4177.4273 2641.328,4176.4764 C 2631.847,4175.9955 2623.6174,4177.6356 2614.4407,4181.8349 C 2611.4568,4183.2003 2608.6729,4183.9687 2608.2542,4183.5426 C 2607.8355,4183.1164 2606.5721,4180.6109 2605.4465,4177.9748 L 2603.4001,4173.1819 L 2608.133,4171.1357 C 2617.9795,4166.8786 2627.3551,4165.0447 2639.8658,4164.9287 C 2657.968,4164.7608 2667.3831,4168.525 2674.6214,4178.8238 C 2680.0449,4186.5405 2680.341,4189.6234 2680.3539,4238.5177 L 2680.3658,4283.2677 L 2673.3658,4283.2677 L 2666.3658,4283.2677 L 2666.3658,4275.4806 L 2666.3658,4267.6936 L 2661.0372,4272.7306 C 2649.2375,4283.8847 2632.8171,4288.6478 2618.1117,4285.182 z M 2641.9057,4273.7157 C 2649.6004,4271.712 2655.6869,4268.098 2661.6127,4262.0142 L 2666.3658,4257.1344 L 2666.3658,4243.8112 L 2666.3658,4230.4879 L 2661.6158,4228.2515 C 2655.0057,4225.1391 2641.4039,4222.9323 2632.7549,4223.569 C 2619.6713,4224.5321 2609.854,4231.0492 2607.3088,4240.461 C 2605.7732,4246.1395 2606.5869,4257.8694 2608.8215,4262.2677 C 2614.5561,4273.5549 2626.5652,4277.7103 2641.9057,4273.7157 z M 2373.8585,4282.9164 C 2371.1045,4281.6339 2367.3357,4278.8585 2365.4834,4276.7489 C 2358.8449,4269.188 2358.9167,4269.6872 2358.3658,4227.2677 L 2357.8658,4188.7677 L 2347.6158,4188.4827 L 2337.3658,4188.1977 L 2337.3658,4177.2327 L 2337.3658,4166.2677 L 2347.835,4166.2677 L 2358.3042,4166.2677 L 2358.585,4154.178 L 2358.8658,4142.0883 L 2370.1158,4136.0925 L 2381.3658,4130.0966 L 2381.3658,4148.1822 L 2381.3658,4166.2677 L 2393.8658,4166.2677 L 2406.3658,4166.2677 L 2406.3658,4177.2369 L 2406.3658,4188.2061 L 2394.1158,4188.4869 L 2381.8658,4188.7677 L 2381.8658,4222.8136 C 2381.8658,4260.8896 2381.8782,4260.9616 2388.8401,4263.2592 C 2393.2608,4264.7182 2400.866,4263.2769 2407.0834,4259.802 C 2412.2983,4256.8873 2412.3078,4256.9419 2408.8924,4270.247 C 2407.4232,4275.9704 2405.7541,4280.2418 2404.6798,4281.0273 C 2398.3488,4285.6567 2381.907,4286.6644 2373.8585,4282.9164 z M 2292.3658,4224.7677 L 2292.3658,4166.2677 L 2304.3658,4166.2677 L 2316.3658,4166.2677 L 2316.3658,4224.7677 L 2316.3658,4283.2677 L 2304.3658,4283.2677 L 2292.3658,4283.2677 L 2292.3658,4224.7677 z M 2430.3658,4224.7677 L 2430.3658,4166.2677 L 2442.3658,4166.2677 L 2454.3658,4166.2677 L 2454.3658,4224.7677 L 2454.3658,4283.2677 L 2442.3658,4283.2677 L 2430.3658,4283.2677 L 2430.3658,4224.7677 z M 2708.3658,4225.2677 L 2708.3658,4167.2677 L 2715.3658,4167.2677 L 2722.3658,4167.2677 L 2722.4183,4176.0177 C 2722.469,4184.4868 2722.5234,4184.6874 2724.1119,4182.2677 C 2725.0146,4180.8927 2728.071,4177.4637 2730.904,4174.6477 C 2739.1983,4166.4032 2751.1514,4162.9802 2763.8967,4165.1997 C 2780.087,4168.0191 2789.0617,4176.5464 2793.9737,4193.7773 C 2795.4239,4198.8644 2795.7469,4206.0631 2796.116,4241.5177 L 2796.5507,4283.2677 L 2789.5532,4283.2677 L 2782.5557,4283.2677 L 2782.0754,4243.0177 C 2781.7665,4217.1298 2781.1768,4201.1118 2780.4228,4198.1269 C 2779.778,4195.5745 2777.8139,4191.0873 2776.0581,4188.1555 C 2773.4973,4183.8793 2771.6928,4182.2256 2766.9362,4179.7962 C 2761.7201,4177.1321 2760.0357,4176.7772 2752.9362,4176.8465 C 2737.4211,4176.9981 2728.5279,4184.494 2724.3135,4200.9724 C 2722.554,4207.8518 2722.3658,4212.1954 2722.3658,4245.9277 L 2722.3658,4283.2677 L 2715.3658,4283.2677 L 2708.3658,4283.2677 L 2708.3658,4225.2677 z M 2824.3658,4206.3846 L 2824.3658,4129.5015 L 2830.4375,4125.8846 C 2833.7769,4123.8953 2836.8144,4122.2675 2837.1875,4122.2672 C 2837.5606,4122.267 2837.7209,4141.5045 2837.5437,4165.0172 C 2837.3666,4188.53 2837.5207,4213.2159 2837.8862,4219.8749 L 2838.5507,4231.982 L 2849.2083,4216.2946 C 2855.0699,4207.6666 2865.0408,4193.114 2871.3658,4183.9554 L 2882.8658,4167.3036 L 2890.6006,4167.2857 L 2898.3354,4167.2677 L 2884.2392,4186.5177 C 2876.4863,4197.1052 2869.9114,4206.3527 2869.6282,4207.0677 C 2869.1,4208.4016 2871.9438,4214.6577 2892.4953,4257.3726 C 2899.0241,4270.9423 2904.3658,4282.3199 2904.3658,4282.6562 C 2904.3658,4282.9925 2901.1033,4283.2638 2897.1158,4283.2591 L 2889.8658,4283.2505 L 2877.5305,4257.0091 C 2870.7461,4242.5763 2863.9549,4228.3387 2862.4388,4225.3699 L 2859.6823,4219.9721 L 2849.0241,4234.8521 L 2838.3658,4249.7321 L 2838.3658,4266.4999 L 2838.3658,4283.2677 L 2831.3658,4283.2677 L 2824.3658,4283.2677 L 2824.3658,4206.3846 z "
         style="fill:#ffffff;fill-opacity:1;stroke:none;stroke-opacity:1"
         id="path1980" />
      <path
         id="path1950"
         d="M 2277.5325,4146.3274 C 2278.3277,4144.0841 2289.1922,4131.8928 2294.8517,4126.8932 C 2317.9015,4106.5308 2342.9661,4096.8798 2372.8658,4096.8543 C 2389.0526,4096.8405 2398.8134,4098.5511 2413.3658,4103.952 C 2433.7084,4111.5018 2452.2687,4124.995 2465.0387,4141.5177 L 2469.4827,4147.2677 L 2455.6113,4147.2677 L 2441.74,4147.2677 L 2438.8029,4144.1877 C 2430.5593,4135.5429 2412.9697,4125.2552 2399.8658,4121.4145 C 2384.9023,4117.0287 2372.4829,4116.2467 2357.975,4118.7766 C 2339.3356,4122.0271 2324.6515,4129.149 2309.23,4142.4184 L 2303.5942,4147.2677 L 2290.3967,4147.2677 C 2282.5869,4147.2677 2277.3352,4146.8838 2277.5325,4146.3274 z "
         style="fill:#ce011b;fill-opacity:1;stroke:#aa0815;stroke-opacity:1" />
    </g>
  </g>
</svg>
