<?xml version="1.0" encoding="UTF-8" standalone="no"?>
<!-- Creator: CorelDRAW X6 -->

<svg
   xmlns:dc="http://purl.org/dc/elements/1.1/"
   xmlns:cc="http://creativecommons.org/ns#"
   xmlns:rdf="http://www.w3.org/1999/02/22-rdf-syntax-ns#"
   xmlns:svg="http://www.w3.org/2000/svg"
   xmlns="http://www.w3.org/2000/svg"
   xmlns:sodipodi="http://sodipodi.sourceforge.net/DTD/sodipodi-0.dtd"
   xmlns:inkscape="http://www.inkscape.org/namespaces/inkscape"
   xml:space="preserve"
   width="700mm"
   height="156mm"
   version="1.1"
   style="clip-rule:evenodd;fill-rule:evenodd;image-rendering:optimizeQuality;shape-rendering:geometricPrecision;text-rendering:geometricPrecision"
   viewBox="0 0 70000 15600"
   enable-background="new 0 0 194.4 41"
   id="svg2"
   inkscape:version="0.91 r13725"
   sodipodi:docname="ru-gazprombank.svg"><metadata
     id="metadata64"><rdf:RDF><cc:Work
         rdf:about=""><dc:format>image/svg+xml</dc:format><dc:type
           rdf:resource="http://purl.org/dc/dcmitype/StillImage" /><dc:title></dc:title></cc:Work></rdf:RDF></metadata><sodipodi:namedview
     pagecolor="#ffffff"
     bordercolor="#666666"
     borderopacity="1"
     objecttolerance="10"
     gridtolerance="10"
     guidetolerance="10"
     inkscape:pageopacity="0"
     inkscape:pageshadow="2"
     inkscape:window-width="1088"
     inkscape:window-height="768"
     id="namedview62"
     showgrid="false"
     inkscape:zoom="0.49993651"
     inkscape:cx="931.23676"
     inkscape:cy="284.66472"
     inkscape:window-x="0"
     inkscape:window-y="0"
     inkscape:window-maximized="0"
     inkscape:current-layer="Слой_x0020_1" /><defs
     id="defs4"><style
       type="text/css"
       id="style6"><![CDATA[
    .fil1 {fill:#00447C}
    .fil0 {fill:white}
   ]]></style></defs><g
     id="Слой_x0020_1"
     transform="translate(0,-9500.0001)"><metadata
       id="CorelCorpID_0Corel-Layer" /><path
       class="fil0"
       d="m 14707.548,17337.108 c 0,4021.973 -3208.982,7316.92 -7200.2524,7316.92 -3958.1124,0 -7200.25234,-3260.561 -7200.25234,-7316.92 0,-4021.971 3208.98164,-7316.916 7200.25234,-7316.916 3992.4984,0 7200.2524,3296.173 7200.2524,7316.916 z"
       id="path10"
       inkscape:connector-curvature="0"
       style="fill:#ffffff" /><path
       class="fil1"
       d="m 2480.7507,15309.542 c 1853.1777,-1231.766 3922.498,-1956.334 7449.5533,-1339.837 179.3,-109.3 286.143,-217.37 356.144,-470.356 -890.3603,-326.669 -1817.5632,-433.512 -3066.5239,-400.354 -1104.0469,35.614 -3102.1384,433.513 -4136.1845,1086.853 l 320.5297,-433.513 c 749.1308,-433.514 2674.7655,-1013.169 4136.1846,-1051.239 1035.2742,-35.615 1569.4904,35.614 2781.6091,362.284 -106.844,-217.37 -356.1446,-326.67 -713.5169,-470.355 -1247.7326,-542.812 -3422.6681,-578.427 -5241.4595,217.37 213.6865,-144.914 462.9874,-291.055 749.1308,-433.513 606.6732,-291.055 1569.4905,-542.812 2781.6087,-508.426 962.8173,0 2103.7069,362.284 2815.9949,1086.853 106.843,144.914 179.3,291.055 213.687,400.355 569.83,291.055 890.36,542.812 1069.66,869.482 72.457,144.914 106.843,326.669 72.457,542.812 249.301,144.914 356.144,252.985 462.987,400.355 72.457,144.914 141.23,291.056 141.23,400.355 35.614,181.756 35.614,362.285 -141.23,617.726 179.301,109.299 356.145,362.285 356.145,470.356 72.457,433.513 -179.301,833.868 -534.217,1160.539 -428.601,362.284 -1317.733,795.798 -2066.864,977.554 -1461.4189,362.284 -2745.994,542.813 -3778.8121,725.797 462.9874,109.3 1104.0469,252.985 2103.7067,252.985 2174.9354,0 4136.1844,-1051.239 4136.1844,-1051.239 0,0 -35.614,144.914 -72.457,252.985 -1390.19,869.483 -3601.9681,1231.768 -4527.9429,1160.539 -962.8173,-35.615 -1746.3344,-181.756 -2566.6941,-433.514 -249.3009,73.685 -462.9874,144.914 -713.5164,252.986 1210.8902,542.812 2103.7067,688.954 3135.2967,760.183 1035.2742,73.685 2781.6087,-181.756 4243.0277,-725.797 -72.457,73.685 -106.843,181.756 -179.3,252.985 -749.131,400.355 -2317.3933,795.798 -3135.2968,833.869 -783.5171,35.614 -1746.3344,0 -2602.3085,-144.914 -713.5164,-144.914 -1317.7333,-362.285 -1924.4065,-652.112 -106.8432,73.685 -179.3001,181.756 -179.3001,326.67 2425.4645,1268.61 4670.4007,1304.224 7235.8669,508.426 l -213.687,252.985 c -2815.9947,1160.539 -5026.5446,725.798 -6738.4927,-109.299 -72.4569,-35.614 -106.8432,-35.614 -179.3002,-73.685 141.2296,291.056 1461.4192,1231.768 2922.8383,1377.909 997.2036,73.685 2246.1643,-109.299 2959.6806,-400.355 l -428.6009,217.371 c -356.1442,181.756 -1283.3471,578.427 -2602.3085,470.356 -1746.3345,-109.299 -2709.1518,-905.097 -3174.5954,-1304.225 -213.6865,-181.756 -286.1434,-400.355 -356.1441,-688.954 -392.9867,-217.371 -642.2876,-433.514 -855.9741,-760.184 -106.8432,-181.756 -72.4569,-400.355 -35.6144,-578.427 0,-73.685 35.6144,-109.299 35.6144,-144.914 -179.3001,-144.914 -392.9866,-291.056 -462.9874,-433.513 -179.3001,-326.67 -72.4569,-578.428 35.6144,-795.798 -106.8432,-109.3 -213.6865,-252.985 -249.3009,-362.285 -35.6144,-144.914 -72.4569,-291.056 -35.6144,-433.513 35.6144,-252.985 179.3002,-508.427 356.1442,-725.797 392.9866,-433.514 962.8173,-795.798 1996.8634,-1122.469 997.2036,-326.67 1390.1903,-400.355 2174.9355,-578.427 890.3604,-217.371 1924.4065,-291.056 2815.995,-578.426 -2459.8508,-470.356 -4992.1586,-73.685 -7094.6372,1377.908 l 141.2296,-400.355 m 8377.9838,-1557.208 c -35.614,109.299 -179.3,252.985 -249.3,362.284 286.143,73.685 534.216,181.757 783.517,291.055 0,-252.984 -286.144,-470.355 -534.217,-652.111 z m -7593.2386,4998.298 c -141.2296,-73.685 -249.3009,-144.914 -392.9866,-252.986 -72.4569,144.914 72.4569,326.671 213.6865,433.514 72.4569,-73.685 141.2295,-109.3 179.3001,-181.756 l -1.2281,0 1.2281,0 z m 8342.3696,-3260.562 c 179.3,73.685 320.53,144.914 499.83,252.986 106.843,-217.371 35.615,-362.285 -179.3,-542.813 -106.843,109.299 -213.687,217.371 -320.53,291.056 l 0,1.228 0,-1.228 z m -534.216,326.671 c -356.144,181.756 -890.36,362.284 -1605.1049,542.812 -606.6731,144.914 -2066.8641,362.285 -3670.7409,725.798 -499.8299,109.299 -1853.1777,433.513 -2531.0797,1013.168 179.3002,144.914 286.1434,181.757 499.8299,291.056 286.1434,-181.756 642.2876,-362.284 1210.8901,-508.426 962.8173,-252.986 1710.7201,-362.285 2567.9222,-508.427 855.9741,-144.914 2494.2373,-470.356 3422.6683,-833.868 286.143,-109.3 569.831,-252.986 783.517,-400.356 -72.457,-73.685 -676.674,-362.284 -676.674,-326.67 l 0,2.456 0,1.229 1.228,1.228 -1.228,-1.228 z m -6879.7226,3875.831 c 141.2296,-73.685 286.1434,-144.914 462.9874,-252.986 -249.3009,-109.299 -499.8299,-217.37 -783.5171,-362.284 -106.8433,73.685 -213.6865,144.914 -320.5298,252.985 249.3009,109.299 462.9874,217.371 642.2876,362.285 z m -821.5877,73.685 c 0,181.756 106.8432,326.67 320.5297,508.426 35.6144,-73.685 72.4569,-144.914 141.2296,-252.985 -179.3002,-73.685 -320.5298,-181.756 -462.9874,-252.985 l 0,-2.456 0,-1.229 0,1.229 z m 1210.8901,-3080.033 c 1783.1769,-542.813 3670.741,-688.955 5561.9892,-1194.925 -749.1308,-217.371 -1140.8893,-291.056 -1924.4065,-181.757 -1140.8894,144.914 -2387.3939,400.355 -3457.0545,725.797 -428.601,144.914 -2640.379,760.184 -1996.8634,1665.281 0,-35.614 392.9867,-578.427 1817.5633,-1013.168 l 1.2281,0 -1.2281,-1.228 z m 6701.6502,-1848.266 c -286.143,-144.914 -642.287,-252.985 -1035.274,-362.284 -179.3,144.913 -356.144,252.985 -676.6738,362.284 499.8298,73.685 855.9738,217.371 1247.7328,326.67 72.457,73.685 428.601,-252.985 462.987,-326.67 l 1.228,0 1.228,0 1.229,0 -1.229,0 z m 890.361,1740.194 c -72.457,35.615 -106.844,109.3 -179.3,144.914 -392.987,326.67 -1035.275,578.427 -1924.407,795.798 -1853.1776,508.427 -3174.5953,578.427 -4670.4007,944.396 -286.1434,73.685 -606.6732,181.756 -890.3604,291.056 286.1434,144.914 606.6731,291.056 890.3604,400.355 606.6731,-181.756 927.2029,-252.985 1817.5632,-400.355 356.1442,-73.685 1390.1903,-252.985 2139.3212,-400.355 1354.5763,-291.056 3350.2113,-905.098 2815.9953,-1773.353 l 2.456,0 1.228,0 0,-1.228 1.228,-1.228 -1.228,1.228 z"
       id="path14"
       inkscape:connector-curvature="0"
       style="fill:#00447c" /><g
       id="_777904464"
       transform="matrix(1.2280833,0,0,1.2280833,-7948.1327,1521.8548)"
       style="fill:#ffffff"><path
         class="fil1"
         d="m 24253,15533 1219,0 146,-914 843,0 146,914 1219,0 -1045,-5309 -1539,0 -986,5309 m 1801,-3717 233,1622 -464,0 233,-1622 -2,0 -1,0 1,0 z"
         id="path17"
         inkscape:connector-curvature="0"
         style="fill:#ffffff" /><path
         class="fil1"
         d="m 29014,12290 c 203,0 551,-118 551,-531 0,-471 -407,-503 -523,-503 -146,0 -407,29 -668,148 l 0,-1151 c 407,-118 697,-148 1045,-148 986,0 1422,708 1422,1387 0,679 -377,1091 -755,1239 l 0,60 c 349,118 843,471 843,1268 0,1003 -697,1564 -1567,1564 -464,0 -784,-60 -1132,-266 l 29,-1091 c 349,148 581,148 812,148 377,0 551,-295 551,-503 0,-295 -174,-503 -610,-503 l -494,0 0,-1122 494,0 4,0 0,1 1,1 -1,1 -1,0 z"
         id="path19"
         inkscape:connector-curvature="0"
         style="fill:#ffffff" /><polygon
         class="fil1"
         points="32700,11493 32700,15533 31481,15533 31481,10223 34791,10223 34791,15533 33571,15533 33571,11493 "
         id="polygon21"
         style="fill:#ffffff" /><path
         class="fil1"
         d="m 35488,15533 1219,0 0,-1741 407,0 c 1190,0 1567,-1091 1567,-1799 0,-679 -435,-1770 -1567,-1770 l -1626,0 0,5309 m 1190,-4130 290,0 c 261,0 435,177 435,619 0,561 -290,619 -435,619 l -290,0 0,-1239 0,-1 0,1 z"
         id="path23"
         inkscape:connector-curvature="0"
         style="fill:#ffffff" /><path
         class="fil1"
         d="m 40915,15592 c 1422,0 1916,-1356 1916,-2714 0,-1356 -494,-2714 -1916,-2714 -1422,0 -1916,1356 -1916,2714 0,1356 464,2714 1916,2714 m 0,-1268 c -435,0 -638,-503 -638,-1444 0,-945 233,-1444 638,-1444 435,0 638,503 638,1444 0,945 -233,1444 -638,1444 z"
         id="path25"
         inkscape:connector-curvature="0"
         style="fill:#ffffff" /><path
         class="fil1"
         d="m 48085,15533 1452,0 c 320,0 1626,-118 1626,-1741 0,-1356 -1016,-1593 -1683,-1593 l -203,0 0,-708 1596,0 0,-1268 -2787,0 0,5309 m 1190,-1062 0,-1209 174,0 c 146,0 523,0 523,561 0,561 -377,648 -523,648 l -174,0 0,2 0,-1 0,-1 z"
         id="path27"
         inkscape:connector-curvature="0"
         style="fill:#ffffff" /><polygon
         class="fil1"
         points="58739,10223 58739,15533 57548,15533 57548,13409 56707,13409 56707,15533 55516,15533 55516,10223 56707,10223 56707,12141 57548,12141 57548,10223 "
         id="polygon29"
         style="fill:#ffffff" /><polygon
         class="fil1"
         points="62919,10223 62018,12732 63063,15533 61669,15533 60973,13409 60711,13409 60711,15533 59523,15533 59523,10223 60711,10223 60711,12141 60973,12141 61641,10223 "
         id="polygon31"
         style="fill:#ffffff" /><polygon
         class="fil1"
         points="21901,15533 21901,10223 24399,10223 24399,11551 23149,11551 23149,15533 "
         id="polygon33"
         style="fill:#ffffff" /><polygon
         class="fil1"
         points="47273,15533 46054,15533 46054,12290 45327,13232 44601,12290 44601,15533 43411,15533 43411,10223 44428,10223 45327,11493 46257,10223 47273,10223 "
         id="polygon35"
         style="fill:#ffffff" /><path
         class="fil1"
         d="m 51395,15533 1219,0 146,-914 843,0 146,914 1219,0 -1045,-5309 -1539,0 -986,5309 m 1801,-3687 233,1622 -464,0 233,-1622 -2,0 -1,0 1,0 z"
         id="path37"
         inkscape:connector-curvature="0"
         style="fill:#ffffff" /></g><g
       id="_777906448" /></g></svg>