<?xml version="1.0" encoding="utf-8"?>
<!-- Generator: Adobe Illustrator 16.0.0, SVG Export Plug-In . SVG Version: 6.00 Build 0)  -->
<!DOCTYPE svg PUBLIC "-//W3C//DTD SVG 1.1//EN" "http://www.w3.org/Graphics/SVG/1.1/DTD/svg11.dtd">
<svg version="1.1" id="Layer_1" xmlns="http://www.w3.org/2000/svg" xmlns:xlink="http://www.w3.org/1999/xlink" x="0px" y="0px"
	 width="242.713px" height="47.982px" viewBox="0 0 242.713 47.982" enable-background="new 0 0 242.713 47.982"
	 xml:space="preserve">
<path fill-rule="evenodd" clip-rule="evenodd" fill="#04663A" d="M0,23.99C0,10.753,10.725,0.012,23.956,0v8.67
	C15.51,8.68,8.664,15.538,8.664,23.99c0,8.462,6.858,15.327,15.324,15.327c8.411,0,15.319-6.8,15.319-15.384l8.674,0.009
	c0,13.296-10.739,24.041-23.993,24.041C10.735,47.982,0,37.238,0,23.99"/>
<path fill="#53AE47" d="M13.403,23.99c0-5.878,4.766-10.64,10.64-10.64c5.878,0,10.645,4.762,10.645,10.64
	c0,5.877-4.767,10.637-10.645,10.637C18.169,34.627,13.403,29.867,13.403,23.99"/>
<path fill="#04663A" d="M31.426,10.509c0-3.368,2.73-6.098,6.099-6.098c3.37,0,6.098,2.73,6.098,6.098
	c0,3.367-2.728,6.106-6.098,6.106C34.156,16.615,31.426,13.876,31.426,10.509"/>
<path fill="#53AE47" d="M218.766,16.554l-0.738,3.64c-1.74,7.915-2.385,10.467-3.896,18.338l-0.337,0.283l-4.801,0.141l-0.229-0.328
	l1.934-8.107l0.562-2.655c-2.063-0.048-4.124-0.084-6.188-0.084c-1.609,0-2.836,0.022-4.09,0.058
	c-0.707,3.183-1.299,5.99-2.201,10.693l-0.334,0.283l-4.808,0.141l-0.231-0.328l1.932-8.107l0.759-3.534
	c1.267-5.564,1.505-6.784,2.261-11.919l0.328-0.331c2.211-0.284,2.734-0.379,4.99-0.847l0.242,0.329l-0.508,2.336l-0.731,3.64
	l-0.772,3.441c1.73,0.045,3.467,0.072,5.207,0.072c1.836,0,3.049-0.032,5.084-0.075c0.664-3.017,0.931-4.661,1.51-8.565l0.326-0.331
	c2.221-0.284,2.733-0.379,4.996-0.847l0.235,0.329L218.766,16.554"/>
<path fill="#53AE47" d="M160.889,27.137c0.332-1.368,0.563-2.741,0.563-4.064c0-4.788-3.077-5.588-4.825-5.588
	c-7.438,0-8.39,11.548-8.39,13.301c0,3.788,2.274,5.442,4.835,5.442C158.144,36.228,160.034,31.021,160.889,27.137 M165.813,28.609
	c-1.039,4.077-3.938,11.13-12.836,11.13c-6.298,0-9.752-3.27-9.752-9.705c0-0.835,0.065-1.765,0.204-2.732
	c0.025-0.241,0.061-0.478,0.096-0.725c1.711-10.671,6.337-20.789,16.488-20.888c1.354-0.018,4.097-0.155,5.961-0.596l-0.68,4.259
	c-1.875,0.483-4.854,0.734-6.588,0.745c-2.16,0.021-3.652,0.841-4.685,1.834c-0.505,0.488-0.908,1.024-1.215,1.517
	c-0.308,0.485-0.532,0.929-0.695,1.263c1.354-0.423,2.843-0.688,4.515-0.688c6.197,0,9.896,3.461,9.896,9.564
	C166.523,25.244,166.239,26.949,165.813,28.609"/>
<path fill="#53AE47" d="M226.894,24.24c1.126-0.981,1.78-1.595,3.334-3.1c1.639-1.601,5.647-5.749,6.403-6.548l0.518-0.28h5.423
	l0.142,0.423c-0.473,0.423-0.709,0.614-2.595,2.212c-0.755,0.619-1.219,1.087-2.112,1.886l-6.14,5.657l7.315,13.905l-0.282,0.372
	l-5.238,0.146l-0.375-0.286c-1.228-2.924-1.556-3.58-3.249-7.024l-3.299-6.688c-1.037,4.633-1.682,7.553-2.844,13.617l-0.331,0.283
	l-4.804,0.14l-0.236-0.327l1.931-8.106l0.757-3.534c1.266-5.566,1.502-6.785,2.258-11.92l0.33-0.331
	c2.22-0.284,2.73-0.379,5.002-0.846l0.234,0.328l-0.509,2.336l-0.739,3.64L226.894,24.24"/>
<path fill="#53AE47" d="M185.193,32.83c-0.516,0.417-1.034,0.9-1.559,1.219c-1.229,0.761-2.842,1.094-4.113,1.094
	c-4.316,0-5.543-3.639-5.543-5.904c0-0.233,0.095-6.331,5.062-9.725c2.802-1.89,5.878-1.985,7.437-1.985
	c0.715,0,1.414,0.045,2.132,0.045L185.193,32.83 M194.242,14.401l-0.23-0.378l-6.539-0.045c-4.357,0-10.461,0.276-14.869,5.439
	c-1.984,2.357-3.789,6.423-3.789,10.15c0,5.902,3.931,9.312,8.761,9.312c4.022,0,6.11-1.752,6.915-2.411l-0.331,1.89l0.229,0.335
	l4.451-0.096l0.338-0.331c0.945-5.63,1.279-7.419,2.939-14.693L194.242,14.401z"/>
<path fill="#04663A" d="M69.459,39.607c-5.132,0-12.523-1.628-9.843-13.484c1.002-4.449,4.077-13.88,16.723-13.88
	c12.3,0,10.469,10.077,9.707,13.633C83.785,35.899,77.661,39.607,69.459,39.607 M71.139,34.373c3.608,0,5.294-3.757,6.391-8.595
	c0.768-3.407,1.602-8.402-2.742-8.402c-3.711,0-5.354,3.559-6.445,8.402C67.325,30.272,67.091,34.373,71.139,34.373"/>
<path fill="#04663A" d="M99.528,39.018c-2.372,0-6.275,0-7.914,0.048l-0.28-0.293c0.46-1.582,1.569-5.832,2.743-11.021
	c0.943-4.197,1.786-7.899,2.11-9.583c-1.986,0.048-5.049,0.048-6.542,0.102l-0.267-0.346c0.391-1.282,0.946-3.505,1.294-4.838
	l0.451-0.253c1.323,0.05,6.354,0.101,10.398,0.101c4.895,0,9.651-0.101,10.653-0.152l0.343,0.254
	c-0.366,1.18-1.014,3.606-1.345,4.834l-0.462,0.298c-1.957-0.044-3.441-0.044-6.262-0.044c-0.247,1.078-1.012,4.247-2.279,9.874
	c-0.96,4.253-1.745,8.151-2.202,10.622L99.528,39.018z"/>
<path fill="#04663A" d="M126.98,18.759c-1.588,0-3.375,0.054-4.162,0.054c-0.248,1.084-1.213,5.138-2.104,9.087
	c-1.051,4.644-1.98,8.991-2.345,10.816l-0.468,0.301c-2.419,0-5.528,0-8.011,0.049l-0.277-0.293
	c0.507-2.03,1.806-7.562,3.048-13.045c1.252-5.526,2.328-10.966,2.68-12.495l0.418-0.349c2.666,0,5.361,0.102,11.982,0.102
	c5.189,0,10.209-0.153,12.893-0.203l0.227,0.304c-0.35,1.333-1.842,7.703-3.266,14.022c-1.15,5.089-2.211,10.173-2.481,11.607
	l-0.366,0.301c-2.122,0-6.027,0-8.061,0.049l-0.219-0.35c0.438-1.723,1.396-5.726,2.508-10.667c0.848-3.753,1.707-7.755,2.045-9.237
	C130.227,18.813,128.467,18.759,126.98,18.759"/>
</svg>
