<?xml version="1.0" encoding="UTF-8" standalone="no"?>
<!-- Generator: Adobe Illustrator 21.0.1, SVG Export Plug-In . SVG Version: 6.00 Build 0)  -->

<svg
   xmlns:dc="http://purl.org/dc/elements/1.1/"
   xmlns:cc="http://creativecommons.org/ns#"
   xmlns:rdf="http://www.w3.org/1999/02/22-rdf-syntax-ns#"
   xmlns:svg="http://www.w3.org/2000/svg"
   xmlns="http://www.w3.org/2000/svg"
   xmlns:sodipodi="http://sodipodi.sourceforge.net/DTD/sodipodi-0.dtd"
   xmlns:inkscape="http://www.inkscape.org/namespaces/inkscape"
   version="1.1"
   id="Layer_1"
   x="0px"
   y="0px"
   viewBox="0 0 305.9 50.900001"
   xml:space="preserve"
   inkscape:version="0.91 r13725"
   sodipodi:docname="ru-psb.svg"
   width="305.89999"
   height="50.900002"><metadata
     id="metadata45"><rdf:RDF><cc:Work
         rdf:about=""><dc:format>image/svg+xml</dc:format><dc:type
           rdf:resource="http://purl.org/dc/dcmitype/StillImage" /><dc:title></dc:title></cc:Work></rdf:RDF></metadata><defs
     id="defs43" /><sodipodi:namedview
     pagecolor="#ffffff"
     bordercolor="#666666"
     borderopacity="1"
     objecttolerance="10"
     gridtolerance="10"
     guidetolerance="10"
     inkscape:pageopacity="0"
     inkscape:pageshadow="2"
     inkscape:window-width="664"
     inkscape:window-height="480"
     id="namedview41"
     showgrid="false"
     fit-margin-top="0"
     fit-margin-left="0"
     fit-margin-right="0"
     fit-margin-bottom="0"
     inkscape:zoom="0.97056984"
     inkscape:cx="236.3258"
     inkscape:cy="25.75"
     inkscape:window-x="0"
     inkscape:window-y="0"
     inkscape:window-maximized="0"
     inkscape:current-layer="Layer_1" /><style
     type="text/css"
     id="style3">
	.st0{fill:#0D4BA0;}
	.st1{fill:#F26522;}
	.st2{fill-rule:evenodd;clip-rule:evenodd;fill:#0D4BA0;}
</style><g
     id="g5"
     transform="translate(-5.8,-6.7)"><path
       class="st0"
       d="m 41.1,26.3 0,0 c 1,-0.4 2.3,-1.2 2.3,-3.3 0,-2.4 -2,-3.5 -4.7,-3.5 l -4.7,0 0,5.8 -2.8,0 c -3.7,0 -4.5,2.6 -4.5,4 0,2 1.2,2.9 3.3,4 1.3,0.7 2.9,1.1 2.9,2.5 0,0.8 -0.7,1.7 -2.3,1.7 l -2.9,0 c 0.4,-0.7 0.6,-1.6 0.6,-2.3 0,-0.9 -0.3,-4.6 -5.5,-4.6 l -4.2,0 0,14.3 2.9,0 0,-6.2 1.2,1.2 7.8,0 c 3.7,0 5.4,-1.9 5.4,-4.1 0,-0.8 -0.1,-1.4 -0.4,-2 l 2.9,0 c 4.5,0 5.6,-2.3 5.6,-4 0.1,-1.9 -1,-3.3 -2.9,-3.5 z m -18.2,11.2 -1.3,0 0,-4.7 1.3,0 c 1.7,0 2.4,1 2.4,2.3 0.1,1.1 -0.6,2.4 -2.4,2.4 z m 11.1,-8.9 0,3.5 c -0.7,-0.4 -1.5,-0.7 -2.3,-1.1 -0.9,-0.4 -1.9,-0.9 -1.9,-2.1 0,-0.6 0.4,-1.4 2.1,-1.4 l 1.2,0 0.9,0 1.1,0 -1.1,1.1 z m 2.9,-6.9 1.3,0 c 2.2,0 2.3,1.4 2.3,1.8 0,0.6 -0.3,1.8 -2.2,1.8 l -1.4,0 0,-3.6 z m 1.6,9.7 -1.6,0 0,-4 1.6,0 c 2,0 2.5,1 2.5,2 0.1,1 -0.7,2 -2.5,2 z"
       id="path7"
       inkscape:connector-curvature="0"
       style="fill:#0d4ba0" /><path
       class="st0"
       d="M 56.6,19.1 C 56.6,12.3 51.1,6.7 44.2,6.7 l -17.5,0 c -5.6,0 -10.4,3.8 -11.9,9 l 21.2,0 c 8.1,0 11.6,3.8 11.6,12.6 l 0,20 c 5.2,-1.5 9,-6.3 9,-11.9 l 0,-17.3 z"
       id="path9"
       inkscape:connector-curvature="0"
       style="fill:#0d4ba0" /><path
       class="st1"
       d="m 5.8,45.2 c 0,6.8 5.5,12.4 12.4,12.4 l 17.5,0 c 5.6,0 10.4,-3.8 11.9,-9 l -21.2,0 C 18.3,48.6 14.8,44.8 14.8,36 l 0,-20 c -5.2,1.5 -9,6.3 -9,11.9 l 0,17.3 z"
       id="path11"
       inkscape:connector-curvature="0"
       style="fill:#f26522" /><g
       id="g13"><polygon
         class="st2"
         points="280.7,33.2 286.4,33.2 286.4,26.4 291.7,26.4 291.7,44.8 286.4,44.8 286.4,36.6 280.7,36.6 280.7,44.8 275.3,44.8 275.3,44.8 275.3,26.4 280.7,26.4 "
         id="polygon15"
         style="clip-rule:evenodd;fill:#0d4ba0;fill-rule:evenodd" /><path
         class="st2"
         d="m 267.7,41.9 0,-6.5 c -2.2,0.3 -5.5,0.7 -5.5,3.9 -0.1,3.9 4.1,3.1 5.5,2.6 l 0,0 z m -10.4,-2.4 c 0,-2.5 1.3,-4.4 3.8,-5.4 1.1,-0.4 2.2,-0.7 3.1,-0.8 0.9,-0.2 2.1,-0.3 3.5,-0.5 l 0,-0.6 c 0.1,-2.7 -1.4,-3.2 -3.3,-3.2 -1.7,0 -3.5,0.5 -5,1.4 L 259,27.1 c 2.2,-0.8 4.4,-1.2 6.6,-1.2 1.4,0 2.7,0.1 3.6,0.5 2,0.6 3.1,2.2 3.3,4 0.1,0.4 0.1,1 0.1,1.9 l 0,11.4 c -4.6,1.9 -15.3,3.1 -15.3,-4.2 l 0,0 z"
         id="path17"
         inkscape:connector-curvature="0"
         style="clip-rule:evenodd;fill:#0d4ba0;fill-rule:evenodd" /><path
         class="st2"
         d="m 249.3,41.3 c -0.5,0.7 -1.2,1.1 -2.2,1.1 -3.1,0 -3.8,-5 -3.8,-7.3 0,-1.9 0.4,-3.9 1.5,-5.1 0.5,-0.7 1.3,-1 2.2,-1 1.2,0 2.3,0.7 2.8,2.2 0.6,1.6 0.8,3.2 0.8,4.7 0.1,1.9 -0.2,3.9 -1.3,5.4 l 0,0 z m 6.4,-9.8 c -0.4,-1.4 -1.2,-2.7 -2.3,-3.8 -1.8,-1.7 -8.2,-3.1 -11.3,1.5 0,-4.9 2.1,-7.3 6.2,-8 4.1,-0.6 6.4,-1.1 6.4,-1.1 l -0.4,-3.9 c 0,0 -4.2,0.6 -7.7,1.4 -3.8,0.9 -7.4,3.6 -8.3,9.1 -0.6,3.6 -0.5,9.8 0.5,12.7 1.2,3.3 3.7,5.9 8.3,5.9 6.2,0 9.1,-3.8 9.1,-9.8 0.1,-1.3 -0.1,-2.6 -0.5,-4 l 0,0 z"
         id="path19"
         inkscape:connector-curvature="0"
         style="clip-rule:evenodd;fill:#0d4ba0;fill-rule:evenodd" /><polygon
         class="st2"
         points="300,34.9 305.9,26.4 311.1,26.4 305.1,34.6 311.7,44.8 305.8,44.8 300,35.7 300,44.8 294.8,44.8 294.8,44.8 294.8,26.4 300,26.4 "
         id="polygon21"
         style="clip-rule:evenodd;fill:#0d4ba0;fill-rule:evenodd" /><path
         class="st2"
         d="m 211,45.2 c -1.7,0 -3.4,-0.1 -5,-0.7 l 0.4,-3.2 c 1.2,0.7 2.4,1.1 3.8,1.1 2.7,0 4.1,-1.2 4,-2.9 0,-0.8 -0.2,-1.5 -0.8,-1.9 -0.5,-0.4 -1.1,-0.7 -1.8,-0.7 -0.7,-0.1 -1.3,-0.1 -1.8,-0.1 l -1.3,0 0,-2.8 0.4,0 c 2,0 5,-0.1 5,-2.6 0,-2 -2,-2.4 -3.1,-2.4 -1.7,0 -3,0.4 -4.5,1.2 l -0.3,-3 c 1.8,-0.7 3.9,-1 5.9,-1 4.3,-0.1 6.9,1.8 6.8,4.7 0.1,2.4 -2,3.8 -3.4,4.2 0.9,0.2 1.7,0.4 2.3,0.9 1.3,0.9 1.8,2.3 1.8,3.6 0,2.4 -1.3,4 -3.1,4.9 -1.7,0.5 -3.7,0.7 -5.3,0.7 l 0,0 z"
         id="path23"
         inkscape:connector-curvature="0"
         style="clip-rule:evenodd;fill:#0d4ba0;fill-rule:evenodd" /><path
         class="st2"
         d="m 163.6,45.2 c -6.1,0 -9.4,-3.7 -9.4,-9.7 0,-6 3.6,-9.5 9.5,-9.5 1.6,0 2.8,0.2 4.3,0.7 l -0.6,3.3 c -1,-0.5 -1.8,-0.8 -2.9,-0.8 -3.6,0 -5.1,2.9 -5.1,6.1 0,3.2 1.5,6.5 5.1,6.5 1.1,0 2,-0.2 2.9,-0.7 l 0.4,3.4 c -1.3,0.5 -2.6,0.7 -4.2,0.7 l 0,0 z"
         id="path25"
         inkscape:connector-curvature="0"
         style="clip-rule:evenodd;fill:#0d4ba0;fill-rule:evenodd" /><path
         class="st2"
         d="m 221.8,44.8 0,-18.4 5.2,0 0,5.8 c 1.1,0 1.8,0 2.1,0 2.4,0 4.2,0.4 5.3,1.2 1.3,1 2.2,2.8 2.1,4.7 -0.1,6 -6.2,7.1 -9.5,7.1 -3.4,0 -5.2,-0.4 -5.2,-0.4 l 0,0 z m 5.2,-3 c 0,0 4.8,1 4.8,-3.5 0,-0.8 -0.1,-1.5 -0.5,-1.9 -0.5,-0.9 -1.7,-1.1 -3,-1.1 l -0.5,0 -0.2,0 c -0.1,0 -0.2,0 -0.5,0.1 l 0,6.4 -0.1,0 z"
         id="path27"
         inkscape:connector-curvature="0"
         style="clip-rule:evenodd;fill:#0d4ba0;fill-rule:evenodd" /><path
         class="st2"
         d="m 175.9,34.1 0,-5.1 c 0,0 0.5,-0.1 1.8,-0.1 2.5,0 3,1.5 3,2.4 0,1.8 -1.1,2.7 -3.7,2.7 l -1.1,0 0,0.1 z m 1.3,2.8 c 0.5,0 1,0 1.7,0.1 0.6,0 1.2,0.2 1.7,0.6 0.5,0.3 0.7,1 0.7,1.8 0,2 -1.8,2.7 -4.1,2.7 -0.6,0 -1.3,0 -1.3,0 l 0,-5.2 1.3,0 0,0 z m 5.2,-1.9 c 2.2,-0.7 3.3,-2.1 3.3,-4.2 0,-0.9 -0.2,-1.7 -0.6,-2.3 -0.4,-0.7 -1.1,-1.3 -2,-1.6 -1.7,-0.7 -4,-0.9 -6,-0.9 -3.9,0 -6.3,0.4 -6.3,0.4 l 0,18.4 c 0,0 2.6,0.4 6.3,0.4 3.7,0 9.3,-0.9 9.4,-5.6 0,0 0,-0.1 0,-0.2 0.2,-2 -1.1,-4 -4.1,-4.4 l 0,0 z"
         id="path29"
         inkscape:connector-curvature="0"
         style="clip-rule:evenodd;fill:#0d4ba0;fill-rule:evenodd" /><path
         class="st2"
         d="m 198.1,34.4 -1.3,0 c -2.5,0 -3.6,-0.8 -3.6,-2.9 0,-2.1 1.6,-2.6 2.9,-2.6 1.3,0 1.9,0.1 1.9,0.1 l 0,5.4 0.1,0 z M 196.9,26 c -3.9,0 -8.7,0.6 -8.7,5.6 0,2.6 1.3,4.2 3.8,4.9 l -4.9,8.3 5.5,0 3.9,-7.3 1.6,0 0,7.3 5.2,0 0,-18.4 c -0.1,0 -2.6,-0.4 -6.4,-0.4 l 0,0 z"
         id="path31"
         inkscape:connector-curvature="0"
         style="clip-rule:evenodd;fill:#0d4ba0;fill-rule:evenodd" /><polygon
         class="st2"
         points="88.6,44.8 83,44.8 83,23 74.9,23 74.9,44.8 69.3,44.8 69.3,44.8 69.3,19.4 88.6,19.4 "
         id="polygon33"
         style="clip-rule:evenodd;fill:#0d4ba0;fill-rule:evenodd" /><path
         class="st2"
         d="m 103.6,35 c 0,-6.9 -4.8,-6.3 -6.6,-5.9 l 0,12 c 0.7,0.2 6.6,2.4 6.6,-6.1 l 0,0 z m -11.9,17.2 0,-25.3 c 4.6,-0.9 17.1,-3.5 17.1,7.7 0,2.9 -0.8,5.5 -2.3,7.3 -3,3.6 -7.9,3.2 -9.5,2.6 l 0,7.8 -5.3,0 0,-0.1 z"
         id="path35"
         inkscape:connector-curvature="0"
         style="clip-rule:evenodd;fill:#0d4ba0;fill-rule:evenodd" /><path
         class="st2"
         d="m 119.8,42.3 c 1.5,0 2.6,-1.2 3,-2.9 0.4,-1.7 0.5,-2.8 0.5,-4.1 0,-1.8 -0.2,-3.1 -0.7,-4.4 -0.5,-1.4 -1.7,-2.1 -2.7,-2.1 -1.5,0 -2.6,1.1 -3.1,2.6 -0.5,1.4 -0.6,2.9 -0.6,3.9 -0.1,2.3 0.4,7 3.6,7 l 0,0 z m -0.4,2.9 c -6.1,0 -8.7,-3.8 -8.7,-9.6 0,-6 3.1,-9.6 9.2,-9.6 2.2,0 3.9,0.5 5.3,1.5 1.3,1 2.2,2.2 2.6,3.7 0.5,1.5 0.7,2.9 0.7,4.3 -0.1,6.2 -2.7,9.7 -9.1,9.7 l 0,0 z"
         id="path37"
         inkscape:connector-curvature="0"
         style="clip-rule:evenodd;fill:#0d4ba0;fill-rule:evenodd" /><polygon
         class="st2"
         points="141.4,38.9 145.1,26.4 151.2,26.4 152.9,44.8 148.1,44.8 147,31.6 143.1,44.8 138.8,44.8 134.8,31.5 133.8,44.8 129.5,44.8 129.5,44.8 131.4,26.4 137.6,26.4 "
         id="polygon39"
         style="clip-rule:evenodd;fill:#0d4ba0;fill-rule:evenodd" /></g></g></svg>