<?xml version="1.0" encoding="UTF-8" standalone="no"?>
<!-- Generator: Adobe Illustrator 17.0.0, SVG Export Plug-In . SVG Version: 6.00 Build 0)  -->

<svg
   xmlns:dc="http://purl.org/dc/elements/1.1/"
   xmlns:cc="http://creativecommons.org/ns#"
   xmlns:rdf="http://www.w3.org/1999/02/22-rdf-syntax-ns#"
   xmlns:svg="http://www.w3.org/2000/svg"
   xmlns="http://www.w3.org/2000/svg"
   xmlns:sodipodi="http://sodipodi.sourceforge.net/DTD/sodipodi-0.dtd"
   xmlns:inkscape="http://www.inkscape.org/namespaces/inkscape"
   version="1.1"
   id="Слой_1"
   x="0px"
   y="0px"
   width="354.078"
   height="88.316002"
   viewBox="0 0 354.078 88.316"
   enable-background="new 0 0 530.078 108.316"
   xml:space="preserve"
   inkscape:version="0.91 r13725"
   sodipodi:docname="ru-rshb.svg"><metadata
     id="metadata97"><rdf:RDF><cc:Work
         rdf:about=""><dc:format>image/svg+xml</dc:format><dc:type
           rdf:resource="http://purl.org/dc/dcmitype/StillImage" /><dc:title></dc:title></cc:Work></rdf:RDF></metadata><defs
     id="defs95" /><sodipodi:namedview
     pagecolor="#ffffff"
     bordercolor="#666666"
     borderopacity="1"
     objecttolerance="10"
     gridtolerance="10"
     guidetolerance="10"
     inkscape:pageopacity="0"
     inkscape:pageshadow="2"
     inkscape:window-width="1366"
     inkscape:window-height="677"
     id="namedview93"
     showgrid="false"
     inkscape:zoom="1.3902192"
     inkscape:cx="302.64608"
     inkscape:cy="63.438073"
     inkscape:window-x="0"
     inkscape:window-y="0"
     inkscape:window-maximized="0"
     inkscape:current-layer="g3" /><g
     id="g3"
     transform="translate(0,-20.000297)"><path
       d="m 94.756491,58.214288 c 2.08,0 4.400999,0.07 6.407999,1.441 1.341,0.88 2.924,2.643 2.924,5.777 0,3.451 -2.185,7.5 -8.204999,7.5 l -5.073,0 0,9.436 -4.433,0 0,-24.154 8.379,0 z m 0.176,11.195 c 0.986,0 2.393,0.035 3.521999,-1.02 0.775,-0.706 1.199,-1.9 1.199,-2.923 0,-0.95 -0.391,-2.077 -1.163,-2.748 -0.774999,-0.667 -2.006999,-0.986 -3.384999,-0.986 l -4.296,0 0,7.677 4.123,0 z"
       id="path9"
       inkscape:connector-curvature="0"
       style="fill:#ffffff" /><path
       d="m 108.17649,66.241288 c 1.232,-1.163 3.066,-2.184 5.81,-2.184 2.746,0 4.579,1.021 5.809,2.184 1.83,1.724 2.781,4.401 2.781,7.148 0,2.746 -0.951,5.421 -2.781,7.146 -1.23,1.164 -3.063,2.184 -5.809,2.184 -2.743,0 -4.577,-1.02 -5.81,-2.184 -1.832,-1.726 -2.783,-4.4 -2.783,-7.146 0,-2.747 0.951,-5.424 2.783,-7.148 m 2.995,12.218 c 0.385,0.459 1.268,1.301 2.814,1.301 1.552,0 2.43,-0.842 2.814,-1.301 0.284,-0.317 1.343,-1.727 1.343,-5.07 0,-3.345 -1.059,-4.751 -1.343,-5.068 -0.385,-0.461 -1.263,-1.304 -2.814,-1.304 -1.547,0 -2.43,0.844 -2.814,1.304 -0.278,0.317 -1.341,1.723 -1.341,5.068 0,3.343 1.063,4.753 1.341,5.07"
       id="path11"
       inkscape:connector-curvature="0"
       style="fill:#ffffff" /><path
       d="m 136.61649,70.996288 c -0.071,-0.916 -0.423,-1.971 -0.878,-2.643 -0.427,-0.632 -1.273,-1.337 -2.677,-1.337 -1.377,0 -2.293,0.705 -2.852,1.653 -0.884,1.445 -0.951,3.696 -0.951,4.719 0,1.655 0.244,3.627 0.951,4.755 0.456,0.704 1.37,1.617 2.852,1.617 1.054,0 1.933,-0.419 2.604,-1.335 0.527,-0.739 0.879,-1.795 0.95,-2.711 l 3.732,0.457 c -0.213,1.653 -0.949,3.487 -2.253,4.683 -1.095,0.984 -2.784,1.866 -5.179,1.866 -2.671,0 -4.4,-1.057 -5.419,-2.011 -1.374,-1.301 -2.676,-3.622 -2.676,-7.286 0,-3.415 1.16,-5.458 2.075,-6.549 1.302,-1.547 3.523,-2.817 6.129,-2.817 2.217,0 4.049,0.778 5.209,1.973 1.164,1.161 1.868,2.92 2.113,4.506 l -3.73,0.46 z"
       id="path13"
       inkscape:connector-curvature="0"
       style="fill:#ffffff" /><path
       d="m 154.09149,70.996288 c -0.068,-0.916 -0.419,-1.971 -0.878,-2.643 -0.422,-0.632 -1.27,-1.337 -2.68,-1.337 -1.37,0 -2.286,0.705 -2.85,1.653 -0.877,1.445 -0.95,3.696 -0.95,4.719 0,1.655 0.247,3.627 0.95,4.755 0.457,0.704 1.374,1.617 2.85,1.617 1.06,0 1.939,-0.419 2.608,-1.335 0.53,-0.739 0.881,-1.795 0.949,-2.711 l 3.734,0.457 c -0.212,1.653 -0.951,3.487 -2.254,4.683 -1.095,0.984 -2.78,1.866 -5.176,1.866 -2.676,0 -4.4,-1.057 -5.422,-2.011 -1.373,-1.301 -2.677,-3.622 -2.677,-7.286 0,-3.415 1.159,-5.458 2.078,-6.549 1.298,-1.547 3.519,-2.817 6.126,-2.817 2.215,0 4.049,0.778 5.209,1.973 1.164,1.161 1.867,2.92 2.115,4.506 l -3.732,0.46 z"
       id="path15"
       inkscape:connector-curvature="0"
       style="fill:#ffffff" /><path
       d="m 176.65649,77.157288 c -0.634,2.112 -1.901,3.343 -2.957,4.086 -1.405,0.948 -3.239,1.477 -5.177,1.477 -2.428,0 -4.894,-1.021 -6.375,-2.536 -1.372,-1.406 -2.395,-3.838 -2.395,-6.724 0,-3.664 1.515,-6.094 3.167,-7.466 0.957,-0.809 2.751,-1.937 5.46,-1.937 3.418,0 5.602,1.583 6.76,3.203 1.233,1.689 1.799,4.053 1.799,6.094 l 0,0.81 -12.746,0 c 0,0.213 -0.037,1.831 0.598,3.132 0.948,1.975 2.676,2.465 3.875,2.465 0.95,0 2.145,-0.281 3.133,-1.302 0.597,-0.635 0.846,-1.233 0.948,-1.792 l 3.91,0.49 z m -4.155,-5.673 c 0,-1.017 -0.244,-2.179 -0.776,-2.957 -0.665,-0.984 -1.863,-1.654 -3.168,-1.654 -1.337,0 -2.5,0.67 -3.204,1.515 -0.562,0.703 -1.055,1.794 -1.055,3.095 l 8.203,0 z"
       id="path17"
       inkscape:connector-curvature="0"
       style="fill:#ffffff" /><path
       d="m 194.32949,64.412288 0,17.956 -4.09,0 0,-14.929 -4.646,0 c -0.103,2.429 -0.175,3.414 -0.244,5.068 -0.106,1.868 -0.246,5.81 -1.832,7.959 -0.879,1.161 -1.971,1.622 -2.748,1.833 -0.455,0.141 -0.946,0.209 -1.442,0.209 -0.35,0 -0.707,-0.035 -1.052,-0.141 l 0,-3.099 0.345,0 c 0.531,-0.036 1.236,-0.315 1.694,-0.672 1.408,-1.123 1.549,-3.659 1.689,-5.666 0.178,-2.641 0.21,-4.225 0.246,-6.618 l 0.037,-1.901 12.043,0 z"
       id="path19"
       inkscape:connector-curvature="0"
       style="fill:#ffffff" /><path
       d="m 202.72449,70.817288 4.507,0 c 1.162,0 3.419,0.143 4.897,1.623 1.337,1.301 1.475,3.133 1.475,4.118 0,2.57 -1.054,3.871 -1.86,4.541 -0.285,0.213 -1.62,1.27 -4.158,1.27 l -8.941,0 0,-17.956 4.081,0 0,6.404 z m 0,8.59 3.208,0 c 0.776,0 1.617,-0.034 2.323,-0.631 0.42,-0.388 0.915,-1.055 0.915,-2.184 0,-0.984 -0.282,-1.76 -1.09,-2.288 -0.706,-0.46 -1.587,-0.528 -2.148,-0.528 l -3.208,0 0,5.631 z"
       id="path21"
       inkscape:connector-curvature="0"
       style="fill:#ffffff" /><polygon
       points="242.733,66.139 248.859,56.807 243.365,48.184 248.155,48.184 251.467,53.781 254.915,48.184 258.646,48.184 253.4,56.315 259.632,66.139 254.843,66.139 250.76,59.379 246.467,66.139 "
       id="polygon23"
       transform="translate(-28.614509,16.228288)"
       style="fill:#ffffff" /><path
       d="m 234.17349,66.241288 c 1.232,-1.163 3.062,-2.184 5.809,-2.184 2.744,0 4.578,1.021 5.809,2.184 1.832,1.724 2.783,4.401 2.783,7.148 0,2.746 -0.951,5.421 -2.783,7.146 -1.23,1.164 -3.064,2.184 -5.809,2.184 -2.747,0 -4.577,-1.02 -5.809,-2.184 -1.834,-1.726 -2.783,-4.4 -2.783,-7.146 0,-2.747 0.949,-5.424 2.783,-7.148 m 2.993,12.218 c 0.384,0.459 1.263,1.301 2.816,1.301 1.551,0 2.43,-0.842 2.818,-1.301 0.279,-0.317 1.338,-1.727 1.338,-5.07 0,-3.345 -1.059,-4.751 -1.338,-5.068 -0.389,-0.461 -1.268,-1.304 -2.818,-1.304 -1.553,0 -2.432,0.844 -2.816,1.304 -0.279,0.317 -1.339,1.723 -1.339,5.068 0,3.343 1.06,4.753 1.339,5.07"
       id="path25"
       inkscape:connector-curvature="0"
       style="fill:#ffffff" /><path
       d="m 250.75249,69.267288 c 0.527,-2.182 1.902,-3.378 2.887,-3.978 0.6,-0.384 2.254,-1.232 5.07,-1.232 1.762,0 3.557,0.316 4.896,1.06 1.973,1.088 2.461,2.673 2.461,3.8 0,1.232 -0.6,3.589 -3.658,3.94 l 0,0.074 c 1.053,0.142 2.219,0.598 2.92,1.336 0.637,0.67 1.127,1.797 1.127,2.992 0,1.797 -1.055,3.381 -2.395,4.262 -1.619,1.058 -3.842,1.197 -5.49,1.197 -1.66,0 -4.191,-0.178 -5.953,-1.582 -0.984,-0.775 -1.9,-2.115 -2.184,-3.805 l 3.699,-0.633 c 0.137,0.561 0.457,1.407 0.879,1.898 0.916,1.06 2.361,1.162 3.273,1.162 0.92,0 1.904,-0.103 2.678,-0.633 0.705,-0.492 1.057,-1.16 1.057,-2.042 0,-0.741 -0.145,-1.338 -0.774,-1.868 -0.812,-0.664 -1.902,-0.771 -2.924,-0.771 l -1.865,0 0,-2.747 1.865,0 c 0.701,0 1.723,-0.141 2.289,-0.422 0.738,-0.388 1.16,-1.022 1.16,-2.042 0,-0.566 -0.211,-1.094 -0.738,-1.515 -0.814,-0.671 -1.973,-0.704 -2.568,-0.704 -0.811,0 -2.008,0.103 -2.994,0.949 -0.422,0.354 -0.988,1.023 -1.164,2.078 l -3.554,-0.774 z"
       id="path27"
       inkscape:connector-curvature="0"
       style="fill:#ffffff" /><path
       d="m 287.35349,62.438288 -11.654,0 0,5.351 5.178,0 c 1.861,0 3.662,0.144 5.494,1.409 1.791,1.233 2.92,3.063 2.92,5.702 0,2.467 -0.916,4.296 -2.076,5.461 -1.76,1.758 -3.77,2.006 -5.883,2.006 l -11.268,0 0,-24.154 17.289,0 0,4.225 z m -11.654,15.704 4.541,0 c 0.848,0 1.621,-0.037 2.43,-0.848 0.775,-0.774 0.883,-1.651 0.883,-2.319 0,-0.776 -0.213,-1.552 -0.883,-2.222 -0.809,-0.809 -1.826,-0.883 -2.57,-0.883 l -4.4,0 0,6.272 z"
       id="path29"
       inkscape:connector-curvature="0"
       style="fill:#ffffff" /><path
       d="m 292.19149,69.410288 c 0.562,-2.43 2.148,-3.661 3.1,-4.225 1.406,-0.812 3.273,-1.128 5.598,-1.128 2.957,0 5.953,0.39 7.289,3.171 0.701,1.441 0.633,2.992 0.633,4.33 l 0,6.937 c 0,1.443 0.209,2.782 0.525,3.873 l -5.104,0 c -0.142,-0.705 -0.246,-1.656 -0.279,-2.854 -0.674,1.197 -2.291,3.207 -6.023,3.207 -1.654,0 -3.346,-0.421 -4.506,-1.374 -1.129,-0.917 -1.832,-2.394 -1.832,-4.013 0,-1.797 0.773,-3.946 3.836,-5.215 1.973,-0.808 5.176,-1.09 6.623,-1.159 l 1.688,-0.072 0,-0.39 c 0,-0.491 -0.031,-1.548 -0.527,-2.109 -0.666,-0.777 -2.008,-0.812 -2.539,-0.812 -0.734,0 -1.615,0.072 -2.357,0.529 -0.457,0.283 -1.057,0.844 -1.266,1.831 l -4.859,-0.527 z m 9.965,4.471 c -1.76,0.142 -3.522,0.32 -4.508,1.549 -0.285,0.354 -0.562,0.881 -0.562,1.62 0,0.774 0.387,1.304 0.771,1.585 0.494,0.387 1.234,0.562 1.939,0.562 1.055,0 2.289,-0.456 2.994,-1.302 0.104,-0.107 0.947,-1.162 0.947,-3.203 l 0,-0.951 -1.581,0.14 z"
       id="path31"
       inkscape:connector-curvature="0"
       style="fill:#ffffff" /><polygon
       points="346.749,66.139 341.499,66.139 341.499,48.184 346.749,48.184 346.749,54.908 352.415,54.908 352.415,48.184 357.662,48.184 357.662,66.139 352.415,66.139 352.415,58.604 346.749,58.604 "
       id="polygon33"
       transform="translate(-28.614509,16.228288)"
       style="fill:#ffffff" /><path
       d="m 338.37149,64.412288 0,6.899 1.406,0 c 1.514,0 2.148,-0.742 2.535,-1.551 0.74,-1.583 0.705,-2.815 1.375,-4.045 0.531,-0.987 1.232,-1.235 1.691,-1.303 l 4.328,0 c -0.564,0.597 -1.055,1.303 -1.377,1.935 -0.56,1.161 -1.09,3.062 -1.404,3.872 -0.422,1.128 -1.127,2.257 -2.922,2.396 l 0,0.066 c 0.949,0.145 1.934,0.639 2.678,1.729 0.455,0.668 0.773,1.55 1.268,2.923 0.494,1.407 0.703,1.899 1.158,2.989 0.355,0.815 0.562,1.305 1.162,2.045 l -4.93,0 c -0.773,-0.248 -1.303,-0.775 -1.932,-2.608 -0.496,-1.406 -0.566,-1.898 -0.885,-2.673 l -0.246,-0.635 c -0.529,-1.338 -1.233,-1.619 -2.324,-1.619 l -1.582,0 0,7.535 -5.246,0 0,-17.955 5.247,0 z"
       id="path35"
       inkscape:connector-curvature="0"
       style="fill:#ffffff" /><polygon
       points="63.531,46.788 63.531,41.41 55.464,49.295 55.464,54.717 "
       id="polygon37"
       transform="translate(-28.614509,16.228288)"
       style="clip-rule:evenodd;fill:#ffcc00;fill-rule:evenodd" /><polygon
       points="63.531,26.711 63.531,21.633 55.464,29.523 55.464,34.642 "
       id="polygon39"
       transform="translate(-28.614509,16.228288)"
       style="clip-rule:evenodd;fill:#ffcc00;fill-rule:evenodd" /><polygon
       points="63.531,33.354 63.531,28.278 55.464,36.164 55.464,41.284 "
       id="polygon41"
       transform="translate(-28.614509,16.228288)"
       style="clip-rule:evenodd;fill:#ffcc00;fill-rule:evenodd" /><polygon
       points="49.799,18.417 49.799,8.095 48.583,8.095 48.583,17.229 47.51,16.183 47.51,8.095 46.297,8.095 46.297,20.073 54.367,28 54.367,8.095 53.154,8.095 53.154,21.697 52.082,20.65 52.082,8.095 50.862,8.095 50.862,19.461 "
       id="polygon43"
       transform="translate(-28.614509,16.228288)"
       style="clip-rule:evenodd;fill:#ffcc00;fill-rule:evenodd" /><polygon
       points="63.531,39.998 63.531,34.92 55.464,42.807 55.464,47.925 "
       id="polygon45"
       transform="translate(-28.614509,16.228288)"
       style="clip-rule:evenodd;fill:#ffcc00;fill-rule:evenodd" /><polygon
       points="54.367,54.718 54.367,49.295 46.298,41.41 46.298,46.788 "
       id="polygon47"
       transform="translate(-28.614509,16.228288)"
       style="clip-rule:evenodd;fill:#ffcc00;fill-rule:evenodd" /><polygon
       points="58.962,19.46 58.962,8.095 57.752,8.095 57.752,20.646 56.678,21.696 56.678,8.095 55.465,8.095 55.465,28 63.53,20.073 63.53,8.095 62.319,8.095 62.319,16.184 61.251,17.229 61.251,8.095 60.028,8.095 60.028,18.419 "
       id="polygon49"
       transform="translate(-28.614509,16.228288)"
       style="clip-rule:evenodd;fill:#ffcc00;fill-rule:evenodd" /><polygon
       points="54.367,34.643 54.367,29.521 46.298,21.633 46.298,26.711 "
       id="polygon51"
       transform="translate(-28.614509,16.228288)"
       style="clip-rule:evenodd;fill:#ffcc00;fill-rule:evenodd" /><polygon
       points="54.367,41.285 54.367,36.164 46.298,28.278 46.298,33.354 "
       id="polygon53"
       transform="translate(-28.614509,16.228288)"
       style="clip-rule:evenodd;fill:#ffcc00;fill-rule:evenodd" /><polygon
       points="54.367,47.925 54.367,42.806 46.298,34.921 46.298,39.998 "
       id="polygon55"
       transform="translate(-28.614509,16.228288)"
       style="clip-rule:evenodd;fill:#ffcc00;fill-rule:evenodd" /><path
       d="m 65.758491,60.410288 -18.772,0 -0.851,0 c 0.408,-0.647 0.651,-1.408 0.651,-2.233 0,-2.333 -1.898,-4.228 -4.234,-4.228 -2.333,0 -4.224,1.895 -4.224,4.228 0,0.92 0.296,1.758 0.79,2.451 -0.365,0.244 -0.612,0.657 -0.612,1.132 0,0.473 0.247,0.888 0.612,1.127 -0.494,0.694 -0.79,1.535 -0.79,2.454 0,2.335 1.891,4.228 4.224,4.228 2.336,0 4.234,-1.893 4.234,-4.228 0,-0.823 -0.243,-1.585 -0.651,-2.233 l 3.548,0 11.05,0 0,0.885 -1.441,0 0,1.245 1.441,0 0,1.292 -1.441,0 0,2.375 1.441,0 0,-1.077 2.137,0 0,1.077 1.438,0 0,-2.375 -1.438,0 0,-1.292 1.438,0 0,-1.245 -1.438,0 0,-0.885 2.889,0 c 0.557,0 1.016,-0.468 1.016,-1.035 l 0,-0.628 c -0.001,-0.566 -0.46,-1.035 -1.017,-1.035 m -21.023,4.931 c 0,1.203 -0.979,2.179 -2.183,2.179 -1.198,0 -2.179,-0.976 -2.179,-2.179 0,-0.441 0.131,-0.854 0.358,-1.198 l 0.61,-1.026 c -0.375,-0.331 -0.616,-0.816 -0.616,-1.357 0,-0.543 0.241,-1.028 0.616,-1.359 l -0.61,-1.029 c -0.228,-0.342 -0.358,-0.751 -0.358,-1.195 0,-1.201 0.98,-2.179 2.179,-2.179 1.204,0 2.183,0.978 2.183,2.179 0,0.889 -1.024,3.008 -1.024,3.008 l 0,1.148 c -0.001,-0.001 1.024,2.117 1.024,3.008"
       id="path57"
       inkscape:connector-curvature="0"
       style="clip-rule:evenodd;fill:#ffcc00;fill-rule:evenodd" /><path
       d="m 10.343491,57.841288 0,5.268 c 0,5.039 2.195,8.274 3.458,9.536 0.738,0.725 8.243,8.107 8.349,8.211 2.334,2.28 2.742,3.037 3.262,4.334 l 0,-5.841 c 0,-5.2 -2.635,-7.217 -3.99,-8.54 -3.161,-3.087 -5.281,-5.113 -6.987,-6.812 -3.236,-3.241 -4.092,-6.156 -4.092,-6.156"
       id="path59"
       inkscape:connector-curvature="0"
       style="clip-rule:evenodd;fill:#ffffff;fill-rule:evenodd" /><path
       d="m 21.421491,83.853288 c -3.161,-3.093 -5.281,-5.119 -6.986,-6.82 -3.236,-3.238 -4.092,-5.432 -4.092,-5.432 l 0,4.547 c 0,5.039 2.288,8.254 3.452,9.571 0.737,0.72 8.264,8.078 8.354,8.175 2.335,2.28 2.742,3.365 3.261,4.662 l 0,-6.168 c 0,-5.201 -2.634,-7.217 -3.989,-8.535"
       id="path61"
       inkscape:connector-curvature="0"
       style="clip-rule:evenodd;fill:#ffffff;fill-rule:evenodd" /><path
       d="m 38.061491,34.080288 c -0.585,0 -1.163,0.015 -1.735,0.04 l 0,2.47 c 0.572,-0.03 1.15,-0.043 1.735,-0.043 18.651,0 33.776,15.122 33.776,33.777 0,18.652 -15.125,33.775002 -33.776,33.775002 -18.659,0 -33.7819998,-15.123002 -33.7819998,-33.775002 0,-10.353 4.6599998,-19.617 11.9939998,-25.812 l 0,-3.155 c -8.7809998,6.616 -14.4569998,17.129 -14.4569998,28.967 0,20.014 16.2259998,36.240002 36.2449998,36.240002 20.013,0 36.238,-16.227002 36.238,-36.240002 0,-20.017 -16.226,-36.244 -36.238,-36.244"
       id="path63"
       inkscape:connector-curvature="0"
       style="clip-rule:evenodd;fill:#ffffff;fill-rule:evenodd" /><path
       d="m 63.697491,89.243288 c 0.565,-0.764 1.095,-1.557 1.595,-2.368 l 0,-4.865 -1.595,0 0,7.233 z"
       id="path65"
       inkscape:connector-curvature="0"
       style="clip-rule:evenodd;fill:#ffffff;fill-rule:evenodd" /><path
       d="m 68.345491,80.240288 c 0.226,-0.7 0.434,-1.405 0.612,-2.117 l -5.262,0 0,1.294 0.8,0 c 1.404,-0.043 2.968,-0.06 3.85,0.823"
       id="path67"
       inkscape:connector-curvature="0"
       style="clip-rule:evenodd;fill:#ffffff;fill-rule:evenodd" /><rect
       x="31.90649"
       y="77.947289"
       width="1.425"
       height="14.449"
       id="rect69"
       style="clip-rule:evenodd;fill:#ffffff;fill-rule:evenodd" /><path
       d="m 28.619491,75.157288 4.71,0 c 1.218,0 2.066,0.253 2.563,0.726 0.497,0.469 0.726,1.316 0.726,2.535 l 0,13.504 c 0,1.225 -0.229,2.07 -0.726,2.542 -0.748,0.746 -2.12,0.746 -3.265,0.746 -0.25,-0.022 -0.501,-0.022 -0.723,-0.022 l 0,6.399002 c 0.473,0.093 0.946,0.177 1.424,0.247 l 0,-5.253002 c 2.169,0 3.595,-0.741 4.259,-2.224 l 0,7.822002 c 0.155,0.002 0.31,0.006 0.472,0.006 0.299,0 0.598,-0.004 0.897,-0.012 l 0,-23.502002 c 0,-1.247 0.252,-2.118 0.72,-2.616 0.47,-0.496 1.325,-0.744 2.521,-0.744 1.223,0 3.008,-0.179 3.934,0.744 0.476,0.498 0.697,1.369 0.697,2.616 l 0,6.923 -3.233,0 0,-7.396 -1.398,0 0,23.720002 c 0.469,-0.059 0.932,-0.131 1.398,-0.213 l 0,-14.715002 3.232,0 0,13.971002 c 0.666,-0.188 1.32,-0.402 1.97,-0.632 l 0,-12.789002 c 0,-1.446 0.347,-2.54 1.823,-3.037 l -1.626,-8.899 3.265,0 0.545,9.721 0.403,0 0.546,-9.721 3.441,0 -1.843,8.899 c 1.545,0.542 1.843,1.493 1.843,3.037 l 0,8.261 c 0.957,-0.721 1.872,-1.492 2.741,-2.313 l 0,-17.956 9.564,0 c 0.065,-0.429 0.129,-0.86 0.184,-1.297 l -22.383,0 0.316,1.607 c -0.711,-1.298 -2.053,-1.955 -4.021,-1.955 l -1.398,0 c -2.373,0 -3.814,0.945 -4.361,2.825 -0.507,-1.97 -2.009,-2.95 -4.506,-2.95 l -6.131,0 0,26.524002 c 0.471,0.171 0.945,0.328 1.421,0.478 l 0,-25.607002 z m 29.719,10.213 -1.545,-1.472 1.545,-7.984 0,9.456 z"
       id="path71"
       inkscape:connector-curvature="0"
       style="clip-rule:evenodd;fill:#ffffff;fill-rule:evenodd" /><path
       d="m 52.259491,98.850288 c 0.497,-0.248 0.986,-0.509 1.471,-0.779 l 0,-10.935 -1.471,0 0,11.714 z"
       id="path73"
       inkscape:connector-curvature="0"
       style="clip-rule:evenodd;fill:#ffffff;fill-rule:evenodd" /><rect
       x="0"
       y="0"
       width="530.078"
       height="108.316"
       id="rect91"
       style="fill:none" /></g></svg>