<?xml version="1.0" encoding="utf-8"?>
<!-- Generator: Adobe Illustrator 18.1.0, SVG Export Plug-In . SVG Version: 6.00 Build 0)  -->
<svg version="1.1" id="RGS_Eagle" xmlns="http://www.w3.org/2000/svg" xmlns:xlink="http://www.w3.org/1999/xlink" x="0px" y="0px"
	 viewBox="0 0 72.8 30.9" enable-background="new 0 0 72.8 30.9" xml:space="preserve">
<g>
</g>
<g>
	<g>
		<path fill="#FFFFFF" d="M70.8,17.5c-6.8,0-13.3-2.5-18.4-7c-0.1-0.1-0.5-0.5-0.6-0.5c-0.7-0.7-1.4-1.1-2-1.4
			C49.1,8.2,48.3,8,47.5,8c-0.1,0-0.2,0-0.4,0c-0.7,0-1.3,0.2-1.7,0.6c-0.5,0.4-0.8,1-0.9,1.8c-0.1,0.6-0.4,1-1,1.2l0,0l0,0
			c0,0,0,0-0.1,0c-0.3,0.1-0.6,0.2-0.9,0.2l-0.1,0V10c-0.3,0-0.5,0-0.7,0l-0.2,0l1-1.8l0.1,0c0.2,0.1,0.4,0.1,0.7,0.1
			c0.5,0,0.8-0.1,1.2-0.4l-0.8-0.4l0-0.1l0.1-0.1h0.1c0.5,0,0.9,0.1,1.3,0.3c0,0,0.1,0.1,0.1,0.1c0.1-0.1,0.1-0.2,0.1-0.3
			c0.1-0.4-0.1-0.7-0.4-0.9c-0.3-0.2-0.8-0.4-1.1-0.4l-0.2,0L44,5.5l-0.5,0V5l0,0C43.9,4.7,44,4.5,44,4.2c0-0.5-0.4-1-1-1h-0.1
			l-0.1,0.3l-0.1,0l-0.1-0.1l0,0c0-0.2-0.2-0.4-0.4-0.5l-0.1,0V2.5h0.3v0h-0.3V2.2h0v0.3h-0.3v0h0.3v0.4l-0.1,0
			c-0.2,0-0.4,0.2-0.4,0.5l0,0l-0.1,0.1l-0.1,0l-0.1-0.3h-0.1c-0.4,0-0.8,0.3-0.9,0.7l-0.1,0L40,3.9v0c0-0.4-0.1-0.8-0.4-1.1
			c-0.2-0.3-0.6-0.5-0.9-0.6l-0.1,0l0.1-0.4h-0.9l-0.1,0.3h-0.8l0,0l-0.1,0l0.2-0.2C36.9,1.8,37,1.6,37,1.5c0-0.3-0.2-0.5-0.4-0.5
			l-0.1,0V0.5h0.4V0.4h-0.4V0h-0.1v0.4H36v0.1h0.4v0.4l-0.1,0C36,1,35.8,1.2,35.8,1.5c0,0.1,0,0.3,0.1,0.4l0.2,0.2l-0.1,0l0,0h-0.8
			l-0.1-0.3h-0.9l0.1,0.3l-0.1,0c-0.4,0.1-0.7,0.3-0.9,0.6c-0.2,0.3-0.4,0.7-0.4,1.1l-0.1,0.1l-0.1,0c-0.1-0.2-0.2-0.4-0.3-0.5
			c-0.2-0.1-0.4-0.2-0.6-0.2h-0.1l-0.1,0.3l-0.1,0l-0.1-0.1l0,0c0-0.2-0.2-0.4-0.4-0.5l-0.1,0V2.5h0.3v0h-0.3V2.2h0v0.3h-0.3v0h0.3
			v0.4l-0.1,0c-0.2,0-0.4,0.2-0.4,0.5l0,0l-0.1,0.1l-0.1,0L30,3.2h-0.1c-0.5,0-1,0.4-1,1c0,0.3,0.1,0.5,0.4,0.8l0,0v0.6l-0.5,0
			l0.3,0.5l-0.2,0c-0.3,0.1-0.7,0.2-1.1,0.4c-0.3,0.2-0.4,0.5-0.4,0.9c0,0.1,0.1,0.2,0.1,0.3c0.1,0,0.1-0.1,0.1-0.1
			c0.3-0.2,0.8-0.3,1.3-0.3h0.1l0.1,0.1l0,0.1L28.4,8c0.4,0.3,0.7,0.4,1.2,0.4c0.2,0,0.4,0,0.7-0.1l0.1,0l1,1.7l-0.2,0
			c-0.2,0-0.5,0-0.7,0v1.8l-0.1,0c-0.3,0-0.6-0.1-0.9-0.2c0,0,0,0-0.1,0l0,0l0,0c-0.7-0.2-1-0.6-1-1.2c-0.1-0.8-0.4-1.4-0.9-1.8
			c-0.4-0.3-1-0.5-1.7-0.6c-0.1,0-0.2,0-0.4,0c-0.8,0-1.6,0.2-2.4,0.6c-0.6,0.3-1.3,0.8-2,1.4c0,0-0.4,0.4-0.6,0.5
			c-5.1,4.5-11.6,7-18.4,7c-0.5,0-1,0-1.4,0c0,0.7,0.2,1.3,0.6,1.6c0.3,0.3,0.7,0.5,1.3,0.5c0,0,0,0,0,0c0.5,0,1,0,1.4-0.1l0.1,0
			l0,0.1c0.2,0.7,0.6,1.1,1.3,1.3c0.1,0,0.3,0,0.5,0c0.2,0,0.3,0,0.5,0c0.3,0,0.6-0.1,0.9-0.1l0.1,0l0,0.1c0.3,0.7,0.7,1.1,1.4,1.1
			c0.1,0,0.1,0,0.2,0c0.2,0,0.5,0,0.8-0.1c0.3-0.1,0.6-0.1,0.9-0.2l0.1,0l0,0.1c0.3,0.7,0.8,1,1.5,1h0c0.3,0,0.6-0.1,0.9-0.2
			c0.3-0.1,0.6-0.2,0.9-0.3l0.1,0l0.1,0.1c0.2,0.4,0.6,0.7,1,0.8l0,0.1l-0.1,0.1h-4.4h-0.2l0,0.2c0,0.4-0.2,0.9-0.9,0.9H9.7v5.4
			l0,0.2l0.2,0c0.4,0,0.9,0.2,0.9,0.9v0.2h51.1h0.2l0-0.2c0-0.4,0.2-0.9,0.9-0.9h0.2l0-5.6H63c-0.4,0-0.9-0.2-0.9-0.9v-0.2h-4.6
			l-0.1-0.1l0-0.1c0.4-0.1,0.8-0.4,1-0.8l0.1-0.1l0.1,0c0.2,0.1,0.6,0.2,0.9,0.3c0.4,0.1,0.7,0.2,0.9,0.2h0c0.7,0,1.1-0.3,1.5-1
			l0-0.1l0.1,0c0.3,0.1,0.6,0.2,0.9,0.2c0.3,0.1,0.6,0.1,0.8,0.1c0.1,0,0.1,0,0.2,0c0.7-0.1,1.2-0.4,1.4-1.1l0-0.1l0.1,0
			c0.3,0.1,0.6,0.1,0.9,0.1c0.2,0,0.4,0,0.5,0c0.2,0,0.3,0,0.5,0c0.7-0.1,1.1-0.5,1.3-1.3l0-0.1l0.1,0c0.5,0,1,0.1,1.4,0.1
			c0,0,0,0,0,0l0,0c0.5,0,1-0.2,1.3-0.5c0.4-0.4,0.6-0.9,0.6-1.6C71.7,17.4,71.3,17.5,70.8,17.5z M34.6,23.2H16.3l-0.1-0.1l0-0.1
			c0.1,0,0.2-0.1,0.3-0.1c2-0.9,4-2,5.9-3.3l0.1-0.1l0.1,0.1c0.4,0.3,0.8,0.5,1.3,0.5c0.1,0,0.2,0,0.2,0l0.1,0l0,0.1
			c0.4,0.4,0.9,0.7,1.4,0.7c0.1,0,0.2,0,0.3,0l0.1,0l0,0.1c0.4,0.4,0.8,0.6,1.3,0.6c0.2,0,0.3,0,0.5-0.1l0.1,0l0.1,0.1
			c0.4,0.3,0.8,0.5,1.3,0.5c0.5,0,0.9-0.2,1.2-0.5c0-0.1,0.1-0.1,0.1-0.1l0.1-0.1l0.1,0c1.2,0.6,2.5,1.3,3.9,1.7l0,0.1L34.6,23.2z
			 M36.4,8.8c-0.7,0-1.4,0-2.2-0.1l0,0l-2-2.2l0.1-0.1c0.3-0.2,0.5-0.5,0.6-0.9h-0.6V5l0,0c0.2-0.2,0.3-0.4,0.4-0.7l0.1-0.1l0.1,0.1
			c0.1,0.7,0.7,1.2,1.3,1.4l0.1,0v0.8h4.2V5.6l0.1,0c0.7-0.2,1.2-0.7,1.3-1.4l0.1,0l0.1,0.1c0,0.3,0.1,0.5,0.4,0.7l0,0v0.6H40
			C40,6,40.2,6.3,40.6,6.5l0.1,0.1l-2,2.2l0,0C37.8,8.8,37.1,8.8,36.4,8.8L36.4,8.8z M56.5,23.2H38.2l-0.1-0.1l0-0.1
			c1.3-0.4,2.4-1,3.9-1.7l0.1,0l0.1,0.1c0,0,0.1,0.1,0.1,0.1c0.3,0.3,0.7,0.5,1.2,0.5h0c0.5,0,0.9-0.2,1.3-0.5l0.1-0.1l0.1,0
			c0.2,0,0.3,0.1,0.5,0.1c0.5,0,1-0.2,1.3-0.6l0-0.1l0.1,0c0.1,0,0.2,0,0.3,0c0.5,0,1-0.2,1.4-0.7l0-0.1l0.1,0c0.1,0,0.2,0,0.2,0
			c0.5,0,0.9-0.2,1.3-0.5l0.1-0.1l0.1,0.1c1.8,1.3,3.8,2.4,5.9,3.3c0.1,0,0.2,0.1,0.3,0.1l0,0.1L56.5,23.2z"/>
		<path fill="#BF914D" d="M14.2,27.9h1.9V25h-2.7v4.1h0.9V27.9z M14.2,25.9h1V27h-1V25.9z M57.8,29.1l0.5-1.6h0.2l0.5,1.6h0.9
			l-0.8-2.1l0.7-2h-0.9l-0.5,1.6h-0.2L57.9,25H57l0.7,2l-0.8,2.1H57.8z M49.4,27.9h1.9V25h-2.7v4.1h0.9V27.9z M49.4,25.9h1V27h-1
			V25.9z M72.3,17.4l0-0.1l-0.1,0c-0.5,0-0.9,0-1.4,0c-7,0-13.4-2.6-18.3-6.9c-0.1-0.1-0.6-0.5-0.6-0.5c-1.4-1.2-2.8-2.2-4.8-2
			c-1.3,0.1-2.5,0.7-2.7,2.4c-0.1,0.5-0.3,0.9-0.9,1.1c0,0,0,0-0.1,0c-0.3,0.1-0.5,0.2-0.8,0.2V9.9c-0.3,0-0.6,0-0.8,0l0.8-1.5
			c0.2,0.1,0.4,0.1,0.7,0.1c0.6,0,0.9-0.2,1.4-0.6l-1-0.5h0.1c0.4,0,0.9,0.1,1.2,0.3c0,0,0.2,0.2,0.2,0.2c0.1-0.2,0.2-0.3,0.2-0.5
			c0.2-0.9-0.7-1.3-1.5-1.5l0.3-0.6l-0.6,0V5c0.3-0.2,0.4-0.5,0.4-0.9c0-0.6-0.5-1.1-1.1-1.1h-0.2l-0.1,0.4l0,0
			c0-0.3-0.2-0.5-0.5-0.6V2.6h0.3V2.4h-0.3V2.1h-0.3v0.3h-0.3v0.2h0.3v0.2c-0.3,0.1-0.5,0.3-0.5,0.6l0,0l-0.1-0.4h-0.2
			c-0.5,0-0.9,0.3-1.1,0.8v0c0-0.9-0.6-1.6-1.4-1.8l0.1-0.4h-1.2l-0.1,0.3h-0.6c0.1-0.1,0.2-0.3,0.2-0.4c0-0.3-0.2-0.6-0.5-0.7V0.6
			H37V0.3h-0.4v-0.4h-0.3v0.4h-0.4v0.3h0.4v0.2c-0.3,0.1-0.5,0.3-0.5,0.7c0,0.2,0.1,0.3,0.2,0.4h-0.6l-0.1-0.3H34L34.1,2
			c-0.8,0.2-1.4,1-1.4,1.8c-0.1-0.5-0.6-0.8-1.1-0.8h-0.2l-0.1,0.4l0,0c0-0.3-0.2-0.5-0.5-0.6V2.6h0.3V2.4h-0.3V2.1h-0.3v0.3h-0.3
			v0.2h0.3v0.2c-0.3,0.1-0.5,0.3-0.5,0.6l0,0l-0.1-0.4h-0.2c-0.6,0-1.1,0.5-1.1,1.1c0,0.4,0.2,0.6,0.4,0.9v0.4l-0.6,0L28.9,6
			c-0.8,0.1-1.7,0.5-1.5,1.5c0,0.2,0.1,0.3,0.2,0.5c0,0,0.2-0.1,0.2-0.2c0.4-0.2,0.8-0.3,1.2-0.3h0.1l-1,0.5
			c0.5,0.3,0.8,0.6,1.4,0.6c0.2,0,0.5,0,0.7-0.1l0.8,1.5c-0.2,0-0.5,0-0.8,0v1.7c-0.3,0-0.6-0.1-0.8-0.2c0,0,0,0-0.1,0
			c-0.7-0.2-0.9-0.6-0.9-1.1C28.2,8.5,27,8,25.7,7.9c-2-0.1-3.4,0.8-4.8,2c0,0-0.4,0.4-0.6,0.5C15.5,14.7,9.1,17.3,2,17.3
			c-0.5,0-0.9,0-1.4,0l-0.1,0l0,0.1c0,1.2,0.5,2.3,2,2.2c0.5,0,1,0,1.4-0.1c0.2,0.9,0.8,1.2,1.4,1.3c0.3,0.1,0.7,0,1,0
			c0.3,0,0.6-0.1,0.9-0.1c0.3,0.8,0.9,1.1,1.5,1.2c0.3,0,0.7,0,1-0.1c0.3-0.1,0.6-0.1,0.9-0.2c0.4,0.8,1,1,1.6,1
			c0.3,0,0.7-0.1,1-0.2c0.3-0.1,0.6-0.2,0.9-0.3c0.2,0.4,0.6,0.7,1.1,0.9h-4.4l-0.3,0l0,0.3c0,0.1,0,0.8-0.8,0.8H9.6v5.5l0,0.3
			l0.3,0c0.1,0,0.8,0,0.8,0.8v0.3h51.3l0.3,0l0-0.3c0-0.1,0-0.8,0.8-0.8h0.3l0-5.8l-0.3,0c-0.1,0-0.8,0-0.8-0.8v-0.3h-4.7
			c0.5-0.1,0.8-0.5,1.1-0.9c0.3,0.1,0.6,0.2,0.9,0.3c0.3,0.1,0.7,0.2,1,0.2c0.6,0,1.2-0.3,1.6-1c0.3,0.1,0.6,0.2,0.9,0.2
			c0.3,0.1,0.7,0.1,1,0.1c0.6,0,1.2-0.4,1.5-1.2c0.3,0.1,0.6,0.1,0.9,0.1c0.4,0,0.7,0,1,0c0.7-0.1,1.2-0.5,1.4-1.3
			c0.5,0,1,0.1,1.4,0.1C71.7,19.7,72.3,18.6,72.3,17.4z M57.4,14.6c-0.3,0.3-0.8,0.7-1.6,0.3c-0.6-0.3-1.5-0.9-3.3-2.3
			c0.6-0.1,0.9-0.4,1.1-0.5C54.5,12.9,56.4,14,57.4,14.6z M44.9,16.6c0.4,0,0.8-0.2,1.1-0.4l0,0c1.1,1,2.6,2.3,3.8,3.1
			c-0.6,0.5-1.2,0.5-1.6,0.2C47.1,18.6,45.5,17.2,44.9,16.6z M48.1,20c-0.7,0.6-1.3,0.4-1.7,0.1c-0.8-0.7-1.7-1.4-3.3-3
			c0.4,0,0.8-0.2,1.1-0.4l0,0C45.4,17.8,46.7,18.9,48.1,20z M46.6,16c0.4,0,0.8-0.2,1.1-0.5c1.5,1.3,2.4,2,3.8,3
			c-0.4,0.4-1.1,0.6-1.6,0.2C49.1,18.1,47.5,16.9,46.6,16z M51.4,17.8c-1.1-0.7-2.5-1.9-3.3-2.6c0.4,0,0.8-0.2,1.1-0.5
			c0.7,0.6,2.3,1.9,3.8,2.8C52.7,18,52,18.2,51.4,17.8z M53,16.9c-1.1-0.7-2.3-1.6-3.3-2.5c0.4,0,0.8-0.2,1.1-0.5
			c1.9,1.6,3.4,2.4,3.8,2.7C54.2,17.1,53.5,17.3,53,16.9z M54.4,15.9c-0.9-0.6-1.7-1.1-3.3-2.4c0.4,0,0.8-0.2,1.1-0.5
			c0.8,0.6,2,1.5,3.8,2.6C55.6,16.1,54.9,16.3,54.4,15.9z M42.6,12.3c0.3,0,0.7-0.1,1-0.2c0,0,0.1,0,0.1,0c0.9-0.3,1.3-0.8,1.3-1.6
			c0.2-1.6,1.3-2,2.6-1.9c1.6,0.1,2.8,0.9,3.9,1.9c0.2,0.2,0.4,0.3,0.6,0.5c0.4,0.3,0.7,0.6,1.1,0.9c-0.4,0.4-1.1,0.5-1.6,0.1
			c-0.5-0.5-1-0.9-1.5-1.4c-0.1,0.1-0.3,0.2-0.4,0.3c0.7,0.7,1.5,1.4,2.2,2.1c-0.4,0.4-1.1,0.5-1.6,0c-0.1-0.1-0.2-0.2-0.3-0.3
			c-0.4-0.4-0.8-0.8-1.2-1.2c-0.2,0.1-0.3,0.2-0.5,0.3c0.5,0.5,1,1,1.6,1.5c0.2,0.2,0.4,0.4,0.7,0.6c-0.4,0.4-1.1,0.5-1.6,0
			c-0.3-0.2-0.5-0.5-0.8-0.7c-0.3-0.3-0.6-0.6-0.8-0.9c-0.2,0.1-0.3,0.2-0.5,0.2c0.5,0.6,1.1,1.1,1.7,1.7c0.2,0.2,0.4,0.4,0.6,0.5
			c-0.5,0.4-1.1,0.4-1.6,0c-0.4-0.4-0.8-0.8-1.2-1.2c-0.2-0.2-0.3-0.3-0.5-0.5c-0.2,0.1-0.3,0.1-0.5,0.2c0.6,0.6,1.1,1.2,1.7,1.8
			c0.2,0.2,0.3,0.3,0.5,0.5c-0.5,0.3-1.1,0.4-1.7-0.1c-0.6-0.6-1.2-1.2-1.7-1.8l0,0c-0.2,0.1-0.3,0.1-0.5,0.2
			c0.7,0.8,1.4,1.6,2.2,2.3c-0.5,0.3-1.1,0.4-1.7-0.1c-0.5-0.5-1-1-1.4-1.5V12.3z M42.6,14.9c0.4,0.5,0.9,0.9,1.3,1.4
			c-0.4,0.3-0.9,0.3-1.3,0.1V14.9z M42.6,17.3c1.1,1.1,2.5,2.4,3.7,3.3c-0.4,0.4-1.1,0.5-1.7,0.1c-0.7-0.6-1.4-1.2-2-1.8V17.3z
			 M42.6,19.5c0.6,0.6,1.3,1.2,1.8,1.6c-0.3,0.3-1.1,0.6-1.7,0c0,0-0.1-0.1-0.1-0.1V19.5z M42.3,21.5c0.6,0.6,1.8,0.8,2.7,0
			c0.7,0.2,1.5-0.1,1.9-0.6c0.7,0.2,1.4-0.2,1.8-0.7c0.6,0.1,1.2-0.2,1.6-0.6c1.8,1.3,3.8,2.4,5.9,3.3c0.1,0,0.2,0.1,0.3,0.1H38.2
			c1.4-0.4,2.6-1,3.9-1.7C42.2,21.4,42.2,21.5,42.3,21.5z M41.4,9.8c-0.2,0-0.4-0.1-0.6-0.1l0.5-0.8c0.1,0.1,0.1,0.2,0.2,0.2
			c0.1,0,0.2,0.1,0.3,0.1L41.4,9.8z M41.4,6.4c-0.5,0-1-0.2-1.2-0.6h2.1l1.3,0l-0.4,0.6L41.4,6.4z M41.4,7.2
			c0.1,0.2,0.1,0.3,0.3,0.4l-0.4,0.7l0,0c-0.2,0.3-0.6,0-0.4-0.3L41.4,7.2z M41.3,6.8l-0.8,1c-0.2,0.3-0.7,0-0.4-0.3c0,0,0,0,0,0
			l0.7-0.7C41,6.7,41.2,6.7,41.3,6.8z M40.2,8.2L39.6,9c-0.1-0.1-0.3-0.3-0.4-0.4l0.6-0.7c0,0.1,0.1,0.2,0.2,0.2
			C40,8.1,40.1,8.2,40.2,8.2z M40.5,8.4c0,0.1,0.1,0.2,0.2,0.2c0.1,0.1,0.2,0.1,0.3,0.1l-0.5,0.9c-0.2-0.1-0.4-0.2-0.6-0.4L40.5,8.4
			z M42,8.6c-0.2,0.3-0.6,0-0.5-0.2L42,7.8c0.1,0.1,0.3,0.1,0.5,0.1L42,8.6z M41.7,6.8c0.1,0,0.2,0,0.3,0c0.1,0.2,0.3,0.4,0.5,0.4
			l0.2-0.4l0.2,0h0.1l-0.4,0.8C42,7.5,41.7,7.2,41.7,6.8z M44,8c-0.2,0.1-0.4,0.2-0.7,0.2c-0.2,0-0.4,0-0.5-0.1l0.1-0.1l0.2-0.4
			L44,8z M43.7,6.3c0.6,0.1,1.5,0.3,1.4,1.1c-0.4-0.2-0.9-0.3-1.3-0.3h-0.5l0.2-0.4L43.7,6.3z M43,3.4c0.4,0,0.7,0.3,0.7,0.8
			c0,0.2-0.1,0.4-0.2,0.5h-0.8L43,3.4z M42.1,3.1c0.1,0,0.3,0.1,0.3,0.2c0,0.1-0.1,0.2-0.3,0.2s-0.2-0.1-0.2-0.2
			C41.8,3.3,41.9,3.1,42.1,3.1z M42.1,4c0.2,0,0.4-0.1,0.5-0.3l-0.3,1.1h-0.5l-0.3-1.1C41.6,3.9,41.8,4,42.1,4z M43.3,5.1v0.4
			l-1.8,0h-0.7V5.1H43.3z M41.1,3.4l0.3,1.3h-0.8c-0.1-0.1-0.2-0.3-0.2-0.5C40.4,3.8,40.7,3.4,41.1,3.4z M39.7,3.9
			c0,0.9-0.7,1.6-1.6,1.6h-0.4l0.8-3.1C39.3,2.5,39.7,3.1,39.7,3.9z M38.3,5.8v0.4h-3.8V5.8h0.1h0.5h2.5h0.5H38.3z M37.9,2h0.5
			l-0.9,3.5h-0.5L37.9,2z M36.4,1.2c0.2,0,0.3,0.2,0.3,0.3s-0.2,0.3-0.3,0.3c-0.2,0-0.3-0.2-0.3-0.3S36.2,1.2,36.4,1.2z M36.7,2.1
			l-0.3,1.2l-0.3-1.2c0.1,0.1,0.2,0.1,0.3,0.1C36.5,2.2,36.6,2.2,36.7,2.1z M35.8,2.3l0.6,2.3l0.6-2.3h0.4l-0.9,3.1h-0.3l-0.9-3.1
			H35.8z M34.9,2l0.9,3.5h-0.5L34.5,2H34.9z M34.2,2.3L35,5.4h-0.4c-0.9,0-1.6-0.7-1.6-1.6C33.1,3.1,33.6,2.5,34.2,2.3z M32.8,4.3
			c0.2,0.7,0.7,1.3,1.4,1.5v0.8h4.5V5.7C39.3,5.5,39.9,5,40,4.2c0,0.3,0.2,0.6,0.4,0.8v0.4h-0.6c0.1,0.6,0.3,1,0.7,1.1l-1.9,2
			c-0.7,0.1-1.5,0.1-2.2,0.1c-0.7,0-1.5-0.1-2.2-0.1l-1.9-2c0.4-0.2,0.6-0.5,0.7-1.1h-0.6V5C32.6,4.8,32.8,4.6,32.8,4.3z M31.4,6.4
			c-0.4,0-1.9,0-1.9,0l-0.4-0.6l3.4,0C32.4,6.3,31.8,6.4,31.4,6.4z M32,6.7l0.7,0.7c0,0,0,0,0,0c0.3,0.3-0.1,0.6-0.4,0.3l-0.8-1
			C31.7,6.7,31.8,6.7,32,6.7z M32,7.9c0.2,0.3-0.3,0.6-0.4,0.3l0,0l-0.4-0.7c0.1-0.1,0.2-0.2,0.3-0.4L32,7.9z M32.1,8.6
			c0.1-0.1,0.2-0.1,0.2-0.2L33,9.2c-0.2,0.2-0.4,0.3-0.6,0.4l-0.5-0.9C31.9,8.7,32,8.6,32.1,8.6z M32.6,8.2c0.1,0,0.2,0,0.2-0.1
			C32.9,8,33,7.9,33,7.9l0.6,0.7c-0.2,0.2-0.3,0.3-0.4,0.4L32.6,8.2z M31.7,3.4c0.4,0,0.7,0.3,0.7,0.8c0,0.2-0.1,0.4-0.2,0.5h-0.8
			L31.7,3.4z M30.8,3.1c0.1,0,0.2,0.1,0.2,0.2c0,0.1-0.1,0.2-0.2,0.2c-0.1,0-0.2-0.1-0.2-0.2C30.5,3.3,30.6,3.1,30.8,3.1z M30.8,4
			c0.2,0,0.4-0.1,0.5-0.3L31,4.7h-0.5l-0.3-1.1C30.3,3.9,30.5,4,30.8,4z M32,5.1v0.4l-2.5,0V5.1H32z M29.1,4.2
			c0-0.4,0.3-0.7,0.7-0.8l0.3,1.3h-0.8C29.2,4.6,29.1,4.4,29.1,4.2z M29,7.1c-0.4,0-0.9,0.1-1.3,0.3c-0.1-0.8,0.8-1,1.4-1.1l0.2,0.4
			l0.2,0.4H29z M29.5,8.1c-0.3,0-0.5,0-0.7-0.2l0.9-0.5L30,7.9l0.1,0.1C29.9,8.1,29.7,8.1,29.5,8.1z M30.2,7.6l-0.4-0.8h0.1l0.2,0
			l0.2,0.4c0.2,0,0.4-0.1,0.5-0.4c0.1,0,0.2,0,0.3,0C31.1,7.2,30.8,7.5,30.2,7.6z M30.8,8.6l-0.4-0.7c0.2,0,0.4-0.1,0.5-0.1l0.4,0.7
			C31.4,8.7,30.9,8.9,30.8,8.6z M31,9.1c0.1,0,0.2,0,0.3-0.1c0.1,0,0.2-0.1,0.2-0.2l0.5,0.8c-0.2,0.1-0.4,0.1-0.6,0.1L31,9.1z
			 M30.8,10.5c1.3-0.1,2.1-0.3,3.1-1.3c0.8,0.1,1.7,0.2,2.5,0.2h0c0.8,0,1.7-0.1,2.5-0.2c0.9,1,1.7,1.3,3.1,1.3c0,0,0,10.2,0,10.3
			c-0.5,0.3-3.2,1.7-5.6,2.2c-2.4-0.4-4.8-1.8-5.6-2.2c0,0,0,0,0,0V10.5z M30.6,21.5c0-0.1,0.1-0.1,0.1-0.1c1.3,0.7,2.5,1.3,3.9,1.7
			H16.3c0.1,0,0.2-0.1,0.3-0.1c2.1-0.9,4-2,5.9-3.3c0.4,0.4,1,0.6,1.6,0.6c0.4,0.5,1.1,0.8,1.8,0.7c0.5,0.5,1.2,0.8,1.9,0.6
			C28.7,22.3,30,22.1,30.6,21.5z M22,14c0.3,0.3,0.7,0.5,1.1,0.5c-1,0.9-2.2,1.8-3.3,2.5c-0.6,0.4-1.3,0.2-1.6-0.3
			C18.6,16.4,20.1,15.5,22,14z M16.8,15.6c1.8-1,3-2,3.8-2.6c0.3,0.3,0.7,0.5,1.1,0.5c-1.6,1.3-2.4,1.8-3.3,2.4
			C17.9,16.3,17.2,16.1,16.8,15.6z M23.5,14.8c0.4,0.3,0.7,0.5,1.1,0.5c-0.7,0.7-2.2,1.9-3.3,2.6c-0.6,0.4-1.3,0.2-1.6-0.2
			C21.3,16.6,22.9,15.4,23.5,14.8z M25.1,15.5c0.3,0.2,0.7,0.4,1.1,0.5c-1,0.9-2.6,2.2-3.3,2.7c-0.6,0.4-1.3,0.2-1.6-0.2
			C22.7,17.5,23.7,16.8,25.1,15.5z M28.2,20.7c-0.6,0.4-1.2,0.3-1.7-0.1c1.2-1,2.6-2.2,3.7-3.3v1.5C29.6,19.4,28.9,20.1,28.2,20.7z
			 M30.2,19.5V21c0,0,0,0-0.1,0.1c-0.6,0.6-1.4,0.3-1.7,0C28.9,20.7,29.6,20.1,30.2,19.5z M28.9,16.3c0.5-0.5,0.9-0.9,1.3-1.4v1.5
			C29.8,16.7,29.3,16.6,28.9,16.3z M29.7,17.1c-1.6,1.6-2.5,2.3-3.3,3c-0.3,0.3-1,0.5-1.7-0.1c1.4-1.1,2.7-2.2,3.8-3.3l0,0
			C28.9,16.9,29.3,17.1,29.7,17.1z M24.6,19.4c-0.5,0.3-1.1,0.4-1.6-0.2c1.2-0.8,2.7-2.1,3.8-3.1l0,0c0.4,0.3,0.7,0.4,1.1,0.4
			C27.3,17.2,25.7,18.6,24.6,19.4z M20.7,10.9c0.2-0.2,0.4-0.3,0.6-0.5c1.1-1,2.2-1.8,3.9-1.9c1.3-0.1,2.5,0.3,2.6,1.9
			c0.1,0.8,0.5,1.3,1.3,1.6c0,0,0.1,0,0.1,0c0.3,0.1,0.7,0.2,1,0.2v1.9c-0.4,0.5-0.9,1-1.4,1.5c-0.5,0.5-1.2,0.4-1.7,0.1
			c0.8-0.7,1.5-1.5,2.2-2.3c-0.2-0.1-0.4-0.1-0.5-0.2l0,0c-0.5,0.6-1.1,1.2-1.7,1.8c-0.5,0.5-1.2,0.4-1.7,0.1
			c0.2-0.2,0.3-0.3,0.5-0.5c0.6-0.6,1.2-1.2,1.7-1.8c-0.2-0.1-0.3-0.1-0.5-0.2c-0.2,0.2-0.3,0.4-0.5,0.5c-0.4,0.4-0.8,0.8-1.2,1.2
			c-0.6,0.5-1.2,0.4-1.6,0c0.2-0.2,0.4-0.3,0.6-0.5c0.6-0.5,1.1-1.1,1.7-1.7c-0.2-0.1-0.3-0.1-0.5-0.2c-0.3,0.3-0.6,0.6-0.8,0.9
			c-0.3,0.2-0.5,0.5-0.8,0.7c-0.6,0.5-1.2,0.4-1.6,0c0.2-0.2,0.4-0.4,0.7-0.6c0.5-0.5,1.1-1,1.6-1.5c-0.2-0.1-0.3-0.2-0.5-0.3
			c-0.4,0.4-0.8,0.8-1.2,1.2c-0.1,0.1-0.2,0.2-0.3,0.3c-0.6,0.4-1.2,0.3-1.6,0c0.8-0.6,1.5-1.3,2.2-2.1c-0.1-0.1-0.3-0.2-0.4-0.3
			c-0.5,0.5-1,1-1.5,1.4c-0.6,0.4-1.2,0.3-1.6-0.1C20,11.5,20.4,11.2,20.7,10.9z M19.2,12.1c0.2,0.1,0.5,0.4,1.1,0.5
			c-1.8,1.4-2.7,2-3.3,2.3c-0.8,0.4-1.3,0-1.6-0.3C16.4,14,18.3,12.9,19.2,12.1z M3.4,19c-1,0.1-2,0-2.2-1.1C4,18,6.5,17.7,8.5,17.2
			c3.5-0.8,5.8-2,6.5-2.4c0.5,0.6,0.9,0.7,1,0.7c-3.6,1.9-6.3,2.6-8.5,3C6,18.8,4.7,18.9,3.4,19z M6.5,20.3
			c-0.8,0.1-1.6,0.2-1.9-0.9c4.9-0.5,8.8-1.9,11.8-3.6c0.3,0.4,0.6,0.6,1,0.7C11.9,19.7,6.9,20.3,6.5,20.3z M9.5,21.4
			C8.6,21.5,8.1,21,8,20.6c4.9-0.9,8.4-2.8,9.9-3.7c0.2,0.2,0.6,0.6,1,0.7c-2,1.2-4,2.1-5.6,2.7C11.2,21,10.1,21.3,9.5,21.4z
			 M12.9,22.1c-0.7,0.2-1.2,0-1.6-0.7c4.1-1.2,7-3,8-3.5c0.3,0.3,0.6,0.5,1,0.6c-1.7,1.1-3.6,2-5.4,2.8
			C14.4,21.5,13.6,21.9,12.9,22.1z M14.8,21.9c1.2-0.5,3.3-1.3,6.1-3.2c0.4,0.4,0.9,0.6,1,0.6c-2.3,1.5-3.5,2.1-3.7,2.2
			c-0.2,0.1-0.9,0.5-1.9,0.9C15.5,22.8,15.1,22.4,14.8,21.9z M61.6,23.7c0.1,0.7,0.6,1,1.1,1v4.7c-0.7,0.1-1,0.6-1,1.1H11.2
			c-0.1-0.7-0.6-1-1.1-1v-4.7c0.7-0.1,1-0.6,1-1.1H61.6z M56.4,22.4c-1-0.4-1.7-0.8-1.9-0.9c-0.2-0.1-1.3-0.6-3.7-2.2
			c0.2,0,0.6-0.2,1-0.6c2.8,1.8,5,2.7,6.1,3.2C57.7,22.4,57.3,22.8,56.4,22.4z M59.9,22.1c-0.6-0.2-1.5-0.5-2-0.8
			c-1.8-0.8-3.6-1.7-5.4-2.8c0.4-0.1,0.7-0.3,1-0.6c0.9,0.6,3.9,2.4,8,3.5C61.1,22,60.6,22.2,59.9,22.1z M63.3,21.4
			c-0.6-0.1-1.7-0.4-3.8-1.1C58,19.7,56,18.8,54,17.6c0.4-0.1,0.8-0.4,1-0.7c1.4,0.8,5,2.7,9.9,3.7C64.7,21,64.2,21.5,63.3,21.4z
			 M66.3,20.3c-0.4-0.1-5.5-0.7-10.9-3.8c0.4-0.1,0.7-0.3,1-0.7c3,1.7,6.9,3.1,11.8,3.6C67.9,20.5,67.1,20.4,66.3,20.3z M69.4,19
			c-1.3-0.1-2.7-0.2-4.1-0.5c-2.2-0.4-4.9-1.1-8.5-3c0.1,0,0.5-0.1,1-0.7c0.7,0.4,3,1.6,6.5,2.4c2,0.5,4.5,0.8,7.3,0.7
			C71.5,19,70.4,19.1,69.4,19z M42.7,27.8h-0.9v0.4h-1v-2.3h1v0.4h0.9V25H40v4.1h2.7V27.8z M38.2,27.8h-0.9v0.4h-1v-2.3h1v0.4h0.9
			V25h-2.7v4.1h2.7V27.8z M45.1,29.1H46v-3.2h0.9V25h-2.7v0.9h0.9V29.1z M53.7,28.2h1l0.1,1h0.9L55.2,25h-2.1l-0.4,4.1h0.9
			L53.7,28.2z M53.9,25.9h0.6l0.1,1.4h-0.8L53.9,25.9z M20.6,25h-2.7v4.1h2.7V25z M19.7,28.2h-1v-2.3h1V28.2z M27.8,25.9h1.5V25
			h-2.4v4.1h0.9V25.9z M33.6,25h-2.7v4.1h2.7V25z M32.8,28.2h-1v-2.3h1V28.2z M25.1,27.8h-0.9v0.4h-1v-2.3h1v0.4h0.9V25h-2.7v4.1
			h2.7V27.8z"/>
	</g>
	<path fill="#9E0918" d="M35.7,14.8h-1.1v0.8h1.1V14.8z M38.8,9.6c-0.8,0.1-1.6,0.1-2.3,0.1c-0.8,0-1.6,0-2.3-0.1
		c-0.7,0.8-1.7,1.2-2.8,1.3v9.6c0.2,0.1,3,1.6,5.2,2c2.2-0.4,4.9-1.9,5.2-2v-9.6C40.5,10.8,39.5,10.4,38.8,9.6z M36.4,21.9
		L36.4,21.9L36.4,21.9c-1.4-0.3-2.9-0.8-4.4-1.6l0-0.4l0,0c0.2,0.1,2.3,1.3,4.4,1.7l0,0l0,0c2-0.4,4.1-1.5,4.4-1.7v0.4
		C39.2,21.1,37.7,21.6,36.4,21.9z M32.4,14.8v-0.5h0.9v2.8h0.4v0.5h-1.2v-0.5h0.4v-2.3H32.4z M34.1,16.1v-1.8h2v3.3h-2v-0.5h1.6v-1
		H34.1z M36.7,14.8v-0.5h2v1.8h-1.5v1h1.4v0.5h-1.9v-2h1.5v-0.8H36.7z M39.2,14.8v-0.5h0.9v2.8h0.4v0.5h-1.2v-0.5h0.4v-2.3H39.2z
		 M40.8,11.8c-0.2,0-0.7-0.2-1.2-0.4c-0.6-0.3-0.9-0.6-1.1-0.7l0,0l0,0c-0.2,0-1.1,0.1-2.1,0.1h0c-1,0-1.8-0.1-2.1-0.1l0,0l0,0
		c-0.1,0.1-0.5,0.4-1.1,0.7c-0.5,0.3-1.1,0.4-1.2,0.4l0,0l0-0.4c0.3-0.1,0.7-0.2,1-0.4c0.7-0.4,1-0.7,1-0.7l0.1-0.1l0.1,0
		c0,0,1,0.1,2.2,0.1c1.1,0,2.1-0.1,2.2-0.1l0.1,0l0.1,0.1c0,0,0.3,0.4,1,0.7c0.4,0.2,0.8,0.3,1,0.4V11.8z"/>
</g>
</svg>
