<?xml version="1.0" encoding="UTF-8" standalone="no"?>
<!-- Generator: Adobe Illustrator 20.0.0, SVG Export Plug-In . SVG Version: 6.00 Build 0)  -->

<svg
   xmlns:dc="http://purl.org/dc/elements/1.1/"
   xmlns:cc="http://creativecommons.org/ns#"
   xmlns:rdf="http://www.w3.org/1999/02/22-rdf-syntax-ns#"
   xmlns:svg="http://www.w3.org/2000/svg"
   xmlns="http://www.w3.org/2000/svg"
   xmlns:sodipodi="http://sodipodi.sourceforge.net/DTD/sodipodi-0.dtd"
   xmlns:inkscape="http://www.inkscape.org/namespaces/inkscape"
   version="1.1"
   id="Слой_1"
   x="0px"
   y="0px"
   viewBox="0 0 1000 200"
   xml:space="preserve"
   inkscape:version="0.91 r13725"
   sodipodi:docname="ru-sberbank.svg"
   width="1000"
   height="200"><metadata
     id="metadata61"><rdf:RDF><cc:Work
         rdf:about=""><dc:format>image/svg+xml</dc:format><dc:type
           rdf:resource="http://purl.org/dc/dcmitype/StillImage" /><dc:title></dc:title></cc:Work></rdf:RDF></metadata><defs
     id="defs59" /><sodipodi:namedview
     pagecolor="#ffffff"
     bordercolor="#666666"
     borderopacity="1"
     objecttolerance="10"
     gridtolerance="10"
     guidetolerance="10"
     inkscape:pageopacity="0"
     inkscape:pageshadow="2"
     inkscape:window-width="1301"
     inkscape:window-height="834"
     id="namedview57"
     showgrid="false"
     inkscape:zoom="0.97035431"
     inkscape:cx="143.73575"
     inkscape:cy="138.28057"
     inkscape:window-x="0"
     inkscape:window-y="0"
     inkscape:window-maximized="0"
     inkscape:current-layer="Слой_1"
     showguides="false" /><style
     type="text/css"
     id="style3">
	.st0{fill:#1A9F29;}
</style><path
     class="st0"
     d="m 260.9537,125.98246 c 4.13736,4.55109 9.1022,7.86098 15.30824,10.3434 6.20604,2.48241 13.23955,3.72362 21.92801,3.72362 4.13736,0 8.27472,-0.41373 11.58461,-0.82747 3.72362,-0.41374 6.61977,-1.24121 9.51592,-2.48242 2.89616,-0.82747 5.37857,-2.06868 7.86099,-2.89615 2.06868,-1.24121 4.13736,-2.06868 5.7923,-2.89615 l -2.89615,-6.20604 c -1.65494,0.82747 -3.30989,1.65494 -4.96483,2.48242 -1.65495,0.82747 -3.30989,1.2412 -5.37857,2.06868 -2.06868,0.41373 -4.13736,1.2412 -6.61978,1.2412 -2.48241,0.41374 -5.37856,0.41374 -8.68845,0.41374 -6.20604,0 -11.58461,-1.24121 -15.30824,-3.72362 -4.13736,-2.48242 -7.03351,-5.79231 -9.51593,-9.51593 -2.06868,-4.13736 -3.72362,-9.1022 -4.55109,-14.48076 -0.82747,-5.79231 -1.24121,-11.58461 -1.24121,-18.20439 0,-4.96483 0.41374,-10.3434 0.82747,-15.72197 0.41374,-5.37857 1.65495,-9.92966 3.72363,-14.06703 2.06868,-4.13736 4.55109,-7.447243 8.27472,-10.343396 3.72362,-2.482416 8.68845,-4.13736 14.89449,-4.13736 5.79231,0 10.75714,1.654944 14.8945,4.551096 4.13736,2.89615 6.61978,7.86098 7.86099,14.06703 l 6.61977,0 0,-20.27307 c -2.06868,-0.827472 -4.13736,-1.654944 -6.61977,-2.482416 -2.48242,-0.827472 -4.96484,-1.241208 -7.86099,-1.654944 -2.89615,-0.413736 -5.37857,-0.413736 -8.27472,-0.827472 -2.48242,0 -4.96483,-0.413737 -7.03351,-0.413737 -9.10219,0 -16.54944,1.241209 -23.16922,3.723625 -6.20604,2.482416 -11.58461,6.20604 -15.72197,10.757134 -4.13736,4.5511 -7.03351,10.3434 -9.10219,16.96318 -2.06868,6.61978 -2.89615,14.48076 -2.89615,22.75548 0,7.86099 0.82747,15.30824 2.89615,21.51428 1.24121,7.03351 4.13736,12.41208 7.86098,16.54944 z"
     id="path5"
     style="fill:#ffffff;fill-opacity:1"
     inkscape:connector-curvature="0" /><path
     class="st0"
     d="m 665.58755,136.73959 c 4.96483,-0.41373 9.92966,-2.06868 13.65329,-4.13736 4.13736,-2.48241 7.44724,-5.7923 9.51592,-10.3434 2.48242,-4.55109 3.72363,-10.75713 3.72363,-18.61812 0,-5.7923 -0.82747,-10.3434 -2.48242,-14.48076 -1.65494,-4.13736 -4.13736,-7.03351 -7.86098,-9.92966 -3.72363,-2.48242 -8.27472,-4.13736 -14.06703,-5.37857 -5.7923,-1.24121 -12.82581,-1.65495 -21.10054,-1.65495 l -8.68845,0 0,-24.410423 c 0,-2.482417 0.41373,-4.137361 1.65494,-4.964833 1.24121,-0.827472 3.30989,-0.827472 6.61978,-0.827472 l 12.41208,0 c 3.72362,0 7.03351,0 9.51593,0.413736 2.48242,0.413736 4.5511,0.827472 5.7923,2.06868 1.65495,1.241209 2.89616,2.896153 3.72363,4.964832 0.82747,2.06868 2.06868,4.96483 2.89615,8.68846 l 5.37857,0 0,-22.755484 -70.33513,0 -5.7923,0 0,3.309888 c 0.41373,0 0.82747,0.413736 2.06868,0.413736 1.24121,0.413736 2.06868,0.827472 2.48241,1.241208 0.41374,0.413736 0.82748,1.241208 1.24121,2.482416 0,1.241208 0.41374,2.482416 0.41374,4.137361 l 0,20.686805 0,37.64998 0,20.6868 c 0,1.65494 0,3.30989 -0.41374,4.13736 0,1.24121 -0.41373,2.06868 -1.24121,2.48241 -0.41373,0.41374 -1.2412,1.24121 -2.48241,1.24121 -1.24121,0.41374 -1.65495,0.41374 -2.06868,0.41374 l 0,3.30989 38.47745,0 c 6.20604,0 11.58461,0 16.96318,-0.82748 z m -25.2379,-7.44724 c -0.82747,-0.82748 -1.24121,-1.65495 -1.24121,-2.89616 0,-1.2412 -0.41374,-2.89615 -0.41374,-4.96483 l 0,-43.02855 8.68846,0 c 7.86099,0 13.65329,2.06868 16.96318,6.20604 3.30989,4.13736 4.96483,10.75714 4.96483,19.85933 0,6.20604 -0.41374,10.75714 -1.65494,14.48076 -1.24121,3.72363 -2.48242,6.20605 -4.5511,8.27473 -2.06868,1.65494 -4.13736,2.89615 -6.20604,3.72362 -2.48242,0.41374 -4.96483,0.82747 -7.44725,0.82747 -2.48242,-0.41373 -4.5511,-0.41373 -5.7923,-0.82747 -1.24121,-0.41374 -2.48242,-0.82747 -3.30989,-1.65494 z"
     id="path7"
     style="fill:#ffffff;fill-opacity:1"
     inkscape:connector-curvature="0" /><path
     class="st0"
     d="m 556.77497,134.25718 c -0.41374,0 -0.82747,-0.41374 -2.06868,-0.41374 -1.24121,-0.41373 -2.06868,-0.82747 -2.48242,-1.24121 -0.41373,-0.41373 -0.82747,-1.2412 -1.24121,-2.48241 0,-1.24121 -0.41373,-2.48242 -0.41373,-4.13736 l 0,-28.54779 10.3434,0 c 5.37857,0 10.3434,-0.41373 15.30823,-1.24121 4.96484,-0.82747 9.1022,-2.48241 12.82582,-4.55109 3.72362,-2.48242 6.61978,-5.37857 8.68846,-9.92967 2.06868,-4.13736 3.30988,-9.92966 3.30988,-16.96318 0,-6.61977 -1.2412,-11.99834 -2.89615,-15.72196 -2.06868,-3.72363 -4.96483,-7.033518 -8.27472,-9.102198 -3.30989,-2.06868 -7.44725,-3.309888 -11.99834,-3.723624 -4.5511,-0.413736 -9.1022,-0.827472 -14.06703,-0.827472 l -34.75383,0 -5.7923,0 0,3.309888 c 0.41374,0 0.82747,0.413736 2.06868,0.413736 1.24121,0.413736 2.06868,0.827472 2.48242,1.241208 0.41373,0.413736 0.82747,1.241208 1.2412,2.482416 0,1.241208 0.41374,2.482416 0.41374,4.137361 l 0,78.609845 c 0,1.65495 0,3.30989 -0.41374,4.13736 0,1.24121 -0.41373,2.06868 -1.2412,2.48242 -0.41374,0.41373 -1.24121,1.24121 -2.48242,1.24121 -1.24121,0.41373 -1.65494,0.41373 -2.06868,0.41373 l 0,3.30989 33.51262,0 0,-2.89615 0,0 z m -5.79231,-87.298305 c 0,-0.827472 0,-1.654945 0.41374,-2.482417 0,-0.827472 0.41374,-1.241208 0.82747,-1.654944 0.41374,-0.413736 1.24121,-0.827472 2.48242,-0.827472 1.24121,0 2.48242,-0.413736 4.5511,-0.413736 2.48241,0 4.96483,0.413736 7.44724,0.827472 2.48242,0.827472 4.13736,2.06868 6.20604,3.723625 1.65495,1.654944 2.89616,4.137357 4.13736,7.033517 0.82748,2.89615 1.24121,6.61977 1.24121,10.75713 0,8.68846 -1.24121,15.30824 -3.72362,19.85933 -2.48242,4.5511 -7.03351,7.03351 -13.23955,7.03351 l -10.34341,0 0,-43.856015 0,0 z"
     id="path9"
     style="fill:#ffffff;fill-opacity:1"
     inkscape:connector-curvature="0" /><path
     class="st0"
     d="m 509.60906,113.98411 -6.61978,0 c -0.82747,4.13736 -1.65494,7.03352 -2.48241,9.51593 -0.82747,2.48242 -1.65495,4.13736 -3.30989,5.37857 -1.24121,1.24121 -3.30989,2.06868 -5.7923,2.06868 -2.48242,0.41374 -5.79231,0.41374 -10.34341,0.41374 -4.13736,0 -7.44724,0 -9.51592,-0.41374 -2.48242,-0.41374 -4.13736,-0.82747 -5.37857,-1.65494 -1.24121,-0.82748 -2.06868,-2.06868 -2.06868,-3.30989 -0.41374,-1.65495 -0.41374,-3.30989 -0.41374,-5.79231 l 0,-32.27141 13.65329,0 c 1.24121,0 2.48242,0 4.13736,0 1.65494,0 3.30989,0.41374 4.96483,0.41374 1.65495,0 3.30989,0.41373 4.96484,0.82747 1.65494,0.41374 2.89615,0.82747 4.13736,1.65494 l 0,-13.23955 c -1.24121,0.82747 -2.48242,1.24121 -4.13736,1.65495 -1.65495,0.41373 -3.30989,0.82747 -4.96484,0.82747 -1.65494,0.41373 -3.30989,0.41373 -4.96483,0.41373 -1.65494,0 -2.89615,0 -4.13736,0 l -13.65329,0 0,-33.926351 c 0,-2.068681 0.41374,-3.723625 0.82747,-4.551097 0.82747,-0.827472 2.06868,-0.827472 4.13736,-0.827472 l 11.17088,0 c 3.72362,0 7.03351,0 9.51593,0.413736 2.48241,0.413736 4.55109,0.827472 5.7923,2.06868 1.65494,1.241208 2.89615,2.896153 3.72362,4.964834 0.82748,2.06868 2.06868,4.96483 2.89616,8.68846 l 5.37856,0 0,-21.928014 -65.37029,0 -5.7923,0 0,3.309888 c 0.41373,0 0.82747,0.413736 2.06868,0.413736 1.2412,0.413736 2.06868,0.827472 2.48241,1.241208 0.41374,0.413736 0.82747,1.241208 1.24121,2.482416 0,1.241208 0.41374,2.482416 0.41374,4.137361 l 0,78.609845 c 0,1.65495 0,3.30989 -0.41374,4.13736 0,1.24121 -0.41374,2.06868 -1.24121,2.48242 -0.41373,0.41373 -1.24121,1.24121 -2.48241,1.24121 -1.24121,0.41373 -1.65495,0.41373 -2.06868,0.41373 l 0,3.30989 73.64501,0 0,-23.16922 z"
     id="path11"
     style="fill:#ffffff;fill-opacity:1"
     inkscape:connector-curvature="0" /><path
     class="st0"
     d="m 397.07286,136.73959 c 4.96483,-0.41373 9.92966,-2.06868 13.65329,-4.13736 4.13736,-2.48241 7.44725,-5.7923 9.92966,-10.3434 2.48242,-4.55109 3.72363,-10.75713 3.72363,-18.61812 0,-5.7923 -0.82747,-10.3434 -2.48242,-14.48076 -1.65494,-4.13736 -4.13736,-7.03351 -7.86098,-9.92966 -3.72363,-2.48242 -8.27472,-4.13736 -14.06703,-5.37857 -5.7923,-1.24121 -12.82582,-1.65495 -21.10054,-1.65495 l -8.68845,0 0,-24.410423 c 0,-2.482417 0.41373,-4.137361 1.65494,-4.964833 1.24121,-0.827472 3.30989,-0.827472 6.61978,-0.827472 l 12.41208,0 c 3.72362,0 7.03351,0 9.51593,0.413736 2.48241,0.413736 4.55109,0.827472 5.7923,2.06868 1.65495,1.241209 2.89615,2.896153 3.72363,4.964832 0.82747,2.06868 2.06868,4.96483 2.89615,8.68846 l 5.37857,0 0,-22.755484 -70.33513,0 -5.7923,0 0,3.309888 c 0.41373,0 0.82747,0.413736 2.06868,0.413736 1.2412,0.413736 2.06868,0.827472 2.48241,1.241208 0.41374,0.413736 0.82747,1.241208 1.24121,2.482416 0,1.241208 0.41374,2.482416 0.41374,4.137361 l 0,2.068675 0,18.20439 0,37.23624 0,15.30824 c 0,0 0,0 0,0.41373 l 0,5.37857 c 0,1.65495 0,2.89615 -0.41374,4.13736 0,1.24121 -0.41374,2.06868 -1.24121,2.48242 -0.41373,0.41373 -1.24121,1.24121 -2.48241,1.24121 -1.24121,0.41373 -1.65495,0.41373 -2.06868,0.41373 l 0,3.72363 38.47745,0 c 6.20604,0 11.17087,0 16.54944,-0.82748 z m -25.2379,-7.44724 c -0.82747,-0.82748 -1.24121,-1.65495 -1.24121,-2.89616 0,-1.2412 -0.41373,-2.89615 -0.41373,-4.96483 l 0,-43.02855 8.68845,0 c 7.86099,0 13.65329,2.06868 16.96318,6.20604 3.30989,4.13736 4.96483,10.75714 4.96483,19.85933 0,6.20604 -0.41373,10.75714 -1.65494,14.48076 -1.24121,3.72363 -2.48242,6.20605 -4.5511,8.27473 -2.06868,1.65494 -4.13736,2.89615 -6.20604,3.72362 -2.48241,0.41374 -4.96483,0.82747 -7.44725,0.82747 -2.48241,-0.41373 -4.13736,-0.41373 -5.7923,-0.82747 -1.24121,-0.41374 -2.48242,-0.82747 -3.30989,-1.65494 z"
     id="path13"
     style="fill:#ffffff;fill-opacity:1"
     inkscape:connector-curvature="0" /><rect
     x="249.36909"
     y="166.52859"
     class="st0"
     width="750.10345"
     height="9.9296656"
     id="rect15"
     style="fill:#ffffff;fill-opacity:1" /><path
     class="st0"
     d="m 939.4808,99.08962 c 2.06868,2.89615 3.72363,5.37856 5.79231,7.86098 1.65494,2.48242 3.72362,4.96483 5.37857,7.44725 1.65494,2.48241 3.30988,4.96483 5.37856,7.44725 2.06868,2.89615 3.72363,5.37857 5.37857,8.27472 1.65495,2.48241 2.89615,5.37857 4.13736,7.86098 l 34.75383,0.41374 c -3.72362,-3.72363 -7.03351,-7.44725 -10.75714,-11.17087 -3.30989,-3.72363 -6.20604,-7.03352 -8.27472,-9.1022 -3.30989,-3.72362 -6.20604,-7.03351 -8.68845,-9.92966 -2.89616,-3.30989 -5.37857,-6.20604 -7.86099,-9.10219 -2.48242,-2.89616 -4.96483,-6.20605 -7.03351,-9.1022 -2.06868,-2.89615 -4.5511,-6.61977 -6.61978,-9.92966 l 1.65495,-2.06868 c 2.48241,-3.30989 5.37856,-6.61978 8.68845,-10.75714 3.30989,-4.13736 6.61978,-8.27472 10.3434,-11.99835 3.72363,-4.13736 7.03352,-7.860979 10.75714,-11.170868 3.72362,-3.309888 6.61978,-5.792304 9.51593,-7.860984 l -23.99669,0 c -0.82747,2.06868 -2.06868,4.551096 -3.72363,7.447248 -1.65494,2.896153 -3.30988,6.206044 -5.7923,9.515924 -2.06868,3.30989 -4.5511,7.03352 -6.61978,10.75714 -2.48241,3.72363 -4.55109,7.03351 -7.03351,10.3434 -2.48242,3.30989 -4.5511,6.61978 -6.61978,9.1022 -2.06868,2.89615 -3.72362,4.96483 -4.96483,7.03351 2.06868,2.89615 4.13736,5.7923 6.20604,8.68846 z"
     id="path17"
     style="fill:#ffffff;fill-opacity:1"
     inkscape:connector-curvature="0" /><path
     class="st0"
     d="m 936.58465,134.25718 c -0.41374,0 -0.82747,-0.41374 -2.06868,-0.41374 -1.24121,-0.41373 -2.06868,-0.82747 -2.48242,-1.24121 -0.41373,-0.41373 -0.82747,-1.2412 -1.2412,-2.48241 0,-1.24121 -0.41374,-2.48242 -0.41374,-4.13736 l 0,-78.609849 c 0,-1.654944 0,-3.309889 0.41374,-4.137361 0,-1.241208 0.41373,-2.06868 1.2412,-2.482416 0.41374,-0.413736 1.24121,-0.827472 2.48242,-1.241208 1.24121,-0.413736 1.65494,-0.413736 2.06868,-0.413736 l 0,-3.723624 -27.72031,0 -5.79231,0 0,3.309888 c 0.41374,0 0.82747,0.413736 2.06868,0.413736 1.24121,0.413736 2.06868,0.827472 2.48242,1.241208 0.41373,0.413736 0.82747,1.241208 1.24121,2.482416 0,1.241208 0.41373,2.482416 0.41373,4.137361 l 0,78.609845 c 0,1.65495 0,3.30989 -0.41373,4.13736 0,1.24121 -0.41374,2.06868 -1.24121,2.48242 -0.41374,0.41373 -1.24121,1.24121 -2.48242,1.24121 -1.24121,0.41373 -1.65494,0.41373 -2.06868,0.41373 l 0,3.30989 33.51262,0 0,-2.89615 z"
     id="path19"
     style="fill:#ffffff;fill-opacity:1"
     inkscape:connector-curvature="0" /><path
     class="st0"
     d="m 713.99466,125.15499 c 1.24121,-5.79231 3.72363,-14.06703 7.03352,-24.41043 l 32.68514,0 4.5511,13.23955 c 2.06868,5.79231 3.72362,10.75714 4.5511,14.8945 1.2412,4.13736 2.06868,7.03351 2.06868,9.10219 l 26.06537,0 c -1.24121,-2.06868 -2.48242,-4.96483 -4.13736,-8.27472 -1.65495,-3.30989 -3.72363,-8.27472 -5.79231,-14.48076 L 757.43695,48.20008 c -1.24121,-2.89615 -1.65495,-5.378566 -2.06868,-7.447246 -0.41374,-2.06868 -0.41374,-3.723624 -0.82748,-4.964832 l -29.37525,0 0,3.309888 c 0.41373,0 0.82747,0.413736 2.06868,0.413736 1.2412,0.413736 2.06868,0.827472 2.48241,1.241208 0.41374,0.413736 0.82747,1.241208 1.24121,2.482416 0,0.827472 0,1.241208 0,2.06868 0,2.482417 -0.41374,4.96483 -1.24121,6.61978 l -16.54944,40.54613 c -2.89615,7.44725 -5.7923,14.06702 -7.86098,19.03186 -2.06868,4.96483 -4.13736,9.51593 -5.37857,12.82581 -1.65495,3.30989 -2.89615,6.20604 -4.13736,8.27472 -1.24121,2.06868 -2.06868,3.72363 -2.89616,5.37857 l 18.61813,0 c 0.41373,-2.89615 1.2412,-7.03351 2.48241,-12.82581 z m 23.58296,-72.81755 13.65329,41.37361 -28.13405,0 14.48076,-41.37361 z"
     id="path21"
     style="fill:#ffffff;fill-opacity:1"
     inkscape:connector-curvature="0" /><path
     class="st0"
     d="m 830.25449,134.25718 -0.82747,0 c -0.41374,0 -0.82748,-0.41374 -2.06868,-0.41374 -1.24121,-0.41373 -2.06868,-0.82747 -2.48242,-1.24121 -0.41374,-0.41373 -0.82747,-1.2412 -1.24121,-2.48241 0,-1.24121 -0.41373,-2.48242 -0.41373,-4.13736 l 0,-39.30493 39.71866,0 0,38.89119 c 0,1.65495 0,3.30989 -0.41374,4.13736 0,1.24121 -0.41374,2.06868 -1.24121,2.48242 -0.41373,0.41373 -1.24121,1.24121 -2.48241,1.24121 -1.24121,0.41373 -1.65495,0.41373 -2.06868,0.41373 l 0,3.30989 33.51261,0 0,-3.30989 c -0.41373,0 -0.82747,-0.41373 -2.06868,-0.41373 -1.2412,-0.41374 -2.06868,-0.82748 -2.48241,-1.24121 -0.41374,-0.41374 -0.82747,-1.24121 -1.24121,-2.48242 0,-1.24121 -0.41374,-2.48241 -0.41374,-4.13736 l 0,-20.27306 0,-0.82748 0,-37.23624 0,-0.41374 0,-20.273061 c 0,-1.654945 0,-3.309889 0.41374,-4.137361 0,-1.241208 0.41374,-2.06868 1.24121,-2.482416 0.41373,-0.413736 1.24121,-0.827472 2.48241,-1.241208 1.24121,-0.413736 1.65495,-0.413736 2.06868,-0.413736 l 0,-2.896152 -27.72031,0 -4.96483,0 0,3.309888 c 0.41373,0 0.82747,0.413736 2.06868,0.413736 1.24121,0.413736 2.06868,0.827472 2.48241,1.241208 0.41374,0.413736 0.82748,1.241208 1.24121,2.482416 0,1.241208 0.41374,2.482416 0.41374,4.137361 l 0,32.685145 -39.71866,0 0,-32.685145 c 0,-1.654945 0,-3.309889 0.41373,-4.137361 0,-1.241208 0.41374,-2.06868 1.24121,-2.482416 0.41374,-0.413736 1.24121,-0.827472 2.48242,-1.241208 1.24121,-0.413736 1.65494,-0.413736 2.06868,-0.413736 l 0,-3.309888 -27.72032,0 -5.7923,0 0,3.309888 c 0.41374,0 0.82747,0.413736 2.06868,0.413736 1.24121,0.413736 2.06868,0.827472 2.48242,1.241208 0.41373,0.413736 0.82747,1.241208 1.2412,2.482416 0,1.241208 0.41374,2.482416 0.41374,4.137361 l 0,2.482415 0,70.74886 0,0.41374 0,5.37857 c 0,1.65494 0,2.89615 -0.41374,4.13736 0,1.24121 -0.41373,2.06868 -1.2412,2.48241 -0.41374,0.41374 -1.24121,1.24121 -2.48242,1.24121 -1.24121,0.41374 -1.65494,0.41374 -2.06868,0.41374 l 0,3.30989 33.51262,0 0,-3.30989 z"
     id="path23"
     style="fill:#ffffff;fill-opacity:1"
     inkscape:connector-curvature="0" /><path
     class="st0"
     d="m 181.10265,46.131403 c -2.06868,-2.896153 -4.13736,-5.792305 -6.20604,-8.688457 L 60.291725,103.22698 4.8510964,71.3693 C 3.6098883,75.09293 2.7824162,78.40281 2.3686802,82.12644 L 60.705461,115.63906 181.10265,46.131403 Z"
     id="path25"
     style="fill:#ffffff;fill-opacity:1"
     inkscape:connector-curvature="0" /><path
     class="st0"
     d="M 60.291725,128.05114 0.71373604,93.71105 C 0.3,95.77973 0.3,98.26214 0.3,100.33082 0.3,154.53024 44.15602,198.8 98.769177,198.8 c 54.199423,0 98.469173,-43.85602 98.469173,-98.46918 0,-16.1357 -3.72362,-31.44394 -10.75713,-44.68349 L 60.291725,128.05114 Z"
     id="path27"
     style="fill:#ffffff;fill-opacity:1"
     inkscape:connector-curvature="0" /><path
     class="st0"
     d="m 167.03562,29.168225 c -2.89615,-2.896152 -5.7923,-4.964832 -8.68845,-7.447249 L 60.291725,78.40281 13.125817,51.50997 C 11.470873,54.40612 9.8159288,57.71601 8.1609847,61.0259 L 59.877989,90.81489 167.03562,29.168225 Z"
     id="path29"
     style="fill:#ffffff;fill-opacity:1"
     inkscape:connector-curvature="0" /><path
     class="st0"
     d="m 148.4175,15.1012 c -3.72362,-2.06868 -7.44725,-4.137361 -11.58461,-5.792305 L 60.291725,53.57865 25.951634,34.133058 c -2.482416,2.482416 -4.551096,5.378568 -7.033512,8.27472 L 59.877989,65.99073 148.4175,15.1012 Z"
     id="path31"
     style="fill:#ffffff;fill-opacity:1"
     inkscape:connector-curvature="0" /></svg>