<?xml version="1.0" encoding="UTF-8" standalone="no"?>
<!-- Created with Inkscape (http://www.inkscape.org/) -->

<svg
   xmlns:dc="http://purl.org/dc/elements/1.1/"
   xmlns:cc="http://creativecommons.org/ns#"
   xmlns:rdf="http://www.w3.org/1999/02/22-rdf-syntax-ns#"
   xmlns:svg="http://www.w3.org/2000/svg"
   xmlns="http://www.w3.org/2000/svg"
   xmlns:sodipodi="http://sodipodi.sourceforge.net/DTD/sodipodi-0.dtd"
   xmlns:inkscape="http://www.inkscape.org/namespaces/inkscape"
   version="1.1"
   width="375.56125"
   height="84.190025"
   id="svg2"
   xml:space="preserve"
   inkscape:version="0.91 r13725"
   sodipodi:docname="ru-smp.svg"><sodipodi:namedview
     pagecolor="#ffffff"
     bordercolor="#666666"
     borderopacity="1"
     objecttolerance="10"
     gridtolerance="10"
     guidetolerance="10"
     inkscape:pageopacity="0"
     inkscape:pageshadow="2"
     inkscape:window-width="720"
     inkscape:window-height="480"
     id="namedview20"
     showgrid="false"
     fit-margin-top="0"
     fit-margin-left="0"
     fit-margin-right="0"
     fit-margin-bottom="0"
     inkscape:zoom="0.46880907"
     inkscape:cx="188.6975"
     inkscape:cy="19.835"
     inkscape:window-x="0"
     inkscape:window-y="23"
     inkscape:window-maximized="0"
     inkscape:current-layer="svg2" /><metadata
     id="metadata8"><rdf:RDF><cc:Work
         rdf:about=""><dc:format>image/svg+xml</dc:format><dc:type
           rdf:resource="http://purl.org/dc/dcmitype/StillImage" /><dc:title></dc:title></cc:Work></rdf:RDF></metadata><defs
     id="defs6"><clipPath
       id="clipPath18"><path
         d="m 1135.42,594.32 3004.49,0 0,673.53 -3004.49,0 0,-673.53 z"
         inkscape:connector-curvature="0"
         id="path20" /></clipPath></defs><g
     transform="matrix(1.25,0,0,-1.25,-141.9275,158.48003)"
     id="g10"><g
       transform="scale(0.1,0.1)"
       id="g12"><g
         id="g14"><g
           clip-path="url(#clipPath18)"
           id="g16"><path
             d="m 3038.81,814.48 38.95,0 c 35,0 55.36,13.75 55.36,42.438 0,28.719 -20.36,42.461 -55.36,42.461 l -38.95,0 0,-84.899 z m 135.49,238.56 0,-50.15 -135.49,0 0,-59.023 50.5,0 c 91.18,0 110.2,-55 110.2,-91.383 0,-29.922 -21.65,-82.48 -110.2,-82.48 l -113.36,0 0,283.036"
             inkscape:connector-curvature="0"
             id="path22"
             style="fill:#0d4d84;fill-opacity:1;fill-rule:nonzero;stroke:none" /><path
             d="m 3409.36,880.395 -45.61,115.628 -0.92,0 -42.9,-115.628 89.43,0 z m -7.54,172.645 123.09,-283.036 -70.84,0 -26.12,63.883 -127.96,0 -26.12,-63.883 -67.3,0 123.51,283.036"
             inkscape:connector-curvature="0"
             id="path24"
             style="fill:#0d4d84;fill-opacity:1;fill-rule:nonzero;stroke:none" /><path
             d="m 3616.49,1053.04 0,-114.024 125.72,0 0,114.024 62.88,0 0,-283.036 -62.88,0 0,122.5 -125.72,0 0,-122.5 -62.89,0 0,283.036"
             inkscape:connector-curvature="0"
             id="path26"
             style="fill:#0d4d84;fill-opacity:1;fill-rule:nonzero;stroke:none" /><path
             d="m 3943.77,1053.04 0,-120.895 1.33,0 112.02,120.895 74.83,0 -129.29,-128.173 137.25,-154.863 -79.69,0 -115.12,140.719 -1.33,0 0,-140.719 -62.85,0 0,283.036"
             inkscape:connector-curvature="0"
             id="path28"
             style="fill:#0d4d84;fill-opacity:1;fill-rule:nonzero;stroke:none" /><path
             d="m 2074.92,778.906 c -27.46,-8.511 -55.34,-12.148 -80.14,-12.148 -77.06,0 -161.16,40.039 -161.16,143.144 0,97.438 75.27,146.368 172.67,146.368 24.35,0 45.16,-2.84 68.63,-9.72 l -2.66,-48.515 c -18.14,6.465 -38.06,10.525 -61.54,10.525 -69.51,0 -110.69,-40.037 -110.69,-97.837 0,-68.356 50.48,-96.243 106.26,-96.243 27.46,0 49.14,6.079 64.65,12.54"
             inkscape:connector-curvature="0"
             id="path30"
             style="fill:#0d4d84;fill-opacity:1;fill-rule:nonzero;stroke:none" /><path
             d="m 2799.99,1053.04 0,-283.036 -62.87,0 0,236.526 -122.63,0 0,-236.526 -62.87,0 0,283.036"
             inkscape:connector-curvature="0"
             id="path32"
             style="fill:#0d4d84;fill-opacity:1;fill-rule:nonzero;stroke:none" /><path
             d="m 2373.72,1053.04 -76.47,-203.228 -76.27,203.228 -106.26,0 0,-283.036 62.86,0 0,242.586 0.44,0 89.43,-242.586 59.76,0 89.45,242.586 0.45,0 0,-242.586 62.87,0 0,283.036"
             inkscape:connector-curvature="0"
             id="path34"
             style="fill:#0d4d84;fill-opacity:1;fill-rule:nonzero;stroke:none" /><path
             d="m 1745.93,1230.69 c 1.36,0.66 3.37,1.61 4.74,2.27 -2.22,-1.07 -3.79,-1.8 -4.74,-2.27 z m 60.98,22.11 c -3.78,4.08 -54.79,-19.14 -54.79,-19.14 0.67,0.44 1.48,0.96 2.3,1.51 10.03,5.8 25.97,14.14 20.01,20.92 -2.99,3.34 -9.73,1.86 -29.18,-9.16 -9.13,-5.2 -56.88,-23.77 -106.25,-43.29 -40.73,-16.51 -114.69,-46.41 -121.3,-53.26 -0.2,-0.23 -0.37,-0.39 -0.54,-0.64 -0.7,-1.06 -1.35,-2.38 -2.03,-3.72 -2.54,-5.35 -5.11,-13.54 -7.63,-23.84 -0.09,-0.34 -0.17,-0.63 -0.25,-0.98 -0.15,-0.63 -0.3,-1.3 -0.45,-1.92 -3.01,-13.67 -5.72,-30.39 -8.69,-48.88 -8.71,-56.15 -17.61,-139.709 -17.61,-139.709 0,0 -2.24,-56.898 -8,-84.05 -1.13,-5.164 -2.43,-8.786 -3.42,-11.36 -0.4,-1.355 -0.89,-2.715 -1.4,-4.019 -0.02,-0.016 -0.06,-0.094 -0.06,-0.137 0,0.02 0,0.043 0,0.043 -1.97,-5.039 -4.64,-9.785 -8.35,-13.512 -11.4,-11.672 -39.46,-7.945 -47.21,-7.047 -18.12,2.071 -35.88,13.879 -38.34,17.004 -2.36,3.18 -14.88,18.836 -30.96,20.293 -4.75,0.418 -24.2,-2.761 -30.58,-2.578 -6.4,0.195 -15.33,8.59 -25.41,9.594 -10.26,1.18 -26.57,-8.418 -26.57,-8.418 0,0 40.09,-13.938 44.99,-20.219 4.87,-6.347 16.91,-22.219 31.51,-28.433 14.6,-6.227 65.61,-60.004 65.61,-60.004 0,0 10.4,-9.883 27.69,-22.832 -15.11,-4.961 -31.04,-8.477 -47.59,-10.168 -114.08,-11.668 -211.52,58.277 -224.27,162.386 -2.84,22.832 -1.15,45.516 4.87,67.192 7.06,26.125 17.89,51.203 36.89,72.914 34.62,39.73 82.01,65.71 137.3,71.3 33.7,3.48 67.97,-1.35 99.44,-12.81 -0.24,3.35 -0.49,6.66 -0.7,9.97 -31.57,11.16 -65.84,15.34 -100.43,11.76 -56.75,-5.82 -107.59,-31.4 -143.17,-72.17 -25.3,-28.788 -40.64,-62.831 -45.22,-98.691 -0.94,-4.957 -1.06,-8.535 -1.66,-15.054 -1.01,-12.192 -0.67,-35.36 0.87,-47.977 12.96,-105.625 117.2,-181.66 232.92,-169.824 24.69,2.519 47.96,8.847 68.98,18.183 16.81,-11.132 37.04,-22.929 59.06,-31.797 54.44,-22.121 121.24,-24.492 136.11,-26.191 31.16,-3.711 59.07,-40.098 67.77,-47.363 8.52,-7.18 66.91,4.238 66.91,4.238 0,0 -4.2,10.926 -6.64,24.91 -2.44,13.957 -19.13,20.246 -22.39,23.86 -3.29,3.574 -78.4,34.882 -90.43,41.824 -11.91,6.875 -27.06,21.281 -42.77,45.683 -15.49,24.497 -8.92,42.747 -6.35,47.344 2.77,4.551 8.8,5.516 12.31,11.578 3.68,6.117 0.76,6.59 0.4,9.684 -0.3,3.125 1,5.394 4.2,10.73 3.22,5.297 1.89,4.836 1.89,4.836 0,0 0,0 0.69,6.621 0.66,6.625 0,0 1.38,2.25 1.31,2.332 1.31,2.332 1.31,2.332 0,0 -0.34,3.157 1.06,5.426 1.31,2.223 -1.63,4.606 -1.06,7.336 0.58,2.684 1.32,2.285 2.44,7.602 0.96,5.406 0.45,2.754 0.64,8.515 0.32,5.789 1.82,3.117 5.02,6.407 2.97,3.414 -3.2,7.57 -3.2,7.57 0,0 0.43,2.59 5.55,12.832 5.04,10.348 0,0 1.42,4.172 1.46,4.277 -1.78,7.883 -2.46,12.023 -0.69,4.414 0.58,2.848 1.53,8.164 0.95,5.399 0,0 1.86,4.977 1.82,4.933 1.08,7.316 1.08,7.316 l -3.43,10.528 c 0,0 0,0 1.81,2.996 1.84,3.093 -0.05,8.976 -0.05,8.976 l -4.69,12.114 c 0,0 0.19,5.773 0.77,8.484 0.51,2.742 -4.14,14.824 -4.14,14.824 l 2.99,12.27 -4.36,17.832 -2.88,15.18 c 0,0 -0.49,22.87 -0.51,31.76 -0.21,8.84 -0.21,19.62 1.55,31.64 1.65,11.94 39.39,26.55 43.5,33.5 3.97,6.79 -22.91,-0.53 -22.91,-0.53 0,0 47.43,12.86 50.67,18.28 2.44,4.06 -31,-1.94 -31,-1.94 -2.97,-0.52 0,0 0,0 12.91,2.67 47.09,10.35 58.75,19.53 13.13,10.72 -23,2.48 -28.81,1.04 5.92,1.47 45.68,11.34 51.16,22.3 3.2,6.29 -29.73,1.72 -29.73,1.72 16.46,3.89 36.07,9.21 48.08,14.77 23.67,10.84 25.05,19.06 20.28,21.36 -4.79,2.3 -43.86,-9.77 -43.86,-9.77 -0.9,-0.29 -1.39,-0.45 -2.04,-0.66 1.1,0.37 2.04,0.66 2.04,0.66 11.29,3.98 23.75,8.86 30.94,13.27 15.09,9.17 33.69,20.59 27.22,27.76"
             inkscape:connector-curvature="0"
             id="path36"
             style="fill:#0d4d84;fill-opacity:1;fill-rule:nonzero;stroke:none" /><path
             d="m 1214.46,1022.93 38.17,49.53 -46.56,-42.41 -21.27,71.47 3.73,-72.64 -39.04,23.62 35.63,-33.77 -49.7,-12.53 50.37,2.31 -41.64,-53.182 49.53,45.052 20.47,-66.068 -3.56,65.918 37.51,-22.316 -36.16,34.246 49.8,12.97 -47.28,-2.2 z m 491.48,244.09 c -3.68,3.89 -27.87,-7.32 -27.87,-7.32 0,0 -147.44,-64.81 -212.44,-97.01 -13.99,-6.91 -31.3,-17.81 -31.43,-38.67 -0.32,-67.02 14.11,-165.715 21.4,-217.657 7.29,-51.965 12.25,-73.519 12.02,-75.238 0.25,1.813 2.94,6.426 4.88,15.516 5.76,27.152 8,84.05 8,84.05 0,0 8.9,83.559 17.61,139.709 5.96,37.38 11.05,67.56 19.2,79.59 5.26,7.67 124.25,54.37 145.01,63.21 25.36,10.8 28.19,13.64 28.7,21.36 0.53,7.73 -26.53,-0.85 -26.53,-0.85 0,0 23.33,11.5 31.79,16.98 8.58,5.4 13.34,12.46 9.66,16.33"
             inkscape:connector-curvature="0"
             id="path38"
             style="fill:#00adef;fill-opacity:1;fill-rule:nonzero;stroke:none" /></g></g></g></g></svg>