<?xml version="1.0" encoding="UTF-8" standalone="no"?>
<!-- Generator: Adobe Illustrator 19.1.0, SVG Export Plug-In . SVG Version: 6.00 Build 0)  -->

<svg
   xmlns:dc="http://purl.org/dc/elements/1.1/"
   xmlns:cc="http://creativecommons.org/ns#"
   xmlns:rdf="http://www.w3.org/1999/02/22-rdf-syntax-ns#"
   xmlns:svg="http://www.w3.org/2000/svg"
   xmlns="http://www.w3.org/2000/svg"
   xmlns:sodipodi="http://sodipodi.sourceforge.net/DTD/sodipodi-0.dtd"
   xmlns:inkscape="http://www.inkscape.org/namespaces/inkscape"
   version="1.1"
   id="Слой_1"
   x="0px"
   y="0px"
   viewBox="-197 400.89 133.7 41"
   xml:space="preserve"
   inkscape:version="0.91 r13725"
   sodipodi:docname="ru-uralsib.svg"
   width="133.7"
   height="41"><metadata
     id="metadata35"><rdf:RDF><cc:Work
         rdf:about=""><dc:format>image/svg+xml</dc:format><dc:type
           rdf:resource="http://purl.org/dc/dcmitype/StillImage" /><dc:title></dc:title></cc:Work></rdf:RDF></metadata><defs
     id="defs33" /><sodipodi:namedview
     pagecolor="#ffffff"
     bordercolor="#666666"
     borderopacity="1"
     objecttolerance="10"
     gridtolerance="10"
     guidetolerance="10"
     inkscape:pageopacity="0"
     inkscape:pageshadow="2"
     inkscape:window-width="976"
     inkscape:window-height="684"
     id="namedview31"
     showgrid="false"
     fit-margin-top="0"
     fit-margin-left="0"
     fit-margin-right="0"
     fit-margin-bottom="0"
     inkscape:zoom="1.55"
     inkscape:cx="109.67742"
     inkscape:cy="20.499985"
     inkscape:window-x="0"
     inkscape:window-y="0"
     inkscape:window-maximized="0"
     inkscape:current-layer="Слой_1" /><style
     type="text/css"
     id="style3">
	.st0{fill:#203F7F;}
</style><path
     class="st0"
     d="m -110.3,421.49001 -4.8,0 -4.9,11.4 -4.7,-11.4 -2.5,0 -2.5,0 -4.7,11 -1.1,2.6 1.1,0 3.6,0 1.1,-2.8 2.5,0 2.5,0 1.1,2.8 7.5,0 3.5,-9.9 3.4,9.9 4.1,0 0.6,0 -0.6,-1.4 -5.2,-12.2 z m -16.9,7.7 -1.4,0 1.4,-3.9 0,0 1.4,3.8 -1.4,0.1 0,0 z"
     id="path5"
     inkscape:connector-curvature="0"
     style="fill:#ffffff;fill-opacity:1" /><path
     class="st0"
     d="m -105.1,425.29001 c -0.3,0.9 -0.6,2 -0.6,3.3 0,1.1 0.2,2.1 0.6,3 0.9,2.2 3,3.7 5.4,3.7 l 6.1,0 0,-3.4 -3.9,0 c -2.4,0 -3.7,-0.5 -3.7,-3.3 0,-2.8 1.3,-3.5 3.7,-3.5 l 3.9,0 0,-3.4 -6,0 c -2.5,-0.2 -4.6,1.1 -5.5,3.6 z"
     id="path7"
     inkscape:connector-curvature="0"
     style="fill:#ffffff;fill-opacity:1" /><path
     class="st0"
     d="m -134.3,429.79001 c 1.1,-1.3 1.1,-3.1 1.1,-3.6 0,-0.6 0,-2.2 -1.1,-3.4 -0.7,-0.7 -1.8,-1.3 -3.6,-1.3 l -2.2,0 -6.9,0 0,13.7 4.4,0 0,-4 2.5,0 2.2,0 c 1.8,0 2.9,-0.6 3.6,-1.4 z m -5.2,-2 -0.7,0 -2.5,0 0,-3 2.5,0 0.7,0 c 0.5,0 1.8,0 1.8,1.4 0.1,1.6 -1.2,1.6 -1.8,1.6 z"
     id="path11"
     inkscape:connector-curvature="0"
     style="fill:#ffffff;fill-opacity:1" /><polygon
     class="st0"
     points="-92.8,435.19 -87.5,435.19 -82.2,425.49 -82.2,435.19 -77.8,435.19 -77.8,421.49 -83.2,421.49 -88.3,430.89 -88.3,421.49 -92.8,421.49 "
     id="polygon13"
     style="fill:#ffffff;fill-opacity:1"
     transform="translate(0,1.4648437e-5)" /><path
     class="st0"
     d="m -67.9,426.69001 -2.2,0 -2.4,0 0,-1.8 2.4,0 6.2,0 0,-3.4 -6.2,0 -6.8,0 0,13.7 6.8,0 2.2,0 c 4.6,0 4.6,-2.8 4.6,-4.4 0,-1.5 0,-4.1 -4.6,-4.1 z m -0.8,5.3 -1.4,0 -2.4,0 0,-2.1 2.4,0 1.4,0 c 1,0 1,0.7 1,1 0,0.3 0,1.1 -1,1.1 z"
     id="path15"
     inkscape:connector-curvature="0"
     style="fill:#ffffff;fill-opacity:1" /><path
     class="st0"
     d="m -183.3,419.69001 -0.7,0 c -0.4,11.5 -1.5,18.1 -3.5,21.6 1.3,0.4 2.8,0.6 4.3,0.6 1.5,0 2.9,-0.2 4.2,-0.6 -2,-3.4 -3.1,-10 -3.5,-21.6 0,0 -0.8,0 -0.8,0 z"
     id="path21"
     inkscape:connector-curvature="0"
     style="fill:#ffffff;fill-opacity:1" /><path
     class="st0"
     d="m -180.4,414.99001 c -0.3,-4.4 -0.3,-6.2 -0.3,-8.4 l -1.1,0 c 0,0 0,6.1 0.1,8.1 -0.4,0 -0.8,0 -1.2,-0.1 0,-3.5 0,-9.9 0,-13.7 l -0.5,0 -0.5,0 c 0,3.7 0,10.2 0,13.7 -0.4,0 -0.8,0 -1.2,0.1 0,-2 0.1,-8.1 0.1,-8.1 l -1,0 c 0,2.2 0,4 -0.3,8.4 -6.1,1.3 -10.7,6.8 -10.7,13.3 0,4.8 2.5,9 6.2,11.4 5,-5 5.7,-19 5.7,-19.9 -0.7,0 -1.7,0.3 -1.8,0.3 -1.1,6.6 -3.9,12.1 -7.1,15.1 -1.2,-1.8 -1.9,-3.7 -1.9,-5.6 0,-6 5.8,-10.7 12.5,-10.7 6.8,0 12.5,4.7 12.5,10.7 0,1.9 -0.6,3.8 -1.8,5.6 -3.2,-3 -6,-8.5 -7.1,-15 -0.1,0 -1.1,-0.3 -1.8,-0.3 0,0.9 0.8,14.9 5.7,19.9 3.7,-2.5 6.2,-6.6 6.2,-11.4 0,-6.6 -4.6,-12.1 -10.7,-13.4 z"
     id="path25"
     inkscape:connector-curvature="0"
     style="fill:#ffffff;fill-opacity:1" /><polygon
     class="st0"
     points="-157.4,431.29 -159.6,435.19 -154.8,435.19 -147.4,421.49 -152.2,421.49 -155.1,427.29 -157.9,421.49 -162.9,421.49 "
     id="polygon27"
     style="fill:#ffffff;fill-opacity:1"
     transform="translate(0,1.4648437e-5)" /></svg>