<?xml version="1.0" encoding="UTF-8" standalone="no"?>
<!-- Generator: Adobe Illustrator 19.0.0, SVG Export Plug-In . SVG Version: 6.00 Build 0)  -->

<svg
   xmlns:dc="http://purl.org/dc/elements/1.1/"
   xmlns:cc="http://creativecommons.org/ns#"
   xmlns:rdf="http://www.w3.org/1999/02/22-rdf-syntax-ns#"
   xmlns:svg="http://www.w3.org/2000/svg"
   xmlns="http://www.w3.org/2000/svg"
   xmlns:sodipodi="http://sodipodi.sourceforge.net/DTD/sodipodi-0.dtd"
   xmlns:inkscape="http://www.inkscape.org/namespaces/inkscape"
   version="1.1"
   id="Layer_1"
   x="0px"
   y="0px"
   viewBox="0 0 522.09996 69.500001"
   enable-background="new 0 0 521.7 101.1"
   xml:space="preserve"
   inkscape:version="0.91 r13725"
   sodipodi:docname="ru-ucb.svg"
   width="522.09998"
   height="69.5"><metadata
     id="metadata85"><rdf:RDF><cc:Work
         rdf:about=""><dc:format>image/svg+xml</dc:format><dc:type
           rdf:resource="http://purl.org/dc/dcmitype/StillImage" /><dc:title></dc:title></cc:Work></rdf:RDF></metadata><defs
     id="defs83" /><sodipodi:namedview
     pagecolor="#ffffff"
     bordercolor="#666666"
     borderopacity="1"
     objecttolerance="10"
     gridtolerance="10"
     guidetolerance="10"
     inkscape:pageopacity="0"
     inkscape:pageshadow="2"
     inkscape:window-width="828"
     inkscape:window-height="539"
     id="namedview81"
     showgrid="false"
     fit-margin-top="0"
     fit-margin-left="0"
     fit-margin-right="0"
     fit-margin-bottom="0"
     inkscape:zoom="0.59421122"
     inkscape:cx="16.829033"
     inkscape:cy="50.450001"
     inkscape:window-x="0"
     inkscape:window-y="0"
     inkscape:window-maximized="0"
     inkscape:current-layer="g3" /><g
     id="g3"
     transform="translate(0,-31.5)"><g
       id="g41"><g
         id="g43"><path
           d="m 152.1,51.6 c -4.4,0 -8.1,3.7 -8.1,8 l 0,6.9 -11.2,0 0,-14.9 -0.4,0 c -4.4,0 -8.1,3.7 -8.1,8 l 0,27.4 0.4,0 c 4.4,0 8.1,-3.7 8.1,-8 l 0,-6.7 11.2,0 0,14.7 8.5,0 0,-35.4 -0.4,0 z"
           id="path45"
           inkscape:connector-curvature="0"
           style="fill:#ffffff" /><path
           d="m 488.7,51.6 c -4.4,0 -8.1,3.7 -8.1,8 l 0,6.9 -11.2,0 0,-14.9 -0.4,0 c -4.4,0 -8.1,3.7 -8.1,8 l 0,27.4 0.4,0 c 4.4,0 8.1,-3.7 8.1,-8 l 0,-6.7 11.2,0 0,14.7 8.5,0 0,-35.4 -0.4,0 z"
           id="path47"
           inkscape:connector-curvature="0"
           style="fill:#ffffff" /><path
           d="m 104.2,38.7 c -9.8,0 -16.2,8.5 -17.1,20.8 l -10,0 0,-20.1 -0.1,0 c -4.9,0 -8.7,3.9 -8.7,8.6 l 0,39 0.1,0 c 0,0 0,0 0,0 l 0,0 c 4.8,0 8.7,-3.9 8.7,-8.8 l 0,-12.4 10,0 c 0.8,11.6 7.1,22 17.1,22 11.4,0 17.4,-11 17.4,-25.3 0,-13.5 -6.4,-23.8 -17.4,-23.8 z m 0,42.1 c -5.2,0 -8.6,-8.5 -8.6,-18.4 0,-9.9 3.6,-16.9 8.6,-16.9 5,0 8.8,7 8.8,16.9 -0.1,11.2 -3.3,18.4 -8.8,18.4 z"
           id="path49"
           inkscape:connector-curvature="0"
           style="fill:#ffffff" /><path
           d="m 182.6,51.6 c -2.8,0 -5.3,0.9 -7.2,4 l -11,19.2 0,-23.2 -8.5,0 0,35.4 3.6,0 c 2.7,0 5.2,-0.9 7.2,-4 l 11.7,-19.9 0,15.9 c 0,4.4 3.7,8 8.1,8 l 0.4,0 0,-35.4 -4.3,0 z"
           id="path51"
           inkscape:connector-curvature="0"
           style="fill:#ffffff" /><path
           d="m 353,51.6 c -2.8,0 -5.3,0.9 -7.2,4 l -11,19.2 0,-23.2 -8.5,0 0,35.4 3.6,0 c 2.7,0 5.2,-0.9 7.2,-4 l 11.7,-19.9 0,15.9 c 0,4.4 3.7,8 8.1,8 l 0.4,0 0,-35.4 -4.3,0 z"
           id="path53"
           inkscape:connector-curvature="0"
           style="fill:#ffffff" /><path
           d="m 216.9,69.8 c -2,-4.4 -4.9,-7.6 -9.1,-9.2 l 15.3,-21.2 -9.5,0 -14.7,21 0,-20.9 -0.2,0 c -4.9,0 -8.5,3.5 -8.5,8.3 l 0,39.2 0.2,0 c 4.9,0 8.5,-3.5 8.5,-8.3 l 0,-14.6 c 4.4,0 7.7,2.9 9.2,6.7 l 6.3,16.2 9.6,0 -7.1,-17.2 z"
           id="path55"
           inkscape:connector-curvature="0"
           style="fill:#ffffff" /><path
           d="m 384.5,51.6 -25.5,0 0,6.8 8.6,0 0,28.6 0.4,0 c 4.4,0 8,-3.6 8,-8 l 0,-20.6 8.6,0 0,-6.8 z"
           id="path57"
           inkscape:connector-curvature="0"
           style="fill:#ffffff" /><path
           d="m 320.4,80.3 -2.9,-28.7 -20.3,0 -1.3,8.6 c -1.1,7.6 -2.9,17.3 -9.8,21.4 l 0.6,14.7 0.5,0 c 3.3,0 6.1,-2.7 6.1,-6.1 l 0.1,-3.2 23.1,0 0.3,9.2 0.4,0 c 3.3,0 6.1,-2.7 6.1,-6.1 l 0.3,-8.6 -3.2,-1.2 z m -23.7,0.3 c 3.9,-4.2 5.8,-11.6 6.7,-17.4 l 0.6,-5.1 6.6,0 2,22.5 -15.9,0 z"
           id="path59"
           inkscape:connector-curvature="0"
           style="fill:#ffffff" /><path
           d="m 516.6,75.7 c -1.9,-3.7 -4.1,-6.5 -7.5,-7.9 l 12.5,-16.1 -9.1,0 -12.1,16 0,-16 -8.4,0 0,35.3 0.4,0 c 4.4,0 8.1,-3.7 8.1,-8 l 0,-8.1 c 3.5,0 6.1,2.6 7.5,5.7 l 5,10.4 9.1,0 -5.5,-11.3 z"
           id="path61"
           inkscape:connector-curvature="0"
           style="fill:#ffffff" /><path
           d="m 412.8,57.2 c -2.1,0 -4.3,0.4 -5.5,0.7 l 0,-11.1 11.2,0 c 4,0 7.3,-3.3 7.3,-7.3 l 0,-0.1 -27,0 0,47.6 13.7,0 c 10.3,0 17.9,-5.5 17.9,-15 0,-8.1 -6.3,-14.8 -17.6,-14.8 z m -0.4,24 -5.1,0 0,-16.9 c 1.1,-0.3 3,-0.6 4.6,-0.6 6.1,0 9.7,3.6 9.7,8.2 0,4.8 -3.5,9.3 -9.2,9.3 z"
           id="path63"
           inkscape:connector-curvature="0"
           style="fill:#ffffff" /><path
           d="m 285.4,68.4 c 0,-10.6 -5.1,-16.8 -14.3,-16.8 -9.4,0 -15,7 -15,17.8 0,11.1 6.1,18.1 16.4,18.1 5.7,0 9.7,-1.4 11.8,-2.5 l 0,-7 c -2.1,1.5 -5.1,3.4 -11,3.4 -5.3,0 -8.2,-3 -8.9,-8.8 l 21,-2.9 0,-1.3 z m -21.6,-1.5 c 0,-6.3 2.2,-9.6 7,-9.7 l 0.3,0 c 2.3,0 6.7,0.8 7,7.8 l -14.3,1.9 z"
           id="path65"
           inkscape:connector-curvature="0"
           style="fill:#ffffff" /><path
           d="m 431.5,77 c 0,6.6 4.9,10.6 14.2,10.6 l 1.8,0 c 3.3,0 8.7,-0.5 11.1,-0.9 l 0,-22.6 c 0,-8.8 -5.9,-12.5 -13.1,-12.5 -5.4,0 -9.6,1.6 -11.8,2.7 l 0,5.6 c 3.7,-2 7.1,-3.2 10.4,-3.2 4,0 6.8,1.2 6.8,5.7 l 0,2.3 c -10.5,1 -19.4,3.2 -19.4,12.3 l 0,0 z m 19.4,5.7 c -0.8,0.2 -2.9,0.3 -4.7,0.3 -4.6,0 -7.2,-2 -7.2,-6.3 0,-5.9 4.5,-7.4 11.9,-8.1 l 0,14.1 z"
           id="path67"
           inkscape:connector-curvature="0"
           style="fill:#ffffff" /><path
           d="m 237.7,51.6 c -4.8,0 -8.8,0.8 -11.9,2.5 l -0.2,0.1 0,46.8 0.4,0 c 4.4,0 7.9,-3.6 7.9,-8 l 0,-6 c 1.2,0.3 2.8,0.6 4.7,0.6 9.2,0 15.2,-7.3 15.2,-18.3 0,-11 -6,-17.7 -16.1,-17.7 l 0,0 z m -0.8,30.5 c -1.2,0 -2.2,-0.1 -3,-0.4 l 0,-24.1 c 1.1,-0.4 2.1,-0.6 3.5,-0.6 5.5,0 7.9,4 7.9,12.5 0.1,5.6 -1.3,12.6 -8.4,12.6 z"
           id="path69"
           inkscape:connector-curvature="0"
           style="fill:#ffffff" /></g><g
         id="g71"><g
           id="g73"><path
             d="M 58.6,60.8 C 58.6,77 45.5,90.1 29.3,90.1 13.1,90.1 0,77 0,60.8 0,44.6 13.1,31.5 29.3,31.5 45.5,31.6 58.6,44.7 58.6,60.8 Z"
             id="path75"
             inkscape:connector-curvature="0"
             style="fill:#ee3124" /></g><path
           d="m 27.4,52.7 c 0,0 3.4,-4.4 3.7,-4.9 0.3,-0.5 0.5,-1 -0.5,-1.5 -0.9,-0.6 -4,-2.4 -4.6,-2.8 -0.6,-0.5 -0.5,-2.2 1.3,-2.5 1.8,-0.4 17.4,-1.6 23.4,-1 6.1,0.6 5.2,2.4 5.3,3.8 0,1.4 -2.4,3.4 -5.7,6.4 0,0 -5.5,5.1 -9.4,8.5 -4,3.5 -16.7,14.2 -19.2,16.1 -2.5,1.8 -12.1,9 -12.7,9.4 -0.6,0.5 -2.4,1.9 -3.3,0.9 -0.9,-1 0,-2.1 0.5,-2.7 0.5,-0.7 19.8,-28 21.2,-29.7 z"
           id="path77"
           inkscape:connector-curvature="0"
           style="fill:#ffffff" /><path
           d="m 27.4,52.7 c 0,0 3.4,-4.4 3.7,-4.9 0.3,-0.5 0.5,-1 -0.5,-1.5 -0.9,-0.6 -4,-2.4 -4.6,-2.8 -0.6,-0.5 -0.5,-2.2 1.3,-2.5 1.8,-0.4 17.4,-1.6 23.4,-1 6.1,0.6 5.5,2.8 5.3,3.8 -0.4,1.4 -2.4,3.4 -5.7,6.4 0,0 -5.5,5.1 -9.4,8.5 -4,3.5 -16.7,14.2 -19.2,16.1 -2.5,1.8 -12.1,9 -12.7,9.4 -0.6,0.5 -2.4,1.9 -3.3,0.9 -0.9,-1 0,-2.1 0.5,-2.7 0.5,-0.7 19.8,-28 21.2,-29.7 z"
           id="path79"
           inkscape:connector-curvature="0"
           style="fill:#ffffff" /></g></g></g></svg>