<svg xmlns="http://www.w3.org/2000/svg" width="198" height="52" viewBox="0 0 198 52">
  <g fill="none" transform="translate(.036)">
    <path fill="#0a2972" d="M58.3368213 17.2452067L57.7737385 17.2452067 57.7737385 51.7103716 72.237541 51.7103716C78.9672054 51.7103716 83.3151121 47.837948 83.3151121 41.8456421 83.3151121 38.8489941 82.3152792 36.7043585 80.0742922 34.893399 79.2564815 34.2285223 78.3468862 33.7651385 77.3986177 33.3948274 78.128769 33.0482797 78.8259191 32.6403434 79.4410819 32.10765 81.0957822 30.6264059 81.9661885 28.5619714 81.9661885 26.1292061 81.9661885 23.6152496 80.994716 21.5359631 78.9965971 19.772035 76.5606968 17.6674999 73.7664242 17.2452067 70.0465714 17.2452067L58.3368213 17.2452067zM69.2468082 24.0291267C69.8511425 24.0291267 70.9778237 24.0291267 71.9168107 24.4167651 72.9341755 24.8331175 73.5658389 25.9287035 73.5658389 27.2817249 73.5658389 28.2020568 73.2409834 29.111002 72.7196678 29.6521116 71.9095917 30.5150155 70.9613231 30.5843251 69.8949722 30.5843251 69.8949722 30.5843251 66.6495115 30.5843251 65.7775582 30.5843251 65.7775582 29.7214212 65.7775582 24.8930207 65.7775582 24.0291267 66.6118695 24.0291267 69.2468082 24.0291267 69.2468082 24.0291267zM70.2420003 37.1979416C71.2897881 37.1979416 72.372124 37.3019059 73.190966 38.0529244 73.8747094 38.6722548 74.3145534 39.8396256 74.3145534 41.0272943 74.3145534 42.0208963 74.0061985 43.0115278 73.4688979 43.7447238 72.580444 44.9175405 71.6136123 45.1472521 70.242516 45.1472521 70.242516 45.1472521 66.7614062 45.1472521 65.8765618 45.1472521 65.8765618 44.2526638 65.8765618 38.0940151 65.8765618 37.1979416 66.7608905 37.1979416 70.2420003 37.1979416 70.2420003 37.1979416zM112.232404 17.2452067L83.70597 17.2452067 83.70597 23.8657541C83.70597 23.8657541 92.7766563 23.8825865 93.78113 23.8840717 93.78113 24.9227248 93.78113 51.7816615 93.78113 51.7816615L101.880859 51.7816615C101.880859 51.7816615 101.880859 24.9138136 101.880859 23.8761506 102.865739 23.8731802 110.704037 23.8761506 110.704037 23.8761506L113.038355 17.2452067 112.232404 17.2452067zM138.509601 17.2452067L115.015333 17.2452067 115.015333 51.7549278 128.45352 51.7549278C131.496849 51.7549278 134.352998 51.0197515 136.287693 49.7365346 138.272405 48.43302 140.641272 45.8452983 140.641272 40.9228349 140.641272 36.3063237 138.343564 33.8260319 136.976593 32.7581697 135.515259 31.6264437 132.800396 30.2778779 128.155478 30.2778779 128.155478 30.2778779 124.009704 30.2778779 123.097015 30.2778779 123.097015 29.4204197 123.097015 24.7400446 123.097015 23.8815963 124.141709 23.8815963 136.693505 23.8815963 136.693505 23.8815963L139.072169 17.2452067 138.509601 17.2452067zM127.152036 36.8469382C128.28903 36.8469382 129.367756 37.114275 130.03139 37.5657773 131.086912 38.2732298 131.59843 39.370796 131.59843 40.9228349 131.59843 42.5545798 131.097741 43.3461939 130.719774 43.7991813 130.005607 44.6660458 128.919662 45.0868538 127.40006 45.0868538 127.40006 45.0868538 123.978765 45.0868538 123.096499 45.0868538 123.096499 44.1858296 123.096499 37.7474673 123.096499 36.8469382 123.964843 36.8469382 127.152036 36.8469382 127.152036 36.8469382z"/>
    <path fill="#FC1921" d="M145.873507 18.7502141C145.872476 18.7507092 145.734799 18.8190286 145.616201 18.8774467 145.61517 19.1650813 145.612592 25.5301735 145.612076 26.2584189 146.0117 26.0712831 146.601596 25.7965202 146.601596 25.7965202 147.316278 25.3856136 151.154213 23.2746427 154.619854 23.1018639 156.049734 23.0295839 157.332139 23.4404905 158.229359 24.2583433 158.962604 24.9256952 159.366353 25.8192934 159.366353 26.7747751 159.366353 29.9407364 157.082052 31.5358462 154.322843 33.1517489 147.544708 37.0533816 143.344276 41.1198721 143.344276 49.3285984 143.344276 49.3285984 143.352526 51.2752067 143.354589 51.6955196 143.874357 51.6950245 165.371023 51.6920541 165.891823 51.6920541 165.892338 51.2286703 165.890791 45.4992456 165.891823 45.0348716 165.372054 45.0348716 151.932835 45.0348716 151.932835 45.0348716L152.015854 44.7135724C152.585124 42.5209152 154.026864 40.8550106 156.838668 39.1410844 156.843309 39.138609 160.345045 37.0637781 160.345045 37.0637781 164.466068 34.6409142 167.077803 30.6308615 167.160822 26.5960554L167.160822 26.3554523C167.160822 23.6682219 166.22596 21.3339752 164.456787 19.6017315 162.387509 17.5729419 159.366353 16.5016142 155.71869 16.5016142 152.540779 16.5016142 148.677062 17.3843209 145.873507 18.7502141zM182.191316 17.2031259C182.034045 17.4372932 167.82033 38.8301815 167.735764 38.9564239 167.735764 39.0990036 167.735764 44.5526752 167.735764 45.0249703 168.258627 45.0249703 183.767123 45.0249703 183.767123 45.0249703 183.767123 45.0249703 183.767123 51.2796623 183.767123 51.7613637 184.24564 51.7613637 189.999192 51.7613637 190.478224 51.7613637 190.478224 51.2791672 190.478224 45.0249703 190.478224 45.0249703L194.898837 45.0249703 197.233155 38.3781842 190.477709 38.3781842 190.477709 31.5709961 183.766608 31.5709961 183.766608 38.3781842 175.846838 38.3781842C176.419202 37.4400299 187.915991 20.0799674 189.831607 17.2031259 188.980795 17.2031259 182.457904 17.2031259 182.191316 17.2031259z"/>
    <path fill="#0a2972" d="M33.3177946,17.2437215 L6.00879469,17.2437215 C6.00879469,17.2437215 6.83227749,19.7789659 7.78724941,21.0765397 C8.04764942,21.0765397 32.0848907,21.0765397 32.0848907,21.0765397 C32.0848907,21.0765397 36.7220735,24.5662757 38.9403722,30.6665064 L13.4005455,30.6665064 C8.9938554,27.2158809 5.69373646,22.5518431 3.96065837,17.2437215 C4.18032254,16.5936969 4.42422195,15.955554 4.69132533,15.3287976 L33.3049035,15.3287976 C35.5360933,13.8396324 37.7533607,11.4954843 37.7533607,11.4954843 L6.69305372,11.4954843 C7.10505295,10.8390238 7.54335,10.2008809 8.00794486,9.58155052 L39.377638,9.58155052 C40.2057616,8.61765267 41.8697434,5.74823721 41.8697434,5.74823721 L11.4679133,5.74823721 C12.1985803,5.07197401 12.9653423,4.433336 13.7656211,3.8333133 L42.8025426,3.8333133 C43.5981807,2.00304606 44.1659043,0 44.1659043,0 L12.6250175,0 C6.59817531,4.11896767 2.0538084,10.1538494 0,17.2437215 C2.03627651,24.2543827 6.53887629,30.337286 12.6100639,34.494869 L44.0834013,34.494869 C44.0834013,34.494869 43.5301157,25.3207597 33.3177946,17.2437215 Z"/>
  </g>
</svg>
