<?xml version="1.0" encoding="UTF-8" standalone="no"?>
<svg
   xmlns:dc="http://purl.org/dc/elements/1.1/"
   xmlns:cc="http://creativecommons.org/ns#"
   xmlns:rdf="http://www.w3.org/1999/02/22-rdf-syntax-ns#"
   xmlns:svg="http://www.w3.org/2000/svg"
   xmlns="http://www.w3.org/2000/svg"
   xml:space="preserve"
   style="enable-background:new 0 0 272.7 104.4;"
   viewBox="0 0 272.7 104.4"
   y="0px"
   x="0px"
   id="Layer_1"
   version="1.1"><metadata
     id="metadata13"><rdf:RDF><cc:Work
         rdf:about=""><dc:format>image/svg+xml</dc:format><dc:type
           rdf:resource="http://purl.org/dc/dcmitype/StillImage" /></cc:Work></rdf:RDF></metadata><defs
     id="defs11" /><style
     id="style3"
     type="text/css">
	.st0{fill:#002D73;}
</style><path
     style="fill:#ffffff;fill-opacity:1"
     d="M268.6,34.8H223v69.7h26.1c5.9,0,11.4-1.5,15.2-4.1c3.8-2.6,8.4-7.9,8.4-17.8  c0-9.3-4.5-14.3-7.1-16.5c-2.8-2.3-8.1-5-17.1-5c0,0-8,0-9.8,0c0-1.7,0-11.2,0-12.9c2,0,26.4,0,26.4,0l4.6-13.4L268.6,34.8  L268.6,34.8z M246.6,74.4c2.2,0,4.3,0.5,5.6,1.5c2,1.4,3,3.6,3,6.8c0,3.3-1,4.9-1.7,5.8c-1.4,1.8-3.5,2.6-6.4,2.6c0,0-6.6,0-8.3,0  c0-1.8,0-14.8,0-16.6C240.4,74.4,246.6,74.4,246.6,74.4z"
     class="st0"
     id="XMLID_4_" /><path
     style="fill:#ffffff;fill-opacity:1"
     d="M217.7,34.8h-55.3v13.4c0,0,17.6,0,19.5,0c0,2.1,0,56.4,0,56.4h15.7c0,0,0-54.3,0-56.4  c1.9,0,17.1,0,17.1,0l4.5-13.4H217.7z"
     class="st0"
     id="XMLID_7_" /><path
     style="fill:#ffffff;fill-opacity:1"
     d="M113.1,34.8H112v69.6h28c13.1,0,21.5-7.8,21.5-19.9c0-6.1-1.9-10.4-6.3-14  c-1.6-1.3-3.4-2.3-5.2-3c1.4-0.7,2.8-1.5,4-2.6c3.2-3,4.9-7.2,4.9-12.1c0-5.1-1.9-9.3-5.8-12.8c-4.7-4.3-10.1-5.1-17.4-5.1h-22.6  V34.8z M134.3,48.5c1.2,0,3.4,0,5.2,0.8c2,0.8,3.2,3.1,3.2,5.8c0,1.9-0.6,3.7-1.6,4.8c-1.6,1.7-3.4,1.9-5.5,1.9c0,0-6.3,0-8,0  c0-1.7,0-11.5,0-13.2C129.2,48.5,134.3,48.5,134.3,48.5z M136.2,75.1c2,0,4.1,0.2,5.7,1.7c1.3,1.3,2.2,3.6,2.2,6c0,2-0.6,4-1.6,5.5  c-1.7,2.4-3.6,2.8-6.3,2.8c0,0-6.8,0-8.5,0c0-1.8,0-14.2,0-16.1C129.5,75.1,136.2,75.1,136.2,75.1z"
     class="st0"
     id="XMLID_8_" /><path
     style="fill:#ffffff;fill-opacity:1"
     d="M64.6,34.8h-53c0,0,1.6,5.1,3.4,7.7c0.5,0,47.1,0,47.1,0s9,7,13.3,19.4H25.9  c-8.5-7-14.9-16.4-18.3-27.1C8,33.5,8.5,32.2,9,30.9h55.5c4.3-3,8.6-7.7,8.6-7.7H12.9c0.8-1.3,1.6-2.6,2.6-3.9h60.8  c1.6-1.9,4.8-7.7,4.8-7.7h-59c1.4-1.4,2.9-2.7,4.5-3.9h56.3C84.4,4,85.5,0,85.5,0h-61C12.8,8.3,4,20.5,0,34.8  C3.9,49,12.7,61.2,24.5,69.6h61C85.5,69.6,84.4,51.1,64.6,34.8z"
     class="st0"
     id="XMLID_1_" /></svg>