<svg xmlns="http://www.w3.org/2000/svg" width="159" height="32" viewBox="0 0 159 32">
  <g fill="#FFFFFF" fill-rule="evenodd">
    <path d="M10.228 3.292L8.752 3.292C8.2 3.292 7.66 3.395 7.132 3.599 6.603 3.804 6.135 4.128 5.728 4.574 5.319 5.02 4.99 5.609 4.738 6.344 4.486 7.079 4.36 7.987 4.36 9.071 4.36 10.106 4.473 10.973 4.702 11.671 4.929 12.37 5.242 12.936 5.637 13.369 6.034 13.802 6.502 14.109 7.042 14.29 7.582 14.47 8.152 14.56 8.752 14.56L10.228 14.56 10.228 3.292zM7.924 16.864L3.532 26.728.328 26.728 5.152 16.18C4.023 15.604 3.112 14.758 2.416 13.642 1.719 12.526 1.372 11.008 1.372 9.088 1.372 7.744 1.57 6.562 1.965 5.542 2.362 4.522 2.902 3.676 3.586 3.004 4.27 2.332 5.067 1.829 5.98 1.492 6.891 1.156 7.852.988 8.86.988L13 .988 13 26.728 10.228 26.728 10.228 16.864 7.924 16.864 7.924 16.864zM73.084 26.98C71.139 26.98 69.615 26.206 68.511 24.658 67.408 23.11 66.856 20.776 66.856 17.656 66.856 16.24 66.994 14.956 67.27 13.804 67.546 12.652 67.954 11.674 68.494 10.87 69.034 10.066 69.706 9.442 70.509 8.998 71.313 8.554 72.244 8.332 73.299 8.332 74.115 8.332 74.776 8.422 75.28 8.602 75.784 8.782 76.239 9.004 76.648 9.268L76.252 11.932C75.868 11.586 75.418 11.284 74.902 11.025 74.385 10.766 73.84 10.636 73.263 10.636 72.256 10.636 71.427 11.203 70.78 12.337 70.132 13.471 69.807 15.196 69.807 17.511 69.807 19.803 70.078 21.57 70.618 22.812 71.158 24.055 72.004 24.676 73.156 24.676 73.851 24.676 74.452 24.559 74.956 24.323 75.46 24.088 75.88 23.822 76.215 23.524L76.864 25.612C76.383 26.021 75.843 26.35 75.244 26.602 74.643 26.854 73.924 26.98 73.084 26.98zM58.648 17.692L58.648 26.728 55.84 26.728 55.84 8.584 58.648 8.584 58.648 16.972 63.004 8.584 65.847 8.584 61.347 17.116 66.496 26.728 63.436 26.728 58.648 17.692zM47.956 10.636C47.091 10.636 46.48 11.122 46.12 12.094 45.759 13.066 45.531 14.368 45.436 16L50.08 16C50.08 15.232 50.044 14.519 49.971 13.858 49.9 13.198 49.786 12.628 49.63 12.148 49.473 11.668 49.257 11.296 48.982 11.032 48.706 10.768 48.364 10.636 47.956 10.636zM52.996 25.504C52.42 25.96 51.759 26.32 51.015 26.584 50.271 26.848 49.444 26.98 48.532 26.98 46.66 26.98 45.183 26.254 44.104 24.802 43.024 23.35 42.484 21.22 42.484 18.412 42.484 16.948 42.586 15.604 42.79 14.38 42.994 13.156 43.317 12.094 43.761 11.194 44.206 10.294 44.775 9.592 45.471 9.088 46.168 8.584 46.996 8.332 47.956 8.332 48.699 8.332 49.383 8.482 50.007 8.782 50.632 9.083 51.16 9.568 51.591 10.24 52.024 10.912 52.359 11.782 52.599 12.85 52.84 13.918 52.96 15.22 52.96 16.756L52.96 18.304 45.4 18.304C45.4 20.368 45.681 21.928 46.246 22.984 46.809 24.04 47.655 24.568 48.784 24.568 49.576 24.568 50.278 24.43 50.889 24.154 51.502 23.878 51.988 23.608 52.347 23.344L52.996 25.504zM36.58 10.888L33.448 10.888 33.448 11.211C33.448 12.169 33.429 13.216 33.394 14.353 33.358 15.49 33.28 16.645 33.16 17.818 33.04 18.991 32.872 20.146 32.656 21.282 32.44 22.42 32.139 23.467 31.756 24.424L36.58 24.424 36.58 10.888zM40.792 30.292L38.272 30.292 38.272 26.728 30.496 26.728 30.496 30.292 27.975 30.292 27.975 24.424 29.091 24.424C29.5 23.464 29.824 22.402 30.064 21.238 30.303 20.074 30.49 18.875 30.622 17.638 30.754 16.402 30.838 15.142 30.874 13.858 30.91 12.574 30.927 11.333 30.927 10.132L30.927 8.584 39.351 8.584 39.351 24.424 40.792 24.424 40.792 30.292zM26.356 8.584L26.356 26.728 23.584 26.728 23.584 18.592 19.408 18.592 19.408 26.728 16.599 26.728 16.599 8.584 19.408 8.584 19.408 16.288 23.584 16.288 23.584 8.584 26.356 8.584 26.356 8.584zM94.035 2.428L88.455 2.428C88.407 5.727 88.335 8.622 88.239 11.114 88.143 13.605 88.023 15.79 87.879 17.668 87.711 19.619 87.477 21.226 87.177 22.49 86.877 23.753 86.487 24.686 86.007 25.288L94.035 25.288 94.035 2.428zM95.943 26.728L84.927 26.728 84.675 31.012 83.271 31.012 83.271 25.288 84.027 25.288C84.651 24.759 85.131 23.822 85.467 22.476 85.802 21.13 86.067 19.531 86.259 17.681 86.451 15.758 86.583 13.396 86.655 10.596 86.727 7.796 86.787 4.594 86.835.988L95.835.988 95.835 25.288 97.599 25.288 97.599 31.012 96.195 31.012 95.943 26.728 95.943 26.728zM104.691 9.664C103.73 9.664 102.909 10.255 102.224 11.437 101.541 12.619 101.163 14.344 101.09 16.612L107.678 16.612C107.823 14.201 107.589 12.44 106.977 11.33 106.365 10.219 105.602 9.664 104.691 9.664zM101.054 17.944C101.102 20.452 101.451 22.363 102.098 23.677 102.747 24.991 103.73 25.648 105.05 25.648 105.65 25.648 106.178 25.551 106.634 25.355 107.09 25.159 107.474 24.927 107.787 24.658 108.147 24.389 108.459 24.06 108.722 23.668L109.262 25.036C108.974 25.444 108.627 25.792 108.218 26.08 107.859 26.344 107.415 26.579 106.886 26.782 106.359 26.986 105.735 27.088 105.014 27.088 103.094 27.088 101.678 26.26 100.767 24.604 99.854 22.948 99.399 20.632 99.399 17.656 99.399 16.168 99.53 14.842 99.795 13.678 100.058 12.514 100.424 11.524 100.893 10.708 101.361 9.893 101.919 9.274 102.567 8.854 103.215 8.435 103.923 8.224 104.691 8.224 105.483 8.224 106.19 8.428 106.815 8.836 107.438 9.245 107.955 9.856 108.363 10.672 108.77 11.488 109.058 12.502 109.227 13.714 109.394 14.926 109.407 16.336 109.262 17.944L101.054 17.944 101.054 17.944z"/>
    <polyline points="120.35 18.052 114.159 18.052 114.159 26.728 112.466 26.728 112.466 8.584 114.159 8.584 114.159 16.612 120.35 16.612 120.35 8.584 122.043 8.584 122.043 26.728 120.35 26.728 120.35 18.052"/>
    <path d="M127.73,16.648 L127.73,25.396 L128.81,25.396 C130.082,25.396 131.114,25.054 131.906,24.37 C132.698,23.686 133.094,22.564 133.094,21.004 C133.094,19.468 132.734,18.358 132.014,17.674 C131.294,16.99 130.286,16.648 128.99,16.648 L127.73,16.648 Z M126.038,8.584 L127.73,8.584 L127.73,15.316 L129.062,15.316 C130.79,15.316 132.17,15.784 133.202,16.72 C134.234,17.656 134.75,19.072 134.75,20.968 C134.75,22.888 134.21,24.329 133.13,25.288 C132.05,26.248 130.658,26.728 128.954,26.728 L126.038,26.728 L126.038,8.584 L126.038,8.584 Z"/>
    <polyline points="139.322 10.024 139.322 26.728 137.666 26.728 137.666 8.584 145.334 8.584 145.334 10.024 139.322 10.024"/>
    <path d="M156.385,14.092 C156.385,13.612 156.397,13.174 156.422,12.778 C156.445,12.382 156.481,11.992 156.529,11.608 L156.422,11.608 C156.3,12.017 156.157,12.406 155.989,12.778 C155.821,13.15 155.641,13.54 155.449,13.948 L149.546,26.728 L148.105,26.728 L148.105,8.584 L149.689,8.584 L149.689,21.184 C149.689,21.665 149.676,22.108 149.653,22.516 C149.629,22.924 149.593,23.332 149.546,23.74 L149.653,23.74 C149.773,23.332 149.917,22.93 150.086,22.534 C150.253,22.138 150.432,21.736 150.625,21.328 L156.529,8.584 L158.006,8.584 L158.006,26.728 L156.385,26.728 L156.385,14.092"/>
  </g>
</svg>
