<svg xmlns="http://www.w3.org/2000/svg" viewBox="0 0 400 73.11"><defs><style>.cls-1{fill:#fff;}</style></defs><title>bankLogoLight</title><g id="Слой_2" data-name="Слой 2"><g id="Слой_1-2" data-name="Слой 1"><path class="cls-1" d="M120.16,36.45a5.4,5.4,0,0,0,5.68-5.68c0-3.59-2.19-6.46-6.07-6.46H103.95V36.45Zm-.39-18.16c8,0,13,5.2,13,12.39,0,7.48-5,11.79-13,11.79H103.95V54.7H97.2V18.29Z"/><path class="cls-1" d="M157.73,23.4c-8.45,0-14.23,5.72-14.23,13.05,0,7.53,5.54,13.1,14.23,13.1s14.12-5.62,14.12-13.1S166.37,23.4,157.73,23.4m0,32.32c-11.6,0-21.21-7.71-21.21-19.27s9.61-19.27,21.21-19.27S178.83,25,178.83,36.45s-9.46,19.27-21.11,19.27"/><path class="cls-1" d="M206.8,55.67c-12.19,0-21.36-7.72-21.36-19.27,0-11.36,9.31-19.22,21.36-19.22a27,27,0,0,1,16.94,5.43L220.13,28A20.81,20.81,0,0,0,207,23.49c-8.89,0-14.42,5.63-14.42,12.91,0,7.52,5.58,13,14.51,13A21.48,21.48,0,0,0,220.43,45L224,50.33c-4.61,3.4-10,5.34-17.22,5.34"/><path class="cls-1" d="M285.13,39.94h14l-7-14.76Zm-2.81,5.92-4.17,8.84h-7.29l17.71-36.41h7.08L313.43,54.7h-7.28L302,45.86Z"/><polygon class="cls-1" points="349.14 54.7 349.14 39.12 325.32 39.12 325.32 54.7 318.57 54.7 318.57 18.29 325.32 18.29 325.32 33.15 349.14 33.15 349.14 18.29 355.89 18.29 355.89 54.7 349.14 54.7"/><polygon class="cls-1" points="365.88 54.7 365.88 18.29 372.64 18.29 372.64 35.28 390.93 18.29 399.22 18.29 380.4 35.82 400 54.7 390.93 54.7 372.64 37.03 372.64 54.7 365.88 54.7"/><path class="cls-1" d="M254.58,48.62h-16.2v-11h16.2c4.23,0,6.63,2.23,6.63,5.48,0,3.59-1.91,5.48-6.63,5.48m-.39-17H238.39V24h26v-5.7H231.64V54.64h22.56c7.95,0,13.43-4.32,13.43-11.5,0-7.47-5.48-11.5-13.43-11.5"/><path class="cls-1" d="M73.12,35.68V0H0V73.11H73.12V35.68ZM4.76,4.76H68.36V35.68h-8V34.33H12.75v1.35h-8Zm63.61,63.6H4.76V37.43h8v1.35H60.33V37.43h8Z"/></g></g></svg>