<svg xmlns="http://www.w3.org/2000/svg" viewBox="0 0 77.36 74.32"><defs><style>.cls-1{fill:#fff;}</style></defs><title>bankLogoLight_1</title><g id="Слой_2" data-name="Слой 2"><g id="Слой_1-2" data-name="Слой 1"><path class="cls-1" d="M23.51,46.54.09,33.07q-.07,1-.09,2a39.16,39.16,0,0,0,.64,7.55,38.61,38.61,0,0,0,15.61,24.5,38.87,38.87,0,0,0,9.75,5,39.58,39.58,0,0,0,4.67,1.31,38.82,38.82,0,0,0,6.92.81h2.15q1.89-.05,3.81-.3A38.72,38.72,0,0,0,76.64,43.12q.21-1,.36-2.12a39.21,39.21,0,0,0,.37-5.35c0-.34,0-.68,0-1a38.57,38.57,0,0,0-.43-4.81A39,39,0,0,0,73.1,18Zm0-9.73L1.71,24.27q-.44,1.44-.78,2.92-.15.67-.28,1.34L23.51,41.68,71,14.37q-.7-1.06-1.47-2.07l-.69-.87L68.45,11Zm0-9.72L5.09,16.49a38.58,38.58,0,0,0-1.89,3.78L23.51,31.95l42-24.15a39,39,0,0,0-3.4-2.91Zm0-9.73L10.07,9.62a39.09,39.09,0,0,0-2.69,3.31l16.13,9.28,34.69-20A38.63,38.63,0,0,0,53.68,0Z"/></g></g></svg>