<svg xmlns="http://www.w3.org/2000/svg" viewBox="0 0 393.11 74.32"><defs><style>.cls-1{fill:#fff;}</style></defs><title>bankLogoLight</title><g id="Слой_2" data-name="Слой 2"><g id="Слой_1-2" data-name="Слой 1"><path class="cls-1" d="M23.51,46.54.09,33.07q-.07,1-.09,2a39.16,39.16,0,0,0,.64,7.55,38.61,38.61,0,0,0,15.61,24.5,38.87,38.87,0,0,0,9.75,5,39.58,39.58,0,0,0,4.67,1.31,38.82,38.82,0,0,0,6.92.81h2.15q1.89-.05,3.81-.3A38.72,38.72,0,0,0,76.64,43.12q.21-1,.36-2.12a39.21,39.21,0,0,0,.37-5.35c0-.34,0-.68,0-1a38.57,38.57,0,0,0-.43-4.81A39,39,0,0,0,73.1,18Zm0-9.73L1.71,24.27q-.44,1.44-.78,2.92-.15.67-.28,1.34L23.51,41.68,71,14.37q-.7-1.06-1.47-2.07l-.69-.87L68.45,11Zm0-9.72L5.09,16.49a38.58,38.58,0,0,0-1.89,3.78L23.51,31.95l42-24.15a39,39,0,0,0-3.4-2.91Zm0-9.73L10.07,9.62a39.09,39.09,0,0,0-2.69,3.31l16.13,9.28,34.69-20A38.63,38.63,0,0,0,53.68,0Z"/><polygon class="cls-1" points="97.74 62.97 97.74 60.85 393.06 60.85 393.06 64.82 97.74 64.82 97.74 62.97"/><path class="cls-1" d="M366.5,48.46a1.64,1.64,0,0,1-.44-1,13.21,13.21,0,0,1-.09-1.68V14.88a13.26,13.26,0,0,1,.09-1.69,1.65,1.65,0,0,1,.44-1,2.21,2.21,0,0,1,1-.53c.42-.11.59-.19.75-.23v-1.3H355.08v1.3c.16,0,.32.11.75.23a2.2,2.2,0,0,1,1,.52,1.67,1.67,0,0,1,.44,1,13.69,13.69,0,0,1,.09,1.69V45.79a13.63,13.63,0,0,1-.09,1.68,1.65,1.65,0,0,1-.44,1,2.15,2.15,0,0,1-1,.52c-.42.12-.59.19-.75.23v1.3h13.16v-1.3c-.16,0-.32-.11-.75-.23a2.13,2.13,0,0,1-1-.52m22.44-2.23q-2-2.21-3.31-3.66-1.86-2.08-3.48-3.94c-1.08-1.23-2.11-2.46-3.07-3.65s-1.89-2.41-2.76-3.62-1.73-2.53-2.58-3.92l.64-.81q1.44-1.85,3.42-4.26t4.06-4.75Q384,15.26,386,13.26a23.89,23.89,0,0,1,3.77-3v-.06h-9.45a25.7,25.7,0,0,1-1.43,3c-.63,1.18-1.38,2.45-2.22,3.8S375,19.7,374,21.15s-1.85,2.83-2.78,4.15l-2.58,3.65q-1.19,1.67-2,2.72l2.64,3.59,2.26,3.1q1.07,1.48,2.09,2.9l2.12,3q1.16,1.62,2.06,3.18t1.65,3.08l13.63.12q-2.15-2.21-4.18-4.41m-104.6-13,5.57-16.3,5.45,16.3ZM307,41.47,297.79,15a19.61,19.61,0,0,1-.84-2.93c-.14-.75-.24-1.4-.32-1.94H285.09v1.3c.16,0,.32.12.75.23a2.21,2.21,0,0,1,1,.53,1.67,1.67,0,0,1,.44,1c0,.25.05.55.07.88a7.9,7.9,0,0,1-.5,2.63l-6.44,15.94c-1.19,3-2.22,5.47-3.07,7.48s-1.58,3.69-2.17,5-1.12,2.44-1.57,3.25-.84,1.51-1.19,2.09h7.31a43.06,43.06,0,0,1,.9-5q.78-3.51,2.81-9.65h12.81L298,41.06c.77,2.32,1.39,4.27,1.85,5.85a21,21,0,0,1,.81,3.6h10.27c-.43-.81-1-1.9-1.6-3.28s-1.4-3.29-2.29-5.77m40.94-31.31H337v1.3c.16,0,.32.11.75.23a2.19,2.19,0,0,1,1,.52,1.67,1.67,0,0,1,.44,1,13.37,13.37,0,0,1,.09,1.69v12.9h-15.6V22.94h0V14.88a12.9,12.9,0,0,1,.09-1.69,1.66,1.66,0,0,1,.43-1,2.23,2.23,0,0,1,1-.53c.43-.11.59-.19.75-.23v-1.3H312.81v1.3c.16,0,.33.11.75.23a2.21,2.21,0,0,1,1,.52,1.67,1.67,0,0,1,.44,1,12.72,12.72,0,0,1,.08,1.62v.93s0,0,0,0V43.61s0,.1,0,.15v2.1a13.41,13.41,0,0,1-.08,1.61,1.66,1.66,0,0,1-.44,1,2.16,2.16,0,0,1-1,.52c-.43.12-.59.19-.75.23v1.3H326v-1.3c-.16,0-.32-.11-.75-.23a2.15,2.15,0,0,1-1-.52,1.65,1.65,0,0,1-.43-1,12.85,12.85,0,0,1-.09-1.68V37.73h0V30.45h15.6V45.79a13.31,13.31,0,0,1-.09,1.68,1.66,1.66,0,0,1-.43,1,2.17,2.17,0,0,1-1,.52c-.42.12-.59.19-.75.23v1.3H350.2v-1.3c-.16,0-.32-.11-.75-.23a2.14,2.14,0,0,1-1-.52,1.63,1.63,0,0,1-.44-1,13.36,13.36,0,0,1-.08-1.68V37.73l-.06.18V22.77l.06.17V14.88a13.36,13.36,0,0,1,.09-1.69,1.65,1.65,0,0,1,.43-1,2.24,2.24,0,0,1,1-.53c.42-.11.59-.19.75-.23v-1.3ZM262.39,43.09a7.8,7.8,0,0,1-1.77,3.19,5.09,5.09,0,0,1-2.52,1.42,13.19,13.19,0,0,1-2.93.32,9.92,9.92,0,0,1-2.26-.2,2.53,2.53,0,0,1-1.24-.67,2.26,2.26,0,0,1-.55-1.21A13.51,13.51,0,0,1,251,44V27.15h3.47q4.7,0,6.64,2.4t1.95,7.86a19.18,19.18,0,0,1-.67,5.68m5.74-15.63a14.46,14.46,0,0,0-5.51-2.15,44,44,0,0,0-8.26-.66H251V15c0-1,.21-1.7.63-2a5.68,5.68,0,0,1,2.67-.41h4.87a31.15,31.15,0,0,1,3.68.17,5.23,5.23,0,0,1,2.35.81,4.54,4.54,0,0,1,1.51,1.91A23.26,23.26,0,0,1,267.87,19H270V10.16H240.1v1.3c.16,0,.32.11.75.23a2.2,2.2,0,0,1,1,.52,1.66,1.66,0,0,1,.44,1,13.29,13.29,0,0,1,.09,1.69v8.06h0v14.8h0v8.06a13.23,13.23,0,0,1-.09,1.68,1.64,1.64,0,0,1-.44,1,2.14,2.14,0,0,1-1,.52c-.42.12-.59.19-.75.23v1.3h15.18a53.26,53.26,0,0,0,6.18-.35,13.91,13.91,0,0,0,5.42-1.71,10,10,0,0,0,3.83-4.06,15.77,15.77,0,0,0,1.45-7.4,15.14,15.14,0,0,0-1-5.71,8.46,8.46,0,0,0-3.07-3.83m-42.5,1.8Q224.15,32,220.44,32h-4.06V14.85a5.54,5.54,0,0,1,.08-1,1.23,1.23,0,0,1,.4-.7,2.26,2.26,0,0,1,1-.38,11.59,11.59,0,0,1,1.82-.11,10.17,10.17,0,0,1,2.93.41A5.61,5.61,0,0,1,225,14.48a6.67,6.67,0,0,1,1.57,2.7,13.75,13.75,0,0,1,.55,4.23,16.94,16.94,0,0,1-1.47,7.86m6-17.28a12.29,12.29,0,0,0-4.73-1.51,47,47,0,0,0-5.51-.32H205.42v1.3c.16,0,.32.11.75.23a2.18,2.18,0,0,1,1,.52,1.66,1.66,0,0,1,.44,1,13.25,13.25,0,0,1,.09,1.69V45.79a13.19,13.19,0,0,1-.09,1.68,1.64,1.64,0,0,1-.44,1,2.13,2.13,0,0,1-1,.52c-.42.12-.59.19-.75.23v1.3h13.21v-1.3c-.16,0-.32-.11-.75-.23a2.15,2.15,0,0,1-1-.52,1.67,1.67,0,0,1-.44-1,13.33,13.33,0,0,1-.08-1.68V34.51h4a37.35,37.35,0,0,0,6-.47,13.51,13.51,0,0,0,5-1.83,9.61,9.61,0,0,0,3.45-3.86,14.55,14.55,0,0,0,1.28-6.61,13.59,13.59,0,0,0-1.22-6.26A8.51,8.51,0,0,0,231.6,12m-35,32.9A4.36,4.36,0,0,1,195.33,47a4.22,4.22,0,0,1-2.3.87A37.41,37.41,0,0,1,189,48a32.32,32.32,0,0,1-3.8-.17,4.8,4.8,0,0,1-2.05-.64,2,2,0,0,1-.87-1.36,12,12,0,0,1-.17-2.29V30.85h5.45c.47,0,1,0,1.66.06s1.29.09,2,.18a12.09,12.09,0,0,1,1.95.38,5.71,5.71,0,0,1,1.56.67V27a5.22,5.22,0,0,1-1.56.64,19.19,19.19,0,0,1-1.95.38,17.06,17.06,0,0,1-2,.17c-.64,0-1.19,0-1.66,0h-5.45V14.8a2.74,2.74,0,0,1,.37-1.74,2.21,2.21,0,0,1,1.59-.41h4.35a31.23,31.23,0,0,1,3.68.17,5.23,5.23,0,0,1,2.34.81,4.52,4.52,0,0,1,1.51,1.91A22.82,22.82,0,0,1,197.07,19h2.15V10.16h-28v1.3c.16,0,.32.11.75.23a2.22,2.22,0,0,1,1,.52,1.67,1.67,0,0,1,.43,1,13.1,13.1,0,0,1,.09,1.69V45.79a13,13,0,0,1-.09,1.68,1.65,1.65,0,0,1-.43,1,2.18,2.18,0,0,1-1,.52c-.42.12-.59.19-.75.23v1.3h28.93V41.12h-2.67a36.48,36.48,0,0,1-.9,3.77m-39.83-1.8A7.82,7.82,0,0,1,155,46.28a5.09,5.09,0,0,1-2.52,1.42,13.19,13.19,0,0,1-2.93.32,9.93,9.93,0,0,1-2.26-.2,2.53,2.53,0,0,1-1.24-.67,2.23,2.23,0,0,1-.55-1.21,13.44,13.44,0,0,1-.11-1.92V27.15h3.48q4.69,0,6.64,2.4t1.94,7.86a19.44,19.44,0,0,1-.67,5.68m5.74-15.63A14.5,14.5,0,0,0,157,25.32a44,44,0,0,0-8.27-.66h-3.37V15c0-1,.21-1.7.64-2a5.64,5.64,0,0,1,2.67-.41h4.87a31.13,31.13,0,0,1,3.68.17,5.25,5.25,0,0,1,2.35.81,4.57,4.57,0,0,1,1.51,1.91A23.88,23.88,0,0,1,162.22,19h2.15V10.16H134.45v1.3c.16,0,.32.11.75.23a2.18,2.18,0,0,1,1,.52,1.67,1.67,0,0,1,.44,1,13,13,0,0,1,.09,1.63v.85s0,0,0,.05v7.22h0v14.8h0v6s0,.06,0,.1v2a13,13,0,0,1-.09,1.63,1.66,1.66,0,0,1-.44,1,2.15,2.15,0,0,1-1,.52c-.42.12-.59.19-.75.23v1.3h15.19a53.11,53.11,0,0,0,6.17-.35,13.85,13.85,0,0,0,5.42-1.71,10,10,0,0,0,3.83-4.06,15.78,15.78,0,0,0,1.45-7.4,15.1,15.1,0,0,0-1-5.71,8.47,8.47,0,0,0-3.07-3.83M127.32,46.13a18.58,18.58,0,0,1-2.12.78,16.65,16.65,0,0,1-2.58.55,24.11,24.11,0,0,1-3.36.2,11.82,11.82,0,0,1-6.06-1.39,9.88,9.88,0,0,1-3.68-3.83,17,17,0,0,1-1.83-5.74,48.85,48.85,0,0,1-.49-7.19q0-3,.29-6.12a17.52,17.52,0,0,1,1.39-5.57,9.89,9.89,0,0,1,3.25-4A9.71,9.71,0,0,1,118,12.25a9.5,9.5,0,0,1,5.83,1.82,8.09,8.09,0,0,1,3,5.54h2.55V11.55a14.68,14.68,0,0,0-2.58-.9,24.93,24.93,0,0,0-3.1-.58c-1.08-.13-2.15-.24-3.19-.32s-2-.11-2.84-.11a25.43,25.43,0,0,0-9.1,1.45,15.36,15.36,0,0,0-6.18,4.2A17.17,17.17,0,0,0,98.88,22a32.94,32.94,0,0,0-1.13,9,29.66,29.66,0,0,0,1.13,8.53,16.66,16.66,0,0,0,3.47,6.4,15.11,15.11,0,0,0,5.95,4,23.73,23.73,0,0,0,8.58,1.39,27.74,27.74,0,0,0,4.58-.35,26,26,0,0,0,3.8-.9,24.74,24.74,0,0,0,3-1.18q1.33-.64,2.32-1.22l-1.28-2.49-2,.9"/></g></g></svg>