<svg xmlns="http://www.w3.org/2000/svg" viewBox="0 0 400 114.42"><defs><style>.cls-1{fill:#016fd0;}</style></defs><title>bankLogoOriginal</title><g id="Слой_2" data-name="Слой 2"><g id="svg2"><path id="path3046" class="cls-1" d="M21.77,0,0,50.62H14.17l4-10.13H41.54l4,10.13H60L38.27,0Zm8.05,11.78L36.94,29.5H22.68Z"/><path id="path3048" class="cls-1" d="M61.52,50.61V0L81.66.07,93.37,32.71,104.8,0h20V50.61H112.13V13.32L98.72,50.61H87.62L74.17,13.32V50.61Z"/><path id="path3050" class="cls-1" d="M133.44,50.61V0h41.29V11.32h-28.5V20h27.83V30.63H146.23v9h28.5v11Z"/><path id="path3052" class="cls-1" d="M182.05,0V50.62h12.66v-18H200l15.17,18h15.46L214,32A15.41,15.41,0,0,0,227.9,16.43C227.9,5.78,219.54,0,210.21,0Zm12.66,11.32h14.46c3.47,0,6,2.71,6,5.33,0,3.36-3.27,5.33-5.81,5.33H194.71V11.33Z"/><path id="path3054" class="cls-1" d="M246,50.61H233.07V0H246Z"/><path id="path3056" class="cls-1" d="M276.62,50.61h-2.79c-13.49,0-21.68-10.63-21.68-25.1,0-14.82,8.1-25.51,25.14-25.51h14V12h-14.5c-6.91,0-11.8,5.4-11.8,13.65,0,9.8,5.59,13.92,13.65,13.92H282Z"/><path id="path3058" class="cls-1" d="M304.15,0,282.38,50.62h14.18l4-10.13h23.35l4,10.13H342.4L320.66,0Zm8.06,11.78,7.11,17.71H305.07l7.14-17.71Z"/><path id="path3060" class="cls-1" d="M343.88,50.61V0H360l20.54,31.8V0h12.65V50.61H377.6L356.53,18V50.61Z"/><path id="path3062" class="cls-1" d="M60.62,114.41V63.8h41.29V75.12H73.41v8.65h27.84V94.43H73.41v9h28.5v11Z"/><path id="path3064" class="cls-1" d="M262.94,114.41V63.8h41.29V75.12h-28.5v8.65h27.7V94.43h-27.7v9h28.5v11Z"/><path id="path3066" class="cls-1" d="M103.52,114.41l20.1-25L103,63.8H119l12.26,15.83,12.3-15.83h15.31L138.54,89.1l20.14,25.31H142.74l-11.9-15.59-11.61,15.59Z"/><path id="path3068" class="cls-1" d="M160.18,63.8v50.62h13v-16h13.32c11.27,0,19.81-6,19.81-17.6,0-9.63-6.7-17-18.17-17Zm13,11.45h14c3.64,0,6.24,2.23,6.24,5.83,0,3.37-2.59,5.82-6.28,5.82h-14V75.25Z"/><path id="path3072" class="cls-1" d="M211.8,63.8v50.61h12.65v-18h5.33l15.17,18h15.46L243.76,95.76a15.41,15.41,0,0,0,13.88-15.54c0-10.66-8.36-16.42-17.69-16.42Zm12.65,11.32h14.46c3.47,0,6,2.71,6,5.32,0,3.37-3.27,5.33-5.81,5.33H224.45Z"/><path id="path3074" class="cls-1" d="M310.09,114.41v-11h25.32c3.75,0,5.37-2,5.37-4.25s-1.62-4.27-5.37-4.27H324c-10,0-15.49-6.06-15.49-15.16,0-8.12,5.08-15.94,19.86-15.94H353l-5.33,11.38H326.34c-4.07,0-5.33,2.14-5.33,4.18a4.41,4.41,0,0,0,4.66,4.41h12c11.09,0,15.9,6.29,15.9,14.53,0,8.86-5.36,16.11-16.5,16.11Z"/><path id="path3076" class="cls-1" d="M356.53,114.41v-11h25.32c3.75,0,5.37-2,5.37-4.25s-1.62-4.27-5.37-4.27H370.41c-10,0-15.49-6.06-15.49-15.16,0-8.12,5.08-15.94,19.86-15.94h24.64l-5.33,11.38H372.78c-4.07,0-5.33,2.14-5.33,4.18a4.41,4.41,0,0,0,4.66,4.41h12c11.09,0,15.9,6.29,15.9,14.53,0,8.86-5.36,16.11-16.5,16.11Z"/></g></g></svg>