<svg xmlns="http://www.w3.org/2000/svg" viewBox="0 0 1945 504"><defs><style>.cls-1{fill:#0079be;}.cls-2{fill:#fff;}.cls-3{fill:#211e1f;}</style></defs><g id="Слой_2" data-name="Слой 2"><g id="Layer_1" data-name="Layer 1"><g id="_Layer_1" data-name=" #Layer_1"><path class="cls-1" d="M372.69,504c137.75.66,263.48-112.34,263.48-249.81C636.17,103.86,510.44,0,372.69,0H254.14C114.74,0,0,103.89,0,254.19,0,391.69,114.74,504.66,254.14,504Z"/><path class="cls-2" d="M254.7,20.83c-127.38,0-230.6,103.29-230.63,230.72S127.32,482.2,254.7,482.24,485.35,379,485.37,251.55,382.11,20.87,254.7,20.83ZM108.51,251.55h0a146.46,146.46,0,0,1,93.85-136.47V388A146.4,146.4,0,0,1,108.51,251.55ZM307,388.05h0v-273a146.14,146.14,0,0,1,0,273Z"/><path class="cls-3" d="M717,108.43c0-23.84-12.43-22.27-24.35-22.53V79c10.33.51,20.92.51,31.27.51,11.13,0,26.24-.51,45.86-.51,68.62,0,106,45.84,106,92.78C875.72,198,860.36,264,766.54,264c-13.51,0-26-.52-38.43-.52-11.92,0-23.59.26-35.51.52v-6.88C708.49,255.55,716.19,255,717,237V108.43Zm26,124.33h0c0,20.41,14.59,22.79,27.57,22.79,57.26,0,76.06-43.21,76.06-82.71,0-49.55-31.81-85.33-82.95-85.33-10.88,0-15.88.78-20.68,1.06V232.76Z"/><path class="cls-3" d="M885,257.15h5c7.41,0,12.72,0,12.72-8.77V176.56c0-11.65-4-13.27-13.78-18.54v-4.25c12.45-3.74,27.31-8.74,28.35-9.54a9.42,9.42,0,0,1,4.78-1.34c1.31,0,1.86,1.6,1.86,3.73V248.38c0,8.77,5.83,8.77,13.25,8.77h4.5V264c-9,0-18.3-.53-27.82-.53s-19.09.26-28.88.53v-6.89Zm28.35-155.07h0c-6.9,0-13-6.36-13-13.25,0-6.64,6.36-12.75,13-12.75a13,13,0,0,1,13,12.75A13.25,13.25,0,0,1,913.37,102.08Z"/><path class="cls-3" d="M966.9,178.14c0-9.8-2.93-12.44-15.36-17.48v-5c11.39-3.71,22.24-7.16,35-12.74.79,0,1.57.54,1.57,2.65v17.24c15.13-10.86,28.12-19.89,45.9-19.89,22.5,0,30.45,16.44,30.45,37.11v68.38c0,8.77,5.83,8.77,13.26,8.77h4.77V264c-9.3,0-18.57-.53-28.09-.53s-19.1.26-28.63.53v-6.89h4.76c7.44,0,12.71,0,12.71-8.77V179.75c0-15.13-9.23-22.54-24.36-22.54-8.47,0-22,6.89-30.77,12.73v78.44c0,8.77,5.86,8.77,13.29,8.77h4.76V264c-9.27,0-18.56-.53-28.1-.53s-19.09.26-28.62.53v-6.89h4.78c7.42,0,12.71,0,12.71-8.77V178.14Z"/><path class="cls-3" d="M1102.61,190.88c-.55,2.39-.55,6.36,0,15.38,1.56,25.17,17.77,45.84,38.94,45.84,14.59,0,26-7.95,35.8-17.75l3.7,3.72c-12.2,16.16-27.3,29.94-49,29.94-42.15,0-50.63-40.83-50.63-57.78,0-52,35-67.34,53.52-67.34,21.48,0,44.55,13.51,44.8,41.61a30.76,30.76,0,0,1-.25,4.79l-2.4,1.59Zm46.92-8.49h0c6.61,0,7.39-3.45,7.39-6.62,0-13.52-8.21-24.39-23.06-24.39-16.15,0-27.28,11.91-30.46,31Z"/><path class="cls-3" d="M1185.82,257.15H1193c7.4,0,12.7,0,12.7-8.77V173.91c0-8.21-9.79-9.81-13.78-11.93v-4c19.35-8.23,30-15.13,32.37-15.13,1.57,0,2.35.8,2.35,3.46V170.2h.56c6.61-10.33,17.76-27.31,33.91-27.31,6.63,0,15.1,4.5,15.1,14.05,0,7.16-5,13.54-12.44,13.54-8.25,0-8.25-6.38-17.51-6.38-4.51,0-19.34,6.1-19.34,22v62.27c0,8.77,5.29,8.77,12.72,8.77h14.83V264c-14.58-.27-25.67-.53-37.09-.53-10.86,0-22,.26-31.54.53v-6.89Z"/><path class="cls-3" d="M1287.86,227.18c3.45,17.5,14,32.35,33.4,32.35,15.6,0,21.44-9.54,21.44-18.82,0-31.28-57.76-21.21-57.76-63.88,0-14.85,11.94-33.94,41.08-33.94a69.58,69.58,0,0,1,30.19,7.71l1.88,27H1352c-2.64-16.68-11.91-26.23-28.89-26.23-10.6,0-20.66,6.1-20.66,17.49,0,31,61.48,21.47,61.48,63.08,0,17.49-14.05,36.06-45.59,36.06-10.6,0-23-3.71-32.32-9l-2.92-30.49,4.78-1.34Z"/><path class="cls-3" d="M1603.22,127h-6.61c-5-31-27-43.47-56.71-43.47-30.5,0-74.76,20.4-74.76,84,0,53.58,38.19,92,79,92,26.23,0,48-18,53.28-45.86l6.08,1.58-6.08,38.7c-11.13,6.91-41.08,14.06-58.59,14.06-62,0-101.21-40-101.21-99.67C1437.61,114,1486.1,75,1538,75c21.46,0,42.13,6.92,62.54,14.08l2.64,37.89Z"/><path class="cls-3" d="M1612.78,257.15h5c7.43,0,12.75,0,12.75-8.77V100.76c0-17.24-4-17.77-14.06-20.68V75.84c10.6-3.44,21.73-8.22,27.3-11.41,2.89-1.58,5-2.92,5.81-2.92,1.62,0,2.15,1.6,2.15,3.73V248.38c0,8.77,5.82,8.77,13.25,8.77h4.47V264c-9,0-18.25-.53-27.8-.53s-19.07.26-28.89.53v-6.89Z"/><path class="cls-3" d="M1783,249.44c0,4.79,2.9,5.05,7.4,5.05,3.19,0,7.15-.26,10.61-.26v5.58c-11.41,1.05-33.14,6.62-38.18,8.2l-1.33-.8V245.76c-15.88,13-28.09,22.25-46.92,22.25-14.31,0-29.15-9.27-29.15-31.52V168.61c0-6.89-1.05-13.52-15.87-14.84v-5c9.55-.26,30.71-1.85,34.17-1.85,2.94,0,2.94,1.85,2.94,7.68v68.37c0,8,0,30.76,23,30.76,9,0,20.93-6.89,32-16.14V166.21c0-5.28-12.71-8.19-22.23-10.85v-4.77c23.82-1.6,38.69-3.71,41.32-3.71,2.15,0,2.15,1.85,2.15,4.78v97.78Z"/><path class="cls-3" d="M1835.68,162c10.59-9,24.9-19.09,39.49-19.09,30.75,0,49.28,26.8,49.28,55.67,0,34.72-25.43,69.45-63.35,69.45-19.6,0-29.93-6.37-36.83-9.27l-7.94,6.08-5.55-2.9a313.66,313.66,0,0,0,3.7-47.18v-114c0-17.24-4-17.77-14.06-20.68V75.84c10.63-3.44,21.73-8.22,27.3-11.41,2.92-1.58,5-2.92,5.85-2.92,1.58,0,2.11,1.6,2.11,3.73V162Zm0,72.09h0c0,10.08,9.53,27.06,27.29,27.06,28.36,0,40.28-27.85,40.28-51.45,0-28.62-21.71-52.47-42.39-52.47-9.83,0-18,6.37-25.18,12.48v64.38Z"/><path class="cls-3" d="M692.3,418.15h2c5.18,0,10.66-.7,10.66-8.21V334.38c0-7.52-5.48-8.23-10.66-8.23h-2v-4.33c5.63,0,14.28.57,21.37.57s15.84-.57,22.62-.57v4.33h-2c-5.17,0-10.66.71-10.66,8.23v75.56c0,7.51,5.49,8.21,10.66,8.21h2v4.35c-6.92,0-15.59-.57-22.78-.57s-15.58.57-21.21.57v-4.35Z"/><path class="cls-3" d="M736.29,423.11c-7,0-15.61-.58-22.79-.58s-15.53.58-21.2.58h-.62v-5.58h2.64c5.23-.12,10-.54,10-7.59V334.38c-.05-7.05-4.81-7.52-10-7.62h-2.64v-5.58h.62c5.67,0,14.31.57,21.36.57s15.81-.57,22.63-.57h.64v5.58h-2.66c-5.23.1-10,.57-10,7.62v75.56c0,7.05,4.82,7.47,10,7.59h2.66v5.58Zm-.62-1.23h0V418.8h-1.4c-5.15,0-11.28-.89-11.31-8.86V334.38c0-8,6.16-8.87,11.31-8.87h1.4v-3.06c-6.66,0-15,.56-22,.56s-15.14-.52-20.72-.56v3.06h1.38c5.14,0,11.29.9,11.29,8.87v75.56c0,8-6.15,8.86-11.29,8.86h-1.38v3.08c5.58-.06,13.73-.58,20.56-.58,7,0,15.37.54,22.17.58Z"/><path class="cls-3" d="M835.36,394.07l.29-.28V339.71c0-11.84-8.23-13.56-12.55-13.56h-3.18v-4.33c6.79,0,13.42.57,20.19.57,5.91,0,11.85-.57,17.75-.57v4.33H855.7c-6.07,0-12.85,1.15-12.85,18.31V410.1a95.46,95.46,0,0,0,.86,14.55h-5.49L764,341.86v59.43c0,12.55,2.43,16.86,13.55,16.86H780v4.35c-6.19,0-12.38-.57-18.59-.57-6.47,0-13.11.57-19.61.57v-4.35h2c10,0,13-6.76,13-18.29V339.11a12.93,12.93,0,0,0-13.11-13h-1.88v-4.33c5.48,0,11.1.57,16.57.57,4.33,0,8.52-.57,12.84-.57l64.19,72.25Z"/><path class="cls-3" d="M843.71,425.28l-6-.22-73.18-81.57v57.8c.17,12.54,2.08,16.1,12.94,16.24h3.09v5.58H780c-6.24,0-12.45-.58-18.6-.58-6.46,0-13.08.58-19.62.58h-.63v-5.58h2.66c9.53,0,12.25-6.17,12.36-17.67V339.12a12.35,12.35,0,0,0-12.5-12.36h-2.52V321.2h.63c5.51,0,11.16.55,16.57.55,4.29,0,8.47-.55,13.33-.34L835,392.76v-53c-.08-11.48-7.73-12.86-11.93-13h-3.82V321.2h.64c6.81,0,13.45.55,20.19.55,5.87,0,11.78-.55,17.74-.55h.63v5.56H855.7c-6,.17-12.06.69-12.23,17.7v65.63a94.66,94.66,0,0,0,.85,14.45l.14.74ZM838.23,424H843a96.18,96.18,0,0,1-.76-13.92V344.46c0-17.31,7.25-18.95,13.46-18.95h1.52v-3.06c-5.68,0-11.38.56-17.11.56-6.6,0-13-.52-19.55-.56v3.06h2.55c4.43,0,13.18,2,13.18,14.21l-.2,54.5-.29.3-.49.45-64.13-72.52c-4.28,0-8.46.56-12.85.56-5.29,0-10.7-.52-15.93-.56l0,3.06h1.28a13.57,13.57,0,0,1,13.72,13.61v60.74c0,11.53-3.21,18.91-13.58,18.95l-1.39,0v3.11c6.25-.06,12.67-.58,19-.58,6,0,12,.52,18,.58v-3.07h-1.82c-11.35,0-14.17-5-14.18-17.52V340.24L838.23,424Zm-2.87-29.95h0l.46-.42Zm-.33-.28h0v0l-.12-.1Z"/><path class="cls-3" d="M879.45,329c-10.83,0-11.24,2.6-13.4,13.12h-4.33c.57-4,1.29-8.06,1.73-12.26a85.4,85.4,0,0,0,.86-12.24h3.47c1.16,4.33,4.76,4.18,8.67,4.18h74.39c3.9,0,7.5-.14,7.8-4.48l3.44.58c-.56,3.9-1.14,7.79-1.58,11.69-.26,3.89-.26,7.79-.26,11.67l-4.34,1.61c-.3-5.33-1-13.87-10.67-13.87H921.58v76.74c0,11.12,5,12.39,11.95,12.39h2.75v4.35c-5.62,0-15.73-.57-23.5-.57-8.65,0-18.76.57-24.39.57v-4.35h2.75c8,0,12-.71,12-12.09V329Z"/><path class="cls-3" d="M936.3,423.11c-5.68,0-15.77-.58-23.52-.58-8.64,0-18.73.58-24.39.58h-.6v-5.58h3.35c8-.19,11.15-.29,11.33-11.47V329.65h-23v-1.27h24.27v77.68c0,11.57-4.66,12.74-12.58,12.75H889v3c5.69,0,15.39-.55,23.76-.55,7.52,0,17.16.52,22.86.55v-3h-2.11c-7,0-12.58-1.72-12.58-13.05V328.38h24.28c9.68,0,10.94,8.27,11.26,13.62l3.11-1.15c0-3.76,0-7.53.28-11.33.42-3.71,1-7.39,1.49-11.07l-2.2-.37c-.67,4.2-4.72,4.41-8.35,4.37H875.7c-3.39,0-7.1-.16-8.39-4.19h-2.38a85.13,85.13,0,0,1-.85,11.7c-.42,4-1.08,7.77-1.62,11.58h3.09c1.9-10.05,3.14-13.31,13.9-13.16v1.27c-10.66.19-10.44,2-12.79,12.65l-.11.49H861l.08-.75c.58-4,1.31-8.06,1.74-12.26a81.26,81.26,0,0,0,.88-12.14V317h4.57l.1.45c1,3.64,3.66,3.66,7.33,3.72h75.12c4-.06,6.94-.12,7.19-3.89l.06-.68.65.14,4.07.64-.09.63c-.58,3.86-1.15,7.76-1.57,11.63s-.29,7.74-.29,11.63v.45l-.4.16-5.11,1.86,0-.84c-.38-5.42-.95-13.26-10.06-13.26h-23v76.11c.13,10.88,4.45,11.63,11.32,11.77h3.38v5.58Z"/><path class="cls-3" d="M966.69,418.15h2c5.18,0,10.67-.7,10.67-8.21V334.38c0-7.52-5.49-8.23-10.67-8.23h-2v-4.33c8.78,0,23.8.57,35.89.57s27.11-.57,36.91-.57c-.24,6.19-.11,15.73.32,22.06l-4.35,1.16c-.69-9.37-2.42-16.86-17.57-16.86h-20V366H1015c8.65,0,10.54-4.89,11.39-12.7h4.32c-.28,5.65-.43,11.27-.43,16.89s.15,11,.43,16.44l-4.32.86c-.85-8.65-1.29-14.27-11.25-14.27H997.86v33.59c0,9.39,8.33,9.39,17.57,9.39,17.31,0,24.94-1.17,29.27-17.59l4,1c-1.89,7.66-3.61,15.29-4.89,22.95-9.24,0-25.83-.57-38.79-.57s-30.15.57-38.37.57v-4.35Z"/><path class="cls-3" d="M1043.84,423.11c-9.26,0-25.84-.59-38.79-.59s-30.13.59-38.36.59h-.61v-5.58h2.63c5.23-.08,10-.54,10-7.59V334.38c-.07-7-4.81-7.51-10-7.62h-2.63V321.2h.61c8.8,0,23.8.55,35.89.55s27.09-.55,36.91-.55h.65l0,.64c-.1,2.17-.14,4.73-.14,7.45,0,5,.14,10.44.43,14.55l0,.52-.48.14-5.07,1.32,0-.74c-.85-9.36-2.1-16.15-16.95-16.29H998.46l0,36.51H1015c8.3-.08,9.79-4.33,10.77-12.1l0-.57h5.53v.65c-.28,5.62-.46,11.24-.46,16.86,0,5.46.18,10.93.46,16.42v.51l-.52.12-5,1,0-.68c-1-8.8-1.06-13.62-10.64-13.73H998.46v33c0,8.76,7.57,8.71,17,8.76,17.36-.1,24.32-.94,28.67-17.14l.14-.58.61.11,4.62,1.19-.14.6c-1.86,7.64-3.59,15.26-4.88,22.9l-.12.51Zm-.53-1.26h0c1.25-7.27,2.9-14.57,4.67-21.83l-2.85-.72c-4.32,16.14-12.68,17.58-29.7,17.47-9.08,0-18.18,0-18.22-10V372.54h17.92c10.07-.11,11.1,6,11.81,14.18l3.12-.65c-.28-5.31-.41-10.64-.41-15.93s.13-10.83.41-16.26h-3.12c-.8,7.51-3.15,12.79-11.94,12.69H997.21v-39h20.68c15-.1,17.49,7.64,18.13,16.71l3.11-.84c-.25-4.07-.42-9.29-.42-14.11,0-2.47.06-4.8.14-6.84-9.8,0-24.4.56-36.27.56s-26.44-.52-35.27-.56v3.06h1.4c5.14,0,11.28.9,11.3,8.87v75.56c0,7.95-6.16,8.83-11.3,8.87h-1.4v3c8.41,0,25.07-.55,37.74-.55s29,.54,38.26.55Z"/><path class="cls-3" d="M1068.2,337.1c0-10.52-5.76-11-10.25-11h-2.59v-4.34c4.62,0,13.55.58,22.35.58,8.65,0,15.58-.58,23.21-.58,18.16,0,34.33,4.91,34.33,25.41,0,12.95-8.65,20.89-20,25.38l24.65,36.9c4,6.1,6.91,7.81,14,8.65v4.35c-4.76,0-9.38-.57-14.13-.57-4.47,0-9.1.57-13.55.57-11.1-14.57-20.64-30.15-30-46.75h-9.49v30.88c0,11.12,5.17,11.52,11.8,11.52h2.6v4.35c-8.24,0-16.57-.57-24.8-.57-6.93,0-13.71.57-20.91.57v-4.35H1058c5.36,0,10.25-2.42,10.25-7.77V337.1Zm18.47,33.46h7c14.43,0,22.2-5.48,22.2-22.5,0-12.82-8.21-21.05-21.06-21.05a73,73,0,0,0-8.18.58v43Z"/><path class="cls-3" d="M1153.85,423.11c-4.83,0-9.42-.58-14.16-.58-4.4,0-9,.58-14,.34-11.06-14.51-20.54-30-29.86-46.48h-8.52v30.22c.15,10.85,4.51,10.76,11.18,10.92h3.23v5.58h-.64c-8.24,0-16.61-.58-24.8-.58-6.89,0-13.65.58-20.89.58h-.63v-5.58H1058c5.2,0,9.58-2.29,9.6-7.15V337.1c-.11-10.24-5.12-10.18-9.6-10.33h-3.22v-5.59h.63c4.67,0,13.57.57,22.35.57,8.61,0,15.54-.57,23.22-.57,18.17,0,34.91,5.06,35,26,0,13-8.61,21.16-19.74,25.7l24.23,36.28c4,6,6.54,7.47,13.56,8.37l.53.08v5.5Zm-67.2-48h9.86l.17.32c9.4,16.57,18.87,32.13,29.49,46.43,4.4,0,9-.59,13.52-.59s9,.5,13.54.57V418.7c-6.77-.84-9.94-2.86-13.88-8.85l-25.09-37.55.71-.29c11.28-4.44,19.63-12.15,19.64-24.83,0-20-15.55-24.65-33.68-24.73-7.61,0-14.53.57-23.22.57-8.47,0-17-.53-21.74-.57v3.06h2c4.48,0,10.86.75,10.86,11.59v73.28c0,5.79-5.43,8.43-10.86,8.44h-2v3c6.94,0,13.51-.57,20.28-.57,8.07,0,16.2.55,24.18.57v-3h-2c-6.58,0-12.44-.83-12.44-12.21V375.13Zm0-4H1086V327l.55-.05a70.5,70.5,0,0,1,8.28-.56c13.14,0,21.68,8.54,21.7,21.69,0,17.22-8.3,23.07-22.84,23.08Zm7.06-1.24h0c14.28-.12,21.46-5.08,21.61-21.84-.08-12.6-7.91-20.42-20.47-20.47a61.26,61.26,0,0,0-7.57.52v41.79Z"/><path class="cls-3" d="M1251.76,394.07l.26-.28V339.71c0-11.84-8.21-13.56-12.53-13.56h-3.16v-4.33c6.77,0,13.39.57,20.18.57,5.92,0,11.81-.57,17.76-.57v4.33h-2.17c-6.06,0-12.84,1.15-12.84,18.31V410.1a95.49,95.49,0,0,0,.85,14.55h-5.47l-74.26-82.79v59.43c0,12.55,2.45,16.86,13.55,16.86h2.45v4.35c-6.19,0-12.4-.57-18.59-.57-6.51,0-13.14.57-19.62.57v-4.35h2c10,0,13-6.76,13-18.29V339.11a12.92,12.92,0,0,0-13.11-13h-1.88v-4.33c5.46,0,11.11.57,16.58.57,4.3,0,8.5-.57,12.83-.57l64.18,72.25Z"/><path class="cls-3" d="M1260.12,425.27l-5.94-.2L1181,343.49v57.79c.17,12.55,2.07,16.11,13,16.25h3v5.58h-.63c-6.24,0-12.42-.59-18.6-.59-6.44,0-13.1.59-19.59.59h-.65v-5.58h2.65c9.52,0,12.25-6.17,12.34-17.71V339.11a12.31,12.31,0,0,0-12.46-12.35h-2.53v-5.58h.65c5.5,0,11.14.57,16.58.57,4.24,0,8.42-.57,13.26-.37l63.39,71.38V339.7c0-11.46-7.72-12.88-11.91-12.94h-3.81v-5.58h.63c6.82,0,13.46.57,20.2.57,5.88,0,11.79-.57,17.73-.57h.63v5.58h-2.77c-5.95.16-12.08.69-12.23,17.7v65.63a91.84,91.84,0,0,0,.86,14.48l.08.7Zm-5.48-1.26h4.74a99.07,99.07,0,0,1-.77-13.92V344.46c0-17.31,7.31-18.91,13.49-19h1.51v-3.05c-5.66,0-11.37.56-17.1.56-6.62,0-13-.52-19.58-.56v3.05h2.56c4.44.05,13.18,2,13.18,14.2l-.2,54.52-.28.3-.44.46-64.18-72.53c-4.28,0-8.46.56-12.82.56-5.34,0-10.73-.52-16-.56v3.05h1.28a13.6,13.6,0,0,1,13.72,13.61v60.71c0,11.58-3.26,18.95-13.6,19h-1.4v3.05c6.23,0,12.66-.55,19-.55,6,0,12,.52,18,.55v-3h-1.82c-11.36,0-14.2-5-14.22-17.53v-61L1254.64,424Zm-2.88-29.95h0l.44-.41Zm-.36-.27h0v-.05l-.11-.11Z"/><path class="cls-3" d="M1297.46,401.87c-1.46,4.89-3.2,8.67-3.2,11.24,0,4.34,6.07,5,10.81,5h1.61v4.35c-5.78-.31-11.67-.57-17.48-.57-5.19,0-10.35.26-15.55.57v-4.35h.87c5.62,0,10.39-3.31,12.52-9.38l23.1-66.18c1.86-5.34,4.48-12.55,5.35-17.9a73.46,73.46,0,0,0,13.1-6.19,3.27,3.27,0,0,1,1.15-.3,1,1,0,0,1,1,.45c.42,1.14.84,2.45,1.3,3.6l26.53,75.44c1.73,5,3.44,10.37,5.31,14.71,1.74,4,4.78,5.75,9.55,5.75h.85v4.35c-6.48-.31-13-.57-19.89-.57-7.07,0-14.3.26-21.65.57v-4.35h1.6c3.31,0,9-.56,9-4.17,0-1.87-1.31-5.76-2.91-10.39l-5.62-16.73h-32.72l-4.61,15Zm21-63.9h-.29l-13.41,40.82h27Z"/><path class="cls-3" d="M1374.27,423.11c-6.49-.29-13-.59-19.85-.59-7.07,0-14.25.3-21.63.59l-.65,0v-5.64h2.22c3.34,0,8.3-.76,8.3-3.53,0-1.64-1.26-5.6-2.85-10.19l-5.49-16.31h-31.81L1298,402.05c-1.46,4.92-3.19,8.73-3.18,11.08.05,3.52,5.44,4.38,10.22,4.38h2.22v5.64l-.65,0c-5.77-.29-11.66-.59-17.41-.59-5.17,0-10.37.3-15.54.59l-.67,0v-5.64h1.49c5.37,0,9.85-3.07,11.93-8.94l23.09-66.19c1.89-5.35,4.49-12.54,5.74-18.29a73.18,73.18,0,0,0,13.09-6.19,4,4,0,0,1,1.39-.33,1.78,1.78,0,0,1,1.59.84c.41,1.19.86,2.47,1.3,3.64l26.56,75.43c1.7,5.06,3.42,10.39,5.3,14.65,1.67,3.85,4.32,5.36,9,5.38h1.47v5.64l-.66,0Zm-40.87-1.29h0c7.14-.25,14.13-.53,21-.53,6.7,0,13,.28,19.24.53v-3h-.2c-4.94,0-8.35-1.91-10.12-6.16s-3.64-9.73-5.33-14.78l-26.55-75.42c-.44-1.15-.86-2.46-1.24-3.48-.12-.14-.09-.14-.21-.14h-.26a3,3,0,0,0-.84.19,53.71,53.71,0,0,1-12.84,5.77c-.89,5.46-3.48,12.66-5.36,18L1287.63,409c-2.2,6.26-7.25,9.83-13.12,9.82h-.23v3c4.94-.25,9.94-.53,15-.53,5.57,0,11.27.28,16.77.53v-3h-.93c-4.69-.06-11.25-.59-11.43-5.68,0-2.88,1.78-6.57,3.19-11.44l.63.19-.63-.21,4.75-15.42h33.62l5.79,17.14c1.62,4.63,2.93,8.47,2.93,10.59-.2,4.43-6.29,4.74-9.56,4.83h-1v3Zm-29.48-42.41h0l13.81-42.07h.78V338l-.16,0,.16,0v-.63h.43l13.69,42.07Zm1.73-1.25h25.24l-12.55-38.65Zm12.23-40h0l.33-.11Z"/><path class="cls-3" d="M1380.65,329c-10.82,0-11.25,2.6-13.42,13.12h-4.33c.57-4,1.3-8.06,1.75-12.26a85.41,85.41,0,0,0,.84-12.24H1369c1.15,4.33,4.77,4.18,8.64,4.18H1452c3.87,0,7.47-.14,7.77-4.48l3.45.58c-.55,3.9-1.12,7.79-1.56,11.69s-.31,7.79-.31,11.67l-4.32,1.61c-.27-5.33-1-13.87-10.66-13.87h-23.65v76.74c0,11.12,5.06,12.39,12,12.39h2.74v4.35c-5.62,0-15.7-.57-23.5-.57-8.64,0-18.75.57-24.37.57v-4.35h2.73c8,0,12-.71,12-12.09V329Z"/><path class="cls-3" d="M1437.46,423.11c-5.66,0-15.76-.58-23.5-.58-8.62,0-18.72.58-24.37.58H1389v-5.58h3.37c8-.19,11.14-.29,11.34-11.47l0-76.41h-23v-1.27h24.26v77.68c0,11.57-4.67,12.71-12.59,12.74h-2.12v3.08c5.71-.06,15.39-.58,23.76-.58,7.53,0,17.17.52,22.87.58V418.8h-2.13c-6.93,0-12.55-1.7-12.57-13V328.38h24.28c9.68,0,10.95,8.27,11.22,13.62l3.15-1.15c0-3.76,0-7.53.29-11.31s.94-7.41,1.47-11.09l-2.18-.37c-.66,4.2-4.73,4.43-8.32,4.37h-75.16c-3.4,0-7.08-.16-8.39-4.21h-2.36a85.29,85.29,0,0,1-.88,11.72c-.38,4-1.09,7.79-1.63,11.58h3.09c1.91-10.05,3.16-13.31,13.94-13.16v1.27c-10.69.18-10.45,2-12.81,12.65l-.11.49h-5.56l.09-.72c.6-4.07,1.32-8.09,1.74-12.26a83.32,83.32,0,0,0,.87-12.17V317h4.56l.12.45c1,3.64,3.64,3.66,7.33,3.72l.73,0H1452c4-.08,6.89-.14,7.14-3.9l0-.69.68.14,4.09.64-.11.63c-.59,3.86-1.14,7.76-1.58,11.63-.29,3.84-.29,7.75-.29,11.63v.45l-.41.16-5.11,1.86,0-.84c-.37-5.42-.94-13.26-10-13.26h-23v76.11c.15,10.88,4.46,11.63,11.32,11.77h3.38v5.58Z"/><path class="cls-3" d="M1468.59,418.15h2c5.21,0,10.66-.7,10.66-8.21V334.38c0-7.52-5.45-8.23-10.66-8.23h-2v-4.33c5.63,0,14.27.57,21.32.57,7.24,0,15.89-.57,22.67-.57v4.33h-2c-5.19,0-10.69.71-10.69,8.23v75.56c0,7.51,5.5,8.21,10.69,8.21h2v4.35c-6.93,0-15.59-.57-22.78-.57s-15.58.57-21.21.57v-4.35Z"/><path class="cls-3" d="M1512.58,423.11c-7,0-15.6-.59-22.79-.59s-15.57.59-21.2.59H1468v-5.58h2.65c5.21-.08,10-.53,10-7.59V334.38c0-7-4.8-7.52-10-7.62H1468V321.2h.63c5.63,0,14.29.55,21.32.55,7.19,0,15.84-.55,22.67-.55h.61v5.56h-2.63c-5.27.1-10,.58-10.07,7.62v75.56c.07,7.06,4.8,7.51,10.07,7.59h2.63v5.58Zm-.65-1.26h0V418.8h-1.37c-5.17,0-11.29-.91-11.29-8.86V334.38c0-8,6.12-8.87,11.29-8.87h1.37v-3.06c-6.66,0-15,.56-22,.56-6.83,0-15.1-.52-20.69-.56v3.06h1.39c5.13,0,11.27.9,11.29,8.87v75.56c0,7.95-6.16,8.86-11.29,8.86h-1.39v3.05c5.57-.06,13.72-.55,20.57-.55s15.34.52,22.14.55Z"/><path class="cls-3" d="M1570.09,319.66c30.74,0,55.24,19.06,55.24,49.77,0,33.18-23.79,55.23-54.49,55.23s-53.94-20.77-53.94-51.78c0-30,23.2-53.22,53.19-53.22Zm2.18,98.65h0c28,0,32.85-24.68,32.85-45.71s-11.36-46.6-35.31-46.6c-25.24,0-32.73,22.5-32.73,41.81,0,25.82,11.82,50.5,35.19,50.5Z"/><path class="cls-3" d="M1516.25,372.88c.06-30.34,23.54-53.81,53.83-53.85v1.24c-29.64,0-52.58,22.93-52.61,52.61.07,30.66,23.08,51.12,53.36,51.13s53.85-21.75,53.9-54.61c0-30.32-24.16-49.09-54.65-49.13V319c31,0,55.81,19.27,55.87,50.37,0,33.53-24.13,55.81-55.12,55.87-30.84-.06-54.52-21-54.58-52.39Zm20.2-5.07h0c0-19.4,7.62-42.46,33.36-42.46,24.48.06,35.91,26.06,36,47.25,0,21-5,46.31-33.49,46.31v-1.22c27.42,0,32.17-24.06,32.24-45.09s-11.26-45.94-34.7-46c-24.74,0-32.06,22-32.11,41.18,0,25.69,11.73,49.82,34.57,49.88v1.22c-23.94,0-35.78-25.13-35.82-51.1Z"/><path class="cls-3" d="M1722.51,394.07l.29-.28V339.71c0-11.84-8.24-13.56-12.57-13.56h-3.12v-4.33c6.76,0,13.39.57,20.15.57,5.93,0,11.84-.57,17.76-.57v4.33h-2.18c-6,0-12.83,1.15-12.83,18.31V410.1a92.93,92.93,0,0,0,.87,14.55h-5.47l-74.28-82.79v59.43c0,12.55,2.44,16.86,13.54,16.86h2.47v4.35c-6.21,0-12.4-.57-18.6-.57-6.49,0-13.14.57-19.63.57v-4.35h2c10,0,13-6.76,13-18.29V339.11a12.9,12.9,0,0,0-13.11-13h-1.88v-4.33c5.48,0,11.11.57,16.58.57,4.33,0,8.5-.57,12.84-.57l64.18,72.25Z"/><path class="cls-3" d="M1730.89,425.27l-6-.21-73.17-81.57v57.8c.16,12.54,2.07,16.09,12.9,16.22h3.12v5.6h-.63c-6.25,0-12.44-.58-18.6-.58-6.47,0-13.09.58-19.64.58h-.6v-5.6h2.64c9.51,0,12.24-6.15,12.36-17.65V339.11a12.34,12.34,0,0,0-12.51-12.35h-2.49V321.2h.6c5.53,0,11.15.55,16.59.55,4.28,0,8.44-.55,13.32-.34l63.36,71.35v-53c0-11.48-7.72-12.86-11.94-13h-3.79V321.2h.65c6.79,0,13.44.55,20.15.55,5.92,0,11.8-.55,17.78-.55h.62v5.56h-2.81c-5.93.17-12.06.71-12.18,17.7v65.63a94.27,94.27,0,0,0,.81,14.48l.12.7Zm-5.48-1.26h4.72a99.18,99.18,0,0,1-.74-13.92V344.46c0-17.34,7.27-18.91,13.45-19h1.56v-3.05c-5.69,0-11.39.56-17.16.56-6.56,0-13-.52-19.54-.56v3.05h2.53c4.47.05,13.17,2,13.17,14.22l-.16,54.5-.27.3-.46.46-64.18-72.53c-4.25,0-8.46.56-12.84.56-5.31,0-10.72-.52-16-.56v3.05h1.27c6.77.05,13.74,5.16,13.74,13.61v60.75c0,11.53-3.22,18.91-13.59,18.95h-1.42v3.05c6.26,0,12.68-.55,19-.55,6,0,12,.52,18,.55v-3h-1.86c-11.32,0-14.15-5-14.15-17.52V340.24L1725.41,424Zm-2.9-29.95h0l.46-.41Zm-.34-.27h0v-.05l-.12-.11Z"/><path class="cls-3" d="M1768.19,401.87c-1.41,4.89-3.16,8.67-3.16,11.24,0,4.34,6.07,5,10.8,5h1.61v4.35c-5.77-.31-11.69-.57-17.46-.57-5.21,0-10.38.26-15.55.57v-4.35h.82c5.65,0,10.43-3.31,12.56-9.38l23.1-66.18c1.86-5.34,4.47-12.55,5.31-17.9a74.44,74.44,0,0,0,13.15-6.19,3.06,3.06,0,0,1,1.14-.3c.43,0,.7,0,1,.45.44,1.14.89,2.45,1.32,3.6l26.52,75.44c1.73,5,3.45,10.37,5.35,14.71,1.73,4,4.77,5.75,9.51,5.75h.88v4.35c-6.5-.31-13-.57-19.92-.57s-14.27.26-21.63.57v-4.35h1.6c3.29,0,8.95-.56,8.95-4.17,0-1.87-1.31-5.76-2.92-10.39l-5.6-16.73h-32.74l-4.63,15Zm21.08-63.9H1789l-13.43,40.82h27Z"/><path class="cls-3" d="M1845,423.11c-6.49-.26-13-.58-19.86-.58s-14.25.32-21.61.58l-.64,0v-5.62h2.19c3.36,0,8.33-.78,8.34-3.55,0-1.64-1.27-5.57-2.88-10.19l-5.48-16.31h-31.83l-4.46,14.57c-1.44,4.94-3.16,8.73-3.13,11.06,0,3.54,5.4,4.42,10.17,4.42h2.2v5.62l-.64,0c-5.77-.26-11.67-.58-17.41-.58-5.17,0-10.35.32-15.55.58l-.63,0v-5.62h1.45c5.38,0,9.88-3.11,12-9l23.08-66.19c1.84-5.35,4.44-12.54,5.72-18.27a76.74,76.74,0,0,0,13.12-6.21,3.75,3.75,0,0,1,1.36-.3,1.62,1.62,0,0,1,1.58.84c.43,1.13.85,2.44,1.33,3.61l26.52,75.43c1.72,5.06,3.45,10.39,5.32,14.68,1.69,3.82,4.32,5.33,8.92,5.37h1.5v5.62l-.66,0Zm-40.87-1.27h0c7.13-.27,14.15-.55,21-.55,6.71,0,13,.28,19.28.53l0-3h-.24c-4.88,0-8.29-1.91-10.08-6.16s-3.62-9.73-5.34-14.76l-26.54-75.44c-.43-1.15-.87-2.46-1.22-3.44-.12-.18-.11-.18-.22-.18h-.27a2.73,2.73,0,0,0-.81.2,55.24,55.24,0,0,1-12.86,5.76c-.89,5.46-3.51,12.65-5.37,18L1758.38,409c-2.19,6.26-7.23,9.83-13.13,9.82H1745v3c5-.25,9.92-.53,14.94-.53,5.59,0,11.28.28,16.83.53v-3h-1c-4.69-.06-11.27-.57-11.44-5.7,0-2.86,1.82-6.53,3.21-11.42l.59.19-.59-.21,4.75-15.42H1806l5.78,17.14c1.59,4.64,2.9,8.47,2.9,10.59-.21,4.43-6.26,4.74-9.56,4.83h-.95v3Zm-29.46-42.44h0l13.83-42.06h.75V338l-.15,0,.15,0v-.63h.45l13.63,42.06Zm1.73-1.24h25.22l-12.54-38.63-12.68,38.63Zm12.25-40h0l.29-.11Z"/><path class="cls-3" d="M1881.42,408.36c0,5.77,4,7.49,8.62,8.08a104.68,104.68,0,0,0,19.06-.29,20.66,20.66,0,0,0,13.82-7.79,32.76,32.76,0,0,0,4.47-10.39h4.18c-1.58,8.22-3.6,16.32-5.34,24.53-12.66,0-25.38-.57-38-.57s-25.38.57-38.07.57v-4.35h2c5.22,0,10.86-.7,10.86-9.65V334.38c0-7.52-5.64-8.23-10.86-8.23h-2v-4.33c7.62,0,15.13.57,22.76.57,7.38,0,14.58-.57,21.94-.57v4.33h-3.63c-5.46,0-9.76.16-9.76,7.78v74.43Z"/><path class="cls-3" d="M1926.23,423.11c-12.71,0-25.4-.58-38-.58s-25.39.58-38.1.58h-.61v-5.58h2.62c5.23-.12,10.17-.48,10.23-9V334.35c-.06-7-5-7.49-10.23-7.59h-2.62V321.2h.61c7.67,0,15.18.55,22.8.55,7.32,0,14.52-.55,21.93-.55h.59v5.56h-4.21c-5.59.16-9.07-.1-9.18,7.17v74.43c0,5.37,3.56,6.82,8.06,7.45,2.55.18,5.22.29,8,.29a102.37,102.37,0,0,0,10.92-.57,20.07,20.07,0,0,0,13.42-7.52,32.25,32.25,0,0,0,4.36-10.19l.13-.48h5.43l-.13.76c-1.63,8.25-3.61,16.31-5.36,24.52l-.12.49Zm-.52-1.26h0c1.67-7.82,3.56-15.47,5.11-23.27h-3a33,33,0,0,1-4.45,10.16,21.35,21.35,0,0,1-14.28,8,108.6,108.6,0,0,1-11.06.59c-2.79,0-5.5-.13-8.11-.31-4.69-.52-9.24-2.52-9.22-8.69V333.93c0-8,5.07-8.42,10.45-8.42h3v-3.06c-7.11,0-14.11.57-21.29.57-7.47,0-14.77-.53-22.17-.57v3.06h1.38c5.15,0,11.45.9,11.45,8.84V408.5c0,9.33-6.27,10.3-11.45,10.3h-1.38v3.05c12.47,0,24.94-.55,37.47-.55s25,.54,37.53.55Z"/><path class="cls-3" d="M1929.82,317.72A15.19,15.19,0,1,1,1914.63,333,14.93,14.93,0,0,1,1929.82,317.72Zm0,27.55h0a12.36,12.36,0,1,0-12-12.31A12.25,12.25,0,0,0,1929.82,345.27Zm-7.56-4.31h0v-.75c1.87-.26,2.21-.2,2.21-1.36V327.61c0-1.58-.17-2.12-2.14-2v-.77h7.77c2.68,0,5.13,1.27,5.13,4a4.77,4.77,0,0,1-3.59,4.58l2.49,3.48a15.6,15.6,0,0,0,3.35,3.58V341h-3c-1.42,0-2.66-3-5.46-7h-1.68V339c0,1,.35.94,2.22,1.2V341Zm5.12-8h1.79c2,0,2.88-1.49,2.88-3.88s-1.42-3.27-3-3.27h-1.69Z"/><path class="cls-1" d="M372.69,504c137.75.66,263.48-112.34,263.48-249.81C636.17,103.86,510.44,0,372.69,0H254.14C114.74,0,0,103.89,0,254.19,0,391.69,114.74,504.66,254.14,504Z"/><path class="cls-2" d="M254.7,20.83c-127.38,0-230.6,103.29-230.63,230.72S127.32,482.2,254.7,482.24,485.35,379,485.37,251.55,382.11,20.87,254.7,20.83ZM108.51,251.55h0a146.46,146.46,0,0,1,93.85-136.47V388A146.4,146.4,0,0,1,108.51,251.55ZM307,388.05h0v-273a146.14,146.14,0,0,1,0,273Z"/><path class="cls-3" d="M717,108.43c0-23.84-12.43-22.27-24.35-22.53V79c10.33.51,20.92.51,31.27.51,11.13,0,26.24-.51,45.86-.51,68.62,0,106,45.84,106,92.78C875.72,198,860.36,264,766.54,264c-13.51,0-26-.52-38.43-.52-11.92,0-23.59.26-35.51.52v-6.88C708.49,255.55,716.19,255,717,237V108.43Zm26,124.33h0c0,20.41,14.59,22.79,27.57,22.79,57.26,0,76.06-43.21,76.06-82.71,0-49.55-31.81-85.33-82.95-85.33-10.88,0-15.88.78-20.68,1.06V232.76Z"/><path class="cls-3" d="M885,257.15h5c7.41,0,12.72,0,12.72-8.77V176.56c0-11.65-4-13.27-13.78-18.54v-4.25c12.45-3.74,27.31-8.74,28.35-9.54a9.42,9.42,0,0,1,4.78-1.34c1.31,0,1.86,1.6,1.86,3.73V248.38c0,8.77,5.83,8.77,13.25,8.77h4.5V264c-9,0-18.3-.53-27.82-.53s-19.09.26-28.88.53v-6.89Zm28.35-155.07h0c-6.9,0-13-6.36-13-13.25,0-6.64,6.36-12.75,13-12.75a13,13,0,0,1,13,12.75A13.25,13.25,0,0,1,913.37,102.08Z"/><path class="cls-3" d="M966.9,178.14c0-9.8-2.93-12.44-15.36-17.48v-5c11.39-3.71,22.24-7.16,35-12.74.79,0,1.57.54,1.57,2.65v17.24c15.13-10.86,28.12-19.89,45.9-19.89,22.5,0,30.45,16.44,30.45,37.11v68.38c0,8.77,5.83,8.77,13.26,8.77h4.77V264c-9.3,0-18.57-.53-28.09-.53s-19.1.26-28.63.53v-6.89h4.76c7.44,0,12.71,0,12.71-8.77V179.75c0-15.13-9.23-22.54-24.36-22.54-8.47,0-22,6.89-30.77,12.73v78.44c0,8.77,5.86,8.77,13.29,8.77h4.76V264c-9.27,0-18.56-.53-28.1-.53s-19.09.26-28.62.53v-6.89h4.78c7.42,0,12.71,0,12.71-8.77V178.14Z"/><path class="cls-3" d="M1102.61,190.88c-.55,2.39-.55,6.36,0,15.38,1.56,25.17,17.77,45.84,38.94,45.84,14.59,0,26-7.95,35.8-17.75l3.7,3.72c-12.2,16.16-27.3,29.94-49,29.94-42.15,0-50.63-40.83-50.63-57.78,0-52,35-67.34,53.52-67.34,21.48,0,44.55,13.51,44.8,41.61a30.76,30.76,0,0,1-.25,4.79l-2.4,1.59Zm46.92-8.49h0c6.61,0,7.39-3.45,7.39-6.62,0-13.52-8.21-24.39-23.06-24.39-16.15,0-27.28,11.91-30.46,31Z"/><path class="cls-3" d="M1185.82,257.15H1193c7.4,0,12.7,0,12.7-8.77V173.91c0-8.21-9.79-9.81-13.78-11.93v-4c19.35-8.23,30-15.13,32.37-15.13,1.57,0,2.35.8,2.35,3.46V170.2h.56c6.61-10.33,17.76-27.31,33.91-27.31,6.63,0,15.1,4.5,15.1,14.05,0,7.16-5,13.54-12.44,13.54-8.25,0-8.25-6.38-17.51-6.38-4.51,0-19.34,6.1-19.34,22v62.27c0,8.77,5.29,8.77,12.72,8.77h14.83V264c-14.58-.27-25.67-.53-37.09-.53-10.86,0-22,.26-31.54.53v-6.89Z"/><path class="cls-3" d="M1287.86,227.18c3.45,17.5,14,32.35,33.4,32.35,15.6,0,21.44-9.54,21.44-18.82,0-31.28-57.76-21.21-57.76-63.88,0-14.85,11.94-33.94,41.08-33.94a69.58,69.58,0,0,1,30.19,7.71l1.88,27H1352c-2.64-16.68-11.91-26.23-28.89-26.23-10.6,0-20.66,6.1-20.66,17.49,0,31,61.48,21.47,61.48,63.08,0,17.49-14.05,36.06-45.59,36.06-10.6,0-23-3.71-32.32-9l-2.92-30.49,4.78-1.34Z"/><path class="cls-3" d="M1603.22,127h-6.61c-5-31-27-43.47-56.71-43.47-30.5,0-74.76,20.4-74.76,84,0,53.58,38.19,92,79,92,26.23,0,48-18,53.28-45.86l6.08,1.58-6.08,38.7c-11.13,6.91-41.08,14.06-58.59,14.06-62,0-101.21-40-101.21-99.67C1437.61,114,1486.1,75,1538,75c21.46,0,42.13,6.92,62.54,14.08l2.64,37.89Z"/><path class="cls-3" d="M1612.78,257.15h5c7.43,0,12.75,0,12.75-8.77V100.76c0-17.24-4-17.77-14.06-20.68V75.84c10.6-3.44,21.73-8.22,27.3-11.41,2.89-1.58,5-2.92,5.81-2.92,1.62,0,2.15,1.6,2.15,3.73V248.38c0,8.77,5.82,8.77,13.25,8.77h4.47V264c-9,0-18.25-.53-27.8-.53s-19.07.26-28.89.53v-6.89Z"/><path class="cls-3" d="M1783,249.44c0,4.79,2.9,5.05,7.4,5.05,3.19,0,7.15-.26,10.61-.26v5.58c-11.41,1.05-33.14,6.62-38.18,8.2l-1.33-.8V245.76c-15.88,13-28.09,22.25-46.92,22.25-14.31,0-29.15-9.27-29.15-31.52V168.61c0-6.89-1.05-13.52-15.87-14.84v-5c9.55-.26,30.71-1.85,34.17-1.85,2.94,0,2.94,1.85,2.94,7.68v68.37c0,8,0,30.76,23,30.76,9,0,20.93-6.89,32-16.14V166.21c0-5.28-12.71-8.19-22.23-10.85v-4.77c23.82-1.6,38.69-3.71,41.32-3.71,2.15,0,2.15,1.85,2.15,4.78v97.78Z"/><path class="cls-3" d="M1835.68,162c10.59-9,24.9-19.09,39.49-19.09,30.75,0,49.28,26.8,49.28,55.67,0,34.72-25.43,69.45-63.35,69.45-19.6,0-29.93-6.37-36.83-9.27l-7.94,6.08-5.55-2.9a313.66,313.66,0,0,0,3.7-47.18v-114c0-17.24-4-17.77-14.06-20.68V75.84c10.63-3.44,21.73-8.22,27.3-11.41,2.92-1.58,5-2.92,5.85-2.92,1.58,0,2.11,1.6,2.11,3.73V162Zm0,72.09h0c0,10.08,9.53,27.06,27.29,27.06,28.36,0,40.28-27.85,40.28-51.45,0-28.62-21.71-52.47-42.39-52.47-9.83,0-18,6.37-25.18,12.48v64.38Z"/><path class="cls-3" d="M692.3,418.15h2c5.18,0,10.66-.7,10.66-8.21V334.38c0-7.52-5.48-8.23-10.66-8.23h-2v-4.33c5.63,0,14.28.57,21.37.57s15.84-.57,22.62-.57v4.33h-2c-5.17,0-10.66.71-10.66,8.23v75.56c0,7.51,5.49,8.21,10.66,8.21h2v4.35c-6.92,0-15.59-.57-22.78-.57s-15.58.57-21.21.57v-4.35Z"/><path class="cls-3" d="M736.29,423.11c-7,0-15.61-.58-22.79-.58s-15.53.58-21.2.58h-.62v-5.58h2.64c5.23-.12,10-.54,10-7.59V334.38c-.05-7.05-4.81-7.52-10-7.62h-2.64v-5.58h.62c5.67,0,14.31.57,21.36.57s15.81-.57,22.63-.57h.64v5.58h-2.66c-5.23.1-10,.57-10,7.62v75.56c0,7.05,4.82,7.47,10,7.59h2.66v5.58Zm-.62-1.23h0V418.8h-1.4c-5.15,0-11.28-.89-11.31-8.86V334.38c0-8,6.16-8.87,11.31-8.87h1.4v-3.06c-6.66,0-15,.56-22,.56s-15.14-.52-20.72-.56v3.06h1.38c5.14,0,11.29.9,11.29,8.87v75.56c0,8-6.15,8.86-11.29,8.86h-1.38v3.08c5.58-.06,13.73-.58,20.56-.58,7,0,15.37.54,22.17.58Z"/><path class="cls-3" d="M835.36,394.07l.29-.28V339.71c0-11.84-8.23-13.56-12.55-13.56h-3.18v-4.33c6.79,0,13.42.57,20.19.57,5.91,0,11.85-.57,17.75-.57v4.33H855.7c-6.07,0-12.85,1.15-12.85,18.31V410.1a95.46,95.46,0,0,0,.86,14.55h-5.49L764,341.86v59.43c0,12.55,2.43,16.86,13.55,16.86H780v4.35c-6.19,0-12.38-.57-18.59-.57-6.47,0-13.11.57-19.61.57v-4.35h2c10,0,13-6.76,13-18.29V339.11a12.93,12.93,0,0,0-13.11-13h-1.88v-4.33c5.48,0,11.1.57,16.57.57,4.33,0,8.52-.57,12.84-.57l64.19,72.25Z"/><path class="cls-3" d="M843.71,425.28l-6-.22-73.18-81.57v57.8c.17,12.54,2.08,16.1,12.94,16.24h3.09v5.58H780c-6.24,0-12.45-.58-18.6-.58-6.46,0-13.08.58-19.62.58h-.63v-5.58h2.66c9.53,0,12.25-6.17,12.36-17.67V339.12a12.35,12.35,0,0,0-12.5-12.36h-2.52V321.2h.63c5.51,0,11.16.55,16.57.55,4.29,0,8.47-.55,13.33-.34L835,392.76v-53c-.08-11.48-7.73-12.86-11.93-13h-3.82V321.2h.64c6.81,0,13.45.55,20.19.55,5.87,0,11.78-.55,17.74-.55h.63v5.56H855.7c-6,.17-12.06.69-12.23,17.7v65.63a94.66,94.66,0,0,0,.85,14.45l.14.74ZM838.23,424H843a96.18,96.18,0,0,1-.76-13.92V344.46c0-17.31,7.25-18.95,13.46-18.95h1.52v-3.06c-5.68,0-11.38.56-17.11.56-6.6,0-13-.52-19.55-.56v3.06h2.55c4.43,0,13.18,2,13.18,14.21l-.2,54.5-.29.3-.49.45-64.13-72.52c-4.28,0-8.46.56-12.85.56-5.29,0-10.7-.52-15.93-.56l0,3.06h1.28a13.57,13.57,0,0,1,13.72,13.61v60.74c0,11.53-3.21,18.91-13.58,18.95l-1.39,0v3.11c6.25-.06,12.67-.58,19-.58,6,0,12,.52,18,.58v-3.07h-1.82c-11.35,0-14.17-5-14.18-17.52V340.24L838.23,424Zm-2.87-29.95h0l.46-.42Zm-.33-.28h0v0l-.12-.1Z"/><path class="cls-3" d="M879.45,329c-10.83,0-11.24,2.6-13.4,13.12h-4.33c.57-4,1.29-8.06,1.73-12.26a85.4,85.4,0,0,0,.86-12.24h3.47c1.16,4.33,4.76,4.18,8.67,4.18h74.39c3.9,0,7.5-.14,7.8-4.48l3.44.58c-.56,3.9-1.14,7.79-1.58,11.69-.26,3.89-.26,7.79-.26,11.67l-4.34,1.61c-.3-5.33-1-13.87-10.67-13.87H921.58v76.74c0,11.12,5,12.39,11.95,12.39h2.75v4.35c-5.62,0-15.73-.57-23.5-.57-8.65,0-18.76.57-24.39.57v-4.35h2.75c8,0,12-.71,12-12.09V329Z"/><path class="cls-3" d="M936.3,423.11c-5.68,0-15.77-.58-23.52-.58-8.64,0-18.73.58-24.39.58h-.6v-5.58h3.35c8-.19,11.15-.29,11.33-11.47V329.65h-23v-1.27h24.27v77.68c0,11.57-4.66,12.74-12.58,12.75H889v3c5.69,0,15.39-.55,23.76-.55,7.52,0,17.16.52,22.86.55v-3h-2.11c-7,0-12.58-1.72-12.58-13.05V328.38h24.28c9.68,0,10.94,8.27,11.26,13.62l3.11-1.15c0-3.76,0-7.53.28-11.33.42-3.71,1-7.39,1.49-11.07l-2.2-.37c-.67,4.2-4.72,4.41-8.35,4.37H875.7c-3.39,0-7.1-.16-8.39-4.19h-2.38a85.13,85.13,0,0,1-.85,11.7c-.42,4-1.08,7.77-1.62,11.58h3.09c1.9-10.05,3.14-13.31,13.9-13.16v1.27c-10.66.19-10.44,2-12.79,12.65l-.11.49H861l.08-.75c.58-4,1.31-8.06,1.74-12.26a81.26,81.26,0,0,0,.88-12.14V317h4.57l.1.45c1,3.64,3.66,3.66,7.33,3.72h75.12c4-.06,6.94-.12,7.19-3.89l.06-.68.65.14,4.07.64-.09.63c-.58,3.86-1.15,7.76-1.57,11.63s-.29,7.74-.29,11.63v.45l-.4.16-5.11,1.86,0-.84c-.38-5.42-.95-13.26-10.06-13.26h-23v76.11c.13,10.88,4.45,11.63,11.32,11.77h3.38v5.58Z"/><path class="cls-3" d="M966.69,418.15h2c5.18,0,10.67-.7,10.67-8.21V334.38c0-7.52-5.49-8.23-10.67-8.23h-2v-4.33c8.78,0,23.8.57,35.89.57s27.11-.57,36.91-.57c-.24,6.19-.11,15.73.32,22.06l-4.35,1.16c-.69-9.37-2.42-16.86-17.57-16.86h-20V366H1015c8.65,0,10.54-4.89,11.39-12.7h4.32c-.28,5.65-.43,11.27-.43,16.89s.15,11,.43,16.44l-4.32.86c-.85-8.65-1.29-14.27-11.25-14.27H997.86v33.59c0,9.39,8.33,9.39,17.57,9.39,17.31,0,24.94-1.17,29.27-17.59l4,1c-1.89,7.66-3.61,15.29-4.89,22.95-9.24,0-25.83-.57-38.79-.57s-30.15.57-38.37.57v-4.35Z"/><path class="cls-3" d="M1043.84,423.11c-9.26,0-25.84-.59-38.79-.59s-30.13.59-38.36.59h-.61v-5.58h2.63c5.23-.08,10-.54,10-7.59V334.38c-.07-7-4.81-7.51-10-7.62h-2.63V321.2h.61c8.8,0,23.8.55,35.89.55s27.09-.55,36.91-.55h.65l0,.64c-.1,2.17-.14,4.73-.14,7.45,0,5,.14,10.44.43,14.55l0,.52-.48.14-5.07,1.32,0-.74c-.85-9.36-2.1-16.15-16.95-16.29H998.46l0,36.51H1015c8.3-.08,9.79-4.33,10.77-12.1l0-.57h5.53v.65c-.28,5.62-.46,11.24-.46,16.86,0,5.46.18,10.93.46,16.42v.51l-.52.12-5,1,0-.68c-1-8.8-1.06-13.62-10.64-13.73H998.46v33c0,8.76,7.57,8.71,17,8.76,17.36-.1,24.32-.94,28.67-17.14l.14-.58.61.11,4.62,1.19-.14.6c-1.86,7.64-3.59,15.26-4.88,22.9l-.12.51Zm-.53-1.26h0c1.25-7.27,2.9-14.57,4.67-21.83l-2.85-.72c-4.32,16.14-12.68,17.58-29.7,17.47-9.08,0-18.18,0-18.22-10V372.54h17.92c10.07-.11,11.1,6,11.81,14.18l3.12-.65c-.28-5.31-.41-10.64-.41-15.93s.13-10.83.41-16.26h-3.12c-.8,7.51-3.15,12.79-11.94,12.69H997.21v-39h20.68c15-.1,17.49,7.64,18.13,16.71l3.11-.84c-.25-4.07-.42-9.29-.42-14.11,0-2.47.06-4.8.14-6.84-9.8,0-24.4.56-36.27.56s-26.44-.52-35.27-.56v3.06h1.4c5.14,0,11.28.9,11.3,8.87v75.56c0,7.95-6.16,8.83-11.3,8.87h-1.4v3c8.41,0,25.07-.55,37.74-.55s29,.54,38.26.55Z"/><path class="cls-3" d="M1068.2,337.1c0-10.52-5.76-11-10.25-11h-2.59v-4.34c4.62,0,13.55.58,22.35.58,8.65,0,15.58-.58,23.21-.58,18.16,0,34.33,4.91,34.33,25.41,0,12.95-8.65,20.89-20,25.38l24.65,36.9c4,6.1,6.91,7.81,14,8.65v4.35c-4.76,0-9.38-.57-14.13-.57-4.47,0-9.1.57-13.55.57-11.1-14.57-20.64-30.15-30-46.75h-9.49v30.88c0,11.12,5.17,11.52,11.8,11.52h2.6v4.35c-8.24,0-16.57-.57-24.8-.57-6.93,0-13.71.57-20.91.57v-4.35H1058c5.36,0,10.25-2.42,10.25-7.77V337.1Zm18.47,33.46h7c14.43,0,22.2-5.48,22.2-22.5,0-12.82-8.21-21.05-21.06-21.05a73,73,0,0,0-8.18.58v43Z"/><path class="cls-3" d="M1153.85,423.11c-4.83,0-9.42-.58-14.16-.58-4.4,0-9,.58-14,.34-11.06-14.51-20.54-30-29.86-46.48h-8.52v30.22c.15,10.85,4.51,10.76,11.18,10.92h3.23v5.58h-.64c-8.24,0-16.61-.58-24.8-.58-6.89,0-13.65.58-20.89.58h-.63v-5.58H1058c5.2,0,9.58-2.29,9.6-7.15V337.1c-.11-10.24-5.12-10.18-9.6-10.33h-3.22v-5.59h.63c4.67,0,13.57.57,22.35.57,8.61,0,15.54-.57,23.22-.57,18.17,0,34.91,5.06,35,26,0,13-8.61,21.16-19.74,25.7l24.23,36.28c4,6,6.54,7.47,13.56,8.37l.53.08v5.5Zm-67.2-48h9.86l.17.32c9.4,16.57,18.87,32.13,29.49,46.43,4.4,0,9-.59,13.52-.59s9,.5,13.54.57V418.7c-6.77-.84-9.94-2.86-13.88-8.85l-25.09-37.55.71-.29c11.28-4.44,19.63-12.15,19.64-24.83,0-20-15.55-24.65-33.68-24.73-7.61,0-14.53.57-23.22.57-8.47,0-17-.53-21.74-.57v3.06h2c4.48,0,10.86.75,10.86,11.59v73.28c0,5.79-5.43,8.43-10.86,8.44h-2v3c6.94,0,13.51-.57,20.28-.57,8.07,0,16.2.55,24.18.57v-3h-2c-6.58,0-12.44-.83-12.44-12.21V375.13Zm0-4H1086V327l.55-.05a70.5,70.5,0,0,1,8.28-.56c13.14,0,21.68,8.54,21.7,21.69,0,17.22-8.3,23.07-22.84,23.08Zm7.06-1.24h0c14.28-.12,21.46-5.08,21.61-21.84-.08-12.6-7.91-20.42-20.47-20.47a61.26,61.26,0,0,0-7.57.52v41.79Z"/><path class="cls-3" d="M1251.76,394.07l.26-.28V339.71c0-11.84-8.21-13.56-12.53-13.56h-3.16v-4.33c6.77,0,13.39.57,20.18.57,5.92,0,11.81-.57,17.76-.57v4.33h-2.17c-6.06,0-12.84,1.15-12.84,18.31V410.1a95.49,95.49,0,0,0,.85,14.55h-5.47l-74.26-82.79v59.43c0,12.55,2.45,16.86,13.55,16.86h2.45v4.35c-6.19,0-12.4-.57-18.59-.57-6.51,0-13.14.57-19.62.57v-4.35h2c10,0,13-6.76,13-18.29V339.11a12.92,12.92,0,0,0-13.11-13h-1.88v-4.33c5.46,0,11.11.57,16.58.57,4.3,0,8.5-.57,12.83-.57l64.18,72.25Z"/><path class="cls-3" d="M1260.12,425.27l-5.94-.2L1181,343.49v57.79c.17,12.55,2.07,16.11,13,16.25h3v5.58h-.63c-6.24,0-12.42-.59-18.6-.59-6.44,0-13.1.59-19.59.59h-.65v-5.58h2.65c9.52,0,12.25-6.17,12.34-17.71V339.11a12.31,12.31,0,0,0-12.46-12.35h-2.53v-5.58h.65c5.5,0,11.14.57,16.58.57,4.24,0,8.42-.57,13.26-.37l63.39,71.38V339.7c0-11.46-7.72-12.88-11.91-12.94h-3.81v-5.58h.63c6.82,0,13.46.57,20.2.57,5.88,0,11.79-.57,17.73-.57h.63v5.58h-2.77c-5.95.16-12.08.69-12.23,17.7v65.63a91.84,91.84,0,0,0,.86,14.48l.08.7Zm-5.48-1.26h4.74a99.07,99.07,0,0,1-.77-13.92V344.46c0-17.31,7.31-18.91,13.49-19h1.51v-3.05c-5.66,0-11.37.56-17.1.56-6.62,0-13-.52-19.58-.56v3.05h2.56c4.44.05,13.18,2,13.18,14.2l-.2,54.52-.28.3-.44.46-64.18-72.53c-4.28,0-8.46.56-12.82.56-5.34,0-10.73-.52-16-.56v3.05h1.28a13.6,13.6,0,0,1,13.72,13.61v60.71c0,11.58-3.26,18.95-13.6,19h-1.4v3.05c6.23,0,12.66-.55,19-.55,6,0,12,.52,18,.55v-3h-1.82c-11.36,0-14.2-5-14.22-17.53v-61L1254.64,424Zm-2.88-29.95h0l.44-.41Zm-.36-.27h0v-.05l-.11-.11Z"/><path class="cls-3" d="M1297.46,401.87c-1.46,4.89-3.2,8.67-3.2,11.24,0,4.34,6.07,5,10.81,5h1.61v4.35c-5.78-.31-11.67-.57-17.48-.57-5.19,0-10.35.26-15.55.57v-4.35h.87c5.62,0,10.39-3.31,12.52-9.38l23.1-66.18c1.86-5.34,4.48-12.55,5.35-17.9a73.46,73.46,0,0,0,13.1-6.19,3.27,3.27,0,0,1,1.15-.3,1,1,0,0,1,1,.45c.42,1.14.84,2.45,1.3,3.6l26.53,75.44c1.73,5,3.44,10.37,5.31,14.71,1.74,4,4.78,5.75,9.55,5.75h.85v4.35c-6.48-.31-13-.57-19.89-.57-7.07,0-14.3.26-21.65.57v-4.35h1.6c3.31,0,9-.56,9-4.17,0-1.87-1.31-5.76-2.91-10.39l-5.62-16.73h-32.72l-4.61,15Zm21-63.9h-.29l-13.41,40.82h27Z"/><path class="cls-3" d="M1374.27,423.11c-6.49-.29-13-.59-19.85-.59-7.07,0-14.25.3-21.63.59l-.65,0v-5.64h2.22c3.34,0,8.3-.76,8.3-3.53,0-1.64-1.26-5.6-2.85-10.19l-5.49-16.31h-31.81L1298,402.05c-1.46,4.92-3.19,8.73-3.18,11.08.05,3.52,5.44,4.38,10.22,4.38h2.22v5.64l-.65,0c-5.77-.29-11.66-.59-17.41-.59-5.17,0-10.37.3-15.54.59l-.67,0v-5.64h1.49c5.37,0,9.85-3.07,11.93-8.94l23.09-66.19c1.89-5.35,4.49-12.54,5.74-18.29a73.18,73.18,0,0,0,13.09-6.19,4,4,0,0,1,1.39-.33,1.78,1.78,0,0,1,1.59.84c.41,1.19.86,2.47,1.3,3.64l26.56,75.43c1.7,5.06,3.42,10.39,5.3,14.65,1.67,3.85,4.32,5.36,9,5.38h1.47v5.64l-.66,0Zm-40.87-1.29h0c7.14-.25,14.13-.53,21-.53,6.7,0,13,.28,19.24.53v-3h-.2c-4.94,0-8.35-1.91-10.12-6.16s-3.64-9.73-5.33-14.78l-26.55-75.42c-.44-1.15-.86-2.46-1.24-3.48-.12-.14-.09-.14-.21-.14h-.26a3,3,0,0,0-.84.19,53.71,53.71,0,0,1-12.84,5.77c-.89,5.46-3.48,12.66-5.36,18L1287.63,409c-2.2,6.26-7.25,9.83-13.12,9.82h-.23v3c4.94-.25,9.94-.53,15-.53,5.57,0,11.27.28,16.77.53v-3h-.93c-4.69-.06-11.25-.59-11.43-5.68,0-2.88,1.78-6.57,3.19-11.44l.63.19-.63-.21,4.75-15.42h33.62l5.79,17.14c1.62,4.63,2.93,8.47,2.93,10.59-.2,4.43-6.29,4.74-9.56,4.83h-1v3Zm-29.48-42.41h0l13.81-42.07h.78V338l-.16,0,.16,0v-.63h.43l13.69,42.07Zm1.73-1.25h25.24l-12.55-38.65Zm12.23-40h0l.33-.11Z"/><path class="cls-3" d="M1380.65,329c-10.82,0-11.25,2.6-13.42,13.12h-4.33c.57-4,1.3-8.06,1.75-12.26a85.41,85.41,0,0,0,.84-12.24H1369c1.15,4.33,4.77,4.18,8.64,4.18H1452c3.87,0,7.47-.14,7.77-4.48l3.45.58c-.55,3.9-1.12,7.79-1.56,11.69s-.31,7.79-.31,11.67l-4.32,1.61c-.27-5.33-1-13.87-10.66-13.87h-23.65v76.74c0,11.12,5.06,12.39,12,12.39h2.74v4.35c-5.62,0-15.7-.57-23.5-.57-8.64,0-18.75.57-24.37.57v-4.35h2.73c8,0,12-.71,12-12.09V329Z"/><path class="cls-3" d="M1437.46,423.11c-5.66,0-15.76-.58-23.5-.58-8.62,0-18.72.58-24.37.58H1389v-5.58h3.37c8-.19,11.14-.29,11.34-11.47l0-76.41h-23v-1.27h24.26v77.68c0,11.57-4.67,12.71-12.59,12.74h-2.12v3.08c5.71-.06,15.39-.58,23.76-.58,7.53,0,17.17.52,22.87.58V418.8h-2.13c-6.93,0-12.55-1.7-12.57-13V328.38h24.28c9.68,0,10.95,8.27,11.22,13.62l3.15-1.15c0-3.76,0-7.53.29-11.31s.94-7.41,1.47-11.09l-2.18-.37c-.66,4.2-4.73,4.43-8.32,4.37h-75.16c-3.4,0-7.08-.16-8.39-4.21h-2.36a85.29,85.29,0,0,1-.88,11.72c-.38,4-1.09,7.79-1.63,11.58h3.09c1.91-10.05,3.16-13.31,13.94-13.16v1.27c-10.69.18-10.45,2-12.81,12.65l-.11.49h-5.56l.09-.72c.6-4.07,1.32-8.09,1.74-12.26a83.32,83.32,0,0,0,.87-12.17V317h4.56l.12.45c1,3.64,3.64,3.66,7.33,3.72l.73,0H1452c4-.08,6.89-.14,7.14-3.9l0-.69.68.14,4.09.64-.11.63c-.59,3.86-1.14,7.76-1.58,11.63-.29,3.84-.29,7.75-.29,11.63v.45l-.41.16-5.11,1.86,0-.84c-.37-5.42-.94-13.26-10-13.26h-23v76.11c.15,10.88,4.46,11.63,11.32,11.77h3.38v5.58Z"/><path class="cls-3" d="M1468.59,418.15h2c5.21,0,10.66-.7,10.66-8.21V334.38c0-7.52-5.45-8.23-10.66-8.23h-2v-4.33c5.63,0,14.27.57,21.32.57,7.24,0,15.89-.57,22.67-.57v4.33h-2c-5.19,0-10.69.71-10.69,8.23v75.56c0,7.51,5.5,8.21,10.69,8.21h2v4.35c-6.93,0-15.59-.57-22.78-.57s-15.58.57-21.21.57v-4.35Z"/><path class="cls-3" d="M1512.58,423.11c-7,0-15.6-.59-22.79-.59s-15.57.59-21.2.59H1468v-5.58h2.65c5.21-.08,10-.53,10-7.59V334.38c0-7-4.8-7.52-10-7.62H1468V321.2h.63c5.63,0,14.29.55,21.32.55,7.19,0,15.84-.55,22.67-.55h.61v5.56h-2.63c-5.27.1-10,.58-10.07,7.62v75.56c.07,7.06,4.8,7.51,10.07,7.59h2.63v5.58Zm-.65-1.26h0V418.8h-1.37c-5.17,0-11.29-.91-11.29-8.86V334.38c0-8,6.12-8.87,11.29-8.87h1.37v-3.06c-6.66,0-15,.56-22,.56-6.83,0-15.1-.52-20.69-.56v3.06h1.39c5.13,0,11.27.9,11.29,8.87v75.56c0,7.95-6.16,8.86-11.29,8.86h-1.39v3.05c5.57-.06,13.72-.55,20.57-.55s15.34.52,22.14.55Z"/><path class="cls-3" d="M1570.09,319.66c30.74,0,55.24,19.06,55.24,49.77,0,33.18-23.79,55.23-54.49,55.23s-53.94-20.77-53.94-51.78c0-30,23.2-53.22,53.19-53.22Zm2.18,98.65h0c28,0,32.85-24.68,32.85-45.71s-11.36-46.6-35.31-46.6c-25.24,0-32.73,22.5-32.73,41.81,0,25.82,11.82,50.5,35.19,50.5Z"/><path class="cls-3" d="M1516.25,372.88c.06-30.34,23.54-53.81,53.83-53.85v1.24c-29.64,0-52.58,22.93-52.61,52.61.07,30.66,23.08,51.12,53.36,51.13s53.85-21.75,53.9-54.61c0-30.32-24.16-49.09-54.65-49.13V319c31,0,55.81,19.27,55.87,50.37,0,33.53-24.13,55.81-55.12,55.87-30.84-.06-54.52-21-54.58-52.39Zm20.2-5.07h0c0-19.4,7.62-42.46,33.36-42.46,24.48.06,35.91,26.06,36,47.25,0,21-5,46.31-33.49,46.31v-1.22c27.42,0,32.17-24.06,32.24-45.09s-11.26-45.94-34.7-46c-24.74,0-32.06,22-32.11,41.18,0,25.69,11.73,49.82,34.57,49.88v1.22c-23.94,0-35.78-25.13-35.82-51.1Z"/><path class="cls-3" d="M1722.51,394.07l.29-.28V339.71c0-11.84-8.24-13.56-12.57-13.56h-3.12v-4.33c6.76,0,13.39.57,20.15.57,5.93,0,11.84-.57,17.76-.57v4.33h-2.18c-6,0-12.83,1.15-12.83,18.31V410.1a92.93,92.93,0,0,0,.87,14.55h-5.47l-74.28-82.79v59.43c0,12.55,2.44,16.86,13.54,16.86h2.47v4.35c-6.21,0-12.4-.57-18.6-.57-6.49,0-13.14.57-19.63.57v-4.35h2c10,0,13-6.76,13-18.29V339.11a12.9,12.9,0,0,0-13.11-13h-1.88v-4.33c5.48,0,11.11.57,16.58.57,4.33,0,8.5-.57,12.84-.57l64.18,72.25Z"/><path class="cls-3" d="M1730.89,425.27l-6-.21-73.17-81.57v57.8c.16,12.54,2.07,16.09,12.9,16.22h3.12v5.6h-.63c-6.25,0-12.44-.58-18.6-.58-6.47,0-13.09.58-19.64.58h-.6v-5.6h2.64c9.51,0,12.24-6.15,12.36-17.65V339.11a12.34,12.34,0,0,0-12.51-12.35h-2.49V321.2h.6c5.53,0,11.15.55,16.59.55,4.28,0,8.44-.55,13.32-.34l63.36,71.35v-53c0-11.48-7.72-12.86-11.94-13h-3.79V321.2h.65c6.79,0,13.44.55,20.15.55,5.92,0,11.8-.55,17.78-.55h.62v5.56h-2.81c-5.93.17-12.06.71-12.18,17.7v65.63a94.27,94.27,0,0,0,.81,14.48l.12.7Zm-5.48-1.26h4.72a99.18,99.18,0,0,1-.74-13.92V344.46c0-17.34,7.27-18.91,13.45-19h1.56v-3.05c-5.69,0-11.39.56-17.16.56-6.56,0-13-.52-19.54-.56v3.05h2.53c4.47.05,13.17,2,13.17,14.22l-.16,54.5-.27.3-.46.46-64.18-72.53c-4.25,0-8.46.56-12.84.56-5.31,0-10.72-.52-16-.56v3.05h1.27c6.77.05,13.74,5.16,13.74,13.61v60.75c0,11.53-3.22,18.91-13.59,18.95h-1.42v3.05c6.26,0,12.68-.55,19-.55,6,0,12,.52,18,.55v-3h-1.86c-11.32,0-14.15-5-14.15-17.52V340.24L1725.41,424Zm-2.9-29.95h0l.46-.41Zm-.34-.27h0v-.05l-.12-.11Z"/><path class="cls-3" d="M1768.19,401.87c-1.41,4.89-3.16,8.67-3.16,11.24,0,4.34,6.07,5,10.8,5h1.61v4.35c-5.77-.31-11.69-.57-17.46-.57-5.21,0-10.38.26-15.55.57v-4.35h.82c5.65,0,10.43-3.31,12.56-9.38l23.1-66.18c1.86-5.34,4.47-12.55,5.31-17.9a74.44,74.44,0,0,0,13.15-6.19,3.06,3.06,0,0,1,1.14-.3c.43,0,.7,0,1,.45.44,1.14.89,2.45,1.32,3.6l26.52,75.44c1.73,5,3.45,10.37,5.35,14.71,1.73,4,4.77,5.75,9.51,5.75h.88v4.35c-6.5-.31-13-.57-19.92-.57s-14.27.26-21.63.57v-4.35h1.6c3.29,0,8.95-.56,8.95-4.17,0-1.87-1.31-5.76-2.92-10.39l-5.6-16.73h-32.74l-4.63,15Zm21.08-63.9H1789l-13.43,40.82h27Z"/><path class="cls-3" d="M1845,423.11c-6.49-.26-13-.58-19.86-.58s-14.25.32-21.61.58l-.64,0v-5.62h2.19c3.36,0,8.33-.78,8.34-3.55,0-1.64-1.27-5.57-2.88-10.19l-5.48-16.31h-31.83l-4.46,14.57c-1.44,4.94-3.16,8.73-3.13,11.06,0,3.54,5.4,4.42,10.17,4.42h2.2v5.62l-.64,0c-5.77-.26-11.67-.58-17.41-.58-5.17,0-10.35.32-15.55.58l-.63,0v-5.62h1.45c5.38,0,9.88-3.11,12-9l23.08-66.19c1.84-5.35,4.44-12.54,5.72-18.27a76.74,76.74,0,0,0,13.12-6.21,3.75,3.75,0,0,1,1.36-.3,1.62,1.62,0,0,1,1.58.84c.43,1.13.85,2.44,1.33,3.61l26.52,75.43c1.72,5.06,3.45,10.39,5.32,14.68,1.69,3.82,4.32,5.33,8.92,5.37h1.5v5.62l-.66,0Zm-40.87-1.27h0c7.13-.27,14.15-.55,21-.55,6.71,0,13,.28,19.28.53l0-3h-.24c-4.88,0-8.29-1.91-10.08-6.16s-3.62-9.73-5.34-14.76l-26.54-75.44c-.43-1.15-.87-2.46-1.22-3.44-.12-.18-.11-.18-.22-.18h-.27a2.73,2.73,0,0,0-.81.2,55.24,55.24,0,0,1-12.86,5.76c-.89,5.46-3.51,12.65-5.37,18L1758.38,409c-2.19,6.26-7.23,9.83-13.13,9.82H1745v3c5-.25,9.92-.53,14.94-.53,5.59,0,11.28.28,16.83.53v-3h-1c-4.69-.06-11.27-.57-11.44-5.7,0-2.86,1.82-6.53,3.21-11.42l.59.19-.59-.21,4.75-15.42H1806l5.78,17.14c1.59,4.64,2.9,8.47,2.9,10.59-.21,4.43-6.26,4.74-9.56,4.83h-.95v3Zm-29.46-42.44h0l13.83-42.06h.75V338l-.15,0,.15,0v-.63h.45l13.63,42.06Zm1.73-1.24h25.22l-12.54-38.63-12.68,38.63Zm12.25-40h0l.29-.11Z"/><path class="cls-3" d="M1881.42,408.36c0,5.77,4,7.49,8.62,8.08a104.68,104.68,0,0,0,19.06-.29,20.66,20.66,0,0,0,13.82-7.79,32.76,32.76,0,0,0,4.47-10.39h4.18c-1.58,8.22-3.6,16.32-5.34,24.53-12.66,0-25.38-.57-38-.57s-25.38.57-38.07.57v-4.35h2c5.22,0,10.86-.7,10.86-9.65V334.38c0-7.52-5.64-8.23-10.86-8.23h-2v-4.33c7.62,0,15.13.57,22.76.57,7.38,0,14.58-.57,21.94-.57v4.33h-3.63c-5.46,0-9.76.16-9.76,7.78v74.43Z"/><path class="cls-3" d="M1926.23,423.11c-12.71,0-25.4-.58-38-.58s-25.39.58-38.1.58h-.61v-5.58h2.62c5.23-.12,10.17-.48,10.23-9V334.35c-.06-7-5-7.49-10.23-7.59h-2.62V321.2h.61c7.67,0,15.18.55,22.8.55,7.32,0,14.52-.55,21.93-.55h.59v5.56h-4.21c-5.59.16-9.07-.1-9.18,7.17v74.43c0,5.37,3.56,6.82,8.06,7.45,2.55.18,5.22.29,8,.29a102.37,102.37,0,0,0,10.92-.57,20.07,20.07,0,0,0,13.42-7.52,32.25,32.25,0,0,0,4.36-10.19l.13-.48h5.43l-.13.76c-1.63,8.25-3.61,16.31-5.36,24.52l-.12.49Zm-.52-1.26h0c1.67-7.82,3.56-15.47,5.11-23.27h-3a33,33,0,0,1-4.45,10.16,21.35,21.35,0,0,1-14.28,8,108.6,108.6,0,0,1-11.06.59c-2.79,0-5.5-.13-8.11-.31-4.69-.52-9.24-2.52-9.22-8.69V333.93c0-8,5.07-8.42,10.45-8.42h3v-3.06c-7.11,0-14.11.57-21.29.57-7.47,0-14.77-.53-22.17-.57v3.06h1.38c5.15,0,11.45.9,11.45,8.84V408.5c0,9.33-6.27,10.3-11.45,10.3h-1.38v3.05c12.47,0,24.94-.55,37.47-.55s25,.54,37.53.55Z"/><path class="cls-3" d="M1929.82,317.72A15.19,15.19,0,1,1,1914.63,333,14.93,14.93,0,0,1,1929.82,317.72Zm0,27.55h0a12.36,12.36,0,1,0-12-12.31A12.25,12.25,0,0,0,1929.82,345.27Zm-7.56-4.31h0v-.75c1.87-.26,2.21-.2,2.21-1.36V327.61c0-1.58-.17-2.12-2.14-2v-.77h7.77c2.68,0,5.13,1.27,5.13,4a4.77,4.77,0,0,1-3.59,4.58l2.49,3.48a15.6,15.6,0,0,0,3.35,3.58V341h-3c-1.42,0-2.66-3-5.46-7h-1.68V339c0,1,.35.94,2.22,1.2V341Zm5.12-8h1.79c2,0,2.88-1.49,2.88-3.88s-1.42-3.27-3-3.27h-1.69Z"/></g></g></g></svg>