<svg xmlns="http://www.w3.org/2000/svg" xmlns:xlink="http://www.w3.org/1999/xlink" viewBox="0 0 203.4 169.1"><defs><style>.cls-1{fill:#fff;}.cls-2{fill:url(#Безымянный_градиент_3);}.cls-3{fill:url(#Безымянный_градиент_3-2);}.cls-4{fill:url(#Безымянный_градиент_3-3);}.cls-5{fill:url(#Безымянный_градиент_4);}.cls-6{fill:url(#Безымянный_градиент_5);}</style><linearGradient id="Безымянный_градиент_3" x1="105.34" y1="-324.37" x2="145.29" y2="-324.37" gradientTransform="matrix(1.13, 0, 0, -1.13, 11.47, -294.91)" gradientUnits="userSpaceOnUse"><stop offset="0" stop-color="#007940"/><stop offset="0.23" stop-color="#00873f"/><stop offset="0.74" stop-color="#40a737"/><stop offset="1" stop-color="#5cb531"/></linearGradient><linearGradient id="Безымянный_градиент_3-2" x1="105.35" y1="-318.19" x2="145.26" y2="-318.19" xlink:href="#Безымянный_градиент_3"/><linearGradient id="Безымянный_градиент_3-3" x1="105.34" y1="-311.39" x2="145.29" y2="-311.39" xlink:href="#Безымянный_градиент_3"/><linearGradient id="Безымянный_градиент_4" x1="15.92" y1="-318.14" x2="56.48" y2="-318.14" gradientTransform="matrix(1.13, 0, 0, -1.13, 11.47, -294.91)" gradientUnits="userSpaceOnUse"><stop offset="0" stop-color="#1f286f"/><stop offset="0.48" stop-color="#004e94"/><stop offset="0.83" stop-color="#0066b1"/><stop offset="1" stop-color="#006fbc"/></linearGradient><linearGradient id="Безымянный_градиент_5" x1="60.42" y1="-318.23" x2="99.81" y2="-318.23" gradientTransform="matrix(1.13, 0, 0, -1.13, 11.47, -294.91)" gradientUnits="userSpaceOnUse"><stop offset="0" stop-color="#6c2c2f"/><stop offset="0.17" stop-color="#882730"/><stop offset="0.57" stop-color="#be1833"/><stop offset="0.86" stop-color="#dc0436"/><stop offset="1" stop-color="#e60039"/></linearGradient></defs><g id="Слой_2" data-name="Слой 2"><g id="レイヤー_1" data-name="レイヤー 1"><path class="cls-1" d="M183.9,100.6A25.44,25.44,0,0,1,158.5,126H20.3V25.4A25.44,25.44,0,0,1,45.7,0H183.9Z"/><path class="cls-2" d="M138.9,74.8h10.5c.3,0,1-.1,1.3-.1a4.68,4.68,0,0,0,3.7-4.7,4.85,4.85,0,0,0-3.7-4.7,5.28,5.28,0,0,0-1.3-.1H138.9Z"/><path class="cls-3" d="M148.2,8.5A18.2,18.2,0,0,0,130,26.7V45.6h25.7a10.28,10.28,0,0,1,1.8.1c5.8.3,10.1,3.3,10.1,8.5,0,4.1-2.9,7.6-8.3,8.3v.2c5.9.4,10.4,3.7,10.4,8.8,0,5.5-5,9.1-11.6,9.1H129.9v37h26.7a18.2,18.2,0,0,0,18.2-18.2V8.5Z"/><path class="cls-4" d="M153.1,55.4a4.25,4.25,0,0,0-3.7-4.3c-.2,0-.7-.1-1-.1h-9.5v8.8h9.5a2.79,2.79,0,0,0,1-.1A4.25,4.25,0,0,0,153.1,55.4Z"/><path class="cls-5" d="M47.6,8.5A18.2,18.2,0,0,0,29.4,26.7V71.6a36,36,0,0,0,15.7,4.1c6.3,0,9.7-3.8,9.7-9V45.5H70.4V66.6c0,8.2-5.1,14.9-22.4,14.9a76.77,76.77,0,0,1-18.7-2.3v38.3H56A18.2,18.2,0,0,0,74.2,99.3V8.5Z"/><path class="cls-6" d="M97.9,8.5A18.2,18.2,0,0,0,79.7,26.7V50.5c4.6-3.9,12.6-6.4,25.5-5.8a81.14,81.14,0,0,1,14.3,2.2v7.7a34.62,34.62,0,0,0-13.8-4C95.9,49.9,90,54.7,90,63.1s5.9,13.3,15.7,12.5a36.32,36.32,0,0,0,13.8-4v7.7a79.21,79.21,0,0,1-14.3,2.2c-12.9.6-20.9-1.9-25.5-5.8v42h26.7a18.2,18.2,0,0,0,18.2-18.2V8.5Z"/><path class="cls-1" d="M2.9,142.6v13a6.34,6.34,0,0,0,.9,3.8,5.87,5.87,0,0,0,4.8,2.1c5.7,0,5.7-4.4,5.7-5.9V142.8h2.8v12.9a8.52,8.52,0,0,1-1.7,5.6,8.54,8.54,0,0,1-6.8,2.9c-2,0-5.4-.5-7.4-3.3C.6,160,0,158.8,0,155.6V142.8H2.9Z"/><path class="cls-1" d="M21.7,150.6v-1.7h2.7v2.3a4.8,4.8,0,0,1,4.7-2.6c1.3,0,5.3.5,5.3,5v9.9H31.6v-9.2a3.17,3.17,0,0,0-.8-2.5,3.7,3.7,0,0,0-2.6-1c-2,0-3.8,1.4-3.8,4.3v8.4H21.7Z"/><path class="cls-1" d="M39,142.6h3.3v3H39Zm.3,6.3H42v14.5H39.3Z"/><path class="cls-1" d="M60,148.9c0,.6-.1,1.9-.1,2.4v17.8H57.1v-7.2a3.33,3.33,0,0,1-1.2,1.2,6.08,6.08,0,0,1-3.3.9c-3.5,0-6.6-2.5-6.6-7.9s3-7.4,6.1-7.4a5.59,5.59,0,0,1,5,2.6l.1-2.4Zm-7.1,1.8c-3.9,0-4,4.1-4,5.2a7.92,7.92,0,0,0,1.2,4.6,3.68,3.68,0,0,0,3.1,1.4c3.4,0,4-2.6,4-5.5C57.3,155.3,57.3,150.7,52.9,150.7Z"/><path class="cls-1" d="M67.8,148.9v9.4c0,1.4.3,3.2,3.1,3.2a4,4,0,0,0,3.4-1.6,4.77,4.77,0,0,0,.6-2.7V149h2.8v11.8c0,.3.1,1.9.1,2.7H75l-.1-2.5c-.5,1-1.5,2.6-4.6,2.6-3.6,0-5.3-2.1-5.3-4.9v-9.8Z"/><path class="cls-1" d="M84.8,156.7c-.1,3,1.2,5.2,4.2,5.2a3.09,3.09,0,0,0,3.4-3h2.7a5.06,5.06,0,0,1-1.2,3,6.34,6.34,0,0,1-5,1.9c-4.6,0-6.8-2.8-6.8-7.4,0-2.9.6-5.2,2.9-6.8a6.93,6.93,0,0,1,4-1.1c6.5,0,6.4,5.8,6.3,8.1H84.8Zm7.6-1.9c0-1.4-.2-4.3-3.6-4.3-1.8,0-3.9,1.1-4,4.3Z"/><path class="cls-1" d="M99.8,142.6h2.7v20.9H99.8Z"/><path class="cls-1" d="M114,163.6l-2.1,5.4h-2.8l2.2-5.6-6.1-14.5h3.1l4.6,11.5,4.6-11.5h3Z"/><path class="cls-1" d="M135,155.3l-8.2-12.7h3.6l6.2,10.3,6.3-10.3h3.2l-8.2,12.8v8.1H135v-8.2Z"/><path class="cls-1" d="M152,148.6c5.8,0,7.1,4.6,7.1,7.6,0,4.3-2.4,7.8-7.4,7.8-4.8,0-7.2-3.3-7.2-7.6C144.6,152.8,146.3,148.6,152,148.6Zm-.2,13.3c2.1,0,4.4-1.5,4.4-5.9,0-3.6-1.7-5.5-4.2-5.5-1.7,0-4.5,1.1-4.5,5.7C147.4,159.2,148.7,161.9,151.8,161.9Z"/><path class="cls-1" d="M166,148.9v9.4c0,1.4.3,3.2,3.1,3.2a4,4,0,0,0,3.4-1.6,4.77,4.77,0,0,0,.6-2.7V149h2.8v11.8c0,.3.1,1.9.1,2.7h-2.8l-.1-2.5c-.5,1-1.5,2.6-4.6,2.6-3.6,0-5.3-2.1-5.3-4.9v-9.8Z"/><path class="cls-1" d="M181.4,151.9c0-1-.1-2-.1-3h2.8l.1,2.8a4.07,4.07,0,0,1,3.5-2.9,14.16,14.16,0,0,1,1.9-.1v2.7a.75.75,0,0,0-.5-.1h-.8c-3.2,0-4,1.9-4,4.4v7.7h-2.8V151.9Z"/><path class="cls-1" d="M194.2,159.2c0,1.1.6,2.6,3.2,2.6a3.2,3.2,0,0,0,2.6-.9,2.39,2.39,0,0,0,.5-1.4c0-1.4-1-1.7-3.2-2.2-3-.7-5.6-1.3-5.6-4.3,0-2.7,2.3-4.4,5.7-4.4,1.8,0,4.4.5,5.2,2.3a4.31,4.31,0,0,1,.4,2.1h-2.8c.1-2.2-1.8-2.4-2.8-2.4-.4,0-3,0-3,2.1,0,1.3,1.3,1.7,2.1,1.9,4,1,4.9,1.2,5.8,2a3.78,3.78,0,0,1,1.1,2.7,4.48,4.48,0,0,1-2,3.7,8,8,0,0,1-4.3,1c-3,0-5.7-1.2-5.7-4.7h2.8Z"/></g></g></svg>