<svg xmlns="http://www.w3.org/2000/svg" viewBox="0 0 163.6 126"><defs><style>.cls-1{fill:#fff;}</style></defs><g id="Слой_2" data-name="Слой 2"><g id="レイヤー_1" data-name="レイヤー 1"><path class="cls-1" d="M25.4,0A25.44,25.44,0,0,0,0,25.4V126H138.2a25.44,25.44,0,0,0,25.4-25.4V0ZM53.9,99.3a18.2,18.2,0,0,1-18.2,18.2H9V79.2a76.77,76.77,0,0,0,18.7,2.3c17.3,0,22.4-6.7,22.4-14.9V45.5H34.5V66.7c0,5.2-3.4,9-9.7,9A36,36,0,0,1,9.1,71.6V26.7A18.2,18.2,0,0,1,27.3,8.5H53.9Zm50.4.2a18.2,18.2,0,0,1-18.2,18.2H59.4v-42C64,79.6,72,82.1,84.9,81.5a79.21,79.21,0,0,0,14.3-2.2V71.6a36.32,36.32,0,0,1-13.8,4c-9.8.8-15.7-4-15.7-12.5s5.9-13.2,15.7-12.5a34.62,34.62,0,0,1,13.8,4V46.9a81.14,81.14,0,0,0-14.3-2.2C72,44.1,64,46.6,59.4,50.5V26.7A18.2,18.2,0,0,1,77.6,8.5h26.7Zm50.2-.1a18.2,18.2,0,0,1-18.2,18.2H109.6v-37h28.2c6.6,0,11.6-3.6,11.6-9.1,0-5.1-4.5-8.4-10.4-8.8v-.2c5.4-.7,8.3-4.2,8.3-8.3,0-5.2-4.3-8.2-10.1-8.5a10.28,10.28,0,0,0-1.8-.1H109.7V26.7A18.2,18.2,0,0,1,127.9,8.5h26.6ZM129.1,65.2a5.28,5.28,0,0,1,1.3.1,4.85,4.85,0,0,1,3.7,4.7,4.68,4.68,0,0,1-3.7,4.7c-.3,0-1,.1-1.3.1H118.6V65.2Zm-10.5-5.4V51h9.5c.3,0,.8.1,1,.1a4.35,4.35,0,0,1,0,8.6,2.79,2.79,0,0,1-1,.1Z"/></g></g></svg>