<svg xmlns="http://www.w3.org/2000/svg" viewBox="0 0 116.49 90.61"><defs><style>.cls-1{fill:#6f74b7;}.cls-2{fill:#ee232e;}.cls-3{fill:#00a2dd;}</style></defs><g id="Слой_2" data-name="Слой 2"><g id="Layer_1" data-name="Layer 1"><path d="M35.22,90.1v-6a3.55,3.55,0,0,0-3.76-3.79A3.7,3.7,0,0,0,28.11,82,3.5,3.5,0,0,0,25,80.32a3.15,3.15,0,0,0-2.79,1.41V80.56H20.08V90.1h2.1V84.81a2.23,2.23,0,0,1,2.33-2.54c1.38,0,2.08.9,2.08,2.52V90.1h2.1V84.81A2.25,2.25,0,0,1,31,82.27c1.42,0,2.1.9,2.1,2.52V90.1Zm11.7-4.77V80.56H44.84v1.15a3.61,3.61,0,0,0-3-1.39,5,5,0,0,0,0,10,3.62,3.62,0,0,0,3-1.4V90.1h2.08Zm-7.73,0a2.89,2.89,0,1,1,2.9,3A2.87,2.87,0,0,1,39.19,85.33Zm52.17-5a5.31,5.31,0,0,1,2,.39,5,5,0,0,1,1.63,1,4.87,4.87,0,0,1,1.08,1.59,5.09,5.09,0,0,1,.39,2,5,5,0,0,1-.39,2A4.87,4.87,0,0,1,95,88.91,5,5,0,0,1,93.41,90a5.72,5.72,0,0,1-4.1,0,5,5,0,0,1-1.62-1.06,4.84,4.84,0,0,1-1.07-1.59,5,5,0,0,1-.39-2,5.09,5.09,0,0,1,.39-2,4.84,4.84,0,0,1,1.07-1.59,5,5,0,0,1,1.62-1A5.31,5.31,0,0,1,91.36,80.3Zm0,2a3.06,3.06,0,0,0-1.18.22,2.72,2.72,0,0,0-1,.63,2.81,2.81,0,0,0-.63,1,3.3,3.3,0,0,0-.23,1.24,3.34,3.34,0,0,0,.23,1.24,2.81,2.81,0,0,0,.63,1,2.57,2.57,0,0,0,1,.62,3.06,3.06,0,0,0,1.18.23,3.11,3.11,0,0,0,1.19-.23,2.74,2.74,0,0,0,1-.62,2.81,2.81,0,0,0,.63-1,3.15,3.15,0,0,0,.23-1.24,3.11,3.11,0,0,0-.23-1.24,2.81,2.81,0,0,0-.63-1,2.92,2.92,0,0,0-1-.63A3.11,3.11,0,0,0,91.36,82.27ZM58.22,85.33c0-3-1.86-5-4.53-5a4.66,4.66,0,0,0-4.76,5,4.71,4.71,0,0,0,4.9,5A5.79,5.79,0,0,0,57.74,89l-1-1.53a4.58,4.58,0,0,1-2.77,1,2.65,2.65,0,0,1-2.86-2.33h7.09C58.2,85.87,58.22,85.61,58.22,85.33Zm-7.11-.84a2.46,2.46,0,0,1,2.54-2.32,2.37,2.37,0,0,1,2.41,2.32ZM67,83a6.16,6.16,0,0,0-3-.82c-1.14,0-1.81.42-1.81,1.12s.71.82,1.61.94l1,.14c2.08.3,3.34,1.18,3.34,2.86s-1.6,3.11-4.36,3.11a6.89,6.89,0,0,1-4.13-1.24l1-1.61a5.15,5.15,0,0,0,3.17,1c1.42,0,2.18-.42,2.18-1.15,0-.54-.54-.84-1.68-1l-1-.14c-2.13-.3-3.29-1.26-3.29-2.82,0-1.9,1.56-3.05,4-3.05a7.23,7.23,0,0,1,3.9,1Zm10-.54h-3.4v4.32c0,1,.34,1.59,1.38,1.59a3.84,3.84,0,0,0,1.84-.54l.6,1.78a4.89,4.89,0,0,1-2.6.74c-2.45,0-3.31-1.32-3.31-3.53V82.45H69.52V80.56h1.94v-2.9h2.09v2.9H77Zm7.19-2.13a4.39,4.39,0,0,1,1.47.26l-.63,2a3.39,3.39,0,0,0-1.3-.24c-1.36,0-2,.88-2,2.46V90.1H79.56V80.56h2.06v1.15a2.81,2.81,0,0,1,2.52-1.39Zm14.38,8.39a1,1,0,0,1,.37.08.92.92,0,0,1,.31.2,1,1,0,0,1,.21.3.94.94,0,0,1,.07.37.88.88,0,0,1-.28.67.93.93,0,0,1-.68.28,1,1,0,0,1-.39-.07,1,1,0,0,1-.31-.21,1,1,0,0,1-.2-.3.91.91,0,0,1-.08-.37,1,1,0,0,1,.08-.37,1.21,1.21,0,0,1,.2-.3.92.92,0,0,1,.31-.2A1,1,0,0,1,98.52,88.71Zm0,1.69a.67.67,0,0,0,.28-.06.61.61,0,0,0,.23-.15.78.78,0,0,0,.16-.24.73.73,0,0,0,0-.58A.79.79,0,0,0,98.8,89a.67.67,0,0,0-.28-.06.73.73,0,0,0-.3.06.79.79,0,0,0-.39.39.73.73,0,0,0,0,.58.78.78,0,0,0,.16.24.61.61,0,0,0,.23.15A.73.73,0,0,0,98.52,90.4Zm0-1.18a.4.4,0,0,1,.26.07.27.27,0,0,1,.1.21.25.25,0,0,1-.08.18.34.34,0,0,1-.21.09l.29.33h-.22l-.27-.33h-.09v.33h-.19v-.88Zm-.22.16v.24h.22a.21.21,0,0,0,.12,0,.12.12,0,0,0,0-.18.21.21,0,0,0-.12,0Z"/><rect class="cls-1" x="42.5" y="7.7" width="31.5" height="56.61"/><path class="cls-2" d="M44.5,36A35.91,35.91,0,0,1,58.25,7.7a36,36,0,1,0,0,56.6A35.91,35.91,0,0,1,44.5,36Z"/><path class="cls-3" d="M113.06,58.31V57.15h.46v-.24h-1.19v.24h.47v1.16Zm2.31,0v-1.4H115l-.42,1-.42-1h-.36v1.4h.25V57.25l.4.91h.27l.39-.91v1.06Z"/><path class="cls-3" d="M116.49,36A36,36,0,0,1,58.25,64.3a36,36,0,0,0,0-56.6A36,36,0,0,1,116.49,36Z"/></g></g></svg>