<svg xmlns="http://www.w3.org/2000/svg" viewBox="0 0 116.5 90.61"><defs><style>.cls-1{fill:#fff;}</style></defs><g id="Слой_2" data-name="Слой 2"><g id="Layer_1" data-name="Layer 1"><path class="cls-1" d="M113.06,58.31V57.15h.47v-.24h-1.19v.24h.46v1.16Zm2.31,0v-1.4H115l-.42,1-.42-1h-.37v1.4h.26V57.25l.39.91h.27l.39-.91v1.06ZM35.22,90.1v-6a3.55,3.55,0,0,0-3.75-3.79A3.71,3.71,0,0,0,28.11,82,3.5,3.5,0,0,0,25,80.32a3.17,3.17,0,0,0-2.79,1.41V80.56H20.08V90.1h2.1V84.81a2.24,2.24,0,0,1,2.34-2.54c1.37,0,2.07.9,2.07,2.52V90.1h2.1V84.81A2.25,2.25,0,0,1,31,82.27c1.41,0,2.09.9,2.09,2.52V90.1Zm11.7-4.77V80.56H44.85v1.15a3.62,3.62,0,0,0-3-1.39,5,5,0,0,0,0,10,3.63,3.63,0,0,0,3-1.4V90.1h2.07Zm-7.73,0a2.89,2.89,0,1,1,2.9,3A2.87,2.87,0,0,1,39.19,85.33Zm52.18-5a5.26,5.26,0,0,1,2,.39,4.84,4.84,0,0,1,2.71,2.64,5.09,5.09,0,0,1,.39,2,5,5,0,0,1-.39,2A4.87,4.87,0,0,1,95,88.91,4.94,4.94,0,0,1,93.41,90a5.69,5.69,0,0,1-4.09,0,5,5,0,0,1,0-9.28A5.31,5.31,0,0,1,91.37,80.3Zm0,2a3.11,3.11,0,0,0-1.19.22,2.82,2.82,0,0,0-1,.63,3.13,3.13,0,0,0-.63,1,3.3,3.3,0,0,0-.22,1.24,3.33,3.33,0,0,0,.22,1.24,3.13,3.13,0,0,0,.63,1,2.65,2.65,0,0,0,1,.62,3.11,3.11,0,0,0,1.19.23,3.06,3.06,0,0,0,1.18-.23,2.57,2.57,0,0,0,1-.62,3,3,0,0,0,.64-1,3.34,3.34,0,0,0,.23-1.24,3.3,3.3,0,0,0-.23-1.24,3,3,0,0,0-.64-1,2.72,2.72,0,0,0-1-.63A3.06,3.06,0,0,0,91.37,82.27ZM58.23,85.33c0-3-1.86-5-4.54-5a4.66,4.66,0,0,0-4.75,5,4.71,4.71,0,0,0,4.89,5A5.81,5.81,0,0,0,57.75,89l-1-1.53a4.61,4.61,0,0,1-2.78,1,2.64,2.64,0,0,1-2.85-2.33h7.09C58.21,85.87,58.23,85.61,58.23,85.33Zm-7.11-.84a2.45,2.45,0,0,1,2.53-2.32,2.37,2.37,0,0,1,2.42,2.32ZM67,83a6.15,6.15,0,0,0-3-.82c-1.14,0-1.82.42-1.82,1.12s.72.82,1.62.94l1,.14c2.07.3,3.33,1.18,3.33,2.86s-1.6,3.11-4.35,3.11a6.9,6.9,0,0,1-4.14-1.24l1-1.61a5.16,5.16,0,0,0,3.18,1c1.41,0,2.17-.42,2.17-1.15,0-.54-.54-.84-1.67-1l-1-.14c-2.14-.3-3.3-1.26-3.3-2.82,0-1.9,1.56-3.05,4-3.05a7.22,7.22,0,0,1,3.89,1Zm10-.54H73.56v4.32c0,1,.34,1.59,1.38,1.59a3.83,3.83,0,0,0,1.83-.54l.6,1.78a4.88,4.88,0,0,1-2.59.74c-2.46,0-3.32-1.32-3.32-3.53V82.45H69.52V80.56h1.94v-2.9h2.1v2.9H77Zm7.19-2.13a4.44,4.44,0,0,1,1.48.26l-.64,2a3.39,3.39,0,0,0-1.3-.24c-1.36,0-2,.88-2,2.46V90.1H79.57V80.56h2.05v1.15a2.81,2.81,0,0,1,2.52-1.39Zm14.38,8.39a1,1,0,0,1,.38.08.88.88,0,0,1,.3.2,1,1,0,0,1,.21.3,1,1,0,0,1,.08.37,1,1,0,0,1-.59.88,1,1,0,0,1-.38.07,1,1,0,0,1-.38-.07.85.85,0,0,1-.31-.21.88.88,0,0,1-.28-.67.94.94,0,0,1,.07-.37,1,1,0,0,1,.21-.3.83.83,0,0,1,.31-.2A1,1,0,0,1,98.52,88.71Zm0,1.69a.72.72,0,0,0,.29-.06.83.83,0,0,0,.23-.15A.78.78,0,0,0,99.2,90a.87.87,0,0,0,0-.58.63.63,0,0,0-.16-.23.87.87,0,0,0-.23-.16.73.73,0,0,0-.58,0,.78.78,0,0,0-.24.16.63.63,0,0,0-.16.23.87.87,0,0,0,0,.58.78.78,0,0,0,.16.24.75.75,0,0,0,.24.15A.72.72,0,0,0,98.52,90.4Zm.06-1.18a.4.4,0,0,1,.26.07.26.26,0,0,1,.09.21.29.29,0,0,1-.07.18.34.34,0,0,1-.21.09l.29.33h-.23l-.27-.33h-.08v.33h-.19v-.88Zm-.22.16v.24h.21a.21.21,0,0,0,.12,0,.11.11,0,0,0,0-.18.21.21,0,0,0-.12,0ZM55.06,65.26c.28.25.58.48.87.72a36,36,0,1,1,0-60c-.29.24-.59.47-.87.72a38.74,38.74,0,0,0,0,58.52ZM80.5,0A35.85,35.85,0,0,0,60.57,6c.29.24.59.47.87.72a38.76,38.76,0,0,1,0,58.52c-.28.25-.58.48-.87.72A36,36,0,1,0,80.5,0ZM58.25,7.71c-.46.37-.92.74-1.36,1.13a36,36,0,0,0,0,54.32c.44.39.9.76,1.36,1.13.46-.37.92-.74,1.36-1.13a36,36,0,0,0,0-54.32c-.44-.39-.9-.76-1.36-1.13"/></g></g></svg>