<svg xmlns="http://www.w3.org/2000/svg" viewBox="0 0 116.5 90.62"><defs><style>.cls-1{fill:#fff;}</style></defs><g id="Слой_2" data-name="Слой 2"><g id="Layer_1" data-name="Layer 1"><path class="cls-1" d="M21.19,90.1v-6a3.56,3.56,0,0,0-3.76-3.8A3.7,3.7,0,0,0,14.07,82a3.51,3.51,0,0,0-3.16-1.7,3.16,3.16,0,0,0-2.8,1.42V80.54H6V90.1H8.13V84.8a2.24,2.24,0,0,1,2.34-2.54c1.38,0,2.08.9,2.08,2.52V90.1h2.1V84.8A2.25,2.25,0,0,1,17,82.26c1.42,0,2.1.9,2.1,2.52V90.1Zm31.08-9.56h-3.4v-2.9h-2.1v2.9H44.83v1.9h1.94V86.8c0,2.22.86,3.54,3.32,3.54a4.89,4.89,0,0,0,2.6-.74l-.6-1.78a3.84,3.84,0,0,1-1.84.54c-1,0-1.38-.64-1.38-1.6V82.44h3.4ZM70,80.3a2.82,2.82,0,0,0-2.52,1.4V80.54H65.43V90.1h2.08V84.74c0-1.58.68-2.46,2-2.46a3.39,3.39,0,0,1,1.3.24l.64-2A4.44,4.44,0,0,0,70,80.3Zm-26.82,1a7.15,7.15,0,0,0-3.9-1c-2.42,0-4,1.16-4,3.06,0,1.56,1.16,2.52,3.3,2.82l1,.14c1.14.16,1.68.46,1.68,1,0,.74-.76,1.16-2.18,1.16a5.09,5.09,0,0,1-3.18-1l-1,1.62a6.9,6.9,0,0,0,4.14,1.24c2.76,0,4.36-1.3,4.36-3.12s-1.26-2.56-3.34-2.86l-1-.14c-.9-.12-1.62-.3-1.62-.94s.68-1.12,1.82-1.12a6.16,6.16,0,0,1,3,.82Zm55.71-1a2.82,2.82,0,0,0-2.52,1.4V80.54H94.32V90.1H96.4V84.74c0-1.58.68-2.46,2-2.46a3.39,3.39,0,0,1,1.3.24l.64-2a4.44,4.44,0,0,0-1.48-.26Zm-26.79,5a4.83,4.83,0,0,0,5.1,5,5,5,0,0,0,3.43-1.14l-1-1.68a4.2,4.2,0,0,1-2.5.86,3.07,3.07,0,0,1,0-6.12,4.2,4.2,0,0,1,2.5.86l1-1.68a5,5,0,0,0-3.43-1.14,4.83,4.83,0,0,0-5.1,5Zm19.47,0V80.54H89.5V81.7a3.63,3.63,0,0,0-3-1.4,5,5,0,0,0,0,10,3.63,3.63,0,0,0,3-1.4V90.1h2.08Zm-7.74,0a2.89,2.89,0,1,1,2.9,3.06,2.87,2.87,0,0,1-2.9-3.06Zm-25.09-5a5,5,0,0,0,.14,10A5.81,5.81,0,0,0,62.81,89l-1-1.54a4.55,4.55,0,0,1-2.78,1,2.66,2.66,0,0,1-2.86-2.34h7.1c0-.26,0-.52,0-.8,0-3-1.86-5-4.54-5Zm0,1.86a2.37,2.37,0,0,1,2.42,2.32h-5a2.46,2.46,0,0,1,2.54-2.32Zm52.17,3.16V76.7H108.8v5a3.63,3.63,0,0,0-3-1.4,5,5,0,0,0,0,10,3.63,3.63,0,0,0,3-1.4V90.1h2.08Zm-7.74,0a2.89,2.89,0,1,1,2.9,3.06,2.87,2.87,0,0,1-2.9-3.06Zm-70.23,0V80.54H30.83V81.7a3.63,3.63,0,0,0-3-1.4,5,5,0,0,0,0,10,3.63,3.63,0,0,0,3-1.4V90.1h2.08Zm-7.74,0a2.89,2.89,0,1,1,2.9,3.06A2.87,2.87,0,0,1,25.17,85.32Zm89.18,3.4a.9.9,0,0,1,.37.07A1,1,0,0,1,115,89a.81.81,0,0,1,.21.3.9.9,0,0,1,.07.37.94.94,0,0,1-.07.37,1,1,0,0,1-.21.3,1.1,1.1,0,0,1-.31.2.91.91,0,0,1-.37.08,1,1,0,0,1-.39-.08,1,1,0,0,1-.3-.2,1,1,0,0,1-.21-.3,1,1,0,0,1-.08-.37.91.91,0,0,1,.08-.37.81.81,0,0,1,.21-.3.9.9,0,0,1,.3-.21A1,1,0,0,1,114.35,88.72Zm0,1.69a.64.64,0,0,0,.28-.06.78.78,0,0,0,.24-.16A.7.7,0,0,0,115,90a.72.72,0,0,0,.06-.29.68.68,0,0,0-.06-.29.63.63,0,0,0-.39-.39.64.64,0,0,0-.28-.06.68.68,0,0,0-.29.06.65.65,0,0,0-.24.15.78.78,0,0,0-.16.24.68.68,0,0,0-.06.29.72.72,0,0,0,.06.29.73.73,0,0,0,.16.23.67.67,0,0,0,.24.16A.68.68,0,0,0,114.35,90.41Zm.05-1.19a.43.43,0,0,1,.27.08.25.25,0,0,1,.09.2.22.22,0,0,1-.08.18.29.29,0,0,1-.2.09l.28.34h-.22l-.27-.34h-.09v.34H114v-.89Zm-.22.17v.23h.22a.21.21,0,0,0,.12,0,.1.1,0,0,0,0-.09.09.09,0,0,0,0-.08.21.21,0,0,0-.12,0Zm-1.12-31.08V57.15h.47v-.24h-1.19v.24h.46v1.16Zm2.31,0v-1.4H115l-.42,1-.42-1h-.37v1.4h.26V57.25l.39.91h.27l.39-.91v1.06Zm-60.31,7c.28.25.58.48.87.72a36,36,0,1,1,0-60c-.29.24-.59.47-.87.72a38.74,38.74,0,0,0,0,58.52ZM80.5,0A35.85,35.85,0,0,0,60.57,6c.29.24.59.47.87.72a38.76,38.76,0,0,1,0,58.52c-.28.25-.58.48-.87.72A36,36,0,1,0,80.5,0ZM58.25,7.71c-.46.37-.92.74-1.36,1.13a36,36,0,0,0,0,54.32c.44.39.9.76,1.36,1.13.46-.37.92-.74,1.36-1.13a36,36,0,0,0,0-54.32c-.44-.39-.9-.76-1.36-1.13"/></g></g></svg>