<svg xmlns="http://www.w3.org/2000/svg" xmlns:xlink="http://www.w3.org/1999/xlink" viewBox="0 0 695.76 197"><defs><style>.cls-1{fill:#37a72e;}.cls-1,.cls-2{fill-rule:evenodd;}.cls-2{fill:url(#Безымянный_градиент);}</style><linearGradient id="Безымянный_градиент" x1="41.67" y1="149.48" x2="42.67" y2="149.48" gradientTransform="matrix(201.76, 0, 0, -79, -7914.3, 11848.37)" gradientUnits="userSpaceOnUse"><stop offset="0" stop-color="#00a0e5"/><stop offset="1" stop-color="#0077c3"/></linearGradient></defs><g id="Слой_2" data-name="Слой 2"><g id="Слой_1-2" data-name="Слой 1"><g id="Page-1"><g id="Artboard"><g id="Group"><path id="Combined-Shape" class="cls-1" d="M502,89V197h60V133h68a66.52,66.52,0,0,0,62.1-44Z"/><path id="Combined-Shape-2" data-name="Combined-Shape" class="cls-2" d="M494,0c3.49,44.14,45.26,79,96.26,79H694.59A66.58,66.58,0,0,0,629.76,0Z"/><path id="Combined-Shape-3" data-name="Combined-Shape" class="cls-1" d="M405.2,78l.05-.1h0A3.6,3.6,0,0,1,412,79.5h0V196h60V0H412c-7.61.25-16.21,5.84-19.4,12.69l-47.75,102.4a4,4,0,0,1-.54,1.16l0,0h0A4,4,0,0,1,337,114V0H277V196h60v0c7.53-.4,15.92-5.92,19.07-12.67l49-105.1c0-.09.08-.17.12-.26Z"/><path id="Combined-Shape-4" data-name="Combined-Shape" class="cls-1" d="M181.15,81.3,146.09,196H102.92L67.83,81.23A3.95,3.95,0,0,0,60,82V196H0V0H66.84c11,0,22.61,8.57,25.83,19.12l29.2,95.51c1.46,4.75,3.81,4.75,5.27,0l29.2-95.51C159.56,8.56,171.13,0,182.17,0H249V196H189V82a4,4,0,0,0-7.85-.65Z"/></g></g></g></g></g></svg>