<svg xmlns="http://www.w3.org/2000/svg" viewBox="0 0 255 159.51"><defs><style>.cls-1{fill:#e21836;}.cls-2{fill:#00447c;}.cls-3{fill:#007b84;}.cls-4{fill:#fefefe;}</style></defs><g id="Слой_2" data-name="Слой 2"><g id="Слой_1-2" data-name="Слой 1"><path class="cls-1" d="M49.94,0h63.65c8.88,0,14.41,7.24,12.33,16.16L96.29,143.38c-2.09,8.88-11,16.13-19.88,16.13H12.77c-8.87,0-14.41-7.25-12.34-16.13L30.08,16.16C32.15,7.24,41,0,49.94,0"/><path class="cls-2" d="M108.29,0h73.19c8.88,0,4.88,7.24,2.79,16.16L154.64,143.38c-2.08,8.88-1.43,16.13-10.33,16.13H71.12c-8.9,0-14.41-7.25-12.32-16.13L88.42,16.16C90.53,7.24,99.4,0,108.29,0"/><path class="cls-3" d="M178.58,0h63.65c8.89,0,14.42,7.24,12.33,16.16L224.93,143.38c-2.09,8.88-11,16.13-19.89,16.13H141.43c-8.91,0-14.43-7.25-12.34-16.13L158.72,16.16C160.79,7.24,169.68,0,178.58,0"/><path class="cls-4" d="M66.56,40.77c-6.54.07-8.48,0-9.1-.14-.23,1.12-4.65,21.5-4.66,21.51-.95,4.13-1.64,7.06-4,9a7.16,7.16,0,0,1-4.7,1.64c-2.9,0-4.6-1.44-4.88-4.18l0-.94s.88-5.52.88-5.55,4.64-18.57,5.47-21a1.8,1.8,0,0,0,.06-.28c-9,.08-10.62,0-10.73-.14-.06.2-.28,1.35-.28,1.35L29.84,62.9l-.4,1.78-.79,5.8a8.6,8.6,0,0,0,1,4.32c2.16,3.77,8.31,4.33,11.79,4.33,4.48,0,8.69-.95,11.53-2.69,4.93-2.92,6.22-7.47,7.38-11.52l.53-2.08s4.77-19.28,5.59-21.79A1,1,0,0,1,66.56,40.77ZM82.81,56.33a12.72,12.72,0,0,0-5.15,1.2c-.68.35-1.33.76-2,1.17l.62-2.23-.34-.38c-4,.81-4.9.92-8.6,1.44l-.31.21A108.82,108.82,0,0,1,64.6,71c-.6,2.58-1.23,5.18-1.86,7.76l.17.33c3.79-.2,4.94-.2,8.24-.15l.26-.29c.42-2.15.48-2.65,1.4-7,.44-2.06,1.35-6.59,1.8-8.2A6.18,6.18,0,0,1,77,62.69c1.85,0,1.62,1.61,1.55,2.25-.08,1.08-.75,4.6-1.44,7.63l-.46,2c-.32,1.44-.67,2.84-1,4.27l.14.29c3.74-.2,4.88-.2,8.08-.15l.37-.29c.58-3.35.75-4.25,1.77-9.13l.52-2.24c1-4.39,1.5-6.61.74-8.42C86.49,56.82,84.57,56.33,82.81,56.33ZM101,60.92c-2,.38-3.26.64-4.52.8s-2.46.38-4.38.65l-.16.14-.14.11c-.2,1.43-.34,2.66-.6,4.12S90.59,70,90,72.4a23.11,23.11,0,0,1-.9,3.2,25.67,25.67,0,0,0-1,3.15l.11.17.1.16c1.79-.09,3-.15,4.17-.16s2.46,0,4.39,0l.17-.14.18-.15c.28-1.67.32-2.11.49-2.93s.46-2.08,1.18-5.3c.34-1.51.71-3,1.06-4.57s.75-3.05,1.11-4.57l0-.18Zm0-6.19c-1.81-1.07-5-.73-7.11.74S91.52,59,93.32,60s5,.73,7.07-.75S102.78,55.78,101,54.73Zm10.92,24.68a13.61,13.61,0,0,0,10.22-4,18,18,0,0,0,3.5-7.52c1.13-4.92.25-7.22-.84-8.62-1.67-2.13-4.61-2.81-7.67-2.81-1.84,0-6.21.18-9.63,3.33a15.78,15.78,0,0,0-4.27,8.31c-.69,3-1.49,8.44,3.5,10.46A14.64,14.64,0,0,0,111.92,79.41Zm-.29-11.07c.85-3.73,1.84-6.86,4.38-6.86,2,0,2.13,2.33,1.25,6.07-.16.83-.89,3.92-1.87,5.23A3.08,3.08,0,0,1,113,74.34c-.27,0-1.86,0-1.88-2.36A16.17,16.17,0,0,1,111.63,68.34Zm23.15,10.59.28-.29c.41-2.15.47-2.65,1.37-7,.45-2.06,1.38-6.59,1.81-8.2a6.16,6.16,0,0,1,2.43-.76c1.83,0,1.61,1.61,1.54,2.25a73.08,73.08,0,0,1-1.45,7.63l-.43,2c-.34,1.44-.7,2.84-1,4.27l.14.29c3.75-.2,4.85-.2,8.06-.15l.39-.29c.56-3.35.71-4.25,1.77-9.13l.5-2.24c1-4.39,1.51-6.61.77-8.42-.82-2-2.76-2.52-4.5-2.52a12.65,12.65,0,0,0-5.14,1.2c-.67.36-1.35.76-2,1.17l.58-2.23-.31-.38c-4,.81-4.92.92-8.62,1.44l-.28.21A115.19,115.19,0,0,1,128.25,71c-.61,2.58-1.24,5.18-1.87,7.76l.17.33C130.35,78.88,131.49,78.88,134.78,78.93Zm27.56.15c.23-1.16,1.63-8,1.65-8s1.19-5,1.26-5.19a3,3,0,0,1,.75-.72h.56c5.21,0,11.09,0,15.7-3.4a16.67,16.67,0,0,0,6.24-9.94,14.87,14.87,0,0,0,.44-3.46A7.31,7.31,0,0,0,187.69,44c-2.36-3.29-7-3.35-12.45-3.38l-2.66,0c-6.92.08-9.7.06-10.84-.08-.09.5-.27,1.4-.27,1.4S159,53.44,159,53.46,153.05,77.88,152.78,79C158.82,79,161.3,79,162.34,79.08Zm4.59-20.41s2.64-11.47,2.62-11.43l.09-.58,0-.45,1,.11,5.56.48c2.15.83,3,3,2.42,5.76a8.4,8.4,0,0,1-4.35,5.73,13.71,13.71,0,0,1-6.11,1h-1.43Zm16.41,9.88c-.69,3-1.5,8.39,3.47,10.33a9.76,9.76,0,0,0,4.44.8,7.4,7.4,0,0,0,4.24-2l-.36,1.36.23.29c3.57-.15,4.68-.15,8.54-.12l.35-.27c.57-3.32,1.1-6.54,2.57-12.89.71-3,1.43-6.06,2.16-9.09l-.11-.33c-4,.74-5.06.9-8.91,1.44l-.29.24c0,.31-.08.6-.11.9a5.48,5.48,0,0,0-2.8-2.3c-1.71-.67-5.72.19-9.17,3.33A15.57,15.57,0,0,0,183.34,68.55Zm8.39.18c.85-3.66,1.84-6.75,4.38-6.75,1.61,0,2.46,1.48,2.28,4-.13.63-.28,1.3-.46,2.05-.25,1.09-.53,2.17-.8,3.25a7.82,7.82,0,0,1-.94,1.9,4.41,4.41,0,0,1-3.1,1.5c-.26,0-1.83,0-1.88-2.32A15.28,15.28,0,0,1,191.73,68.73Zm43.79-12.08-.31-.35c-4,.8-4.66.92-8.29,1.41l-.27.27s0,.11,0,.17v-.06c-2.71,6.24-2.63,4.89-4.83,9.8,0-.22,0-.36,0-.6l-.55-10.64-.35-.35c-4.14.8-4.23.92-8.06,1.41l-.29.27a1.84,1.84,0,0,0-.07.42l0,.05a53.29,53.29,0,0,1,.85,5.75c.22,1.9.52,3.8.74,5.67.38,3.12.59,4.66,1.05,9.43-2.58,4.26-3.19,5.87-5.68,9.61l0,0-1.75,2.77a1.27,1.27,0,0,1-.64.57,2.58,2.58,0,0,1-1.14.17h-1l-1.44,4.79,4.94.09a6.11,6.11,0,0,0,5.71-3.2l3.11-5.33h-.05l.32-.37C219.62,83.94,235.52,56.65,235.52,56.65Zm-52.18,63h-2.1L189,93.93h2.57l.82-2.65.08,3c-.1,1.81,1.33,3.43,5.09,3.16h4.35l1.49-5h-1.63c-.94,0-1.38-.23-1.33-.74l-.07-3h-8c-2.6.06-10.37.25-12,.67a14,14,0,0,0-3.9,1.93l.78-2.65h-7.52l-1.57,5.26L160.3,120h-1.53l-1.49,4.91h15l-.5,1.63h7.38l.49-1.63h2.08Zm-6.15-20.46a33.76,33.76,0,0,0-3.45,1.34l2-6.56h6l-1.45,4.78A19.35,19.35,0,0,0,177.19,99.15Zm.12,9.37s-1.88.24-3.12.52a30.53,30.53,0,0,0-3.5,1.53l2.06-6.83h6ZM174,119.67h-6l1.73-5.77h6Zm14.45-15.93h8.65l-1.24,4H187l-1.31,4.4h7.67l-5.81,8.18a2.39,2.39,0,0,1-1.18,1,3.37,3.37,0,0,1-1.55.45h-2.13l-1.46,4.82h5.56a6.76,6.76,0,0,0,5.86-3l4-5.44.86,5.53a2.61,2.61,0,0,0,1.43,1.88,5.13,5.13,0,0,0,1.94.83c.88,0,1.51.06,1.92.06h2.74L207.2,121h-1.08a4.45,4.45,0,0,1-1.87-.3,2.83,2.83,0,0,1-.27-1.15l-.87-5.54h-3.55l1.55-1.86h8.75l1.34-4.4h-8.09l1.26-4h8.07l1.5-5H189.87Zm-73,17.05,2-6.72h8.29l1.52-5h-8.31l1.27-4.13h8.11l1.51-4.84h-20.3L108,105h4.62l-1.23,4.13h-4.63l-1.53,5.08h4.61L107.15,123a2.12,2.12,0,0,0,.51,2.17,2.21,2.21,0,0,0,1.48,1.09,9.07,9.07,0,0,0,2.13.29h9.35l1.67-5.54-4.15.57C117.34,121.62,115.13,121.53,115.37,120.79Zm.95-32.15-2.1,3.8A4.53,4.53,0,0,1,113,94a4.06,4.06,0,0,1-1.88.28H110l-1.46,4.86h3.64a8.32,8.32,0,0,0,3.74-1c.69-.37.87-.16,1.4-.68l1.23-1.06H130l1.51-5.06h-8.33l1.45-2.77Zm16.79,32.24c-.19-.28-.05-.77.24-1.79l3.11-10.29h11.06c1.61,0,2.78,0,3.53-.1a7.07,7.07,0,0,0,2.66-.89,5,5,0,0,0,1.94-1.79,15.15,15.15,0,0,0,1.91-4.32l3.9-13L150,88.74a35.69,35.69,0,0,0-5.09,1.1,20.92,20.92,0,0,0-3.82,2.43l1-3.57H135l-9.92,32.92a20.31,20.31,0,0,0-.65,2.77c0,.6.76,1.19,1.26,1.64a4.62,4.62,0,0,0,2.32.45c.88.06,2.14.11,3.88.11h5.45l1.67-5.65-4.87.46A1.28,1.28,0,0,1,133.11,120.88Zm5.36-19h11.61l-.73,2.31a9.75,9.75,0,0,0-1.54,0H137.75Zm2.32-7.76h11.72l-.84,2.78s-5.52-.05-6.41.11a13.13,13.13,0,0,0-6.16,2.75Zm8.82,17.82a1.24,1.24,0,0,1-.47.72,2.27,2.27,0,0,1-1.18.21H146.3l.1-2.82h-6.88l-.28,13.78c0,1,.08,1.57.81,2s3,.65,6,.65h4.31l1.56-5.16-3.76.21-1.25.07a1.38,1.38,0,0,1-.51-.32c-.16-.16-.43-.06-.38-1.06l0-3.53,3.93-.16a5.13,5.13,0,0,0,3.82-1.35,4.26,4.26,0,0,0,1.26-2.34l.66-3.13H150.3Z"/></g></g></svg>