<svg xmlns="http://www.w3.org/2000/svg" viewBox="0 0 255 156.02"><defs><style>.cls-1{fill:#fff;}</style></defs><g id="Слой_2" data-name="Слой 2"><g id="Слой_1-2" data-name="Слой 1"><path class="cls-1" d="M189,60.74c-1.91-.61-4.4,1.53-5.49,4.81s-.45,6.43,1.49,7,4.41-1.54,5.51-4.81S191,61.34,189,60.74Z"/><path class="cls-1" d="M170.86,48.14a7.94,7.94,0,0,0-4.23-.86h-5.92l-2.14,10.37h7a6.79,6.79,0,0,0,4.32-1.27A6.57,6.57,0,0,0,172,52.5c.06-.32.09-.62.15-.89s.05-.5.05-.74A3,3,0,0,0,170.86,48.14Z"/><polygon class="cls-1" points="163.31 110.94 161.92 115.87 167.37 115.87 168.76 110.94 163.31 110.94"/><path class="cls-1" d="M168.73,91.89l-1.86,6.49a29.79,29.79,0,0,1,5.92-1.57c.61-2.27,1.4-4.92,1.4-4.92Z"/><path class="cls-1" d="M166,101.43l-1.87,6.79a20.43,20.43,0,0,1,5.93-1.89c.72-2.61,1.41-4.9,1.41-4.9Z"/><path class="cls-1" d="M115.2,60.12A3.76,3.76,0,0,0,112.29,59a5.24,5.24,0,0,0-4.07,1.76,11.08,11.08,0,0,0-2.3,5.28c-.06.36-.12.73-.16,1.07a7.1,7.1,0,0,0,0,1,4.33,4.33,0,0,0,1,3.1,3.82,3.82,0,0,0,2.92,1.08,5.26,5.26,0,0,0,4.08-1.73A10.57,10.57,0,0,0,116,65.39a10.06,10.06,0,0,0,.16-1.12c0-.36,0-.71,0-1A4.37,4.37,0,0,0,115.2,60.12Z"/><path class="cls-1" d="M242.94,0,182.79,0h-.16c-8.27.25-18.56,6.88-20.43,15.05l-5.35,23.64h-5l5.35-23.64c1.88-8.17,12.17-14.8,20.43-15h-23.9L111,0h-.33C102.4.18,92,6.85,90.1,15.09L84.75,38.73H79l5.34-23.64C86.18,6.86,96.62.18,104.9,0H49.71c-8.34,0-19,6.75-20.93,15.09L.33,141A16.51,16.51,0,0,0,0,143.2v2.33c.57,6,5.16,10.4,11.75,10.49H67.29c-8.2-.13-13.31-6.84-11.43-15.09l6.6-29.22h5.8l-6.61,29.22c-1.88,8.26,3.23,15,11.42,15.09h67.18c-8.21-.13-13.3-6.84-11.43-15.09l2.21-9.79h5l-2.21,9.79c-1.87,8.26,3.23,15,11.43,15.09H208.4c8.08-.41,15.92-7,17.77-15L254.61,15.12C256.51,6.8,251.27,0,242.94,0ZM53.08,73.94c-3,2.21-6.89,3.33-11.64,3.33q-6.72,0-9.85-3.42a8.91,8.91,0,0,1-2.18-6.17,16.06,16.06,0,0,1,.37-3.32l5.07-24.43H42.5l-5,24.15a7.9,7.9,0,0,0-.2,1.85,4.71,4.71,0,0,0,.92,3c.9,1.18,2.37,1.77,4.43,1.77A9.23,9.23,0,0,0,48.43,69a7.91,7.91,0,0,0,2.92-4.92l5-24.14H64L58.91,64.36A15.26,15.26,0,0,1,53.08,73.94ZM83.65,61.71l-3,14.85H75.12L77.81,63.1A4.24,4.24,0,0,0,77.58,60a2.61,2.61,0,0,0-2.39-1,5.24,5.24,0,0,0-3.61,1.33,6.62,6.62,0,0,0-2,3.7L67.16,76.56H61.6L66,54.75h5.41l-.62,3.14.77-.89a8.46,8.46,0,0,1,6.4-2.81c2.27,0,3.91.67,4.94,2S84.14,59.35,83.65,61.71Zm98.55-4.62c4.66-2.17,7.08-.88,9.73,1.19l2.53-1.75,6-.53-4.53,20.56-6.9-.18-1-1.18C170.51,82.66,175.83,60,182.2,57.09ZM194.56,90l-1.24,4.28h-5c-1.93.1-2.91-.62-3-2.21L185,86.5h6.88L192.2,89c0,.65.34,1,1.16,1ZM154.62,41.23h15.7c3,0,5.33.69,7,2a7.19,7.19,0,0,1,2.4,5.84v.08c0,.48,0,1-.08,1.62s-.16,1.17-.3,1.79a13.84,13.84,0,0,1-4.78,8.11,13.57,13.57,0,0,1-8.83,3.08h-8.42l-2.6,12.77h-7.28Zm-26.7,13.53h5.41l-.62,3.14.76-.9a8.43,8.43,0,0,1,6.39-2.8q3.39,0,4.94,2c1,1.33,1.29,3.17.8,5.52l-3,14.85h-5.56l2.69-13.46a4.19,4.19,0,0,0-.22-3.09,2.62,2.62,0,0,0-2.38-1,5.25,5.25,0,0,0-3.62,1.33A6.55,6.55,0,0,0,131.6,64l-2.49,12.53h-5.55Zm-1.73,34.6-1.1,4.1H114.72A4.85,4.85,0,0,1,110.28,96h-5.4l1.18-4.28h1a1.93,1.93,0,0,0,1.92-.95l2.71-4.07H119l-1.52,2.67ZM92.33,76.55h-6L91,54.76h6Zm5.5-24.44h-6l1.13-5.3h6ZM100,67.34q.09-.84.24-1.59a14.8,14.8,0,0,1,4.55-8.43,12.22,12.22,0,0,1,8.42-3.13,8.88,8.88,0,0,1,6.4,2.26A8.18,8.18,0,0,1,122,62.61a14.26,14.26,0,0,1-.09,1.51c-.08.56-.16,1.1-.25,1.63a14.36,14.36,0,0,1-4.54,8.3,12.27,12.27,0,0,1-8.39,3.07,8.91,8.91,0,0,1-6.39-2.22A8,8,0,0,1,100,68.82C100,68.37,100,67.88,100,67.34Zm17.56,55.34H105.91q-3.33,0-2.28-3.81l2.21-8.1h-4.77l1.21-4.46h4.78l1.16-4.28h-4.56l1.2-4.44H124L122.75,102h-7.68l-1.17,4.29h7.47l-1.22,4.45h-7.48l-1.73,6.34c-.43,1,.14,1.53,1.69,1.43h6.09ZM148.4,110c-.58,2.13-2.14,3.23-4.65,3.34h-3.32l0,4.61c-.06.72.61,1.1,2,1.1h3.11l-1,3.66H137c-2.09.08-3.12-.91-3.1-3l.47-12.38h6.24l-.13,2.69h1.66c.84,0,1.26-.27,1.26-.8l.49-1.74h5.17Zm-4-3.82H130.74l-3.21,11.75c-.18.63.07,1,.77,1H131l-1,3.65h-6.85c-2.64,0-3.72-.78-3.29-2.38l9.07-33.47h6.39L135,89.26s3.61-2.71,6.87-2.71H154l-4.62,16.74C149,105.21,147.35,106.15,144.43,106.14Zm29.29,14.49-.59,2.06h-7.08l.6-2.06h-14l1.35-4.76h1.4l6.82-24h-1.4l1.44-5.08h7.3l-.31,1.87S173,86.8,175.7,86.8h9l-1.43,5.08h-1.41l-6.83,24h1.42l-1.33,4.76ZM204,100.28H196.9l-1.22,4.28h7.08l-1.33,4.59h-7.88l-1.78,2.69h3.84l.9,5.41c.1.54.58.79,1.39.79h1.2l-1.27,4.45h-4.24c-2.19.12-3.32-.61-3.42-2.22l-1-4.91-3.5,5.25a3.8,3.8,0,0,1-3.83,2.06h-6.48l1.28-4.45h2a2.77,2.77,0,0,0,2.16-1.11l5.49-7.94h-7.09l1.32-4.59h7.68l1.23-4.27h-7.69L183,95.7h22.25Zm8.34-19.52a33.83,33.83,0,0,1-5.78,9.08,11.74,11.74,0,0,1-10,4.15l.54-3.74c5.18-1.59,8-8.78,9.58-12l-1.9-23.47,4-.05h3.35l.36,14.72,6.32-14.72h6.38Z"/><path class="cls-1" d="M132.83,98.53l-.91,3.32h9.74c.8.12,1.25-.2,1.31-.95l.66-2.37Z"/><path class="cls-1" d="M134.8,91.38l-1.29,4.52a8.92,8.92,0,0,1,4.79-1.34c3,0,6.42,0,6.42,0l.87-3.18Z"/></g></g></svg>