<svg xmlns="http://www.w3.org/2000/svg" viewBox="0 0 1000.05 323.65"><defs><style>.cls-1{fill:#fff;}</style></defs><g id="Слой_2" data-name="Слой 2"><g id="Layer_1" data-name="Layer 1"><g id="g4158"><polygon id="polygon9" class="cls-1" points="433.35 318.98 352.34 318.98 403.01 5.68 484.02 5.68 433.35 318.98"/><path id="path11" class="cls-1" d="M727,13.34A199.62,199.62,0,0,0,654.36,0C574.36,0,518,42.66,517.68,103.65c-.66,45,40.34,70,71,85,31.34,15.33,42,25.34,42,39-.32,21-25.33,30.66-48.65,30.66-32.35,0-49.68-5-76-16.67l-10.67-5L484,307c19,8.65,54,16.34,90.35,16.67,85,0,140.34-42,141-107,.32-35.67-21.33-63-68-85.33-28.33-14.33-45.69-24-45.69-38.67.34-13.33,14.68-27,46.66-27,26.34-.67,45.69,5.66,60.35,12L716,81l11-67.65Z"/><path id="path13" class="cls-1" d="M834.69,208c6.68-18,32.35-87.66,32.35-87.66-.34.67,6.66-18.33,10.66-30l5.66,27S898.7,192.33,902,208Zm100-202.31H872c-19.32,0-34,5.66-42.34,26L709.36,319h85l17-47h104c2.33,11,9.67,47,9.67,47h75L934.69,5.68Z"/><path id="path15" class="cls-1" d="M284.68,5.68,205.34,219.32,196.67,176C182,126,136,71.68,84.67,44.67l72.67,274H243l127.33-313Z"/><path id="path17" class="cls-1" d="M131.67,5.68H1.33L0,12c101.67,26,169,88.67,196.67,164L168.34,32c-4.67-20-19-25.68-36.67-26.34Z"/></g></g></g></svg>