<svg xmlns="http://www.w3.org/2000/svg" viewBox="0 0 500 162"><defs><style>.cls-1{fill:#fff;}</style></defs><g id="Слой_2" data-name="Слой 2"><g id="Слой_1-2" data-name="Слой 1"><g id="white_svg_b"><path id="path3789" class="cls-1" d="M325.67,0c-35.5,0-67.23,18.4-67.23,52.4,0,39,56.27,41.68,56.27,61.27,0,8.25-9.45,15.63-25.6,15.63a84.94,84.94,0,0,1-40-10.32l-7.32,34.31A125,125,0,0,0,287.67,162c38.81,0,69.36-19.3,69.36-53.88,0-41.2-56.51-43.81-56.51-62,0-6.46,7.76-13.54,23.86-13.54a81.12,81.12,0,0,1,33,7.5L364.53,7s-16.12-7-38.86-7ZM.86,2.5,0,7.5a167.41,167.41,0,0,1,28.39,8.19c17.32,6.25,18.55,9.89,21.47,21.2L81.65,159.42h42.61L189.9,2.5H147.39L105.21,109.19,88,18.76C86.42,8.41,78.42,2.5,68.63,2.5ZM207,2.5,173.65,159.42h40.54L247.42,2.5Zm226.1,0c-9.77,0-15,5.23-18.75,14.38L355,159.42h42.52l8.22-23.75h51.8l5,23.75H500L467.27,2.5Zm5.53,42.4,12.6,58.88H417.47L438.63,44.9Z"/></g></g></g></svg>