<?xml version="1.0" encoding="UTF-8" standalone="no"?>
<svg
   xmlns:sketch="http://www.bohemiancoding.com/sketch/ns"
   xmlns:dc="http://purl.org/dc/elements/1.1/"
   xmlns:cc="http://creativecommons.org/ns#"
   xmlns:rdf="http://www.w3.org/1999/02/22-rdf-syntax-ns#"
   xmlns:svg="http://www.w3.org/2000/svg"
   xmlns="http://www.w3.org/2000/svg"
   xmlns:sodipodi="http://sodipodi.sourceforge.net/DTD/sodipodi-0.dtd"
   xmlns:inkscape="http://www.inkscape.org/namespaces/inkscape"
   width="780px"
   height="501px"
   viewBox="0 0 780 501"
   version="1.1"
   id="svg2"
   inkscape:version="0.91 r13725"
   sodipodi:docname="mir-colored.svg">
  <metadata
     id="metadata15">
    <rdf:RDF>
      <cc:Work
         rdf:about="">
        <dc:format>image/svg+xml</dc:format>
        <dc:type
           rdf:resource="http://purl.org/dc/dcmitype/StillImage" />
        <dc:title>jcb copy</dc:title>
      </cc:Work>
    </rdf:RDF>
  </metadata>
  <sodipodi:namedview
     pagecolor="#ffffff"
     bordercolor="#666666"
     borderopacity="1"
     objecttolerance="10"
     gridtolerance="10"
     guidetolerance="10"
     inkscape:pageopacity="0"
     inkscape:pageshadow="2"
     inkscape:window-width="974"
     inkscape:window-height="643"
     id="namedview13"
     showgrid="false"
     inkscape:zoom="0.35355339"
     inkscape:cx="459.47285"
     inkscape:cy="200.49126"
     inkscape:window-x="481"
     inkscape:window-y="40"
     inkscape:window-maximized="0"
     inkscape:current-layer="Page-1" />
  <!-- Generator: Sketch 3.3.1 (12005) - http://www.bohemiancoding.com/sketch -->
  <title
     id="title4">jcb copy</title>
  <desc
     id="desc6">Created with Sketch.</desc>
  <defs
     id="defs8" />
  <g
     id="Page-1"
     sketch:type="MSPage"
     stroke-width="1"
     stroke="none"
     fill-rule="evenodd"
     fill="none">
    <rect
       id="Rectangle-1"
       sketch:type="MSShapeGroup"
       x="15"
       y="15"
       width="750"
       height="471"
       rx="40"
       style="stroke:#ffffff;stroke-opacity:1;fill:#ffffff;fill-opacity:1"
       stroke-width="30"
       stroke="#393939" />
    <g
       id="g4417"
       transform="matrix(0.7867317,0,0,0.7867317,76.048339,167.25527)">
      <g
         id="g5">
        <path
           class="st0"
           d="m 218,0 0,0.1 c -0.1,0 -31.6,-0.1 -40,30 -7.7,27.6 -29.4,103.8 -30,105.9 l -6,0 C 142,136 119.8,58.1 112,30 103.6,-0.1 72,0 72,0 l -72,0 0,229 72,0 0,-136 3,0 3,0 42,136 50,0 42,-135.9 6,0 0,135.9 72,0 0,-229 -72,0 z"
           id="path7"
           inkscape:connector-curvature="0"
           style="clip-rule:evenodd;fill:#4db45e;fill-rule:evenodd" />
      </g>
      <g
         id="g9">
        <path
           class="st0"
           d="m 481,0 c 0,0 -21.1,1.9 -31,24 l -51,112 -6,0 0,-136 -72,0 0,229 68,0 0,0 c 0,0 22.1,-2 32,-24 l 50,-112 6,0 0,136 72,0 0,-229 -68,0 z"
           id="path11"
           inkscape:connector-curvature="0"
           style="clip-rule:evenodd;fill:#4db45e;fill-rule:evenodd" />
      </g>
      <g
         id="g13">
        <path
           class="st0"
           d="m 581,104 0,125 72,0 0,-73 78,0 c 34,0 62.8,-21.7 73.5,-52 L 581,104 Z"
           id="path15"
           inkscape:connector-curvature="0"
           style="clip-rule:evenodd;fill:#4db45e;fill-rule:evenodd" />
      </g>
      <g
         id="g17">
        <linearGradient
           id="SVGID_1_"
           gradientUnits="userSpaceOnUse"
           x1="570.91937"
           y1="47"
           x2="809"
           y2="47">
          <stop
             offset="0.3"
             style="stop-color:#00B4E6"
             id="stop20" />
          <stop
             offset="1"
             style="stop-color:#088CCB"
             id="stop22" />
        </linearGradient>
        <path
           class="st1"
           d="M 731,0 570.9,0 c 8,43.6 40.7,78.6 83,90 l 0,0 c 9.6,2.6 19.7,4 30.1,4 l 123.4,0 C 808.5,88.8 809,83.5 809,78 809,34.9 774.1,0 731,0 Z"
           id="path24"
           inkscape:connector-curvature="0"
           style="clip-rule:evenodd;fill:url(#SVGID_1_);fill-rule:evenodd" />
      </g>
    </g>
  </g>
  <style
     type="text/css"
     id="style3">
	.st0{fill-rule:evenodd;clip-rule:evenodd;fill:#4DB45E;}
	.st1{fill-rule:evenodd;clip-rule:evenodd;fill:url(#SVGID_1_);}
</style>
</svg>
