<svg xmlns="http://www.w3.org/2000/svg" version="1.1" x="0" y="0" viewBox="0 0 2180 798.7" preserveAspectRatio="xMidYMid meet" xml:space="preserve"><style>.s0{fill:#E21D2C;}.s1{fill:#119F3B;}.s2{fill:none;stroke-width:1;stroke:#2D2B2D;}.s3{fill:#FEFEFE;}.s4{fill:#2D2B2D;}</style><g id="Layer_1_1_"><g id="Calque_x0020_1"><g id="_264549168"><path id="_264549192" d="M34.9 725.6c-39.6 0-41.4 37.6-25.7 37.6 107.2 0 1102.6 0.1 1161.8 0.3 5 0 5.9-0.9 5.7-2.3 -9.9-6.6-1107.3-35.5-1141.8-35.5H34.9z" fill="#E21D2C"/></g><linearGradient id="SVGID_1_" gradientUnits="userSpaceOnUse" x1="206.5" y1="272.8" x2="2204.5" y2="272.8" gradientTransform="matrix(0.9951 0 0 -0.9951 -17.5723 706.146)"><stop offset="0" stop-color="#AFC979"/><!-- Made for www.totalmoney.sk --><stop offset="0.5" stop-color="#408651"/><stop offset="1" stop-color="#1F6D64"/></linearGradient><path d="M187.9 434.6c0 127 445.1 229.7 994.1 229.7 549 0 994.1-102.8 994.1-229.7 0-126.9-445-229.7-994.1-229.7C633 204.9 187.9 307.8 187.9 434.6L187.9 434.6z" style="fill:url(#SVGID_1_);stroke-width:8;stroke:#257532"/><g id="_264549504"><path id="_264549432" d="M502.5 424.6c10.1-7 0.4-20-4.3-17.8 -2.7 1.2-10.7 4.5-14.8 5 -4.1 0.4-9.5-2.6-17.8-4.3 -8.4-1.7-19.5-1.5-24.7-2.1 -2.6-0.3-16.6-11.5-25.9-26.4 -11.1-17.7-17.6-40.3-20-45.3 -4.4-9-17.2-39.7-23-48.8 -5.8-9-20.4-35.4-50.5-44.4 -5-1.9-7-6-6.4-6.8 0.5-0.8 10.8-3.5 30.9-16.5 20.1-12.9 53.6-41.2 53.3-85.2 -0.4-46.9-19.5-85.7-57.5-107.7C303.7 2.2 267.8 1.6 254.9 1.8c-77.2 1.1-126.4 53.4-134.8 110.8 -6.4 43.8 12.8 96.5 78.3 123.2l2 8.1c-43.1 13.9-73.7 43.6-92.7 77.7 -19 34.1-33.3 49.9-18.2 70.5 15 20.6 30.1 32.9 34.1 40 0.8 22.1 19.9 45 42.4 55.1 0.4 7.9-24 158.3-53.1 209.6 -7.9 17.4-7.9 32.9-8.3 39.2 -0.4 6.4 3.9 21.1 5.8 26.7 1.8 5.5 7.1 22.4 26.1 28.5 19 6.1 35.6 7.1 42.2 6.9 6.6-0.3 24.6 1.1 28.5-13 4-14-2.3-34.5-2.9-52.5 -1.1-37 52-148.1 57.8-158.3 4.1-7.2 11.9-14.5 11.9-14.5s1.6 123.1-0.2 137.9c-1.8 14.8-10.6 39.6-1.6 55.5 9 15.9 85 34.1 119.3 36.2 0 0 32 4.5 31.5-21.1 -0.5-25.6-51.8-48.6-61.5-71.9 -6.3-17.4 0.5-59.4 2.3-70.9 6.8-42.2 13.3-159.5 14.4-175.6 1.1-16.1 0-48.9 0-48.9 17 26.1 35 34.5 40.7 43.4 5.9 8.9 22.9 26.4 25.8 29.6 1.5 1.7 18.5 15.8 29.6 24 9.7 7.1 25.3-2.9 17.2-13.8 10.6 8.9 24.1-5.5 17.9-11.3 8.4 1.1 10.3-11.7 5.9-15.1 -4.3-3.4-25.8-24.4-25.6-26.9C492.1 429.9 498.2 427.6 502.5 424.6L502.5 424.6zM169.9 399.5L169.9 399.5c-1.4 0.4-7.2 0.4-8.4 0 -1.2-0.4-4.3-5.2-6.1-8.2 -5.7-9.5-11.6-20-12.2-22.5 -0.8-3.6 7.3-11.3 10.3-14.2 2.9-3 11.7-8.9 15.7-12.2 0 0 1.5-0.7 2.2 3.5 0.4 2.1 0.8 46.2 1.2 52.7C172.6 398.7 171.2 399.1 169.9 399.5L169.9 399.5z" fill="#119F3B"/></g><g id="_264549000"><path id="_264549528" d="M502.5 424.6c10.1-7 0.4-20-4.3-17.8 -2.7 1.2-10.7 4.5-14.8 5 -4.1 0.4-9.5-2.6-17.8-4.3 -8.4-1.7-19.5-1.5-24.7-2.1 -2.6-0.3-16.6-11.5-25.9-26.4 -11.1-17.7-17.6-40.3-20-45.3 -4.4-9-17.2-39.7-23-48.8 -5.8-9-20.4-35.4-50.5-44.4 -5-1.9-7-6-6.4-6.8 0.5-0.8 10.8-3.5 30.9-16.5 20.1-12.9 53.6-41.2 53.3-85.2 -0.4-46.9-19.5-85.7-57.5-107.7C303.7 2.2 267.8 1.6 254.9 1.8c-77.2 1.1-126.4 53.4-134.8 110.8 -6.4 43.8 12.8 96.5 78.3 123.2" class="s2"/><line id="_264549312" x1="198.4" y1="235.7" x2="200.4" y2="243.8" class="s2"/><path id="_264549696" d="M200.4 243.8c-43.1 13.9-73.7 43.6-92.7 77.7 -19 34.1-33.3 49.9-18.2 70.5 15 20.6 30.1 32.9 34.1 40 0.8 22.1 19.9 45 42.4 55.1 0.4 7.9-24 158.3-53.1 209.6 -7.9 17.4-7.9 32.9-8.3 39.2 -0.4 6.4 3.9 21.1 5.8 26.7 1.8 5.5 7.1 22.4 26.1 28.5 19 6.1 35.6 7.1 42.2 6.9 6.6-0.3 24.6 1.1 28.5-13 4-14-2.3-34.5-2.9-52.5 -1.1-37 52-148.1 57.8-158.3 4.1-7.2 11.9-14.5 11.9-14.5s1.6 123.1-0.2 137.9c-1.8 14.8-10.6 39.6-1.6 55.5 9 15.9 85 34.1 119.3 36.2 0 0 32 4.5 31.5-21.1 -0.5-25.6-51.8-48.6-61.5-71.9 -6.3-17.4 0.5-59.4 2.3-70.9 6.8-42.2 13.3-159.5 14.4-175.6 1.1-16.1 0-48.9 0-48.9 17 26.1 35 34.5 40.7 43.4 5.9 8.9 22.9 26.4 25.8 29.6 1.5 1.7 18.5 15.8 29.6 24 9.7 7.1 25.3-2.9 17.2-13.8 10.6 8.9 24.1-5.5 17.9-11.3 8.4 1.1 10.3-11.7 5.9-15.1 -4.3-3.4-25.8-24.4-25.6-26.9 2.4-1 8.5-3.3 12.8-6.2M169.9 399.5c-1.4 0.4-7.2 0.4-8.4 0 -1.2-0.4-4.3-5.2-6.1-8.2 -5.7-9.5-11.6-20-12.2-22.5 -0.8-3.6 7.3-11.3 10.3-14.2 2.9-3 11.7-8.9 15.7-12.2 0 0 1.5-0.7 2.2 3.5 0.4 2.1 0.8 46.2 1.2 52.7C172.6 398.7 171.2 399.1 169.9 399.5" class="s2"/></g><g id="_264550344"><path id="_264550080" d="M323.2 110c-7.5 0-13.5 6.1-13.5 13.5 0 7.5 6.1 13.5 13.5 13.5 7.5 0 13.5-6.1 13.5-13.5C336.7 116.1 330.6 110 323.2 110z" fill="#FEFEFE"/><path id="_264550272" d="M323.2 108c-8.6 0-15.6 7-15.6 15.6 0 8.6 7 15.6 15.6 15.6 8.6 0 15.6-7 15.6-15.6C338.7 115 331.7 108 323.2 108zM323.2 137.1L323.2 137.1c-7.5 0-13.5-6.1-13.5-13.5 0-7.5 6.1-13.5 13.5-13.5 7.5 0 13.5 6.1 13.5 13.5C336.7 131 330.6 137.1 323.2 137.1z" fill="#2D2B2D"/><path id="_264550488" d="M329.1 119.3l-1 0.7 -1.1-1.1 0.9-1c-1.4-1.3-3.3-2.2-5.3-2.2 -4.4 0-7.8 3.5-7.8 7.9 0 4.3 3.5 7.8 7.8 7.8 4.3 0 7.8-3.5 7.8-7.8C330.4 121.9 329.9 120.5 329.1 119.3L329.1 119.3z" fill="#119F3B"/><path id="_264549864" d="M326.5 123.5c0 2.3-1.8 4.2-4 4.2 -2.2 0-4-1.9-4-4.2 0-2.3 1.8-4.2 4-4.2C324.7 119.3 326.5 121.2 326.5 123.5z" fill="#2D2B2D"/><path id="_264550416" d="M267.5 110c-7.7 0-14 6.3-14 14 0 7.7 6.3 14 14 14 7.7 0 14-6.3 14-14C281.5 116.3 275.2 110 267.5 110z" fill="#FEFEFE"/><path id="_264550440" d="M267.5 107.9c-8.9 0-16.1 7.3-16.1 16.1 0 8.9 7.2 16.2 16.2 16.2 8.9 0 16.1-7.2 16.1-16.2C283.6 115.1 276.4 107.9 267.5 107.9L267.5 107.9zM267.5 138L267.5 138c-7.7 0-14-6.3-14-14 0-7.7 6.3-14 14-14 7.7 0 14 6.3 14 14C281.5 131.7 275.2 138 267.5 138z" fill="#2D2B2D"/><path id="_264550464" d="M273.8 120.2l-1 0.7 -1.2-1.2 0.9-1c-1.4-1.4-3.4-2.3-5.6-2.3 -4.5 0-8.1 3.6-8.1 8.1 0 4.5 3.6 8.1 8.1 8.1 4.5 0 8.1-3.6 8.1-8.1C275 123 274.6 121.5 273.8 120.2z" fill="#119F3B"/><path id="_264549984" d="M271.1 124.6c0 2.4-1.8 4.4-4.1 4.4 -2.3 0-4.2-1.9-4.2-4.4 0-2.4 1.9-4.3 4.2-4.3C269.2 120.2 271.1 122.2 271.1 124.6L271.1 124.6zM278.1 82c-6.4-5.1-18-2.1-21.5-0.4 -4.7 2.4-8.5 5.9-11.4 8.4l-1.1 1 0.2 1.1c0.7 1 2.9-0.3 3.8-0.8 1.7-1.1 8.1-4.1 12.2-5.1 4-1.1 9.5-0.9 11.6-0.1 1.4 0.6 7.2 1.7 8.3-0.2C281 84.5 279.4 83 278.1 82L278.1 82zM346.3 90.6c-3-4.2-9.6-9.3-13.9-10.8 -5.1-1.7-8.9-1.6-13 0.3 -2.2 1-2.5 2.6-2.1 3.6 0.4 1.1 1.6 1.7 2.9 1.4 1.9-0.5 5.8-1.3 10-1 5.1 0.3 9.9 4.1 12.2 5.9l1.2 0.9c1.6 1.1 2.2 1.5 2.8 1l0.5-0.5L346.3 90.6 346.3 90.6zM228.1 160.1c12.6 10.3 34.4 21.1 54.1 22 19.7 1 51.5-8.8 65.2-16.7 -11.8 8.1-25.8 40-59.2 41.7C252.7 208.9 235.6 175.4 228.1 160.1L228.1 160.1z" fill="#2D2B2D"/></g><g id="_264551232"><path id="_264551256" d="M225.9 160.5c0.7-0.1 1.7-0.3 2.7-0.5 0.5-0.1 1.5-0.5 2.4-1l1.6-1 1.1 0.6c1.1 1.2-1.1 2.7-4.1 3.7 -2.3 0.7-5.4 1.9-5.7-0.2C223.9 160.8 224.6 160.7 225.9 160.5zM345.5 163.7c0.6 0 1.8 0.4 2.7 1.2 1 0.8 1.5 1.9 1.5 2.5 0.1 0.7-1.3 2-2.4 0.5l-0.7-1.1 -1.7-0.7C344.1 166 343.8 163.8 345.5 163.7z" fill="#2D2B2D"/></g><g id="_265384240"><path id="_265384096" d="M275.7 284.7c9.3-1 33.4 1.6 36.4 20.9 2.2 14.2-9.2 23.5-22.9 25.2 -13.8 1.8-34.2-2.3-36.9-20.6C249.7 292.1 267.6 285.5 275.7 284.7L275.7 284.7z" fill="#FEFEFE"/><path id="_265383760" d="M296.8 313.6l7.5 3.3 -0.7 0.9 -1.2 1.3c-3.4 3.9-10.1 6.1-16.1 6.3l-0.8 0.1c-1.4 0-2.8-0.1-4.2-0.3 -2.9-0.4-5.8-1.2-8.5-2.5 -6.4-3-11.6-8.3-12.5-15.4 -0.4-3.5 0.1-7.9 3.2-11.3l-0.2 0.2 1.3-1.5c0.9-0.9 2-1.8 3.3-2.5 2.6-1.6 5.9-2.6 10.9-2.9l0.6 0c4.9-0.1 9.8 0.5 13.7 2.3l0.2 0.1 -3.5 5.4 -1.3 1.5c-2.3-0.7-5.8-1.2-9.3-1.1h-0.3c-3.4 0.2-6.3 1-8.5 3.3l-0.4 0.6 -0.1 0.3 -0.2 0.4 -0.1 0.3 -0.2 0.4 0 0.2 -0.3 1.4v1.2l0 0.6 0.2 0.9 0.4 1.3 0.5 1 0.2 0.3 0.3 0.6 1 1.3 0.2 0.2 1.1 1.1 0.3 0.2 1.4 1.1 0.3 0.2 1.5 0.9 0.3 0.1 0.8 0.4 0.8 0.4 0.4 0.1 1.7 0.6 0.2 0 1.9 0.4 0.4 0 2 0.2 1.2 0C290.2 317.3 294.2 315.8 296.8 313.6L296.8 313.6zM269.1 302L269.1 302l0.1-0.2 -0.1 0.2V302z" fill="#E21D2C"/><path id="_265383856" d="M206.1 479.4c-0.2 5 0.1 10.7-8.6 14.5 -7.1 3.2-16.8 1.9-26.4-3.3 -2.1-1.1-6.9-4-10-6.2 18.5 5.7 25.1 4.4 29.1 2.3 5.9-3.1 7.6-5.8 9.6-10.4 -4.6-1.8-10.8-5-16.7-10.4 -0.6-0.6-0.9-1 0.8-0.1 10.4 5.2 14.6 5.4 20.8 8 6.5-1 18.3-4.4 15.4-18.4 -7.5 3-16.3 0.4-23.7-6.4 -1.1-1-0.4-1.5 0.9-0.5 5.9 5.8 17.5 6.1 25 2.5 5.6-3.8 5.9-18.4-1.7-23.3 -2.9-1.9-6.4-4.1-8.8-5.7 -7.7-3.1-15.7-7.4-19.1-10.4 2.6 2 11.9 5.4 16.9 7.2 -1.3-3.5-6.2-10.5-15.4-14.3 14.7 2.6 18.7 13.4 18.1 15.5l0.7 0.7c2.7 1.5 10.3 4.7 17.5 11.2 7.3 6.8 10 21.4 0.8 28.4C235.6 476.2 217.6 485.8 206.1 479.4L206.1 479.4zM274.1 559.1c18-6.8 27.4-4.9 30.7-3.4 9.5 4.3 8.5 17.2 5.6 46.2 -6.4 64.2-38.7 109.5-41.6 141.3 -2-9.5 0.9-24.6 2.2-33.8 1.7-11.6 2.8-32.4 3.2-43.9 0.3-11.4-0.4-98.8-0.7-102.5C273.5 561.8 273.9 560.6 274.1 559.1L274.1 559.1z" fill="#2D2B2D"/></g><g id="_265383808"><path id="_265384000" d="M139 787.8c-16.5-8.7-17.7-19.6-19.5-25.1 -1.9-5.6-6.2-20.4-5.8-26.7 0.4-6.4 0.4-21.8 8.3-39.2 26.4-52.4 52.5-205.4 52.5-205.4l-8.8-4.2c0.2 0.5-19 145-54.3 209.6 -7.9 17.4-8.6 32.9-8.3 39.2 0.3 6.8 3.5 21.6 5.3 27.2 1.9 5.6 10 22.9 29 29 19 6.1 31.9 6.6 38.5 6.3 1.1 0 24 2.1 30.1-10C193.8 801.9 151.6 794.5 139 787.8L139 787.8zM205.8 236.6l-0.2-0.2c-71.4-22.7-80.3-100.7-64.7-141.5 20-52.3 102.4-123.6 206.5-67.5 -36.3-25.8-76.4-27.1-88.4-27.2 -70.6-0.4-127.1 47.3-138.1 105.5 -8.8 46.4 10.1 105.1 77.7 130.1h0l0.8 4.8c-45.4 18.8-74.1 49.3-93.3 81.1 -19.1 31.6-23.5 43.3-22.7 55.4 1.2-17.7 22.8-52 31.3-61.7 21.2-24.2 53.4-49.2 85.4-62.4 18.5-9 50.6 1.3 98.4-11.6C261.3 248.3 229.3 244.2 205.8 236.6L205.8 236.6z" fill="#2D2B2D"/></g><g id="_265383616"><path id="_265384192" d="M132.2 364.3c1.3-2.1 31.3-40.3 40.2-42.7 5.9 10 5.1 39.4 5.2 49.2 0.2 13.1-2 29.1 5.9 30.5 -3.9-0.8-11.3-1.2-14.7-1.5l3.7-1.1c-1.4-15.4 1.3-52.3-2.9-56.4 -3.7 2.4-28.7 20.9-25.8 27.4 1.9 4.3 7.1 13.3 10.9 20.2 3.8 5.8 5.7 8.8 6.9 9.8C145.8 395.5 132.2 364.3 132.2 364.3L132.2 364.3zM470.2 457.1c-0.9-0.9-2-0.6-2.9-1.4 6.4 7.5 22.5 27.4 24.1 28.8 1.6 1.4 10 4.5 14.7-0.5C495.8 488.1 483.2 468.6 470.2 457.1L470.2 457.1zM493.7 488.7c-14.1 17.2-41.1-22-46.1-30.6 -5-8.6-20.3-23.3-12.4-40.1 0 0-12.9 14-20.6 6.8 -9.7-10.9-22.4-25.8-25.3-33.9 -4.2-11.9-18.7-70.3-24.2-78.6 7.9 28.8 12.7 73.8 12.8 88 7.9 13.2 21.5 27.4 37.9 41 4.7 5.7 25.8 35.1 58.9 57 1.2 0.8 3 1.1 4.2 2 2.7 1.3 12.4-0.7 13.7-5.7l-0.1 0C493.8 492.1 493.7 489.5 493.7 488.7L493.7 488.7zM421.7 388.3c3.6 5 15.9 19.2 15.2 22 2-3.8 4.3-4.8 7.3-4.5C437.1 405 430.1 397.9 421.7 388.3L421.7 388.3zM487.9 448.6c-2.4-2.4-4.4-4.8-6.2-6.9 7.2-9.2 16.9 0.1 17.5 0.6 -6.4-7-8.3-10.4-8.8-11.5 3.6-1.8 16.4-6.5 16.3-12.3 -10.6 10.6-44.2 10.7-48.2 11.3l6.3 18c0.4-1.2 4.1-8.6 13.7-7 5.1 6.1 28.9 32.1 30.8 32.4 0 0 6.1 0 7.6-5.4C510.7 473.1 499.4 460.2 487.9 448.6L487.9 448.6zM291.5 766.1c19.4 9.4 89.8 26.5 112.9 23.6 15.4-2 17.2-13.2 17.2-13.2C411.7 798.7 313.4 774.2 291.5 766.1L291.5 766.1z" fill="#2D2B2D"/></g><g id="_265384984"><defs><rect id="SVGID_2_" x="518.1" y="303.1" width="1520.7" height="262.5"/></defs><clipPath id="SVGID_3_"/><polygon id="_265385032" points="1416.3 516.3 1454.1 516.3 1454.1 319.1 1416.3 319.1 " fill="#FEFEFE"/><path id="_265384648" d="M1921.3 373.3c-24 0-43.9 8.2-56.9 22.9 -11.9-16.6-28-22.9-58.3-22.9 -19.2 0-36.5 5.5-46.2 14.2v-10.2h-36.2v140.1h37.8v-80.6c0-21.6 13.9-34.5 37.2-34.5 19.7 0 43 5.9 43 34v81h37.8v-83.3c0-18.6 16.2-31.2 40.3-31.2 18.2 0 39.9 5.8 39.9 33.5v81h37.8v-87.6C1997.4 394.4 1969 373.3 1921.3 373.3L1921.3 373.3zM721.5 453.6c-9.4 18.2-32 35.4-64.7 35.4 -47.8 0-81.2-29.4-81.2-71.5 0-44.6 29.1-70.1 79.9-70.1 36.3 0 54.3 18.1 62.9 32.5h43.7c-10.5-40.4-50.8-65.2-106.8-65.2 -74.4 0-120.5 39.5-120.5 103.1 0 62.5 47.3 102.8 120.5 102.8 56.3 0 98.6-26.7 107.6-67.1H721.5L721.5 453.6zM930.7 477.3c-9.2 9.7-22.8 14.8-41 14.8 -31.9 0-49.4-18.9-51-38.4h138.9v-8.8c0-45.6-33.2-72.7-89.1-72.7 -54.9 0-88.8 28.4-88.8 74.1 0 45.9 34.6 74.4 90.3 74.4 42.6 0 71.8-15.6 82.8-43.4H930.7L930.7 477.3zM889.1 400.4L889.1 400.4c27.5 0 43.4 13.2 48 27h-94.8C847.1 411.2 865.3 400.4 889.1 400.4L889.1 400.4zM1123.5 476c-4.4 10.6-14.9 16-31.5 16 -26.9 0-32.3-12.4-32.3-30.9v-57.7h64.8v-27.2h-64.8v-34.2h-37.8V470.2c0 31.2 25 49.9 67 49.9 43.3 0 65.5-13.4 71.9-44.1H1123.5L1123.5 476zM1325.3 477.3c-9.2 9.7-22.9 14.8-41 14.8 -32 0-49.4-18.9-51.1-38.4h139v-8.8c0-45.6-33.3-72.7-89.2-72.7 -54.8 0-88.8 28.4-88.8 74.1 0 45.9 34.6 74.4 90.3 74.4 42.5 0 71.9-15.6 82.9-43.4H1325.3L1325.3 477.3zM1283.6 400.4L1283.6 400.4c27.4 0 43.4 13.2 48 27h-94.9C1241.5 411.2 1259.8 400.4 1283.6 400.4zM1629.4 477.3c-9.1 9.7-22.8 14.8-41 14.8 -32 0-49.5-18.9-51.1-38.4h139v-8.8c0-45.6-33.3-72.7-89.2-72.7 -54.7 0-88.8 28.4-88.8 74.1 0 45.9 34.6 74.4 90.4 74.4 42.6 0 71.8-15.6 82.8-43.4H1629.4L1629.4 477.3zM1587.9 400.4L1587.9 400.4c27.4 0 43.4 13.2 48 27h-94.8C1545.7 411.2 1564 400.4 1587.9 400.4L1587.9 400.4z" fill="#FEFEFE"/></g></g></g><g id="Layer_1"/></svg>