<?xml version="1.0" encoding="UTF-8" standalone="no"?>
<!-- Generator: Adobe Illustrator 19.2.1, SVG Export Plug-In . SVG Version: 6.00 Build 0)  -->

<svg
   xmlns:dc="http://purl.org/dc/elements/1.1/"
   xmlns:cc="http://creativecommons.org/ns#"
   xmlns:rdf="http://www.w3.org/1999/02/22-rdf-syntax-ns#"
   xmlns:svg="http://www.w3.org/2000/svg"
   xmlns="http://www.w3.org/2000/svg"
   xmlns:sodipodi="http://sodipodi.sourceforge.net/DTD/sodipodi-0.dtd"
   xmlns:inkscape="http://www.inkscape.org/namespaces/inkscape"
   version="1.1"
   id="Слой_1"
   x="0px"
   y="0px"
   viewBox="0 0 134.50269 73.800781"
   enable-background="new 0 0 152 90"
   xml:space="preserve"
   inkscape:version="0.91 r13725"
   sodipodi:docname="ru-hcf.svg"
   width="134.50269"
   height="73.800781"><metadata
     id="metadata13"><rdf:RDF><cc:Work
         rdf:about=""><dc:format>image/svg+xml</dc:format><dc:type
           rdf:resource="http://purl.org/dc/dcmitype/StillImage" /><dc:title></dc:title></cc:Work></rdf:RDF></metadata><defs
     id="defs11" /><sodipodi:namedview
     pagecolor="#ffffff"
     bordercolor="#666666"
     borderopacity="1"
     objecttolerance="10"
     gridtolerance="10"
     guidetolerance="10"
     inkscape:pageopacity="0"
     inkscape:pageshadow="2"
     inkscape:window-width="1127"
     inkscape:window-height="651"
     id="namedview9"
     showgrid="false"
     inkscape:zoom="2.0394737"
     inkscape:cx="75.826565"
     inkscape:cy="37.713889"
     inkscape:window-x="0"
     inkscape:window-y="0"
     inkscape:window-maximized="0"
     inkscape:current-layer="Слой_1"
     fit-margin-top="0"
     fit-margin-left="0"
     fit-margin-right="0"
     fit-margin-bottom="0" /><path
     style="opacity:1;fill:#ffffff;fill-opacity:1;fill-rule:nonzero;stroke:none"
     d="m 115.00269,0 -30.601562,7.6015622 0,63.1992188 -83.50000037,0 0,3 114.10156237,0 0,-70.3007808 16.69922,6.300781 0,63.9999998 2.80078,0 0,-66.0996088 L 115.00269,0 Z M 20.701909,20.101562 c -4.2,0 -6.4,3.39961 -6.5,7.09961 0,3.8 2.4,7 6.5,7 1.4,0 2.799609,-0.300391 4.099609,-1.400391 1.5,-1.2 2.5,-3.299609 2.5,-5.599609 0,-0.9 -0.199218,-5.301172 -4.199218,-6.701172 -0.8,-0.3 -1.600391,-0.398438 -2.400391,-0.398438 z m -19.80078137,0.5 0,13.199219 3.30078117,0 0,-5.699219 4.800781,0 0,5.699219 3.2988282,0 0,-13.199219 -3.2988282,0 0,4.798828 -4.800781,0 0,-4.798828 -3.30078117,0 z m 28.30078137,0 0,13.199219 3.199219,0 L 32.201909,25.5 c 0,-1.2 3.91e-4,-1.5 -0.09961,-2.5 l 0.59961,2.300781 2.400391,8.599609 2.798828,0 2.5,-8.90039 c 0.1,-0.6 0.100781,-0.698438 0.300781,-1.398438 l 0.09961,-0.5 0,1.298828 -0.199219,9.400391 3.099609,0 0,-13.199219 -4.699219,0 L 36.901128,28.5 c -0.2,0.6 -0.198438,0.701562 -0.398438,1.601562 L 36.00269,28 l -2,-7.398438 -4.800781,0 z m 17.5,0 0,13.09961 10.199219,0 0,-2.59961 -7,0 0,-3.101562 6,0 0,-2.5 -6,0 0,-2.398438 6.40039,0 0,-2.5 -9.599609,0 z m -26,2.398438 c 0.9,0 1.700781,0.4 2.300781,1 0.8,0.7 1.19961,2.1 1.09961,3.5 -0.1,2.7 -1.800782,3.800781 -3.300782,3.800781 -1.6,0 -3.298828,-1.099609 -3.298828,-4.099609 0,-2.5 1.199219,-4.201172 3.199219,-4.201172 z M 6.3015178,36.300781 c -3.7,0 -6.39882767,3.1 -6.29882777,7 0,4.5 2.79921877,7 6.19921877,7 1.8,0 2.999609,-0.699609 3.599609,-1.099609 C 10.901518,48.501172 11.301518,47.8 11.801518,47 L 9.2019088,45.701172 c -0.4,0.7 -1.100781,1.90039 -2.800781,1.90039 -1.7,0 -3.199219,-1.50039 -3.199219,-4.40039 0,-2.2 1.099219,-4.201172 3.199219,-4.201172 0.5,0 1.200781,0.101562 1.800781,0.601562 0.6,0.5 0.8,0.998438 1,1.398438 l 2.5996092,-1.298828 c -0.4,-0.7 -0.799218,-1.39961 -1.699218,-2.09961 -1.0000002,-0.8 -2.3007822,-1.300781 -3.8007822,-1.300781 z m 6.7011722,0.300781 0,13.199219 3.298828,0 0,-4.800781 2.09961,0 2.601562,4.800781 3.59961,0 -3,-5.300781 c 0.9,-0.3 2.699218,-0.99961 2.699218,-3.59961 0,-1.2 -0.4,-2.20039 -1,-2.90039 -1.2,-1.3 -2.898828,-1.298828 -4.298828,-1.298828 l -5.90039,0 0,-0.09961 -0.09961,0 z m 43.898438,0 0,2.699219 3.300781,-0.09961 0,10.599609 3.300781,0 0,-10.599609 3.398438,0 0,-2.59961 -10,0 z m -30.398438,0.09961 0,13.199218 10.199219,0 0,-2.599609 -7,0 0,-3.099609 6,0 0,-2.5 -6,-0.09961 0,-2.40039 6.400391,0 0,-2.5 -9.59961,0 z m 12.199219,0 0,13.199218 5.099609,0 c 1.4,0 5.001172,-0.19922 6.201172,-4.199218 0.1,-0.5 0.298828,-1.4 0.298828,-2.5 0,-2 -0.60039,-3.8 -1.90039,-5 -1.6,-1.4 -3.99961,-1.5 -5.59961,-1.5 l -4.099609,0 z m 13.5,0 0,13.199218 3.199219,0 0,-13.199218 -3.199219,0 z m -35.900391,2.5 2.800782,0 c 0.7,0 1.90039,-7.82e-4 1.90039,1.699218 0,1.8 -1.5,1.800782 -2,1.800782 l -2.701172,0 0,-3.5 z M 42.00269,39.5 l 1.298828,0 c 1,0 2.19961,0.0012 3.09961,1.201172 0.6,0.8 0.701172,1.699609 0.701172,2.599609 0,3.9 -2.39961,4 -4.09961,4 l -1,0 0,-7.800781 z m -41.10156237,13.40039 0,13.201172 5.50000017,0 c 1.5,0 2.5,-0.1 3.5,-0.5 1.7000002,-0.8 2.2011722,-2.201172 2.2011722,-3.201172 0,-0.8 -0.201172,-1.5 -0.701172,-2 -0.7,-0.8 -1.8000002,-0.999218 -2.5000002,-1.199218 0.7,-0.1 1.9000002,-0.401172 2.5000002,-1.701172 0,-0.2 0.201172,-0.598828 0.201172,-1.298828 0,-1.2 -0.700782,-2.5 -2.3007822,-3 -0.8,-0.2 -2.00039,-0.300782 -3.40039,-0.300782 l -5.00000017,0 z m 16.30078137,0 -4.800781,13.201172 3.5,0 L 16.50269,64 l 4.798828,0 0.59961,2.101562 3.5,0 -4.798828,-13.201172 -3.400391,0 z m 9,0 0,13.201172 3.099609,0 0,-8.40039 c 0.9,1.9 1.100782,2.299218 2.300782,4.199218 l 2.40039,4.201172 3.199219,0 0,-13.201172 -3.099609,0 0.09961,8.5 c -0.700001,-1.2 -1.000001,-1.799609 -2.000001,-3.599609 l -2.800781,-4.900391 -3.199219,0 z m 14.300781,0 L 40.401128,66 l 3.101562,0 0,-3.798828 2,-2.09961 3.5,6 3.699219,0 -5,-8.300781 4.699219,-4.900391 -3.898438,0 -4.90039,5.400391 0,-5.400391 -3.09961,0 z m -36.5000002,2.5 2.699219,0 c 0.6,0 1.699219,7.82e-4 1.699219,1.300782 0,1.4 -1.198438,1.40039 -1.898438,1.40039 l -2.5,0 0,-2.701172 z m 14.7988282,0.701172 1.701172,5.5 -3.300781,0 c 0.3,-1 0.799609,-2.5 1.099609,-3.5 0.1,-0.6 0.3,-1.3 0.5,-2 z M 4.0026898,60.5 l 2.798828,0 c 0.7,0 2,0.0016 2,1.601562 0,1.5 -1.4,1.59961 -2.5,1.59961 l -2.298828,0 0,-3.201172 z"
     id="rect4143"
     inkscape:connector-curvature="0" /><g
     id="g5"
     transform="translate(-67.136801,-30.366959)" /></svg>