<?xml version="1.0" encoding="UTF-8" standalone="no"?>
<!-- Generator: Adobe Illustrator 18.1.1, SVG Export Plug-In . SVG Version: 6.00 Build 0)  -->

<svg
   xmlns:dc="http://purl.org/dc/elements/1.1/"
   xmlns:cc="http://creativecommons.org/ns#"
   xmlns:rdf="http://www.w3.org/1999/02/22-rdf-syntax-ns#"
   xmlns:svg="http://www.w3.org/2000/svg"
   xmlns="http://www.w3.org/2000/svg"
   xmlns:sodipodi="http://sodipodi.sourceforge.net/DTD/sodipodi-0.dtd"
   xmlns:inkscape="http://www.inkscape.org/namespaces/inkscape"
   version="1.1"
   id="Layer_1"
   x="0px"
   y="0px"
   viewBox="0 0 169.2 33"
   enable-background="new 0 0 200 100"
   xml:space="preserve"
   inkscape:version="0.91 r13725"
   sodipodi:docname="ru-open.svg"
   width="169.2"
   height="33"><metadata
     id="metadata28"><rdf:RDF><cc:Work
         rdf:about=""><dc:format>image/svg+xml</dc:format><dc:type
           rdf:resource="http://purl.org/dc/dcmitype/StillImage" /><dc:title></dc:title></cc:Work></rdf:RDF></metadata><defs
     id="defs26" /><sodipodi:namedview
     pagecolor="#ffffff"
     bordercolor="#666666"
     borderopacity="1"
     objecttolerance="10"
     gridtolerance="10"
     guidetolerance="10"
     inkscape:pageopacity="0"
     inkscape:pageshadow="2"
     inkscape:window-width="912"
     inkscape:window-height="573"
     id="namedview24"
     showgrid="false"
     fit-margin-top="0"
     fit-margin-left="0"
     fit-margin-right="0"
     fit-margin-bottom="0"
     inkscape:zoom="1.55"
     inkscape:cx="84.6"
     inkscape:cy="16.5"
     inkscape:window-x="0"
     inkscape:window-y="0"
     inkscape:window-maximized="0"
     inkscape:current-layer="_x30_1" /><g
     id="_x30_1"
     transform="translate(-15.4,-33.5)"><path
       d="m 139.3,43 12.3,0 0,2.7 -0.9,0 c 0,0 -0.1,-1.4 -1.6,-1.4 l -2.1,0 0,12.7 -3.1,0 0,-12.7 -2.2,0 c -1.2,0 -1.5,1 -1.6,1.4 l -0.9,0"
       id="path4"
       inkscape:connector-curvature="0"
       style="fill:#ffffff;fill-opacity:1" /><path
       d="m 165.1,43 2.2,0 0,14 -3,0 0,-9.9 -7.3,9.9 -2.2,0 0,-11.4 c 0,-1.6 -1.4,-1.8 -1.4,-1.8 l 0,-0.8 4.4,0 0,9.9"
       id="path6"
       inkscape:connector-curvature="0"
       style="fill:#ffffff;fill-opacity:1" /><path
       d="m 100.6,57 -3.8,0 -2.7,-5.2 c 0,0 -0.9,-1.6 -1.7,-1.6 l -1.1,0 0,6.8 -3.1,0 0,-11.4 c 0,-1.6 -1.5,-1.7 -1.5,-1.7 l 0,-0.9 4.6,0 0,5.9 1.4,0 c 0,0 0.9,-0.1 1.6,-1.2 2.3,-3.8 2.1,-4.6 3.1,-4.6 l 3,0 0,1 c -2.1,0 -2.7,4.2 -4.7,5.5 1,0.4 1.4,1.2 3.5,5.2 0,0 0.5,1.4 1.6,1.4"
       id="path8"
       inkscape:connector-curvature="0"
       style="fill:#ffffff;fill-opacity:1" /><path
       d="m 183.7,54.1 c -1.4,2 -3.5,3.3 -6.3,3.3 -3.7,0 -7.3,-3 -7.3,-6.7 l 0,-0.9 c 0,-4.1 3.3,-7 7.3,-7 4.1,0 7.2,3.3 7.2,7.3 l -10.9,0 0,2.3 c 0,2 1.6,3.7 4.1,3.7 2.1,0 3.5,-0.9 4.6,-2.1 m -8.7,-5.5 7.3,0 0,-0.7 c 0,-2 -1.6,-3.7 -3.7,-3.7 -2,0 -3.7,1.6 -3.7,3.7 l 0,0.7 0.1,0 z"
       id="path10"
       inkscape:connector-curvature="0"
       style="fill:#ffffff;fill-opacity:1" /><path
       d="m 113.9,52.2 c 0,1.8 -1.2,3.5 -3.2,3.6 l -0.2,0 c -1.7,0 -3.2,-1.2 -3.5,-2.6 l 0,-6 c 0.1,-1.4 1.6,-3 3.5,-3 l 0.6,0 c 0,0 2.8,0.1 3,3.6 m -3,-5.1 c -1.7,0 -3.3,0.7 -4.1,1.7 l 0,-1.6 -4.6,0 0,1 c 0,0 1.4,0.2 1.4,1.8 l 0,17.9 3.1,0 0,-7.9 c 1.4,1.6 3.3,1.7 3.8,1.7 3.9,-0.1 6.7,-3.1 6.7,-6.9 l 0,-0.9 c 0.1,-4.1 -2.5,-6.8 -6.3,-6.8"
       id="path12"
       inkscape:connector-curvature="0"
       style="fill:#ffffff;fill-opacity:1" /><path
       d="m 68.6,52.1 c 0,2 -1.6,3.8 -3.8,3.8 -2.3,0 -3.8,-1.7 -3.8,-3.8 l 0,-4.4 c 0,-2 1.7,-3.6 3.8,-3.6 2.3,0 3.8,1.6 3.8,3.7 m -3.9,-5.1 c -5.3,0 -7.4,4.1 -7.4,6.8 l 0,1.2 c 0,3.1 3.1,6.5 7.4,6.5 4.1,0 7.5,-3.1 7.5,-6.7 l 0,-1 c 0.1,-3.3 -2.8,-6.8 -7.5,-6.8"
       id="path14"
       inkscape:connector-curvature="0"
       style="fill:#ffffff;fill-opacity:1" /><path
       d="m 137.2,43 -4.4,0 0,0.9 c 0,0 1.5,0.2 1.5,1.8 l 0,11.3 3,0"
       id="path16"
       inkscape:connector-curvature="0"
       style="fill:#ffffff;fill-opacity:1" /><path
       d="m 124.2,55.7 0,-5.9 2.6,0 c 1.4,0 2.6,1.1 2.6,2.7 l 0,0.6 c 0,1.4 -1.2,2.6 -2.6,2.6 m -2.6,-7.3 0,-5.3 -4.4,0 0,0.7 c 0,0 1.4,0.1 1.4,1.7 l 0,11.5 6.9,0 c 2.7,0 4.6,-1.6 4.6,-3.9 l 0,-0.6 c 0,-2.6 -1.8,-4.1 -4.8,-4.1 l -3.7,0 z"
       id="path18"
       inkscape:connector-curvature="0"
       style="fill:#ffffff;fill-opacity:1" /><path
       d="m 72.7,43 12.3,0 0,2.7 -0.9,0 c 0,0 -0.1,-1.4 -1.6,-1.4 l -2.2,0 0,12.7 -3.1,0 0,-12.7 -2.2,0 c -1.2,0 -1.5,1 -1.6,1.4 l -0.9,0"
       id="path20"
       inkscape:connector-curvature="0"
       style="fill:#ffffff;fill-opacity:1" /><path
       d="m 43.1,50.9 c 0,4.1 -2.1,7.6 -5.4,9.4 L 37,60.6 c -0.2,0.1 -0.5,0.2 -0.9,0.2 -0.5,0 -1,-0.2 -1.2,-0.6 -0.2,-0.4 -0.2,-0.7 -0.2,-1.2 0.1,-0.6 0.6,-0.9 0.7,-1 2,-0.9 3.2,-3 3.2,-5.2 l 0,-5.8 c 0,-2.2 -1.2,-4.3 -3.2,-5.2 0,0 -0.6,-0.2 -0.7,-1 -0.1,-0.4 0,-0.7 0.1,-1.1 0.2,-0.4 0.6,-0.6 1.2,-0.6 0.2,0 0.5,0 0.9,0.1 l 0.7,0.4 C 40.9,41.4 43,45 43,49 m -14.5,9.1 c 0.1,0.1 0.6,0.4 0.7,1 0.1,0.4 0,0.7 -0.1,1.1 -0.2,0.4 -0.6,0.6 -1.2,0.6 -0.2,0 -0.5,-0.1 -0.9,-0.2 L 26.3,60.2 C 23,58.5 20.9,54.8 20.9,50.8 l 0,-1.6 c 0,-4.1 2.1,-7.6 5.4,-9.4 L 27,39.4 c 0.2,-0.1 0.5,-0.1 0.9,-0.1 0.5,0 1,0.2 1.2,0.6 0.2,0.4 0.2,0.7 0.1,1.1 -0.1,0.6 -0.7,1 -0.7,1 -2,0.9 -3.2,3 -3.2,5.2 l 0,5.8 c -0.2,2.2 1.2,4.2 3.2,5.1 m 3.4,-24.6 c -9.1,0 -16.5,7.4 -16.5,16.5 0,9.1 7.4,16.5 16.5,16.5 9.1,0 16.6,-7.4 16.6,-16.5 0,-9.1 -7.4,-16.5 -16.6,-16.5"
       id="path22"
       inkscape:connector-curvature="0"
       style="fill:#ffffff;fill-opacity:1" /></g></svg>