<?xml version="1.0" encoding="utf-8"?>
<!-- Generator: Adobe Illustrator 17.1.0, SVG Export Plug-In . SVG Version: 6.00 Build 0)  -->
<!DOCTYPE svg PUBLIC "-//W3C//DTD SVG 1.1//EN" "http://www.w3.org/Graphics/SVG/1.1/DTD/svg11.dtd">
<svg version="1.1" id="Layer_1" xmlns="http://www.w3.org/2000/svg" xmlns:xlink="http://www.w3.org/1999/xlink" x="0px" y="0px"
	 viewBox="0 0 351.1 170.1" enable-background="new 0 0 351.1 170.1" xml:space="preserve">
<g>
	<g>
		<rect x="0.1" y="-0.3" fill="#001C85" width="170.1" height="170.1"/>
		<g>
			<path fill="#FFFFFF" d="M51.8,54.6c1.3,2.8,3.3,5.6,8.9,9.5c1.2,0.9,2.6,2.6,1.6,5.2c-1.1,2.5-3,6.1-1.9,7.5
				c1.2,1.4,5.4,2.1,8.9,0.7c0,0,0.7,2.2,2,3.6c0,0-0.6,1.2-2.6,0.6c0,0,0.7,1.8-0.3,3.7c0,0-2.3-0.4-3.3-2.5c0,0-0.9,1.7-2.8,2.2
				c0,0-1.5-0.8-1.2-3.8c0,0-1.1,2.7-4.6,3.2c0,0-2-2.5,0.6-5.9c0,0-1.9,1.7-5.2,0.9c0,0-0.5-1.7,2.5-4.1c0,0-3.4-0.1-4.8-3
				c0,0,1.5-1.8,5-1.4c0,0-3.3-0.7-4-4.7c0,0,2.4-1.5,6.2,0.9c0,0-0.7-1.3-2.2-2.5C53,63.3,51.1,59.8,51.8,54.6"/>
			<path fill="#FFFFFF" d="M65.6,94.5c-0.5-0.7-0.9-1.3-1.2-2c0.6,4.8,0.8,8.1,3.4,11.2c0,0,1.6-2.1,0.6-7.1
				c-0.4-0.1-0.9-0.3-1.4-0.7c0,0,0.6,2.1,0.2,4.1C67.2,100,66.3,99.4,65.6,94.5"/>
			<path fill="#FFFFFF" d="M61.1,94c-0.3-0.4-0.9-1.2-1.2-1.8c-0.2,2.8-1,10.1,1.5,12.4c0,0,1.7-1.2,2.3-12c-0.4,0.6-1,1.2-1.3,1.6
				c0,0,0.4,3.4-0.8,5.8C61.6,100.1,60.3,99.2,61.1,94"/>
			<path fill="#FFFFFF" d="M55.2,99.6c2.1-2.5,2.7-9.9,2.7-9.9c0.3-0.2,0.6-0.4,0.9-0.6c0.1-0.1,0.2-0.2,0.3-0.3c0,0.3,0,0.6,0,0.8
				c-0.3,4.5-0.7,9.1-2,11.4c-1.4,2.2-3.9,3.4-3.9,3.4c-2.4-4.2,0.5-9.8,2.9-13.7c0.3-0.1,0.6-0.3,0.9-0.4
				C56.2,93.3,54.6,96.9,55.2,99.6"/>
			<path fill="#FFFFFF" d="M49.4,86.8c0,0.5,0.1,0.9,0.1,1.1c0,0.1,0.1,0.2,0.1,0.3c-2,1.9-3.4,3.8-6.4,7.9
				c-2.9,4.1-7.6,4.2-7.6,4.2c0.5-3.3,1.3-5.9,3.8-8.7c2.5-2.8,5.7-5.4,8-7.1c0.6,0.3,1.4,0.4,2.4,0.3c0.1,0,0.2,0,0.2,0
				c-0.3,0.4-0.5,0.8-0.6,1.2c-1.8,1-6.9,3.6-9,7.8C40.5,93.7,43.8,92.7,49.4,86.8"/>
			<path fill="#FFFFFF" d="M45.7,82.7l0.2-0.3c0.1-0.1,0.1-0.2,0.2-0.3c-1.9,0.7-8.7,3.3-10.9,4.4c-2.2,1.1-5.4,3.7-7.1,9
				c0,0,4.6,0.4,8.4-2.7c3.8-3.1,8.2-7.5,10.1-8.9c-0.2-0.2-0.3-0.3-0.4-0.5c0,0-5.1,4.5-10.5,6.5c0,0,1.2-2.1,3.3-3.6
				C41.5,84.3,43.4,83.7,45.7,82.7"/>
			<path fill="#FFFFFF" d="M41.8,79.5c0.1-0.2,0.2-0.4,0.2-0.5c-2.2,0.5-7.8,1.1-10.3,1.9c-2.5,0.8-7,2.6-9.7,7.7
				c0,0,3.9,1.2,11.4-2.3c7.4-3.5,9.8-4.2,11.2-4.6c-1.1-0.1-1.9-0.5-2.3-0.7c-3,1.3-6.9,2.9-10.9,3c0,0,1.9-1.4,4-2.2
				C37.5,80.9,40,80,41.8,79.5"/>
			<path fill="#FFFFFF" d="M42,75.9c0.7,0.3,1.3,0.5,2.2,0.6c-0.5,0.3-1,0.8-1.4,1.3c-2.6,0.8-7.1,1.6-14.5,2.1
				C21,80.5,17,79.1,17,79.1c2.6-1.6,6.7-3.2,9.4-3.7c2.8-0.5,10-0.5,13.2-0.9c0,0,0.4,0.3,1.1,0.7c-2.7,0.2-8.4,0.5-11.3,2
				C29.4,77.2,34.8,77.9,42,75.9"/>
			<path fill="#FFFFFF" d="M41.5,71.6c0.4-0.2,0.8-0.4,1.4-0.6c-3.7-1.1-8.9-2.9-16.6-3.4c-5.7-0.4-9.7,0-11.8,0.5
				c0,0,5.2,3.6,11,4.9c5.9,1.3,10.7,0.5,14.2,0.5c0.2-0.3,0.5-0.7,0.9-1.1c-4.1,0-10.9-1-13.3-1.8C27.2,70.5,33.1,69.3,41.5,71.6"
				/>
			<path fill="#FFFFFF" d="M41.4,67.2c0,0.1,0.5,2.2,2.9,3.4c-5.2-2.3-15.6-3.6-21.1-5.9c-7.5-3.1-8.9-7-8.9-7
				c6.5-0.2,11.7,1.4,15.8,2.7c4.7,1.4,11.9,4.1,14.5,5.3c-0.9,0-2,0.3-2.9,0.9c-3.5-1.4-5.2-1.9-8.4-2.8c-2.5-0.7-4.4-0.8-6-1
				c0,0,2.2,1.5,5.9,2.6C36.9,66.5,38.5,66.7,41.4,67.2"/>
			<path fill="#FFFFFF" d="M41,61.5c0.2,0.4,0.8,1.3,1.1,1.6c-8.3-1.4-17.4-7.7-20.2-11.5c-2.8-3.9-2-9.7-2-9.7
				c2.7,0.5,8.7,5.7,10.2,7.2c1.5,1.5,6.2,6.1,9.4,8.6l1,2.9c-2.8-2.2-6-4.7-8.1-6.2c-1.6-1.2-3.9-2.9-6.3-3.7c0,0,2.2,2.8,3.9,4.2
				c2,1.6,4,3,5.7,3.9C37.3,59.6,38,60.1,41,61.5"/>
			<path fill="#FFFFFF" d="M64.4,84.7c0.3-0.2,0.5-0.4,0.7-0.6c0.4,0.5,1.7,2.1,2.3,3.7c0.5,1.4,1,3.2,1.2,4.3c0.3,1.1,1,3.3,1.5,4
				c0,0-2,0.3-3.5-1.5c-1.5-1.7-2-3.4-2.2-5.2C64.2,88,64.2,86,64.4,84.7"/>
			<path fill="#FFFFFF" d="M61.2,85c0.4,0.5,0.7,0.7,0.8,0.7l0.3,0.1l0.3-0.1c0.3-0.1,0.5-0.2,0.7-0.3c0.3,0.8,0.4,1.2,0.5,1.9
				c0.1,0.9,0.3,2.4-0.1,3.6c-0.4,1.4-1.3,2.3-1.8,2.9c0,0-1.3-1.5-1.7-2.6c-0.4-1.3-0.5-2.7,0-4.2C60.4,86.1,60.8,85.4,61.2,85"/>
			<path fill="#FFFFFF" d="M56.7,85.1c1.4-0.2,2.4-0.7,3.1-1.2c0.2,0.5,0.4,1.1,0.2,2c-0.2,0.9-0.8,1.9-1.7,2.6
				c-1.4,1.1-3.2,2.1-5.2,1.8C53.1,90.3,52.7,88.8,56.7,85.1"/>
			<path fill="#FFFFFF" d="M55.2,82.6c0.2,1.3,0.8,2.2,0.9,2.3c-0.5,0.6-2.2,3.5-5.7,3c0,0-1-2,1.4-3.6C53.3,83.2,54.1,83,55.2,82.6
				"/>
			<path fill="#FFFFFF" d="M55.5,80.1c-0.9,0.2-2.2,0.3-3.7,0L51.4,80l-0.1-0.4c-1.8,1.5-4,1.7-4.7,3.1c0,0,0.9,1.7,3.3,1.4
				c2.4-0.3,4.1-1.4,5.4-3C55.2,80.9,55.4,80.4,55.5,80.1"/>
			<path fill="#FFFFFF" d="M51.4,78c0.3-0.5,0.6-1.3,1.3-2.1c-1.6-0.3-3-0.3-4.8,0.1c-2.2,0.4-4.4,0.9-5.5,4.2c0,0,1.4,1.2,3.9,0.7
				C48.4,80.5,50.3,79.6,51.4,78"/>
			<path fill="#FFFFFF" d="M50.5,74.4c-0.5-0.5-1.1-1.1-1.4-1.9l-0.2-0.4C47,71.3,45,71,43.1,71.7c-1.9,0.7-2.4,1.5-2.9,2.3
				c0,0,2.1,1.8,4.6,1.8C47.2,75.9,49.5,75.2,50.5,74.4"/>
			<path fill="#FFFFFF" d="M51,70.5c0.3-0.1,0.7-0.2,1.1-0.3c-0.8-0.7-1.7-1.9-2-3.5c-0.9,0.2-2.9,0.2-3.8-0.1
				c-0.9-0.3-2.7-0.4-4.1,0.5c0,0,0.5,2.4,3.6,3.3C48.7,71.2,49.8,71,51,70.5"/>
			<path fill="#FFFFFF" d="M49.9,65.8l0.4-0.3c0.1,0,0.8-0.5,2-0.6c-1-0.8-3.4-2.8-5.1-3.7c-1.9-1-5-2.4-6.5-2.6
				c0,0,1.5,3.9,3.2,5.4C45.6,65.6,46.8,66.2,49.9,65.8"/>
			<path fill="#FFFFFF" d="M53.1,64c-0.8-1-1.4-2.3-1.8-3.9c-0.4-1.3-1.2-4.5-1.7-5.3c-0.5-0.8-2.2-3.8-5.6-4.7c0,0-0.9,3.8,0.8,6.8
				C46.3,59.5,49.3,62.2,53.1,64"/>
			<path fill="#FFFFFF" d="M71.9,81.7c0.4,0.4,0.7,0.7,1.5,1c0,0,1.1,2.1-0.2,4.6c-1.3,2.5-2.4,5-3,6.5c0,0-0.7-0.1-1.5-4
				c-0.5-2.7-1.2-3.3-1.9-4.2c0.8,0.4,1.4,0.5,1.4,0.5l0.5,0.1l0.2-0.5c0.5-0.9,0.6-1.8,0.6-2.5c0-0.2,0-0.5,0-0.7
				c1.2,0,1.9-0.6,2.1-0.9c0,0,0-0.1,0.1-0.1L71.9,81.7"/>
			<path fill="#FFFFFF" d="M43.1,51.7c0,0.4,0,0.8,0,1.2l0.1,0.9c-2-2.6-4.4-5.6-6.7-8.5c-1.6-2-2.9-3.1-4.4-4.1
				c1.2,3.6,3.5,6.5,5,7.9c1.6,1.4,3.9,3.9,6.1,5.3l0.2,0.7c0.2,0.7,0.4,1.4,0.8,2c0.5,0.9,1.2,1.8,2,2.7c-0.6-0.3-1.4-0.7-2.1-1
				l-0.7-0.3c-6.1-3.2-12.2-10-14.6-14.6c-2.5-4.7-1.4-10.1-0.8-13c2.8,2.4,6.8,7,8.5,9.5c2.1,3.1,4.9,7.5,6.6,11L43.1,51.7"/>
			<path fill="#FFFFFF" d="M128.9,71.6c-0.4-0.2-0.8-0.4-1.4-0.6c3.7-1.1,8.9-2.9,16.6-3.4c5.7-0.4,9.7,0,11.8,0.5
				c0,0-5.1,3.6-11,4.9c-5.9,1.3-10.7,0.5-14.2,0.5c-0.2-0.3-0.5-0.7-0.9-1.1c4.1,0,10.9-1,13.3-1.8
				C143.1,70.5,137.2,69.3,128.9,71.6"/>
			<path fill="#FFFFFF" d="M128.9,67.2c0,0.1-0.5,2.2-2.9,3.4c5.2-2.3,15.6-3.6,21.1-5.9c7.5-3.1,8.9-7,8.9-7
				c-6.5-0.2-11.7,1.4-15.8,2.7c-4.7,1.4-11.9,4.1-14.5,5.3c1,0,2,0.3,2.9,0.9c3.5-1.4,5.2-1.9,8.4-2.8c2.5-0.7,4.4-0.8,6-1
				c0,0-2.2,1.5-5.9,2.6C133.4,66.5,131.8,66.7,128.9,67.2"/>
			<path fill="#FFFFFF" d="M129.3,61.5c-0.2,0.4-0.8,1.3-1.1,1.6c8.3-1.4,17.4-7.7,20.2-11.5c2.8-3.9,2-9.7,2-9.7
				c-2.7,0.5-8.7,5.7-10.2,7.2c-1.5,1.5-6.2,6.1-9.4,8.6l-1,2.9c2.8-2.2,6-4.7,8.1-6.2c1.6-1.2,3.9-2.9,6.2-3.7c0,0-2.1,2.8-3.9,4.2
				c-2,1.6-4,3-5.7,3.9C133.1,59.6,132.3,60.1,129.3,61.5"/>
			<path fill="#FFFFFF" d="M127.3,51.7c0,0.4,0,0.8,0,1.2l-0.1,0.9c2-2.6,4.4-5.6,6.7-8.5c1.6-2,2.9-3.1,4.4-4.1
				c-1.2,3.6-3.5,6.5-5,7.9c-1.6,1.4-3.8,3.9-6.1,5.3l-0.2,0.7c-0.2,0.7-0.4,1.4-0.8,2c-0.5,0.9-1.2,1.8-2,2.7
				c0.6-0.3,1.4-0.7,2.1-1l0.7-0.3c6.1-3.2,12.2-10,14.6-14.6c2.4-4.7,1.4-10.1,0.8-13c-2.8,2.4-6.8,7-8.5,9.5
				c-2.1,3.1-4.9,7.5-6.6,11V51.7"/>
			<path fill="#FFFFFF" d="M50.9,88.6c-2.5,2.5-7.8,8.2-7.3,14.3c0,0,4.9-1.5,7-5.2c2-3.6,3.3-5.9,4.1-6.7c-0.5,0.1-1.1,0.1-1.6,0
				L52.6,91c-1.3,2.3-3.7,6-6,7.3c0,0-0.6-3,6-9.2c0.1-0.3,0.2-0.5,0.4-0.9C52.4,88.5,51.7,88.6,50.9,88.6"/>
			<path fill="#FFFFFF" d="M118.6,54.6c-1.3,2.8-3.3,5.6-8.9,9.5c-1.3,0.9-2.6,2.6-1.6,5.2c1.1,2.5,3,6.1,1.8,7.5
				c-1.2,1.4-5.4,2.1-8.9,0.7c0,0-0.7,2.2-2,3.6c0,0,0.6,1.2,2.6,0.6c0,0-0.7,1.8,0.3,3.7c0,0,2.3-0.4,3.3-2.5c0,0,0.9,1.7,2.8,2.2
				c0,0,1.5-0.8,1.2-3.8c0,0,1.1,2.7,4.6,3.2c0,0,2-2.5-0.6-5.9c0,0,1.9,1.7,5.2,0.9c0,0,0.5-1.7-2.5-4.1c0,0,3.5-0.1,4.8-3
				c0,0-1.5-1.8-5-1.4c0,0,3.3-0.7,4-4.7c0,0-2.4-1.5-6.1,0.9c0,0,0.7-1.3,2.2-2.5C117.3,63.3,119.2,59.8,118.6,54.6"/>
			<path fill="#FFFFFF" d="M104.7,94.5c0.5-0.7,0.9-1.3,1.2-2c-0.6,4.8-0.8,8.1-3.4,11.2c0,0-1.6-2.1-0.6-7.1
				c0.4-0.1,0.9-0.3,1.4-0.7c0,0-0.6,2.1-0.2,4.1C103.1,100,104,99.4,104.7,94.5"/>
			<path fill="#FFFFFF" d="M109.2,94c0.3-0.4,0.9-1.2,1.2-1.8c0.2,2.8,1,10.1-1.5,12.4c0,0-1.7-1.2-2.3-12c0.4,0.6,1,1.2,1.3,1.6
				c0,0-0.4,3.4,0.8,5.8C108.8,100.1,110,99.2,109.2,94"/>
			<path fill="#FFFFFF" d="M115.1,99.6c-2.1-2.5-2.7-9.9-2.7-9.9c-0.3-0.2-0.6-0.4-0.9-0.6c-0.1-0.1-0.2-0.2-0.3-0.3
				c0,0.3,0,0.6,0,0.8c0.3,4.5,0.7,9.1,2,11.4c1.4,2.2,3.9,3.4,3.9,3.4c2.4-4.2-0.5-9.8-2.9-13.7c-0.3-0.1-0.6-0.3-0.9-0.4
				C114.2,93.3,115.8,96.9,115.1,99.6"/>
			<path fill="#FFFFFF" d="M120.9,86.8c0,0.5-0.1,0.9-0.1,1.1c0,0.1-0.1,0.2-0.1,0.3c2,1.9,3.4,3.8,6.4,7.9c2.9,4.1,7.6,4.2,7.6,4.2
				c-0.4-3.3-1.3-5.9-3.8-8.7c-2.5-2.8-5.7-5.4-8-7.1c-0.6,0.3-1.4,0.4-2.4,0.3c-0.1,0-0.2,0-0.2,0c0.3,0.4,0.5,0.8,0.6,1.2
				c1.8,1,6.9,3.6,9,7.8C129.8,93.7,126.5,92.7,120.9,86.8"/>
			<path fill="#FFFFFF" d="M124.6,82.7l-0.2-0.3c-0.1-0.1-0.1-0.2-0.2-0.3c1.9,0.7,8.7,3.3,10.9,4.4c2.2,1.1,5.4,3.7,7.1,9
				c0,0-4.6,0.4-8.4-2.7c-3.8-3.1-8.2-7.5-10.1-8.9c0.2-0.2,0.3-0.3,0.4-0.5c0,0,5.1,4.5,10.5,6.5c0,0-1.2-2.1-3.3-3.6
				C128.8,84.3,126.9,83.7,124.6,82.7"/>
			<path fill="#FFFFFF" d="M128.5,79.5c-0.1-0.2-0.1-0.4-0.2-0.5c2.2,0.5,7.8,1.1,10.4,1.9c2.5,0.8,7,2.6,9.7,7.7
				c0,0-3.9,1.2-11.4-2.3c-7.4-3.5-9.8-4.2-11.2-4.6c1.1-0.1,1.9-0.5,2.3-0.7c3,1.3,6.9,2.9,10.9,3c0,0-1.9-1.4-4-2.2
				C132.8,80.9,130.4,80,128.5,79.5"/>
			<path fill="#FFFFFF" d="M128.3,75.9c-0.7,0.3-1.3,0.5-2.2,0.6c0.5,0.3,1,0.8,1.5,1.3c2.6,0.8,7.1,1.6,14.5,2.1
				c7.4,0.5,11.3-0.8,11.3-0.8c-2.6-1.6-6.7-3.2-9.4-3.7c-2.8-0.5-10-0.5-13.2-0.9c0,0-0.4,0.3-1,0.7c2.7,0.2,8.4,0.5,11.3,2
				C140.9,77.2,135.5,77.9,128.3,75.9"/>
			<path fill="#FFFFFF" d="M105.9,84.7c-0.3-0.2-0.5-0.4-0.7-0.6c-0.4,0.5-1.7,2.1-2.3,3.7c-0.5,1.4-1,3.2-1.2,4.3
				c-0.3,1.1-1,3.3-1.5,4c0,0,2,0.3,3.5-1.5c1.5-1.7,2-3.4,2.2-5.2C106.2,88,106.1,86,105.9,84.7"/>
			<path fill="#FFFFFF" d="M109.1,85c-0.4,0.5-0.7,0.7-0.8,0.7l-0.3,0.1l-0.3-0.1c-0.2-0.1-0.5-0.2-0.7-0.3
				c-0.3,0.8-0.4,1.2-0.5,1.9c-0.1,0.9-0.3,2.4,0.1,3.6c0.4,1.4,1.3,2.3,1.8,2.9c0,0,1.3-1.5,1.7-2.6c0.4-1.3,0.5-2.7,0.1-4.2
				C109.9,86.1,109.5,85.4,109.1,85"/>
			<path fill="#FFFFFF" d="M113.6,85.1c-1.4-0.2-2.4-0.7-3.1-1.2c-0.2,0.5-0.4,1.1-0.2,2c0.2,0.9,0.8,1.9,1.7,2.6
				c1.4,1.1,3.2,2.1,5.2,1.8C117.2,90.3,117.7,88.8,113.6,85.1"/>
			<path fill="#FFFFFF" d="M115.2,82.6c-0.2,1.3-0.8,2.2-0.9,2.3c0.5,0.6,2.2,3.5,5.7,3c0,0,0.9-2-1.4-3.6
				C117,83.2,116.3,83,115.2,82.6"/>
			<path fill="#FFFFFF" d="M114.9,80.1c0.9,0.2,2.2,0.3,3.7,0l0.4-0.1l0.1-0.4c1.8,1.5,4,1.7,4.7,3.1c0,0-0.9,1.7-3.3,1.4
				c-2.4-0.3-4.1-1.4-5.4-3C115.1,80.9,115,80.4,114.9,80.1"/>
			<path fill="#FFFFFF" d="M118.9,78c-0.3-0.5-0.6-1.3-1.3-2.1c1.6-0.3,3-0.3,4.8,0.1c2.2,0.4,4.4,0.9,5.5,4.2c0,0-1.4,1.2-3.9,0.7
				C121.9,80.5,120,79.6,118.9,78"/>
			<path fill="#FFFFFF" d="M119.9,74.4c0.5-0.5,1.1-1.1,1.4-1.9l0.2-0.4c1.9-0.8,3.9-1.2,5.8-0.4c1.9,0.7,2.4,1.5,2.9,2.3
				c0,0-2.1,1.8-4.6,1.8C123.1,75.9,120.9,75.2,119.9,74.4"/>
			<path fill="#FFFFFF" d="M119.3,70.5c-0.3-0.1-0.7-0.2-1.1-0.3c0.8-0.7,1.7-1.9,2.1-3.5c0.9,0.2,2.9,0.2,3.8-0.1
				c0.9-0.3,2.7-0.4,4.1,0.5c0,0-0.5,2.4-3.6,3.3C121.6,71.2,120.5,71,119.3,70.5"/>
			<path fill="#FFFFFF" d="M120.4,65.8l-0.4-0.3c-0.1,0-0.8-0.5-2-0.6c1-0.8,3.4-2.8,5.1-3.7c1.9-1,5-2.4,6.5-2.6
				c0,0-1.5,3.9-3.2,5.4C124.7,65.6,123.5,66.2,120.4,65.8"/>
			<path fill="#FFFFFF" d="M117.2,64c0.8-1,1.4-2.3,1.8-3.9c0.4-1.3,1.2-4.5,1.7-5.3c0.5-0.8,2.2-3.8,5.6-4.7c0,0,0.9,3.8-0.8,6.8
				C124,59.5,121,62.2,117.2,64"/>
			<path fill="#FFFFFF" d="M98.4,81.7c-0.4,0.4-0.8,0.7-1.5,1c0,0-1.1,2.1,0.2,4.6c1.3,2.5,2.4,5,3,6.5c0,0,0.7-0.1,1.5-4
				c0.5-2.7,1.2-3.3,1.9-4.2c-0.8,0.4-1.4,0.5-1.4,0.5l-0.5,0.1l-0.2-0.5c-0.5-0.9-0.6-1.8-0.6-2.5c0-0.2,0-0.5,0-0.7
				c-1.2,0-1.9-0.6-2.1-0.9c0,0,0-0.1-0.1-0.1L98.4,81.7"/>
			<path fill="#FFFFFF" d="M119.5,88.6c2.5,2.5,7.8,8.2,7.3,14.3c0,0-4.9-1.5-7-5.2c-2-3.6-3.3-5.9-4.1-6.7c0.5,0.1,1.1,0.1,1.6,0
				l0.5-0.1c1.2,2.3,3.7,6,6,7.3c0,0,0.6-3-6-9.2c-0.1-0.3-0.2-0.5-0.4-0.9C117.9,88.5,118.6,88.6,119.5,88.6"/>
			<path fill="#FFFFFF" d="M81.3,39.7c0-0.5,1.7-0.8,3.9-0.8c2.1,0,3.9,0.4,3.9,0.8c0,0.4-1.7,0.8-3.9,0.8
				C83,40.5,81.3,40.1,81.3,39.7"/>
			<path fill="#FFFFFF" d="M68.2,44.1c0-0.3,1.1-0.4,2.5-0.4c1.4,0,2.5,0.2,2.5,0.4c0,0.2-1.1,0.4-2.5,0.4
				C69.3,44.6,68.2,44.4,68.2,44.1"/>
			<path fill="#FFFFFF" d="M85.9,41.5c0,0.4-0.3,0.8-0.8,0.8c-0.4,0-0.8-0.3-0.8-0.8c0-0.4,0.3-0.8,0.8-0.8
				C85.6,40.7,85.9,41.1,85.9,41.5"/>
			<path fill="#FFFFFF" d="M81,38.9c-1.3-3.1-2.1-5.3-2.1-6.1c0-0.5,0.6-0.8,1.1-1c0.5-0.2,1-0.2,1.3,0.1c0.7,0.5,1.3,4.6,1.5,6.4
				C82.2,38.4,81.8,38.5,81,38.9"/>
			<path fill="#FFFFFF" d="M83.4,38.2c0.3,0,0.7-0.1,1-0.1c-0.2-1.6-0.8-4.4-1.1-5.4c-0.3-1.1-0.8-1.9-1.5-2.1c0,0,0.5,1.5,0.9,3.1
				C82.9,35.2,83.2,36.7,83.4,38.2"/>
			<path fill="#FFFFFF" d="M81.4,43.5c-2,1.1-4.2,1-4.2,1c0.4-0.8,0.8-1.5,2.1-2.4c1.2-0.9,3.2-1.1,4-1C83.2,41.7,82.4,43,81.4,43.5
				 M79.3,43.7c1.4-0.3,2.9-1.8,2.9-1.8C79.9,42.2,79.3,43.7,79.3,43.7z"/>
			<path fill="#FFFFFF" d="M67.6,44.7c0,0,2.5,0.9,4.9,0.8c2.4-0.1,7-0.2,8.4-0.9c0,0-0.2,0.9-1.4,1.5c0,0,0.6,0,1.2,0.5
				c0,0-0.4,0.8-1.4,1.2c0,0,1.9,1.9,3.9,1.8c0,0-0.9,1.1-3,0.7c-2-0.4-2.7-1.6-3.1-2c0,0,0.3,1.1,0.1,1.5c0,0-0.9-0.1-1.6-0.9
				c0,0,0.5,0.9,0.6,1.6c0,0-0.6,0.1-1.6-0.5c0,0,0.2,0.5,0.3,1.2c0,0-2.4-0.8-3.5-1.8c0,0,0,0.7,0,1.2
				C71.6,50.4,67.9,50.1,67.6,44.7 M74.1,46.8v-0.2c-1.9,0.2-4.2,0.1-4.2,0.1c0.1,0.7,0.4,1.3,0.9,1.6
				C70.9,46.8,74.1,46.8,74.1,46.8z"/>
			<path fill="#FFFFFF" d="M67.1,45.1c0.1,1.2,0.4,2.3,0.8,3.1c0,0-1.4-1.1-1.8-2C65.7,45.3,65.6,44.6,67.1,45.1"/>
			<path fill="#FFFFFF" d="M67.7,48.8c1,0.4,1.8,1.5,1.8,1.5c-1.5,0.3-2.1,0.8-2.1,0.8c-2.8-2-5.1,0-5.1,0c-1.5-0.9-1.8-3-1.1-4.1
				c0.8-1.1,2.5-0.9,3.3-0.7C65,47.9,66.8,48.4,67.7,48.8 M64.2,49.5c0.3,0,0.6-0.3,0.6-0.6c0-0.3-0.3-0.6-0.6-0.6
				c-0.3,0-0.6,0.3-0.6,0.6C63.6,49.2,63.8,49.5,64.2,49.5z"/>
			<path fill="#FFFFFF" d="M69.8,50.6c0,0,1,1.4,1.8,2c0,0-3.8,0-4.7,3.2c0,0-1.3-2-0.4-3.3C67.6,51.1,68.5,50.9,69.8,50.6"/>
			<path fill="#FFFFFF" d="M74,51.4c0,0,1.2,0.4,1.6,0.5c0,0,0-0.7,0-1c0.4,0.1,0.8,0.2,1.2,0.2c0,0,1.2,2.7,2.2,3.8
				c0,0,0.1,0.6-0.5,1.5c0,0-0.7-1.6-1.9-2.9C75.9,52.8,75.4,52.5,74,51.4"/>
			<path fill="#FFFFFF" d="M70.8,50.9c0.4,0.1,2.3,0.7,3.3,1.4c1.2,0.8,2,1.8,1.9,3.5c0,0-1-1.3-2-1.9C73.1,53.4,71.6,52,70.8,50.9"
				/>
			<path fill="#FFFFFF" d="M70.8,38.6c0.4,0,1.1,0.2,1.1,0.7c0,0.6-0.9,2-1.1,2.6h0c-0.2-0.6-1.1-2-1.1-2.6c0-0.6,0.7-0.7,1.1-0.7
				H70.8"/>
			<path fill="#FFFFFF" d="M70,43.1c-0.2-0.8-0.5-2.9-1-3.4c-0.5-0.4-1.2-0.5-1.5-0.5c-0.4,0-0.7,0.4-0.6,0.9
				c0.1,0.5,1.7,2.8,1.9,3.1C69.2,43.1,69.1,43.2,70,43.1"/>
			<path fill="#FFFFFF" d="M71.4,43.1c0.2-0.8,0.5-2.9,1-3.4c0.5-0.4,1.2-0.5,1.5-0.5c0.4,0,0.7,0.4,0.6,0.9
				c-0.2,0.5-1.7,2.8-1.9,3.1C72.2,43.1,72.3,43.2,71.4,43.1"/>
			<polyline fill="#FFFFFF" points="72.4,35.7 71.2,35.7 71.2,34.4 70.2,34.4 70.2,35.7 69,35.7 69,36.6 70.2,36.6 70.2,38.2 
				71.2,38.2 71.2,36.6 72.4,36.6 72.4,35.7 			"/>
			<path fill="#FFFFFF" d="M57.6,44.4c0-0.3,0-0.5,0.1-0.8c0.1-0.7,0.1-1.2,0-1.7c-0.9,0.3-1.5,0.5-2.7,2.5
				C55,44.5,57,43.3,57.6,44.4"/>
			<path fill="#FFFFFF" d="M59.3,47.5c0-0.5,0.3-2,0.7-3.1c0.5-1.3,0.2-3.3-0.4-4.4c-0.6-1.1-0.9-2.2-0.8-3.3c0,0-1.1,0.4-1.8,0.8
				c-0.1,1.4,0.7,2.7,1.1,3.5c0.4,0.9,0.4,2.1,0.3,2.8C58.2,45,58.5,46.3,59.3,47.5"/>
			<path fill="#FFFFFF" d="M59.4,37.2c0-0.2,0-0.6,0-0.8c0,0,1.8-1.7,3.3-2c1-0.2,1.5,0.2,1.8,0.5c0,0-0.5-0.1-1.3,0.6
				c-0.8,0.7-1.8,1.4-2.6,1.6C60,37.3,59.8,37.2,59.4,37.2"/>
			<path fill="#FFFFFF" d="M64.8,35c0.7,0.7,1.2,1.4,1.2,2c0,0.6-0.8,2.3-1.1,2.9c-0.4,0.6-1,1.4-0.9,2.4c0,0.5,0.4,1,0.8,1.4
				c0,0-2.2-0.5-2.5-1.9c-0.2-1.2,0.3-2.1,0.6-2.7c0.3-0.6,1.3-2.1,1.6-2.7C64.7,35.8,64.9,35.3,64.8,35"/>
			<path fill="#FFFFFF" d="M77.6,50.3c0.4,1.6,1.2,3,1.9,4.2c0.7,1.1,1.1,2.7,1,3.3c0,0,1-2.2,0.5-3.7C80.7,52.8,79.6,51,77.6,50.3"
				/>
			<path fill="#FFFFFF" d="M80.1,50.8c0,0,1.5,0,2.2,0.5c0.9,0.6,1.8,1.9,2.1,3.5c0,0-1.5-0.3-2.3-1C81.4,53,80.5,51.9,80.1,50.8"/>
			<path fill="#FFFFFF" d="M72.3,53.5c-0.3,0-1.1,0.2-1.4,0.3c0,0,1.3,0.4,1.9,0.9c0.5,0.4,1,1.1,1.2,2.3c0.3,1.6,1.3,3.4,1.6,3.9
				l0.1,0c-0.2-1.1,0.5-3.5,0.7-3.8c0,0-1-0.6-1.5-1.3C74.6,55.4,74,54.6,72.3,53.5"/>
			<path fill="#FFFFFF" d="M79,57.1c0.4,0.9,1.4,2.4,0.9,4c-0.5,1.6-1.5,2.3-2.2,3.6c0,0-0.5-2.4-0.4-4.3
				C77.4,58.5,78.1,57.7,79,57.1"/>
			<path fill="#FFFFFF" d="M81.9,57.1c0,0,1.5,2.9,1.8,4c0.3,1.1,0,1.9-0.5,2.6c-0.5,0.7-1.4,1.4-2.2,2.9c0,0-0.9-1.2-1-1.9
				c-0.1-0.6,0.1-2.2,0.3-2.8C80.4,61.3,81.2,59.2,81.9,57.1"/>
			<path fill="#FFFFFF" d="M82.6,66.4c-0.3,0.4-2.1,2.5-2.3,3.1c-0.2,0.6-0.6,1.8-0.1,2.6c0.5,0.8,1.8,2.1,2.9,2.6
				c0,0-1.2-1.9-1.1-3.4c0.1-1,0.8-1.8,1-2.4C83.2,68.3,83.1,67.3,82.6,66.4"/>
			<path fill="#FFFFFF" d="M79.2,65.2c0.3,0.4,0.7,1.3,0.8,2.2c0.1,0.9-0.1,1.6-0.6,2.8c-0.6,1.6-1.5,3.4-2,4.2c0,0-0.8-1.2-1.3-2.2
				c0,0,1.3-1.8,1.8-3C78.7,67.7,79,66.4,79.2,65.2"/>
			<path fill="#FFFFFF" d="M78.6,64.6c0,0-0.6,4.1-3,7.2c-1.7,2.1-3,2.8-3.9,2.8c-1.3,0-2.7-1.1-3.1-2.4c-0.5-1.3-0.3-3.3,0.6-4
				c0,0,0.8,2.5,2.5,2.6C73.6,70.9,76.1,68.7,78.6,64.6"/>
			<path fill="#FFFFFF" d="M76.6,62.8c0.2,0.7,0.3,1.9,0,2.9c-0.2,0.8-0.7,1.9-1.7,2.5c-0.8,0.5-2.8,0.6-3.5-1.2
				C71.5,67,75,67.3,76.6,62.8"/>
			<path fill="#FFFFFF" d="M82.4,79.5c0.5,1.2,2.2,2.8,2.2,3.8c0,2.6-1.2,4.1-1.4,5c0,0-2.1-1.6-2.4-3.5
				C80.6,83.8,80.8,81,82.4,79.5"/>
			<path fill="#FFFFFF" d="M80.1,81.3c0.2-0.7,1-2.5,1.9-3.1c0,0,1.1-3.3-2.5-5.3c0,0-1.5,2-1.9,3.8C77.2,78.6,79.2,79.7,80.1,81.3"
				/>
			<path fill="#FFFFFF" d="M75.6,73c-0.6,0.7-1.4,1.7-2,2c0,0-0.2,1.5-0.1,2.5c0.2,1.5,1.1,2.9,1.5,4c0,0,1.6-2.1,1.8-3.3
				c0.2-1.2,0.2-2.2,0.2-2.8C77,75.4,76.1,74,75.6,73"/>
			<path fill="#FFFFFF" d="M71.4,80.1c-0.4-0.7-1.9-3.2-1.9-5c0,0,1.8,0.9,3.3,0.2c0,0,0.2,2.4-0.1,3.2
				C72.5,79.2,72.2,79.5,71.4,80.1"/>
			<path fill="#FFFFFF" d="M71.8,80.6c0.3-0.3,1-0.9,1.3-1.2c0,0,1.2,2.2,1.4,2.8c0,0-0.6,0.2-1.2-0.3
				C72.6,81.3,72.5,81.2,71.8,80.6"/>
			<path fill="#FFFFFF" d="M77.3,79.3c-0.1,0.5-2.1,3.2-2.4,3.5c0,0,0.1,1,0.9,2.3c0.7,1.4,1.7,2.3,2.2,2.8c0,0,1.2-2.1,1.5-3
				c0.4-1,0.3-2.1,0.2-2.4C79.3,81.7,77.9,80.4,77.3,79.3"/>
			<path fill="#FFFFFF" d="M80.2,86.3c0.4,0.9,1.7,2.3,1.9,3.4c0.2,0.9,0,1.6-0.2,2.2c-0.2,0.6-1,1.8-1.5,2.6c0,0-1.7-1.6-2.1-2.8
				c-0.3-0.9-0.2-2.1,0.2-2.9C78.9,87.9,79.8,87.1,80.2,86.3"/>
			<path fill="#FFFFFF" d="M75.2,86c0.4,1,1.5,2,1.8,2.8c0.3,1,0.4,1.7-0.1,2.9c-0.4,1-1,1.6-1.1,2.3c0,0-1.4-1.8-1.7-2.6
				c-0.2-0.8-0.3-2,0-2.8C74.4,87.8,74.9,86.8,75.2,86"/>
			<path fill="#FFFFFF" d="M82.2,93c0,0-2.4,2.9-2.4,4.5c0.1,1.9,1.4,3.2,1.5,4.4c0,0,1.3-1.4,1.8-2.4c0.5-1.1,1-2,0.8-3.3
				C83.8,95,83.5,94.2,82.2,93"/>
			<path fill="#FFFFFF" d="M77.7,92.7c0.4,0.6,1.5,2.5,1.2,3.6c-0.3,1.2-1.5,2.8-1.9,3.5c0,0-1-2-1.2-2.9
				C75.6,96,75.8,94.5,77.7,92.7"/>
			<path fill="#FFFFFF" d="M102.1,44.1c0-0.3-1.1-0.4-2.5-0.4c-1.4,0-2.5,0.2-2.5,0.4c0,0.2,1.1,0.4,2.5,0.4
				C101,44.6,102.1,44.4,102.1,44.1"/>
			<path fill="#FFFFFF" d="M85.2,36.5c0.2-1.1,1.4-3.5,1.4-4.5c0-0.8-0.7-1.5-1.5-1.5c-0.8,0-1.5,0.7-1.5,1.5
				C83.7,33,85,35.4,85.2,36.5L85.2,36.5"/>
			<path fill="#FFFFFF" d="M89.3,38.9c1.3-3.1,2.1-5.3,2.1-6.1c0-0.5-0.6-0.8-1.1-1c-0.5-0.2-1-0.2-1.3,0.1
				c-0.7,0.5-1.3,4.6-1.5,6.4C88.2,38.4,88.5,38.5,89.3,38.9"/>
			<path fill="#FFFFFF" d="M87,38.2c-0.3,0-0.7-0.1-1-0.1c0.2-1.6,0.8-4.4,1.1-5.4c0.3-1.1,0.8-1.9,1.5-2.1c0,0-0.6,1.5-0.9,3.1
				C87.4,35.2,87.1,36.7,87,38.2"/>
			<path fill="#FFFFFF" d="M87,41.1c0.8-0.1,2.8,0.1,4,1c1.2,0.9,1.6,1.6,2.1,2.4c0,0-2.2,0.2-4.2-1C88,43,87.2,41.7,87,41.1
				 M88.2,41.8c0,0,1.4,1.5,2.9,1.8C91,43.7,90.4,42.2,88.2,41.8z"/>
			<path fill="#FFFFFF" d="M98.7,50.4c0.1-0.4,0-1.2,0-1.2c-1.1,1.1-3.5,1.8-3.5,1.8c0-0.6,0.2-1.2,0.2-1.2c-1,0.6-1.6,0.5-1.6,0.5
				c0.1-0.7,0.6-1.6,0.6-1.6c-0.7,0.9-1.6,0.9-1.6,0.9c-0.1-0.4,0.1-1.5,0.1-1.5c-0.3,0.4-1,1.6-3.1,2c-2.1,0.4-3-0.7-3-0.7
				c2,0.1,3.9-1.8,3.9-1.8c-1-0.4-1.4-1.2-1.4-1.2c0.6-0.5,1.2-0.5,1.2-0.5c-1.2-0.5-1.4-1.5-1.4-1.5c1.5,0.7,6,0.8,8.4,0.9
				c2.5,0.1,4.9-0.8,4.9-0.8C102.4,50.1,98.7,50.4,98.7,50.4 M99.6,48.4c0.5-0.3,0.8-0.9,0.9-1.6c0,0-2.3,0.1-4.2-0.1v0.2
				C96.3,46.8,99.4,46.8,99.6,48.4z"/>
			<path fill="#FFFFFF" d="M103.3,45.1c-0.1,1.2-0.4,2.3-0.8,3.1c0,0,1.4-1.1,1.8-2C104.6,45.3,104.7,44.6,103.3,45.1"/>
			<path fill="#FFFFFF" d="M105.8,46.2c0.8-0.2,2.5-0.4,3.3,0.7c0.8,1.1,0.5,3.2-1.1,4.1c0,0-2.3-2-5.1,0c0,0-0.7-0.4-2.1-0.8
				c0,0,0.9-1,1.8-1.5C103.5,48.4,105.3,47.9,105.8,46.2 M106.8,48.9c0-0.3-0.3-0.6-0.6-0.6c-0.3,0-0.6,0.3-0.6,0.6
				c0,0.3,0.3,0.6,0.6,0.6C106.5,49.5,106.8,49.2,106.8,48.9z"/>
			<path fill="#FFFFFF" d="M100.5,50.6c0,0-1,1.4-1.8,2c0,0,3.8,0,4.7,3.2c0,0,1.3-2,0.4-3.3C102.8,51.1,101.8,50.9,100.5,50.6"/>
			<path fill="#FFFFFF" d="M96.3,51.4c0,0-1.2,0.4-1.6,0.5c0,0,0-0.7,0-1c-0.4,0.1-0.8,0.2-1.2,0.2c0,0-1.2,2.7-2.2,3.8
				c0,0-0.1,0.6,0.5,1.5c0,0,0.7-1.6,1.9-2.9C94.4,52.8,94.9,52.5,96.3,51.4"/>
			<path fill="#FFFFFF" d="M99.5,50.9c-0.4,0.1-2.3,0.7-3.3,1.4c-1.2,0.8-2,1.8-1.9,3.5c0,0,1-1.3,2-1.9
				C97.2,53.4,98.7,52,99.5,50.9"/>
			<path fill="#FFFFFF" d="M99.5,38.6c-0.4,0-1.1,0.2-1.1,0.7c0,0.6,0.9,2,1.1,2.6h0c0.2-0.6,1.1-2,1.1-2.6c0-0.6-0.7-0.7-1.1-0.7
				H99.5"/>
			<path fill="#FFFFFF" d="M100.3,43.1c0.2-0.8,0.5-2.9,1-3.4c0.5-0.4,1.2-0.5,1.5-0.5c0.4,0,0.7,0.4,0.6,0.9
				c-0.1,0.5-1.7,2.8-1.9,3.1C101.1,43.1,101.2,43.2,100.3,43.1"/>
			<path fill="#FFFFFF" d="M98.9,43.1c-0.2-0.8-0.5-2.9-1-3.4c-0.5-0.4-1.2-0.5-1.5-0.5c-0.3,0-0.7,0.4-0.6,0.9
				c0.1,0.5,1.7,2.8,1.9,3.1C98.1,43.1,98,43.2,98.9,43.1"/>
			<polyline fill="#FFFFFF" points="97.9,35.7 99.1,35.7 99.1,34.4 100.1,34.4 100.1,35.7 101.3,35.7 101.3,36.6 100.1,36.6 
				100.1,38.2 99.1,38.2 99.1,36.6 97.9,36.6 97.9,35.7 			"/>
			<polyline fill="#FFFFFF" points="83.4,27.7 84.7,27.7 84.7,26.4 85.7,26.4 85.7,27.7 86.9,27.7 86.9,28.6 85.7,28.6 85.7,30.2 
				84.7,30.2 84.7,28.6 83.4,28.6 83.4,27.7 			"/>
			<path fill="#FFFFFF" d="M112.7,44.4c0-0.3,0-0.5-0.1-0.8c-0.1-0.7-0.1-1.2,0-1.7c0.9,0.3,1.5,0.5,2.7,2.5
				C115.3,44.5,113.4,43.3,112.7,44.4"/>
			<path fill="#FFFFFF" d="M111,47.5c0-0.5-0.3-2-0.7-3.1c-0.5-1.3-0.2-3.3,0.4-4.4c0.6-1.1,0.9-2.2,0.8-3.3c0,0,1.1,0.4,1.8,0.8
				c0.1,1.4-0.7,2.7-1,3.5c-0.5,0.9-0.4,2.1-0.3,2.8C112.1,45,111.8,46.3,111,47.5"/>
			<path fill="#FFFFFF" d="M110.9,37.2c0-0.2,0-0.6,0-0.8c0,0-1.8-1.7-3.3-2c-1-0.2-1.5,0.2-1.8,0.5c0,0,0.5-0.1,1.3,0.6
				c0.8,0.7,1.8,1.4,2.6,1.6C110.4,37.3,110.5,37.2,110.9,37.2"/>
			<path fill="#FFFFFF" d="M105.6,35c-0.7,0.7-1.2,1.4-1.2,2c0,0.6,0.8,2.3,1.1,2.9c0.4,0.6,1,1.4,0.9,2.4c0,0.5-0.4,1-0.8,1.4
				c0,0,2.2-0.5,2.5-1.9c0.2-1.2-0.3-2.1-0.6-2.7c-0.3-0.6-1.3-2.1-1.6-2.7C105.6,35.8,105.5,35.3,105.6,35"/>
			<path fill="#FFFFFF" d="M92.7,50.3c-0.4,1.6-1.2,3-1.9,4.2c-0.7,1.1-1.1,2.7-1,3.3c0,0-1-2.2-0.5-3.7
				C89.7,52.8,90.7,51,92.7,50.3"/>
			<path fill="#FFFFFF" d="M90.2,50.8c0,0-1.5,0-2.2,0.5c-0.9,0.6-1.8,1.9-2.1,3.5c0,0,1.5-0.3,2.3-1C88.9,53,89.9,51.9,90.2,50.8"
				/>
			<path fill="#FFFFFF" d="M98,53.5c0.3,0,1.1,0.2,1.4,0.3c0,0-1.3,0.4-1.9,0.9c-0.5,0.4-1,1.1-1.2,2.3C96,58.7,95,60.5,94.7,61
				l-0.1,0c0.2-1.1-0.5-3.5-0.7-3.8c0,0,1-0.6,1.5-1.3C95.7,55.4,96.4,54.6,98,53.5"/>
			<path fill="#FFFFFF" d="M91.3,57.1c-0.4,0.9-1.4,2.4-0.9,4c0.5,1.6,1.5,2.3,2.2,3.6c0,0,0.5-2.4,0.4-4.3
				C92.9,58.5,92.2,57.7,91.3,57.1"/>
			<path fill="#FFFFFF" d="M85.2,61.5c0.1-0.9,2.2-3.2,2.1-4.4c-0.1-1.2-1.7-2.1-2.1-2.3h0c-0.4,0.2-2,1-2.1,2.3
				C82.9,58.3,85.1,60.6,85.2,61.5L85.2,61.5"/>
			<path fill="#FFFFFF" d="M88.5,57.1c0,0-1.5,2.9-1.8,4c-0.3,1.1,0,1.9,0.5,2.6c0.5,0.7,1.4,1.4,2.2,2.9c0,0,0.9-1.2,1-1.9
				c0.1-0.6-0.1-2.2-0.3-2.8C89.9,61.3,89.1,59.2,88.5,57.1"/>
			<path fill="#FFFFFF" d="M85.2,68.4c0.7-0.6,1.3-1.5,1.5-2c0.2-0.5,0.2-1.3-0.2-1.9c-0.5-0.7-1.2-1.5-1.3-2.1h0
				c-0.1,0.6-0.7,1.4-1.3,2.1c-0.5,0.6-0.4,1.3-0.2,1.9C83.8,66.9,84.5,67.8,85.2,68.4L85.2,68.4"/>
			<path fill="#FFFFFF" d="M87.7,66.4c0.3,0.4,2.1,2.5,2.3,3.1c0.2,0.6,0.6,1.8,0.1,2.6c-0.5,0.8-1.8,2.1-2.9,2.6
				c0,0,1.2-1.9,1.1-3.4c-0.1-1-0.8-1.8-1-2.4C87.2,68.3,87.3,67.3,87.7,66.4"/>
			<path fill="#FFFFFF" d="M91.1,65.2c-0.3,0.4-0.7,1.3-0.8,2.2c-0.1,0.9,0.1,1.6,0.6,2.8c0.6,1.6,1.5,3.4,2,4.2
				c0,0,0.8-1.2,1.3-2.2c0,0-1.3-1.8-1.8-3C91.6,67.7,91.4,66.4,91.1,65.2"/>
			<path fill="#FFFFFF" d="M91.7,64.6c0,0,0.6,4.1,3,7.2c1.6,2.1,3,2.8,3.9,2.8c1.3,0,2.7-1.1,3.1-2.4c0.4-1.3,0.3-3.3-0.6-4
				c0,0-0.8,2.5-2.5,2.6C96.7,70.9,94.2,68.7,91.7,64.6"/>
			<path fill="#FFFFFF" d="M93.7,62.8c-0.2,0.7-0.3,1.9,0,2.9c0.2,0.8,0.7,1.9,1.7,2.5c0.8,0.5,2.8,0.6,3.5-1.2
				C98.9,67,95.3,67.3,93.7,62.8"/>
			<path fill="#FFFFFF" d="M85.2,75.1c0.5-0.2,0.9-0.4,1.5-1.3c0.4-0.7,0.9-2,0.6-2.9c-0.3-1.1-0.9-1.6-1.3-2.3
				c-0.3,0.3-0.5,0.5-0.8,0.7h0c-0.4-0.2-0.6-0.4-0.9-0.7c-0.4,0.7-1,1.2-1.3,2.3c-0.2,0.9,0.2,2.2,0.6,2.9
				C84.2,74.7,84.7,74.9,85.2,75.1L85.2,75.1"/>
			<path fill="#FFFFFF" d="M85.2,82.1c0.2-1.1,2.5-3.2,2.3-4.4c-0.3-1.7-1.4-1.4-2.3-2.1h0c-0.9,0.7-2,0.4-2.3,2.1
				C82.6,78.9,84.9,81,85.2,82.1L85.2,82.1"/>
			<path fill="#FFFFFF" d="M87.9,79.5c-0.5,1.2-2.2,2.8-2.2,3.8c0,2.6,1.2,4.1,1.4,5c0,0,2.1-1.6,2.4-3.5
				C89.7,83.8,89.5,81,87.9,79.5"/>
			<path fill="#FFFFFF" d="M90.2,81.3c-0.2-0.7-1-2.5-1.9-3.1c0,0-1.1-3.3,2.5-5.3c0,0,1.5,2,1.9,3.8C93.1,78.6,91.1,79.7,90.2,81.3
				"/>
			<path fill="#FFFFFF" d="M94.7,73c0.6,0.7,1.4,1.7,2,2c0,0,0.2,1.5,0.1,2.5c-0.2,1.5-1.1,2.9-1.5,4c0,0-1.6-2.1-1.8-3.3
				c-0.2-1.2-0.1-2.2-0.2-2.8C93.4,75.4,94.2,74,94.7,73"/>
			<path fill="#FFFFFF" d="M98.9,80.1c0.5-0.7,1.9-3.2,1.9-5c0,0-1.8,0.9-3.3,0.2c0,0-0.2,2.4,0.1,3.2
				C97.9,79.2,98.2,79.5,98.9,80.1"/>
			<path fill="#FFFFFF" d="M98.5,80.6c-0.3-0.3-1-0.9-1.3-1.2c0,0-1.2,2.2-1.4,2.8c0,0,0.6,0.2,1.2-0.3
				C97.7,81.3,97.8,81.2,98.5,80.6"/>
			<path fill="#FFFFFF" d="M93,79.3c0.1,0.5,2.1,3.2,2.4,3.5c0,0-0.2,1-0.9,2.3c-0.7,1.4-1.7,2.3-2.2,2.8c0,0-1.2-2.1-1.5-3
				c-0.4-1-0.4-2.1-0.2-2.4C91,81.7,92.4,80.4,93,79.3"/>
			<path fill="#FFFFFF" d="M85.2,95c0.2-0.7,1.3-1.6,1.7-2.9c0.3-0.7,0.3-1.6,0-2.2c-0.3-0.7-1.6-2.4-1.7-2.9l0,0
				c-0.2,0.5-1.4,2.2-1.7,2.9c-0.3,0.6-0.3,1.5,0,2.2C83.9,93.4,85,94.3,85.2,95L85.2,95"/>
			<path fill="#FFFFFF" d="M90.1,86.3c-0.4,0.9-1.7,2.3-1.9,3.4c-0.2,0.9,0,1.6,0.2,2.2c0.2,0.6,1,1.8,1.5,2.6c0,0,1.7-1.6,2.1-2.8
				c0.3-0.9,0.2-2.1-0.2-2.9C91.4,87.9,90.5,87.1,90.1,86.3"/>
			<path fill="#FFFFFF" d="M95.1,86c-0.5,1-1.5,2-1.8,2.8c-0.3,1-0.4,1.7,0.1,2.9c0.4,1,1,1.6,1.1,2.3c0,0,1.4-1.8,1.6-2.6
				c0.2-0.8,0.3-2,0-2.8C95.9,87.8,95.4,86.8,95.1,86"/>
			<path fill="#FFFFFF" d="M85.2,109.1c0.1-0.9,1.9-3.7,2-6.6c0-1.5-1.3-3.8-2-4.7h0c-0.7,0.9-2.1,3.2-2,4.7
				C83.2,105.4,85.1,108.2,85.2,109.1L85.2,109.1"/>
			<path fill="#FFFFFF" d="M88.1,93c0,0,2.4,2.9,2.4,4.5c-0.1,1.9-1.4,3.2-1.5,4.4c0,0-1.3-1.4-1.8-2.4c-0.5-1.1-1-2-0.8-3.3
				C86.5,95,86.8,94.2,88.1,93"/>
			<path fill="#FFFFFF" d="M92.6,92.7c-0.4,0.6-1.5,2.5-1.2,3.6c0.3,1.2,1.5,2.8,1.9,3.5c0,0,1-2,1.2-2.9
				C94.7,96,94.5,94.5,92.6,92.7"/>
			<path fill="#FFFFFF" d="M86.8,113.8c0.2-2.3,1.5-3.7,1.7-4.8c0.3-1.3,0.2-2.6-0.8-4.1c-0.8,2.8-1.7,4.9-2.4,6.3
				c0,0,0,0.1-0.1,0.1c0,0,0-0.1-0.1-0.1c-0.7-1.4-1.6-3.5-2.4-6.3c-1,1.5-1.1,2.8-0.9,4.1c0.2,1.2,1.5,2.6,1.7,4.8
				c0.1,2.3-2.4,3.2-2.4,3.2c0.9,0.3,1.9,0.5,3.4-1c0.3-0.3,0.5-0.6,0.7-0.9c0.2,0.3,0.4,0.6,0.7,0.9c1.6,1.5,2.6,1.4,3.4,1
				C89.3,117,86.7,116.1,86.8,113.8"/>
			<path fill="#FFFFFF" d="M78.7,98.6c0.3,0.9,1.1,2.4,1.2,2.9c0.2,0.9-0.1,2-1.7,3.2c0,0-1.1-0.8-1.5-1.7c-0.4-0.9-0.2-1.6,0.2-2.1
				C77.3,100.4,78.3,99.3,78.7,98.6"/>
			<path fill="#FFFFFF" d="M82.2,102c0,0.5-0.3,3.1-1.1,4.3c-1,1.8-2.6,3.1-3.9,3.1c-1.2,0-1.5-0.7-2.1-1c0,0,0.3-1.6,1.7-2
				C78.5,105.9,81.1,103.9,82.2,102"/>
			<path fill="#FFFFFF" d="M77.7,105.3c-0.3-0.2-0.5-0.4-0.9-0.8c0,0-1.3,0.5-2.4,1.2c-1.1,0.7-2.1,2-2.7,2.6c0,0,1.6,0.4,2.6-0.1
				c0,0,0.4-1.5,1.5-2.2C76.2,105.9,77,105.7,77.7,105.3"/>
			<path fill="#FFFFFF" d="M76.4,104c-0.3-0.4-0.8-1.1-0.7-2.2c0,0-2.3,1.5-2.9,2c-0.7,0.6-2.1,2-2.4,2.5c0,0,1.7-0.4,3-0.8
				C74.9,104.9,75.9,104.3,76.4,104"/>
			<path fill="#FFFFFF" d="M72.6,106.4c-1.2,0.4-4,0.9-5.1,1.2c-1.2,0.3-2,0.9-3.1,2.1c0,0,1.7,0.5,2.6,0.8c0,0,1.4-1,3-1.6
				C71,108.6,71.5,107.5,72.6,106.4"/>
			<path fill="#FFFFFF" d="M70,114.6c0.3-0.3,0.6-0.6,0.3-1.3c-0.2-0.5-1.2-1.1-1.8-1.3c-1-0.5-3.7-1.2-4.6-1.5c0,0-0.4,0.5-0.7,1.1
				c-0.1,0.2,0,0.4,0.4,0.5c0.8,0.1,2.6-0.2,3.1,0.1c0.5,0.3,0.3,0.7,0.3,1.2c0,0,0.8-0.5,1.4-0.4C69.1,113,69.6,113.3,70,114.6"/>
			<path fill="#FFFFFF" d="M67.5,110.7c0.2,0.1,1.3,0.4,2.3,1.1c0,0,0.5-0.2,0.7-0.6c0.2-0.4,1.2-1.8,2-2c0,0-0.7-0.1-1.2-0.2
				c0,0-0.9,0.2-1.5,0.5C69.3,109.7,68.5,110.1,67.5,110.7"/>
			<path fill="#FFFFFF" d="M74.6,109c-0.2,0.1-0.4,0.2-1.1,0.2c0,0-2.4,1.7-2.7,3.3c-0.2,1.4,0.5,2.1,0.9,2.3
				c0.4,0.2,2.1,0.9,3.1-1.4c0,0-1.9,0.6-2.4-0.3c-0.5-0.9,0.3-2.2,0.8-2.6c0.7-0.5,1.9-0.8,2.6-0.7C75.9,109.9,75.3,109.3,74.6,109
				"/>
			<path fill="#FFFFFF" d="M58.8,128.1c0.3-1.2,0.6-2.5,1.2-3.7c1.1-2.3,3.8-8.5,9.3-9.5c0.5-0.1-0.6-1.4-1.1-1.3
				c-0.5,0.1-1.5,0.7-1.9,1c0,0,0-1.3,0-1.6c0-0.2-0.2-0.3-0.4-0.3c-0.2,0-1.6,0-2,0.5c-1.3,1.5-3.4,5.4-4.6,8.4
				c-1.2,2.9-2,3.9-3.3,3.4c-1.3-0.5-2.1-1.9-4.3-1.5c-0.8,0.2-1.6,0.7-2.3,1.4c0.2,0.4,0.4,0.8,1.5,0.8c1,0,3,0.4,4.1,1.2
				C56.1,127.7,57.2,128,58.8,128.1"/>
			<path fill="#FFFFFF" d="M81.1,109.1c0.1,1,0.6,1.8,1.1,2.8c0,0-1.7,7.8-7.8,8.4c0,0,0.1-1.6,1.9-2.9c1.8-1.2,4.5-3.2,4.3-6.1
				c0,0-0.5,0.1-1.4,1.2c-0.9,1.1-2.8,4.2-5.7,4.3c0,0,0.4-1.5,1.8-2.3c1.3-0.8,3-1.9,3.7-3.3C79.8,109.9,80.5,109.3,81.1,109.1"/>
			<path fill="#FFFFFF" d="M78.2,137.6l3.7,5.2l2.8-5l-1-1.8c-0.7,1.3-1.5,2.7-2,3.5c-0.4-0.5-1.3-1.8-2.5-3.5L78.2,137.6"/>
			<path fill="#FFFFFF" d="M77.2,133.2c-3.6-5.1-8.1-11.4-8.6-12l1.4-1l-4.4-1.7l0.1,4.9l1.5-1.1l9,12.6L77.2,133.2"/>
			<path fill="#FFFFFF" d="M46.5,104.5c1.1-1.2,3-0.2,4.8,1.6c1.9,1.7,3.1,3.5,2,4.7c-1,1.1-3,0.2-4.9-1.6
				C46.6,107.5,45.4,105.7,46.5,104.5"/>
			<path fill="#FFFFFF" d="M49.6,125.8c-0.1-0.1-0.1-0.1-0.2-0.2c-1-0.9-1.6-2.2-1.6-3.7c0-2.8,2.3-5.1,5.1-5.1
				c2.8,0,5.1,2.3,5.1,5.1c0,0.4-0.1,1-0.1,1c0.2-0.4,1.1-2.4,1.2-2.8c-0.8-2.8-3.3-4.8-6.3-4.8c-2.6,0-4.8,1.5-5.9,3.7
				c0.4-2.6,1.7-4.9,2.6-5.8c1.1-1,2.9-1.4,2.9-1.4c-1.2,0.2-2.8-0.6-4.6-2.2c-1.7-1.6-2.6-2.9-2.6-4.1c0.1,1.6,0.1,2.5-0.4,3.8
				c-0.6,1.8-2.3,5.1-1.7,8.8c0.3,2,1.8,5.1,4.3,7.6c0.5,0.6,0.7,1.4,0.8,1.8c0,0,3.7,0,4.5,0.1c0,0,0.9-0.1,0.9-0.6
				c0-0.5-0.5-0.7-0.9-0.7C52.3,126.5,50.5,126.6,49.6,125.8"/>
			<path fill="#FFFFFF" d="M69.8,127.1c-2.4,0.8-4.7,1.3-6.9,1.6c-1.5,0.2-2.9,0.3-4.2,0.2c0,0.2,0,0.5-0.1,0.7c0,0,0.3,0.3,0.3,0.7
				c1.4,0.1,2.8,0,4.3-0.3c2.4-0.4,5-0.9,7.6-1.8L69.8,127.1"/>
			<path fill="#FFFFFF" d="M73.6,126.9c3.1-1.7,6.2-4.3,8.9-8.5l0.5-0.8c-0.8,0.3-1.7,0.1-1.7,0.1c-0.1,0.1-0.2,0.3-0.2,0.4
				c-2.6,3.8-5.4,6.2-8.3,7.7L73.6,126.9"/>
			<path fill="#FFFFFF" d="M53.1,128.2c-0.4-0.1-1.8,0-2.6,0.1c-0.9,0.1-1.9,0.3-2,0.8c-0.1,0.5,0.2,1,0.7,1.7c0.3,0.4,1,0.2,1.3,0
				c0.4-0.1,2.5-1.3,2.8-1.6C53.6,128.9,53.7,128.3,53.1,128.2"/>
			<path fill="#FFFFFF" d="M55.2,129.6c-0.2-0.1-0.8-0.4-1.3-0.1c-0.6,0.2-2.7,1.4-2.8,2c-0.1,0.6,0.1,0.9,0.5,1
				c0.3,0.1,0.7,0.3,1,0.3c0.5,0,1-0.3,1.3-0.6c0.3-0.3,1.2-1.5,1.4-1.8C55.4,130.2,55.4,129.8,55.2,129.6"/>
			<path fill="#FFFFFF" d="M55.5,130.9c-0.3,0.3-1.1,1.4-1.2,1.5c-0.1,0.2,0.1,0.4,0.3,0.4c0.3,0,1.7-0.2,2.5-0.7
				c0.8-0.6,1.4-1.7,0.8-2C57.3,129.7,56.4,129.9,55.5,130.9"/>
			<path fill="#FFFFFF" d="M55.9,127.8c-0.3-0.1-1.4-0.3-1.6,0c-0.3,0.4-0.1,0.9,0.8,1.3c0.8,0.4,2.4,0.7,2.7,0.3
				C58.1,129,57.7,128.3,55.9,127.8"/>
			<path fill="#FFFFFF" d="M91.6,98.6c-0.3,0.9-1.1,2.4-1.2,2.9c-0.2,0.9,0.1,2,1.7,3.2c0,0,1.1-0.8,1.5-1.7
				c0.4-0.9,0.2-1.6-0.2-2.1C93,100.4,92,99.3,91.6,98.6"/>
			<path fill="#FFFFFF" d="M88.1,102c0,0.5,0.3,3.1,1.1,4.3c1,1.8,2.6,3.1,3.9,3.1c1.2,0,1.5-0.7,2.1-1c0,0-0.3-1.6-1.7-2
				C91.8,105.9,89.2,103.9,88.1,102"/>
			<path fill="#FFFFFF" d="M92.6,105.3c0.3-0.2,0.5-0.4,0.9-0.8c0,0,1.3,0.5,2.4,1.2c1.1,0.7,2.1,2,2.7,2.6c0,0-1.6,0.4-2.6-0.1
				c0,0-0.4-1.5-1.5-2.2C94.1,105.9,93.3,105.7,92.6,105.3"/>
			<path fill="#FFFFFF" d="M93.9,104c0.3-0.4,0.8-1.1,0.7-2.2c0,0,2.3,1.5,3,2c0.7,0.6,2.1,2,2.4,2.5c0,0-1.7-0.4-3.1-0.8
				C95.5,104.9,94.5,104.3,93.9,104"/>
			<path fill="#FFFFFF" d="M97.8,106.4c1.2,0.4,4,0.9,5.1,1.2c1.2,0.3,2,0.9,3.1,2.1c0,0-1.7,0.5-2.6,0.8c0,0-1.4-1-3-1.6
				C99.4,108.6,98.9,107.5,97.8,106.4"/>
			<path fill="#FFFFFF" d="M100.3,114.6c-0.3-0.3-0.6-0.6-0.3-1.3c0.2-0.5,1.2-1.1,1.8-1.3c1-0.5,3.7-1.2,4.6-1.5
				c0,0,0.4,0.5,0.7,1.1c0.1,0.2,0,0.4-0.4,0.5c-0.8,0.1-2.6-0.2-3.1,0.1c-0.5,0.3-0.3,0.7-0.3,1.2c0,0-0.8-0.5-1.4-0.4
				C101.2,113,100.7,113.3,100.3,114.6"/>
			<path fill="#FFFFFF" d="M102.8,110.7c-0.2,0.1-1.3,0.4-2.3,1.1c0,0-0.5-0.2-0.7-0.6c-0.2-0.4-1.2-1.8-2-2c0,0,0.7-0.1,1.2-0.2
				c0,0,0.9,0.2,1.5,0.5C101.1,109.7,101.9,110.1,102.8,110.7"/>
			<path fill="#FFFFFF" d="M95.7,109c0.2,0.1,0.4,0.2,1.1,0.2c0,0,2.4,1.7,2.7,3.3c0.3,1.4-0.5,2.1-0.9,2.3c-0.4,0.2-2,0.9-3.1-1.4
				c0,0,1.9,0.6,2.4-0.3c0.5-0.9-0.3-2.2-0.8-2.6c-0.7-0.5-1.9-0.8-2.6-0.7C94.4,109.9,95,109.3,95.7,109"/>
			<path fill="#FFFFFF" d="M111.5,128.1c-0.3-1.2-0.6-2.5-1.2-3.7c-1.1-2.3-3.8-8.5-9.3-9.5c-0.5-0.1,0.6-1.4,1.1-1.3
				c0.5,0.1,1.5,0.7,1.9,1c0,0,0-1.3,0-1.6c0-0.2,0.2-0.3,0.4-0.3c0.2,0,1.6,0,2,0.5c1.3,1.5,3.4,5.4,4.6,8.4c1.2,2.9,2,3.9,3.3,3.4
				c1.3-0.5,2.1-1.9,4.3-1.5c0.8,0.2,1.6,0.7,2.3,1.4c-0.2,0.4-0.4,0.8-1.5,0.8c-1.1,0-3,0.4-4.2,1.2
				C114.3,127.7,113.1,128,111.5,128.1"/>
			<path fill="#FFFFFF" d="M89.2,109.1c-0.1,1-0.6,1.8-1.1,2.8c0,0,1.7,7.8,7.8,8.4c0,0-0.1-1.6-1.9-2.9c-1.8-1.2-4.5-3.2-4.3-6.1
				c0,0,0.5,0.1,1.4,1.2c0.9,1.1,2.8,4.2,5.8,4.3c0,0-0.4-1.5-1.7-2.3c-1.3-0.8-3-1.9-3.7-3.3C90.6,109.9,89.8,109.3,89.2,109.1"/>
			<path fill="#FFFFFF" d="M85.2,116.7c0.4,1,2.7,4.3,3.7,5.3c1,0.9,3.5,3.4,4.8,4.6c0,0-3.8-0.9-5.9-2.9c0,0-1.5,0.9-2.6,0.9h-0.1
				c-1.1,0-2.6-0.9-2.6-0.9c-2.1,1.9-5.9,2.9-5.9,2.9c1.3-1.2,3.8-3.7,4.8-4.6C82.5,121,84.8,117.7,85.2,116.7L85.2,116.7"/>
			<path fill="#FFFFFF" d="M85.2,125.4c0.8,0,1.6-0.3,2.1-0.5c-0.4,0.9-1.3,2.4-2.1,3h0c-0.8-0.6-1.6-2.1-2.1-3
				C83.5,125,84.3,125.4,85.2,125.4L85.2,125.4"/>
			<path fill="#FFFFFF" d="M88.4,142.8l14.7-20.6l1.5,1.1l0.1-4.9l-4.5,1.7l1.4,1c-0.7,1-11.7,16.5-13.1,18.4l-6.7-12.1l-0.8,1.3
				l-5.9,9l-1.5-1l0,4.8l4.5-1.8l-1.5-1c0.8-1.2,4-6.1,5.1-7.7L88.4,142.8"/>
			<path fill="#FFFFFF" d="M91.1,134.7c-1-1.5-2-3-2.5-3.8c-0.4,0.7-1.1,2.1-2,3.6l-1.1-1.9l2.9-5.2l0.8,1.3l2.9,4.5L91.1,134.7"/>
			<path fill="#FFFFFF" d="M94.1,136.1l1.1,1.6l1.5-1l0,4.8l-4.5-1.8l1.5-1c-0.2-0.2-0.4-0.6-0.7-1L94.1,136.1"/>
			<path fill="#FFFFFF" d="M123.8,104.5c-1.1-1.2-3-0.2-4.8,1.6c-1.9,1.7-3.1,3.5-2,4.7c1,1.1,3,0.2,4.9-1.6
				C123.7,107.5,124.9,105.7,123.8,104.5"/>
			<path fill="#FFFFFF" d="M120.8,125.8c0.1-0.1,0.1-0.1,0.2-0.2c1-0.9,1.6-2.2,1.6-3.7c0-2.8-2.3-5.1-5.1-5.1
				c-2.8,0-5.1,2.3-5.1,5.1c0,0.4,0.1,1,0.1,1c-0.2-0.4-1.1-2.4-1.2-2.8c0.8-2.8,3.3-4.8,6.3-4.8c2.6,0,4.8,1.5,5.9,3.7
				c-0.4-2.6-1.7-4.9-2.6-5.8c-1.1-1-2.9-1.4-2.9-1.4c1.2,0.2,2.8-0.6,4.6-2.2c1.7-1.6,2.6-2.9,2.6-4.1c-0.1,1.6-0.1,2.5,0.4,3.8
				c0.6,1.8,2.3,5.1,1.7,8.8c-0.3,2-1.8,5.1-4.3,7.6c-0.5,0.6-0.7,1.4-0.8,1.8c0,0-3.7,0-4.5,0.1c0,0-0.9-0.1-0.8-0.6
				c0-0.5,0.5-0.7,0.9-0.7C118,126.5,119.8,126.6,120.8,125.8"/>
			<path fill="#FFFFFF" d="M96.7,126.9c-3.1-1.7-6.2-4.3-8.9-8.5l-0.5-0.8c0.8,0.3,1.7,0.1,1.7,0.1c0.1,0.1,0.2,0.3,0.2,0.4
				c2.6,3.8,5.4,6.2,8.3,7.7L96.7,126.9"/>
			<path fill="#FFFFFF" d="M100.5,127.1c2.4,0.8,4.7,1.3,6.9,1.6c1.5,0.2,2.9,0.3,4.2,0.2c0,0.2,0,0.5,0.1,0.7c0,0-0.3,0.3-0.3,0.7
				c-1.4,0.1-2.8,0-4.3-0.3c-2.4-0.4-5-0.9-7.6-1.8L100.5,127.1"/>
			<path fill="#FFFFFF" d="M117.3,128.2c0.4-0.1,1.8,0,2.6,0.1c0.9,0.1,1.9,0.3,2,0.8c0.1,0.5-0.2,1-0.7,1.7c-0.3,0.4-1,0.2-1.3,0
				c-0.4-0.1-2.5-1.3-2.8-1.6C116.8,128.9,116.6,128.3,117.3,128.2"/>
			<path fill="#FFFFFF" d="M115.1,129.6c0.2-0.1,0.8-0.4,1.4-0.1c0.6,0.2,2.6,1.4,2.8,2c0.1,0.6-0.2,0.9-0.5,1
				c-0.3,0.1-0.7,0.3-1,0.3c-0.5,0-1-0.3-1.3-0.6c-0.3-0.3-1.2-1.5-1.4-1.8C115,130.2,114.9,129.8,115.1,129.6"/>
			<path fill="#FFFFFF" d="M114.9,130.9c0.3,0.3,1.1,1.4,1.2,1.5c0.1,0.2-0.1,0.4-0.3,0.4c-0.3,0-1.7-0.2-2.5-0.7
				c-0.8-0.6-1.4-1.7-0.8-2C113,129.7,113.9,129.9,114.9,130.9"/>
			<path fill="#FFFFFF" d="M114.4,127.8c0.3-0.1,1.4-0.3,1.6,0c0.3,0.4,0.1,0.9-0.8,1.3c-0.8,0.4-2.4,0.7-2.7,0.3
				C112.2,129,112.6,128.3,114.4,127.8"/>
		</g>
	</g>
	<g>
		<rect x="181.1" y="-0.3" fill="#AD003E" width="170.1" height="170.1"/>
		<path fill="#FFFFFF" d="M332.3,50.7c-0.8-6.6-3.9-10-11.1-10c-6.8,0-9.3,0-9.3,0l-1.3,37.1h6.7c0,0,0.6-17.2,0.7-18
			c0.7,0,7.8,0,8.5,0c0.1,0.7,1.4,18,1.4,18h7C334.9,77.8,332.5,52.3,332.3,50.7z M318.1,53.6c0-0.8,0.2-6,0.2-6.7h1.3
			c5,0,5.8,0.9,6.3,6.7H318.1z"/>
		<path fill="#FFFFFF" d="M250.4,101.6c-0.8-6.6-3.9-10-11.1-10c-6.8,0-9.3,0-9.3,0l-1.3,37.1h6.7c0,0,0.6-17.2,0.7-18
			c0.7,0,7.8,0,8.5,0c0.1,0.8,1.4,18,1.4,18h7C253,128.8,250.6,103.3,250.4,101.6z M236.3,104.6c0-0.8,0.2-6,0.2-6.7l1.2-0.1
			c5,0,5.9,1,6.3,6.8H236.3z"/>
		<polygon fill="#FFFFFF" points="199.8,40.7 199.8,77.8 206.6,77.8 206.6,46.9 215,46.9 215,77.8 221.9,77.8 221.9,40.7 		"/>
		<path fill="#FFFFFF" d="M271.9,53.6h-3.7c-1.5,0-2.7-0.3-3.4-1c-0.5-0.5-0.8-1.1-0.8-2v-9.9h-6.8v10.6c0,2.4,1,4.5,2.9,6.1
			c1.9,1.6,4.2,2.4,6.8,2.4h5v17.9h6.8V40.7h-6.8V53.6"/>
		<polygon fill="#FFFFFF" points="286.3,40.7 286.3,46.9 292,46.9 292,77.8 292,77.8 298.8,77.8 298.9,77.8 298.9,46.9 304.5,46.9 
			304.5,40.7 		"/>
		<polygon fill="#FFFFFF" points="276.3,91.7 276.3,103.5 266.9,103.5 266.9,91.7 260.1,91.7 260.1,128.8 266.9,128.8 266.9,109.7 
			276.3,109.7 276.3,128.8 283.1,128.8 283.1,91.7 		"/>
		<path fill="#FFFFFF" d="M209.7,103.8c-1.2,0-2.2,0-3.2,0.1v-6h12.2v-6.2h-19.1v6.2v30.9h0.5v0c0,0,3.1,0,9.9,0
			c10.3,0,11.9-9.2,11.9-12.6C222,112.2,220.4,103.8,209.7,103.8z M208.9,123c-0.7,0-2.3-0.2-2.3-0.2v-7.2v-0.8v-5.1
			c0,0,0.5-0.1,1.1-0.1c3.5,0,7.5-0.2,7.5,6.7C215.3,122.6,210.8,123,208.9,123z"/>
		<path fill="#FFFFFF" d="M252.2,58c-0.1-5.3-1-9.1-2.4-11.8c-2.2-4.6-5.8-6.3-9.4-6.4c0,0,0,0,0,0l0,0l0,0c0,0,0,0-0.1,0
			c0,0,0,0-0.1,0l0,0l0,0c0,0,0,0,0,0c-3.7,0-7.2,1.8-9.4,6.4c-1.4,2.7-2.3,6.5-2.4,11.8c0,0,0,1.2,0,1.2l0,0c0,3.3,0.4,6.5,1.1,9.1
			c1.9,7.6,6.2,10.3,10.7,10.4c0,0,0.1,0,0.1,0l0,0l0,0c0,0,0,0,0.1,0c0,0,0,0,0.1,0l0,0l0,0c0,0,0.1,0,0.1,0
			c4.5-0.1,8.8-2.8,10.7-10.4c0.7-2.6,1.1-5.8,1.1-9.1l0,0C252.2,59.1,252.2,58,252.2,58z M235.1,59.3
			C235.1,59.3,235.1,59.3,235.1,59.3c0.1-10,2.5-13.3,5.2-13.4c2.6,0,5.1,3.4,5.2,13.4c0,0,0,0,0,0c-0.1,9.8-2.5,13.2-5.2,13.2
			C237.6,72.5,235.1,69.1,235.1,59.3z"/>
		<path fill="#FFFFFF" d="M317.1,128.8l-8.2-21.7c1.7-1.3,3-3.7,3.6-6.1c0.6-2.4,1.3-9.2,1.3-9.2c-1.6,0-6.1,0-6.7,0
			c0,0.7-0.2,3.1-0.4,5.4c-0.3,3.5-1.4,6.8-5,6.8h-2.8c0-0.3,0-12.3,0-12.3h-6.8v37.1h6.8v-18.8c0,0,3.6,0,4.1,0l6.7,18.8H317.1z"/>
	</g>
</g>
</svg>
