<?xml version="1.0" encoding="UTF-8" standalone="no"?>
<!-- Generator: Adobe Illustrator 19.1.0, SVG Export Plug-In . SVG Version: 6.00 Build 0)  -->

<svg
   xmlns:dc="http://purl.org/dc/elements/1.1/"
   xmlns:cc="http://creativecommons.org/ns#"
   xmlns:rdf="http://www.w3.org/1999/02/22-rdf-syntax-ns#"
   xmlns:svg="http://www.w3.org/2000/svg"
   xmlns="http://www.w3.org/2000/svg"
   xmlns:sodipodi="http://sodipodi.sourceforge.net/DTD/sodipodi-0.dtd"
   xmlns:inkscape="http://www.inkscape.org/namespaces/inkscape"
   version="1.1"
   id="Layer_1"
   x="0px"
   y="0px"
   viewBox="0 0 188.7 50.900002"
   xml:space="preserve"
   inkscape:version="0.91 r13725"
   sodipodi:docname="ru-raiffeisen.svg"
   width="188.7"
   height="50.900002"><metadata
     id="metadata49"><rdf:RDF><cc:Work
         rdf:about=""><dc:format>image/svg+xml</dc:format><dc:type
           rdf:resource="http://purl.org/dc/dcmitype/StillImage" /><dc:title></dc:title></cc:Work></rdf:RDF></metadata><defs
     id="defs47" /><sodipodi:namedview
     pagecolor="#ffffff"
     bordercolor="#666666"
     borderopacity="1"
     objecttolerance="10"
     gridtolerance="10"
     guidetolerance="10"
     inkscape:pageopacity="0"
     inkscape:pageshadow="2"
     inkscape:window-width="1262"
     inkscape:window-height="763"
     id="namedview45"
     showgrid="false"
     fit-margin-top="0"
     fit-margin-left="0"
     fit-margin-right="0"
     fit-margin-bottom="0"
     inkscape:zoom="0.84931507"
     inkscape:cx="-63.786435"
     inkscape:cy="25"
     inkscape:window-x="0"
     inkscape:window-y="0"
     inkscape:window-maximized="0"
     inkscape:current-layer="Layer_1" /><style
     type="text/css"
     id="style3">
	.st0{fill:#FFF200;}
	.st1{fill:#979797;}
</style><g
     id="g5"
     transform="translate(-92.3,-54.1)"><polygon
       class="st0"
       points="92.9,104.3 92.9,57.1 140.2,57.1 140.1,104.4 "
       id="polygon7"
       style="fill:#fff200" /><path
       d="m 116.5,86.5 14.6,14.6 5.7,-5.7 -14.6,-14.6 2.8,-2.8 0,-5.7 2,-2 0,4.7 2,2 7.1,-7.1 1.9,1.9 c 0,-1.2 -0.4,-5.4 -3.8,-8.8 -3.8,-3.7 -7.6,-1.5 -8.9,-0.2 l -6.9,6.9 1.7,1.7 -3.8,3.8 -3.8,-3.8 1.7,-1.7 -6.9,-6.9 c -1.3,-1.3 -5.1,-3.5 -8.9,0.2 -3.4,3.3 -3.7,7.5 -3.7,8.8 l 1.8,-1.9 7.1,7.1 2,-2 0,-4.7 2,2 0,5.7 2.9,2.8 -14.2,14.4 5.7,5.7 14.5,-14.4 z"
       id="path9"
       inkscape:connector-curvature="0" /><path
       d="m 154.2,60.4 0.5,0 c 1.7,0 3.6,0.3 3.6,2.5 0,2.2 -1.9,2.5 -3.6,2.5 l -0.5,0 0,-5 z m 5.1,7.8 c 2.8,-0.5 4.3,-2.9 4.3,-5.6 0,-4.2 -3,-6.1 -6.9,-6.1 l -7.7,0 0,19.9 5.2,0 0,-7.6 0.1,0 4.9,7.6 6.4,0 -6.3,-8.2 z"
       id="path11"
       inkscape:connector-curvature="0" /><path
       d="m 173.9,66.5 c 1.9,0 3.1,1.4 3.1,3.1 0,1.7 -1.1,3 -3.1,3 -1.9,0 -3.1,-1.3 -3.1,-3 0,-1.7 1.1,-3.1 3.1,-3.1 m 7.7,-3.7 -4.8,0 0,1.3 c -1,-1.2 -2.6,-1.8 -4.2,-1.8 -4,0 -6.8,3.3 -6.8,7.2 0,3.9 2.8,7.2 6.8,7.2 1.6,0 3.2,-0.6 4.1,-2 l 0.1,0 0,1.5 4.8,0 0,-13.4 z"
       id="path13"
       inkscape:connector-curvature="0" /><path
       d="m 189.6,76.3 -4.8,0 0,-13.5 4.8,0 0,13.5 z m 0.2,-18.7 c 0,1.5 -1.2,2.7 -2.7,2.7 -1.5,0 -2.7,-1.2 -2.7,-2.7 0,-1.5 1.2,-2.7 2.7,-2.7 1.5,0 2.7,1.2 2.7,2.7"
       id="path15"
       inkscape:connector-curvature="0" /><path
       d="m 198,76.3 -4.8,0 0,-9.6 -1.7,0 0,-4 1.7,0 0,-1.7 c 0,-1.9 0.1,-3.2 1.4,-4.7 1.2,-1.4 2.9,-2.2 4.7,-2.2 0.7,0 1.4,0.1 2.1,0.5 l 0,4.1 c -0.6,-0.2 -1.1,-0.4 -1.7,-0.4 -1.2,0 -1.7,0.7 -1.7,2.3 l 0,2.2 3.3,0 0,4 -3.3,0 0,9.5 z"
       id="path17"
       inkscape:connector-curvature="0" /><path
       d="m 208.2,76.3 -4.8,0 0,-9.6 -1.7,0 0,-4 1.7,0 0,-1.7 c 0,-1.9 0.1,-3.2 1.4,-4.7 1.2,-1.4 2.9,-2.2 4.7,-2.2 0.7,0 1.4,0.1 2.1,0.5 l 0,4.1 c -0.6,-0.2 -1.1,-0.4 -1.7,-0.4 -1.2,0 -1.7,0.7 -1.7,2.3 l 0,2.2 3.3,0 0,4 -3.3,0 0,9.5 z"
       id="path19"
       inkscape:connector-curvature="0" /><path
       d="m 217,67.6 c 0.3,-1.4 1.4,-2.1 2.8,-2.1 1.3,0 2.5,0.8 2.7,2.1 l -5.5,0 z m 10,2.2 c 0,-4.6 -2.7,-7.5 -7.4,-7.5 -4.4,0 -7.5,2.7 -7.5,7.2 0,4.7 3.3,7.2 7.8,7.2 3.1,0 6.1,-1.4 6.9,-4.6 l -4.6,0 c -0.5,0.9 -1.3,1.2 -2.3,1.2 -2,0 -3,-1.1 -3,-3 l 10.1,0 0,-0.5 z"
       id="path21"
       inkscape:connector-curvature="0" /><path
       d="m 234,76.3 -4.8,0 0,-13.5 4.8,0 0,13.5 z m 0.3,-18.7 c 0,1.5 -1.2,2.7 -2.7,2.7 -1.5,0 -2.7,-1.2 -2.7,-2.7 0,-1.5 1.2,-2.7 2.7,-2.7 1.5,0 2.7,1.2 2.7,2.7"
       id="path23"
       inkscape:connector-curvature="0" /><path
       d="m 246.1,66.3 c -0.7,-0.4 -1.8,-0.7 -2.6,-0.7 -0.6,0 -1.5,0.2 -1.5,0.9 0,0.9 1.5,1.1 2.2,1.2 2.2,0.4 3.9,1.5 3.9,4 0,3.6 -3.2,5 -6.4,5 -1.9,0 -3.8,-0.6 -5.5,-1.6 l 1.7,-3.3 c 1,0.7 2.6,1.4 3.8,1.4 0.6,0 1.5,-0.3 1.5,-1 0,-1.1 -1.5,-1.1 -3,-1.5 -1.5,-0.4 -3,-1.1 -3,-3.6 0,-3.3 3,-4.8 6,-4.8 1.5,0 3.1,0.2 4.4,0.9 l -1.5,3.1 z"
       id="path25"
       inkscape:connector-curvature="0" /><path
       d="m 254.6,67.6 c 0.3,-1.4 1.4,-2.1 2.8,-2.1 1.3,0 2.5,0.8 2.7,2.1 l -5.5,0 z m 10,2.2 c 0,-4.6 -2.7,-7.5 -7.4,-7.5 -4.4,0 -7.5,2.7 -7.5,7.2 0,4.7 3.3,7.2 7.8,7.2 3.1,0 6.1,-1.4 6.9,-4.6 l -4.6,0 c -0.5,0.9 -1.3,1.2 -2.3,1.2 -2,0 -3,-1.1 -3,-3 l 10.1,0 0,-0.5 z"
       id="path27"
       inkscape:connector-curvature="0" /><path
       d="m 271.5,64.5 0,0 c 1.2,-1.6 2.5,-2.2 4.4,-2.2 3.6,0 5.1,2.3 5.1,5.6 l 0,8.3 -4.8,0 0,-6.6 c 0,-1.3 0.2,-3.6 -2.2,-3.6 -1.9,0 -2.5,1.4 -2.5,3.1 l 0,7 -4.8,0 0,-13.3 4.8,0 0,1.7 z"
       id="path29"
       inkscape:connector-curvature="0" /><path
       d="m 155.6,96.8 0.5,0 c 1.7,0 4.3,-0.2 3.9,2.2 -0.3,2.2 -2.9,2.1 -4.4,2.1 l -0.7,0 0.7,-4.3 z m 1.5,8.2 c 3.6,0 7.4,-1.4 8.1,-5.5 0.4,-2.8 -0.5,-4.7 -3.3,-5.1 l 0,-0.1 c 1.7,-0.8 2.5,-2.3 2.8,-4.1 0.6,-3.8 -1.6,-5.2 -5.1,-5.2 l -7.4,0 -3.1,19.9 8,0 z m -0.3,-15.9 0.4,0 c 1.4,0 3,0.1 2.7,1.9 -0.3,1.7 -1.7,1.9 -3.1,1.9 l -0.6,0 0.6,-3.8 z"
       id="path31"
       inkscape:connector-curvature="0" /><path
       d="m 92.3,56.4 0,48.6 48.5,0 0,-48.6 -48.5,0 z m 47.1,47.2 -45.8,0 0,-45.8 45.8,0 0,45.8 z"
       id="path33"
       inkscape:connector-curvature="0" /><path
       d="m 179,97.6 -4.3,0 3.1,-6.3 0.1,0 1.1,6.3 z m 0.7,3.9 0.7,3.5 5.5,0 -4.3,-19.9 -5.6,0 -10.8,19.9 5.5,0 1.9,-3.5 7.1,0 z"
       id="path35"
       inkscape:connector-curvature="0" /><polygon
       points="207.5,105 202.3,105 194.7,92.8 194.7,92.8 192.8,105 187.6,105 190.7,85.1 195.9,85.1 203.5,97.3 203.5,97.3 205.4,85.1 210.6,85.1 "
       id="polygon37" /><polygon
       points="217.4,96.4 216,105 210.8,105 214,85.1 219.2,85.1 217.9,93.3 217.9,93.3 225.5,85.1 231.9,85.1 222.5,94.5 229.4,105 222.7,105 217.4,96.4 "
       id="polygon39" /></g></svg>