<?xml version="1.0" encoding="UTF-8" standalone="no"?>
<svg
   xmlns:dc="http://purl.org/dc/elements/1.1/"
   xmlns:cc="http://creativecommons.org/ns#"
   xmlns:rdf="http://www.w3.org/1999/02/22-rdf-syntax-ns#"
   xmlns:svg="http://www.w3.org/2000/svg"
   xmlns="http://www.w3.org/2000/svg"
   xmlns:sodipodi="http://sodipodi.sourceforge.net/DTD/sodipodi-0.dtd"
   xmlns:inkscape="http://www.inkscape.org/namespaces/inkscape"
   viewBox="0 0 310.18722 56.692665"
   height="56.692665"
   width="310.18723"
   xml:space="preserve"
   version="1.1"
   id="svg2"
   inkscape:version="0.91 r13725"
   sodipodi:docname="ru-rosbank.svg"><sodipodi:namedview
     pagecolor="#ffffff"
     bordercolor="#666666"
     borderopacity="1"
     objecttolerance="10"
     gridtolerance="10"
     guidetolerance="10"
     inkscape:pageopacity="0"
     inkscape:pageshadow="2"
     inkscape:window-width="893"
     inkscape:window-height="605"
     id="namedview37"
     showgrid="false"
     fit-margin-top="0"
     fit-margin-left="0"
     fit-margin-right="0"
     fit-margin-bottom="0"
     inkscape:zoom="0.99901172"
     inkscape:cx="155.0299"
     inkscape:cy="9.4064004"
     inkscape:window-x="0"
     inkscape:window-y="0"
     inkscape:window-maximized="0"
     inkscape:current-layer="g12" /><metadata
     id="metadata8"><rdf:RDF><cc:Work
         rdf:about=""><dc:format>image/svg+xml</dc:format><dc:type
           rdf:resource="http://purl.org/dc/dcmitype/StillImage" /><dc:title></dc:title></cc:Work></rdf:RDF></metadata><defs
     id="defs6" /><g
     transform="matrix(1.3333333,0,0,-1.3333333,-0.12343746,94.572931)"
     id="g10"><g
       transform="scale(0.1,0.1)"
       id="g12"><path
         id="path14"
         style="fill:#ee293d;fill-opacity:1;fill-rule:nonzero;stroke:none"
         d="m 0.925781,492.449 425.265999,0 0,216.848 -425.265999,0 0,-216.848 z"
         inkscape:connector-curvature="0" /><path
         id="path16"
         style="fill:#231f20;fill-opacity:1;fill-rule:nonzero;stroke:none"
         d="m 0.925781,284.102 425.296999,0 0,212.598 -425.296999,0 0,-212.598 z"
         inkscape:connector-curvature="0" /><path
         id="path18"
         style="fill:#ffffff;fill-opacity:1;fill-rule:nonzero;stroke:none"
         d="m 75.0977,483.762 276.699,0 0,25.8789 -276.699,0 0,-25.8789 z"
         inkscape:connector-curvature="0" /><path
         id="path20"
         style="fill:#231f20;fill-opacity:1;fill-rule:nonzero;stroke:none"
         d="m 697.539,603.125 c 46.277,0 75.332,-30.242 75.332,-72.031 0,-43.516 -29.055,-68.574 -75.332,-68.574 l -92.051,0 0,-71.133 -39.218,0 0,211.738 131.269,0 z m 2.246,-105.605 c 20.313,0 33.035,14.074 33.035,33.007 0,20.879 -12.722,37.559 -35.281,37.559 l -92.051,0 0,-70.566 94.297,0"
         inkscape:connector-curvature="0" /><path
         id="path22"
         style="fill:#231f20;fill-opacity:1;fill-rule:nonzero;stroke:none"
         d="m 918.27,385.469 c -67.45,0 -123.348,44.851 -123.348,112.051 0,66.328 55.898,112.07 123.348,112.07 67.765,0 122.77,-45.742 122.77,-112.07 0,-67.2 -55.005,-112.051 -122.77,-112.051 m 0,187.969 c -49.149,0 -82.743,-33.29 -82.743,-75.918 0,-43.77 32.2,-76.192 82.743,-76.192 50.253,0 82.11,32.695 82.11,76.192 0,42.628 -31.857,75.918 -82.11,75.918"
         inkscape:connector-curvature="0" /><path
         id="path24"
         style="fill:#231f20;fill-opacity:1;fill-rule:nonzero;stroke:none"
         d="m 1203.65,385.723 c -70.87,0 -124.23,44.89 -124.23,112.058 0,66.067 54.17,111.809 124.23,111.809 41.8,0 71.68,-11.887 98.54,-31.594 l -20.96,-31.101 c -19.45,15.007 -44,25.988 -76.44,25.988 -51.7,0 -83.87,-32.735 -83.87,-75.102 0,-43.758 32.48,-75.32 84.41,-75.32 32.45,0 58.13,10.441 77.62,25.351 l 20.88,-31.035 c -26.79,-19.746 -58.38,-31.054 -100.18,-31.054"
         inkscape:connector-curvature="0" /><path
         id="path26"
         style="fill:#231f20;fill-opacity:1;fill-rule:nonzero;stroke:none"
         d="m 1642.9,442.773 -24.26,-51.406 -42.37,0 103.02,211.758 41.19,0 103.35,-211.758 -42.36,0 -24.25,51.406 -114.32,0 z m 16.36,34.422 81.62,0 -40.68,85.832 -40.94,-85.832"
         inkscape:connector-curvature="0" /><path
         id="path28"
         style="fill:#231f20;fill-opacity:1;fill-rule:nonzero;stroke:none"
         d="m 2031.56,391.387 0,90.586 -138.59,0 0,-90.586 -39.25,0 0,211.738 39.25,0 0,-86.426 138.59,0 0,86.426 39.26,0 0,-211.738 -39.26,0"
         inkscape:connector-curvature="0" /><path
         id="path30"
         style="fill:#231f20;fill-opacity:1;fill-rule:nonzero;stroke:none"
         d="m 2128.91,391.387 0,211.738 39.29,0 0,-98.809 106.39,98.809 48.2,0 -109.45,-101.953 113.99,-109.785 -52.74,0 -106.39,102.754 0,-102.754 -39.29,0"
         inkscape:connector-curvature="0" /><path
         id="path32"
         style="fill:#231f20;fill-opacity:1;fill-rule:nonzero;stroke:none"
         d="m 1479.32,525.496 -91.94,0 0,44.641 151.46,0 0,33.164 -190.71,0 0,-211.563 131.19,0 c 46.22,0 78.08,25.137 78.08,66.875 0,43.43 -31.86,66.883 -78.08,66.883 m 2.26,-98.758 -94.2,0 0,63.731 94.2,0 c 24.59,0 38.57,-12.969 38.57,-31.856 0,-20.859 -11.11,-31.875 -38.57,-31.875"
         inkscape:connector-curvature="0" /></g></g></svg>