<svg xmlns="http://www.w3.org/2000/svg" viewBox="0 0.5 349.9 80" enable-background="new 0 0.5 349.9 80"><g><path fill="#fff" d="M128.1 46.1c.3-.5.6-1 1-1.5h.2v10.9h4.9V37.1h-4.9l-5.5 8.4c-.3.5-.6.9-.9 1.4s-.6.9-.9 1.4h-.2V37.1h-4.9v18.4h4.9l2.7-3.9c.9-1.3 1.8-2.7 2.7-4l.9-1.5"/><path fill="#fff" d="M143.8 47.8h7.4v7.7h4.9V37.1h-4.9v7h-7.4v-7h-4.9v18.4h4.9zM176.5 49.6c0-1.9-.7-3.4-2-4.4s-3.1-1.6-5.3-1.6h-3.6V37h-4.9v18.5h8.7c2.1 0 3.8-.5 5.1-1.4 1.3-1 2-2.5 2-4.5m-5.7 1.7c-.5.4-1.1.5-1.9.5h-3.2v-4.5h3.1c.8 0 1.5.2 2 .6.5.4.7.9.7 1.7 0 .7-.2 1.3-.7 1.7M240 53.1c.9-.8 1.5-1.8 2.1-3 .5-1.2.8-2.5.8-4 0-1.4-.2-2.6-.7-3.8-.5-1.1-1.2-2.1-2-2.9-.9-.8-1.9-1.5-3.1-1.9-1.2-.5-2.5-.7-3.9-.8v-6.9l-4.6 1.8v5.2c-1.4.1-2.7.4-3.9.8-1.2.5-2.2 1.1-3.1 2-.9.8-1.6 1.8-2.1 2.9-.5 1.1-.8 2.4-.8 3.7 0 1.5.2 2.8.7 4s1.1 2.2 2 3 1.9 1.5 3.1 2c1.2.5 2.5.7 4 .8v7.8l4.7-1.8v-6.1c1.4-.1 2.6-.4 3.8-.8 1.1-.5 2.1-1.2 3-2m-11.6-.8c-.7-.1-1.4-.2-2-.5s-1.2-.7-1.6-1.2c-.5-.5-.8-1.1-1.1-1.8s-.4-1.5-.4-2.5c0-1.6.4-3 1.3-4.1.9-1.1 2.2-1.7 3.8-1.8v11.9zm6.5-.5c-.6.3-1.2.4-1.9.5V40.4c1.6.1 2.9.7 3.7 1.8.9 1.1 1.3 2.4 1.3 4.1 0 1-.1 1.8-.4 2.5-.3.7-.7 1.3-1.1 1.8-.4.5-1 .9-1.6 1.2M268.8 50.1c.5-1.2.8-2.5.8-4 0-1.4-.2-2.6-.7-3.8-.5-1.1-1.2-2.1-2-2.9-.9-.8-1.9-1.5-3.1-1.9-1.2-.5-2.5-.7-3.9-.8v-6.9l-4.6 1.8v5.2c-1.4.1-2.7.4-3.9.8-1.2.5-2.2 1.1-3.1 2-.9.8-1.6 1.8-2.1 2.9-.5 1.1-.8 2.4-.8 3.7 0 1.5.2 2.8.7 4s1.1 2.2 2 3 1.9 1.5 3.1 2c1.2.5 2.5.7 4 .8v7.8l4.7-1.8v-6.1c1.4-.1 2.6-.4 3.8-.8 1.2-.5 2.2-1.1 3.1-2 .8-.8 1.5-1.8 2-3m-13.6 2.2c-.7-.1-1.4-.2-2-.5s-1.2-.7-1.6-1.2c-.5-.5-.8-1.1-1.1-1.8s-.4-1.5-.4-2.5c0-1.6.4-3 1.3-4.1.9-1.1 2.2-1.7 3.8-1.8v11.9zm9.2-3.5c-.3.7-.7 1.3-1.1 1.8-.5.5-1 .9-1.6 1.2s-1.2.4-1.9.5V40.4c1.6.1 2.9.7 3.7 1.8.9 1.1 1.3 2.4 1.3 4.1.1.9-.1 1.8-.4 2.5"/><path fill="#fff" d="M96.8 33.5h7.2v22h5.1v-22h7v-4.3H96.8zM197 37.2h-5.6l-6.6 7.8v-7.9h-4.9v18.4h4.9v-9l6.4 9h5.8l-7.2-9.9zM213.5 39.3c-.8-.8-1.7-1.5-2.8-1.9s-2.3-.7-3.6-.7-2.5.2-3.6.7c-1.1.4-2.1 1.1-2.9 1.9-.8.8-1.4 1.8-1.9 3-.4 1.2-.7 2.5-.7 4.1 0 1.5.2 2.8.6 4 .4 1.2 1 2.2 1.8 3s1.7 1.5 2.8 1.9c1.1.5 2.3.7 3.7.7 1.3 0 2.5-.2 3.6-.7 1.1-.4 2.1-1.1 2.9-1.9.8-.8 1.4-1.8 1.9-3s.7-2.5.7-4.1c0-1.5-.2-2.8-.7-4-.4-1.2-1-2.2-1.8-3m-2.7 9.2c-.2.7-.4 1.3-.8 1.8-.3.5-.8.9-1.3 1.2s-1.1.4-1.7.4c-1.3 0-2.3-.5-3-1.5s-1.1-2.4-1.1-4.2c0-1.6.3-2.9 1-4s1.7-1.6 3-1.6c1.4 0 2.4.5 3.1 1.6.7 1 1.1 2.4 1.1 4.1-.1.8-.2 1.6-.3 2.2"/><path fill="#fff" d="M287.2 41.2c2.5 0 4.4.6 5.9 1.8 1.4 1.2 2.1 3 2.1 5.4 0 2.3-.7 4.1-2.1 5.3s-3.3 1.8-5.8 1.8h-10.1V30.9h15.7v2.6H280v7.7h7.2zm5.2 7.1c0-1.5-.4-2.6-1.3-3.4-.9-.8-2.1-1.2-3.7-1.2H280v9.2h7.4c1.6 0 2.9-.4 3.7-1.2.9-.7 1.3-1.9 1.3-3.4zM306 36.7c2.1 0 3.8.5 4.9 1.5s1.7 2.5 1.7 4.5v12.8H310v-1.8h-.1c-1 .9-2 1.5-2.9 1.7-1 .3-1.9.4-2.8.4-.7 0-1.5-.1-2.2-.3s-1.4-.6-2-1c-.6-.5-1.1-1.1-1.4-1.8-.4-.7-.5-1.6-.5-2.7 0-.9.2-1.7.5-2.4s.8-1.3 1.4-1.9c.6-.5 1.3-.9 2.2-1.2.8-.3 1.8-.4 2.8-.4.8 0 1.6.1 2.4.2.8.2 1.7.5 2.6 1V43c0-1.4-.4-2.5-1.1-3.1s-1.8-1-3.2-1c-.9 0-1.7.1-2.5.3s-1.6.5-2.3.9L300 38c.9-.4 1.8-.8 2.8-1 .9-.1 2-.3 3.2-.3zm4 10.9c-.8-.4-1.5-.8-2.3-1-.8-.3-1.7-.4-2.7-.4-1.2 0-2.2.3-3 1-.8.6-1.2 1.6-1.2 2.8s.4 2.1 1.1 2.8c.7.6 1.7.9 3 .9 1-.1 1.9-.3 2.8-.8s1.7-1.1 2.4-1.7l-.1-3.6zM329.1 55.5V47h-9.7v8.5h-2.7V37h2.7v7.6h9.7V37h2.7v18.5h-2.7zM349.6 37.1l-8.3 8.5 8.6 9.9h-3.2l-8-9.4v9.4H336V37.1h2.7v8.2l7.9-8.2h3z"/><g fill="#DEE1E3"><path d="M25.5 58.5c1.1-.9 2-1.3 2-3.5-1.7.9-6.5.8-8.5-1.9-.6-.8 0-1.2.6-.6 1.4 1.5 3.9.8 4.8.4-.1-.5-.6-1.2-.9-1.5.3-.3 1.3-.8 1.5-1.7-.5-.3-2.6-.5-2.6-.5.3-.3.7-.8.5-1.9-2.1.6-4.6-.2-5.2-1s0-1.5.5-1c1 1.1 6.1 2.3 8 .4-.7-.2-1.5-.8-1.6-1.2 1.8-.2 3.1-1.2 3.3-2.5-1 0-2.8-.1-3.4-.5.8-.3 1.4-.6 1.6-1.6-3.2-.2-3.5-2.6-3.5-3 2.1 1.2 5.8.7 4.8-2.3-1.7-.1-3.5-2.9 1.3-5.5 4.3-2.3 9.3-4.9 8.8-9-.3-2.7-4.7-4.5-5.2-5.8-1.8.9-2.2 1.9-1.4 3.6 0 0-4.1.4-4.4-2.1-.1-1.1.6-2.2 1.4-3-.5 0-3.5-.8-4.5 1.7-1.7-1.2-3.2-1.1-4.4.1 1.9 1.1 3 4.9 6.1 6-2.2 1.2-5.7.7-7.8-2.9-1.9 2.9-3.1 5.8 1.1 8.9-7.4 3.5-7.3 10.1-13.9 13.2.7 1.8 2.1 1.8 3.9 1.5-2.9 3.7-.4 7.6-4.9 9.2.4 1.5 1.3 2.7 2.9 2.3-.5.7-.8.7-1.6 1.5 2.5 1.6 5.4.4 6.1-4.6.1-.9 1.3-.3.9.5-2.8 5.9 4.3 10.3 1.8 14.6 2.2-.1 3.9-.3 4.8-1 .5.9.7 1.8.6 2.7 1.2-.2 1.7-1 1.8-1.8.8 2.3 3.7 4.9 8.3 4.9-2.4-3.6-.1-7.1-3.6-11.1M21 62.8l-1 1.7c-.4-1.1-1-2.2-1.4-3.1-.8 1.6-2 1.7-3.2 1.7.3-3.9-4.6-7.8-2.5-12.3.4-.9.2-2-.8-2.4-3.3-1.7-1.8 5.3-5.1 5.5.6-.8.9-2.4 1-2.6-.7.2-2.4 1.2-3.1-.1 1.9-1 2.5-2.6 2.8-4.2.4-2 .6-2.9.9-3.7.4-.9 1.1-1.6 2.4-3.4-.3.1-4 .8-4.9.4 6.4-3.9 5-8.9 14.7-13.4-2.6-1.9-5.2-3.4-3.3-7 2.7 3.2 7.7 2.1 10.5.6-2.7-.5-6.2-2.9-7-5.6 1-.2 2.3.9 3.1 1.5.4-1 .5-2.1 1.7-2.4-1.6 3.4 1.5 5.2 4.5 5.2.5 0 2.4-.2 2.4-.2-.3-.6-1.6-2.4-.6-3.1.7.7 1.6 1.2 2.4 1.8 5.8 4.5-2.8 8.7-6.3 10.5-5.5 3-4 6.5-1.7 7.4 0 .4-.3.6-.6.7-1.6.5-3.1-.6-4.4-1.3.1 2.2-.1 4.3 2.4 5.6l-1.7.6c1.5 1.1 1.9 1.7 3.6 1.9-.8.4-1.8.4-2.7.5.2.6.4 1.4.9 2-3.6.4-5-1.6-6.1-1.5-2.4.2-2.2 4.6 3.6 4.6l-.6 1s1.1.6 2.1.8c-.4.3-.8.7-1.1 1.1l.9.8c-2.4.4-3-2.1-4.6-.9-2.3 1.9 2.8 5.8 7.8 5.2-.4.5-1.6 1.3-2.1 1.7 4 3.8 2 7.4 3.7 10.1-3.4-.4-6-2.9-6.6-5.7M14.6 48.9c.8.9 1.9 1 3.8.8-2.1-.3-3.3-.8-4-2.2-.1-.7-.2-1.5-.2-2.3-.1-2.2.7-4.9 2.2-7.8 0 1.8 1.4 4.7 4.7 5.2-2.9-1.3-4.6-4.1-3.7-6.9.6-1 1.3-2 2-3 .4-.5.8-1 1.1-1.4-.4 1.4 1.3 2.9 2.5 3.1-.6-.6-1.9-2.6 1.1-5.8-.9.4-1.8 1-2.5 1.5 5.6-6 10.2-6.2 12.3-9.2-3 2.1-11.1 3.2-14.7 2.2 2 1.3 6.8 1.2 8 1-3.9 3.8-12.5 7.8-14 11.3 2.1-2.3 3.4-2.7 5.3-3.3-1.4 2.1-2.7 4-3.6 6.2-2.3 5-5.3 5-5.5 9.1 1-3.2 3.2-4 4.6-6.1-.3 1.3-.4 2.8-.3 4.5.1 1.9.4 3.5 1 4.9-.1 2 0 5.5 2.4 7.8-1.6-2-1.9-5.2-1.8-6.5 1.8 3.5 7 8.3 9.5 11.6-2.8-4.2-8.9-9.1-10.2-14.7M71.9 32.1c1.8.6 3.2 1 5.3 3.3-1.5-3.5-10.1-7.5-14-11.3 1.2.2 6 .4 8-1-3.6 1-11.7-.1-14.7-2.2 2.1 3 6.7 3.2 12.3 9.2-.7-.6-1.7-1.1-2.5-1.5 3.1 3.3 1.7 5.2 1.1 5.8 1.1-.2 2.8-1.7 2.5-3.1.4.4.7.9 1.1 1.4.8 1 1.4 2 2 3 .9 2.8-.8 5.6-3.7 6.9 3.2-.5 4.7-3.3 4.7-5.2 1.5 2.9 2.3 5.6 2.2 7.8 0 .8-.1 1.6-.2 2.3-.7 1.4-1.9 1.9-4 2.2 1.9.1 2.9 0 3.8-.8-1.3 5.6-7.5 10.5-10 14.7 2.5-3.3 7.7-8.1 9.5-11.6.1 1.3-.2 4.5-1.8 6.5 2.3-2.3 2.5-5.7 2.3-7.8.6-1.5 1-3.1 1-4.9.1-1.7-.1-3.2-.3-4.5 1.5 2.1 3.6 2.9 4.6 6.1-.2-4.1-3.3-4.2-5.5-9.1-1-2.2-2.3-4.1-3.7-6.2M81.8 41.3c1.8.3 3.2.3 3.9-1.5-6.6-3.1-6.6-9.8-14.2-13.2 4.2-3.1 3.1-6 1.1-8.9-2.1 3.6-5.6 4.1-7.8 2.9 3.1-1.1 4.2-4.9 6.1-6-1.2-1.2-2.6-1.3-4.4-.1-.9-2.5-4-1.7-4.5-1.7.8.8 1.6 1.9 1.4 3-.3 2.5-4.4 2.1-4.4 2.1.8-1.7.5-2.7-1.4-3.6-.6 1.4-4.9 3.2-5.2 5.8-.4 4.2 4.5 6.7 8.8 9 4.8 2.6 3 5.4 1.3 5.5-1 3 2.7 3.5 4.8 2.3 0 .4-.3 2.8-3.5 3 .3.9.8 1.2 1.6 1.6-.6.5-2.5.5-3.4.5.1 1.3 1.5 2.3 3.3 2.5-.1.4-.9 1-1.6 1.2 1.9 1.9 7 .6 8-.4.5-.5 1.1.2.5 1s-3.1 1.6-5.2 1c-.2 1.2.2 1.6.5 1.9 0 0-2 .2-2.6.5.2.9 1.2 1.4 1.5 1.7-.3.3-.8 1-.9 1.5.9.4 3.5 1.1 4.8-.4.6-.6 1.2-.2.6.6-2 2.7-6.8 2.8-8.5 1.9 0 2.2.9 2.6 2 3.5-3.5 4-1.2 7.5-3.6 11 4.6 0 7.5-2.5 8.3-4.9.1.8.5 1.6 1.8 1.8-.1-.9.2-1.8.6-2.7.9.8 2.6.9 4.8 1-2.5-4.3 4.6-8.7 1.8-14.5-.4-.9.8-1.4.9-.5.7 5 3.6 6.1 6.1 4.6-.7-.8-1.1-.8-1.5-1.5 1.7.4 2.5-.8 2.9-2.3-4.2-1.6-1.8-5.5-4.7-9.2m.4 10c.1.1.3 1.8 1 2.6-3.3-.2-1.8-7.1-5.1-5.5-.9.5-1.2 1.6-.8 2.4 2.2 4.5-2.8 8.4-2.5 12.3-1.2 0-2.5 0-3.3-1.7-.4.8-1 2-1.4 3.1l-1-1.7c-.6 2.8-3.2 5.3-6.7 5.6 1.7-2.6-.3-6.2 3.7-10.1-.5-.4-1.7-1.2-2.1-1.7 5 .6 10.1-3.3 7.8-5.2-1.5-1.2-2.2 1.3-4.6.9l.9-.8-1.1-1.1c1-.1 2.1-.8 2.1-.8l-.6-1c5.8 0 6-4.5 3.6-4.6-1.1-.1-2.5 2-6.1 1.5.5-.6.6-1.4.9-2-.9-.1-1.9-.1-2.7-.5 1.7-.2 2.2-.8 3.6-1.9l-1.7-.6c2.4-1.2 2.3-3.4 2.4-5.6-1.3.7-2.8 1.9-4.4 1.3-.4-.1-.6-.3-.6-.7 2.3-.9 3.8-4.4-1.7-7.4-3.5-1.9-12.1-6.1-6.3-10.6.8-.6 1.7-1.2 2.4-1.8.9.7-.3 2.4-.6 3.1 0 0 1.9.2 2.4.2 3 0 6.1-1.8 4.5-5.2 1.2.2 1.3 1.4 1.7 2.4.8-.5 2.1-1.6 3.1-1.5-.8 2.7-4.3 5-7 5.6 2.7 1.5 7.8 2.6 10.5-.6 1.9 3.6-.7 5.1-3.3 7 9.8 4.4 8.3 9.4 14.7 13.4-.8.4-4.5-.4-4.9-.4 1.4 1.8 2 2.6 2.4 3.4.4.8.6 1.7.9 3.7.3 1.6.9 3.2 2.8 4.2-.5 1.5-2.2.4-2.9.3M35.8 62.2l1.4-1.2-.2-.4c-.2-.3-.1-.3.1-.4l.7-.5c.2-.1.3-.1.6-.1l2.2.5h-2.3c-.5 0-.7.2-.9.6l-.2.3-.6 1.2c-.2.4-.3 1 .2 1.6l.4.5-.9 1.7h.7l.6-1.2s.9-.8 1.1-1.7c-.3-.2-.4-.3-.3-.6l.3-.6c.1-.2.1-.3.4-.2l2.3.5c.3.1.7.2 1-.3s.4-.4 1.1-.4l1.2.1c1.6.2 3.2-.3 3.9-.7.2.5.7.9.9 1.3.1.1 0 .3-.1.6L48 66.1h2l1.2-2.9c.1-.3.3-.5.4-.6l-.7 3.5h2l.5-3.5c.1-.8 0-1-.3-1.3-.8-.7-.8-2.2-1.1-3.1.1-.1.3-.1.5-.1.4 0 .8 1.1 1.3 1.9 1 1.4 2.4 3 4 .8-.2-.3-.3-.5-.5-.7l-.4-.5c-.3-.3-1.5-1.7-2-2.2-1.2-1.2-3-1-3.7-.4-1.6-.8-3.3 0-3.7 0l-2.8-.2c-.1 0-.3-.1-.5-.3l.5-.2c-.5-2-1.7-3.7-3.8-4 0 0-.1-.6-.4-.8l-.6.7c-.2 0-.4.1-.5.1l-2.7-1 2 2.1s-1.1 1.5-1.4 1.8c-.2.3-.2.5 0 .8l.4.5c.2.3.4.3.8.1l.4-.2c.2-.2.8.2 1.1-.1-.2.6-.3 1.1-.3 1.6l-1.8-.2c-.4-.1-.6 0-.8.2l-1.6 1.2c-.5.4-.7 1.1-.4 1.7l.7 1.4zm15 .3l-1.2 3h-.8l1.2-2.9c.1-.4-.1-.6-.4-1 .5.3.8.4 1.3.6 0 .2 0 .2-.1.3m-11.9-6.6l-.4.2c-.2.1-.4.2-.6-.1l-.2-.2c-.1-.1-.1-.3.1-.5l1.5-1.8-1.3-1 1.8.7.7-.8c.2.2.1.6.1.6.7 0 2.8 1 2.9 3.6 0 0 .5.7 1.1.7l3.1.2c.5 0 1.8-1 3.4-.1.4-.3.9-.5 1.3-.5 1.4-.1 2.5.9 3.3 1.9.6.7 1.4 1.9 1.4 1.9-.3.4-.7.5-1 .4-.4-.2-.6-.6-.7-1-.2-.8-1-1.4-1-1.4.3.5.3 1.1.5 1.6-1.2-1.2-1.4-2.7-2.3-2.9-.4-.1-.8.1-1.2.5.4 1 .4 2.1.8 2.9.3.6.4.6.5.7.4.3.2.7.1 1l-.5 2.9h-.8l.5-2.8c.2-.9-2.2-.9-3.5-2.5-1 1.2-4 .9-5.2.7-.5-.1-1 0-1.3.5-.2.3-.4.2-.6.2l-2.3-.5c-.4-.1-.6 0-.8.4l-.5 1c-.1.2-.1.4.1.6l.2.2c-.1.5-.6.8-.6.8l-.3-.5c-.2-.3-.3-.7-.1-1.1l.7-1.6c.1-.2.2-.4.6-.4h2.9l-.9-1.4c-.7-1.1.4-3 .3-3.9-.1 1.2-1.6.7-1.8.8m-3.1 3.6l1.4-1c.2-.2.4-.3.7-.3l1.9.3c.1.5.4.9.4.9l-2-.4c-.3 0-.4 0-.6.2l-1 .7c-.2.2-.2.4-.1.6l.2.3-.7.5-.3-.5c-.3-.5-.3-.9.1-1.3M41.7 22.8c.7.5 2.1 1.1 2.1 1.1V23l-2.9-1.1s0 .3.8.9M43.8 21.7v-.9l-3.3-1.2s.4.4 1.2 1c.7.6 2.1 1.1 2.1 1.1M43.8 19.8v-.9l-3.6-1.3s.7.6 1.5 1.1c.7.5 2.1 1.1 2.1 1.1M53.9 31.7h3.7c-.2-.5-.7-1.1-1.8-1.1s-1.7.6-1.9 1.1M50 17.6l-3.6 1.3v.9s1.3-.5 2.1-1.1c.8-.6 1.5-1.1 1.5-1.1M49.3 21.9L46.4 23v.9s1.3-.5 2.1-1.1c.8-.6.8-.9.8-.9M49.7 19.7l-3.3 1.2v.9s1.3-.5 2.1-1.1 1.2-1 1.2-1M34.4 30.6c-1.1 0-1.6.5-1.8 1.1h3.7c-.2-.5-.8-1.1-1.9-1.1"/><path d="M52.4 15.2c0-2.1-3.5-3.9-7.3-3.9s-7.3 1.9-7.3 3.9l.1.5 1.5 8.8-7.2 4.2c-.8.5-1.7 1.7-1.9 3h1.3c.2-1.3 1.2-2.6 3.1-2.6 1.7.1 2.7 1.1 3.6 2.6l.3.4.4.6H28.3c.8 1.6 1.5 3.2 1.5 5v22.1c0 5.7 4.4 8.4 9.1 8.4 3.7 0 4.1-.2 6.2 1.9 2-2 2.5-1.9 6.2-1.9 4.7 0 9.1-2.7 9.1-8.4V37.7c0-1.8.7-3.5 1.5-5H51.2l.4-.6.3-.4c1-1.4 2-2.5 3.6-2.6 1.8-.1 2.8 1.3 3.1 2.6h1.3c-.1-1.3-1.1-2.5-1.9-3l-7.2-4.2 1.5-8.8.1-.5zm-13.1 1l5.4 1.8v8.5l-4-2.1-1.4-8.2zm1.3 17.9c.7 1 1.9 1.7 3.2 2 .1.5.4 1.1.9 1.5-.2 1.5.4 2.9 2 3.3.2.8.6 1.3 1.4 1.6L47 43.8c-.4.5-1 .7-1.5.6l-5-.6c.2-.6-.4-1.2-2-.9l2-5.5-1.2-2.6-2.3 2v5.8l-1-.5c-1.3-.6-1.7 1.8-.4 1.8h.5c0 .2 0 .5.2.6-.2.1-.3.5 0 .7-.3.1-.3.6-.1.8-.3.4-.3 1.4.6 1.6.7.2 1.2-.6 1.3-1l7.8 2.4c1.1.3 1.9.1 2.8-.7l2-1.8c-.3 1.2.2 2.2 1.1 2.6 0 0-.1 1-.1 1.5H31.3V37.7c0-1.2-.3-2.4-.8-3.5h10.1v-.1zM49 39c-.4.8-.4 1.8.1 2.6l-.3.3c-1.5-.2-2.1-2.4-2.1-2.4v.6c-.9-.3-1.4-1.1-1.4-2.1.3.2.7.3 1.1.4l.1-.6c-1-.2-1.6-.8-1.9-1.6h-.1.6c.6 0 1.2-.1 1.7-.3.4.6 1.2 1 1.9 1.1 0 .6 0 1.3.3 2m2.2 5.8c-.1.2-.3.4-.3.7l-.8.8c.2-1.2-.6-2.6-1.4-3.2l.9-.9.2.2c-.4.8.2 2.3 1.4 2.4m-3.9-.3l.7-.7c.7.6 1.6 1.9 1.3 3.2l-.7.7c-.1.1-.3.3-.5.4.4-1.2-.2-2.9-.8-3.6m-1.5.5c.3 0 .5 0 .8-.1.5.7.9 2.4.3 3.5-.3 0-.7-.1-1-.1l-.3-.1c.5-.8.4-2.3.2-3.2m-1.7-.2l1 .1c.1.8.1 2.2-.5 2.9l-1.1-.3c.5-.6.7-2 .6-2.7m-2-.2l1.2.1c.1.6-.1 2-.5 2.6l-1.2-.3c.4-.6.6-1.7.5-2.4m-4.7-.3c-.5.2-.8-.2-.8-.5 1.1-.4 1.5-.1 1.8.1.3.2.5.7.9 1-.1.4-.2 1.1-.4 1.5-1.1-.3-1.1-1.2-.7-1.8-.1-.4-.3-.5-.8-.3m-.7 2.1s.3.1.7.2c0 .2-.2.4-.5.4-.2-.1-.3-.4-.2-.6m-1.1-3.1c-.3-.2-.1-.6.1-.6.3 0 .8.4 1.2.6 0 0-1.1.1-1.3 0m1.1 2.2c.2.2.9.1.9.1v.1c-.2.5-1.1.3-.9-.2m.9-.4c-.5.2-1-.1-.9-.4.2.2.9.1.9.1v.3zm.8-5.9l-1 3.5.3-5.6 1.5-1.3.8 1.7-1.9 5.5.5-3.7c0-.3-.2-.3-.2-.1m.1 4.3s1.1-.1 1.4.1c.2.1.1.5-.2.4-.4-.1-1.2-.5-1.2-.5m1.6.8l1.2.1c.1.6-.1 1.7-.5 2.3l-1.1-.2c.3-.8.3-1.4.4-2.2m18.7 15.5c0 2.7-1.2 4.7-3.3 5.9l.7-1.5h-.7l-1 1.9c-1 .4-2.1.6-3.3.6-3.8 0-4.8.2-6.2 1.5-1.4-1.4-2.4-1.5-6.2-1.5-1.2 0-2.3-.2-3.3-.6l1-1.9h-.7l-.8 1.6-.6-.3.7-1.4h-.7l-.5 1c-1.6-1.2-2.6-3.1-2.6-5.4v-8.5h27.5v8.6zm.8-25.7c-.4 1.1-.8 2.3-.8 3.5v12.9h-1.5c-.7-.7-1.3-2.9-1.3-2.9-.4.8.1 2.4.5 2.9h-1.9c-.5-.6-.9-2.9-.9-2.9-.6.7-.2 2.4.1 2.9h-1.3c-.1-.9.2-1.9.2-1.9-.7-.1-1.4-.5-1.4-1.2.3.3.5.3.9.3l.5-.4c-1.8.1-1.9-1.9-.5-2.9-1.4 0-2.5-.8-2-2.3-1-.5-1.4-2.3-.6-3-.5-.6-.6-1.8-.3-2.6-.7 0-1.5-.3-2-.8h-.1c.9-.4 1.7-.9 2.2-1.7h10.2v.1zm-5.5-6.2c-1.5.3-2.8 2.1-3.8 3.7l-.1.2h-1.1v.2c-.1 1.3-1.3 3-4 3-1.2 0-2.2-.4-2.8-.9-.6-.4-.9-1-1.1-1.5-.1-.2-.1-.4-.1-.6v-.2H40l-.1-.2c-1.1-1.6-2.3-3.5-3.8-3.7l4.1-2.4 5 2.7 5-2.7 3.9 2.4zm-4.6-3.5l-4 2.1v-8.4l5.4-1.8-1.4 8.1zm-4.4-7.3l-5.9-2.3c.5-1.2 2.8-2.2 5.9-2.2s5.4 1 5.9 2.2l-5.9 2.3zM58.2 42.5v-.6c-2 0-2.4-2.4-2.4-2.4-.6 1.7.9 3 2.4 3M55.7 46.4l-.2-.6c-1.7.4-2.6-2.2-2.6-2.2-.5 1.9 1.4 3.3 2.8 2.8M56.9 44c-2 .3-2.9-2-2.9-2-.2 1.3.6 2.6 1.9 2.7-.3 1.7 1.3 2.5 2.6 1.9l-.2-.6c-1.1.4-2.2-.8-1.4-2M55.7 37.2v-.6c-2.7-.6-2.4-2.4-2.4-2.4-.6 1.7.9 3 2.4 3"/><path d="M38.8 64.1l-1 2h.7l1-2zM40.2 64.1l-1 2h.8l.9-2zM46 64.1l-1 2h.7l1-2zM47.4 64.1l-.9 2h.7l.9-2zM44.5 64.1l-.9 2h.7l1-2zM53 66.1h.7l1-2h-.8zM41.6 64.1l-.9 2h.7l1-2zM43.1 64.1l-1 2h.8l.9-2zM39.8 53.7c-.1 0-.2.1-.2.3s.1.3.2.3.3-.1.3-.3c0-.1-.1-.3-.3-.3"/><path d="M45.1 10c3 0 5.3 1 6.6 2 0 0 .4-2.4 1.7-4.4l-2.4.3-1.2-2.7-2.4 1.3-2.3-2.3-2.3 2.3-2.4-1.2L39.1 8l-2.4-.3c1.3 2.1 1.7 4.4 1.7 4.4 1.4-1.1 3.7-2.1 6.7-2.1m-5.6-1.1l1.2-2.4 2.1 1.1 2.3-2.3 2.3 2.3 2.1-1.1 1.1 2.4 1.4-.2c-.4.7-.6 1.3-.9 2.1-1.5-.9-3.8-1.6-6.1-1.6s-4.6.7-6.1 1.6c-.3-.8-.5-1.4-.9-2.1l1.5.2zM47.5 5.2c.3 0 .7-.2.7-.6 0-.3-.5-1.3-.5-1.3s-.7.9-.7 1.2c-.1.4.2.7.5.7M51.4 6.6c.3.2.7 0 .9-.3s.1-1.3.1-1.3-1 .5-1.2.8c-.2.3-.1.7.2.8M42.7 5.2c.4 0 .6-.3.6-.7 0-.3-.8-1.2-.8-1.2s-.6 1-.5 1.3c0 .4.3.6.7.6M38.7 6.6c.4-.1.5-.5.3-.8-.2-.3-1.2-.8-1.2-.8s-.1 1 .1 1.3c.2.4.5.5.8.3M85.7 28.1c.8-.3 1.5-1.1 1.8-1.8-2.1-.3-7.8-2.7-12.4-.7 1.7-1.6 3.3-1.9 3.4-4.2.7.5 1.9.8 2.6-.4-.5-1.4-1.7-.3-1.9-.7-.2-.5 1.5.2 1.9-1.7-1.4-.5-1.8.6-2 .4s.9-.7.1-2.2c-1.4.8-.7 1.8-1 1.9-.4.1-.1-1-1.7-.9-.2 1.7 1.5 1.7 1.2 2s-.7-1-1.9-.3c0 1.4 1.1 2.1 2.3 1.8-.2 2.6-2.6 2.1-4.3 5 3.7 1.9 5.4 5.3 7.8 7.6.8-.5 2.1-2.9 2.1-2.9 2.5 1.9 4.3 0 4.3 0-1-1-1-1.7-2.3-2.9m-3.7.5c.3.6.8 2.6-.5 4.1-1.4-2.8-3.3-5.2-4.9-6.2-.3-.2.2-.6 1.1-.7 2.9-.5 6.3.7 7.9 1.1-.7.6-1.4.8-2.1.9 1.2 1 2 1.8 2.6 2.7-1 .3-1.6-.4-4.1-1.9"/><path d="M44.4 74.1l-1.6-.1-.2.7h.2c.1 0 .1-.1.1-.2 0 0 .3-.1.6 0l.7.1c-.4.8-1.5 1.6-1.4 2.2 0 .3.3.4.5.3.3 0 .4-.2.5-.6.2-.8.6-1.5.9-2.4h-.3zM45.5 75.1v-.5h1.4l-.1-.6c-.4 0-1 .1-1.5.1l-.1 1.1c.7 0 1.1.3 1.1.9 0 .3-.2.7-.5.8h-.2c-.1-.1 0-.2 0-.4s-.2-.3-.4-.3-.3.2-.3.4c0 .4.6.5.9.5.6 0 1.2-.3 1.2-1 .1-.8-.8-1-1.5-1M48.6 74c-.5 0-.9.4-.9.9 0 .8.9 1.1 1.5.8.1.6 0 1.1-.3 1.1-.2 0-.2-.2-.2-.3-.1-.2-.2-.3-.4-.2-.3 0-.3.2-.3.3.1.3.5.3.7.3.8-.1 1.2-.7 1.2-1.4 0-.8-.5-1.5-1.3-1.5m.3 1.5c-.5 0-.6-.8-.6-1.2 0-.1.1-.3.2-.3.5 0 .6 1.1.6 1.4 0 .1-.1.1-.2.1"/><path d="M41.6 73.8c-.1.1-.4.5-1.2 1.1l.1.1c.1 0 .2-.1.4-.2l-.4 1.5c0 .1-.1.1-.2.1H40v.2l1.4.3v-.2l-.2-.1c-.1 0-.1-.1-.1-.2l.7-2.6h-.2zM57.9 71.8v-3.2c-2.4 1.1-5.6 2-9.6 2.4l-.2 1.1c.3 0 .8.1 1.3.1-1.5.2-3.4.3-4.5.3s-3-.1-4.5-.3c.6 0 1-.1 1.3-.1l-.2-1.1c-4-.4-7.1-1.3-9.6-2.4v3.2l-3.3 1.4c2.5 1.3 5.3 2.3 8.6 3.2l-.4 1.3c1.9.5 4.9 1.1 8 1.1s6.1-.6 8-1.1l-.4-1.3c3.3-.8 6.1-1.9 8.6-3.2l-3.1-1.4zm-27.2 1.5l2.2-.9v-2.6c1.4.6 3.3 1.1 6 1.7l-1.3 4.1c-2.7-.6-5-1.5-6.9-2.3M45.1 78c-2.5 0-5-.4-7.1-.9l1.3-4.3c.9.2 3.1.5 5.8.5s4.9-.3 5.8-.5l1.3 4.3c-2.1.6-4.6.9-7.1.9m7.4-2.4l-1.3-4.1c2.7-.6 4.6-1.1 6-1.7v2.6l2.2.9c-1.8.8-4.1 1.7-6.9 2.3M6.6 30.9s1.3 2.4 2.1 2.9c2.3-2.3 4-5.7 7.8-7.6-1.8-2.9-4.2-2.4-4.3-5 1.1.3 2.2-.4 2.3-1.8-1.2-.7-1.6.6-1.9.3-.3-.3 1.4-.3 1.2-2-1.6 0-1.3 1.1-1.7.9-.3-.1.4-1-1-1.9-.8 1.5.3 1.9.1 2.2-.2.3-.7-.9-2-.4.4 1.8 2.1 1.1 1.9 1.7-.2.4-1.4-.8-1.8.7.7 1.2 1.9.9 2.6.4.1 2.4 1.7 2.6 3.4 4.2-4.6-1.9-10.3.4-12.4.7.3.7 1 1.5 1.8 1.8-1.3 1.2-1.3 1.9-2.2 2.8-.2.1 1.6 2 4.1.1M4 30.5c.6-.9 1.5-1.8 2.6-2.7-.8-.1-1.4-.3-2.1-.9 1.6-.4 5-1.6 7.9-1.1.9.1 1.5.5 1.1.7-1.6 1-3.5 3.4-4.9 6.2-1.2-1.5-.7-3.5-.4-4.1-2.5 1.5-3.1 2.2-4.2 1.9"/><path d="M43.1 29.1v1.4c.5-.6 1.4-.5 1.4-.5v2s0 1-.4 1.4h2c-.3-.4-.4-1.4-.4-1.4v-2s.9-.1 1.4.5v-1.4h-4z"/></g><path fill="#fff" d="M89.1 29.7c-.2-.3-.4-.5-.6-.8-.1-.2-.2-.3-.3-.5.3-.4.6-.9.9-1.4l.9-2-2.2-.3c-.4-.1-1-.2-1.7-.4-1.4-.4-3.1-.8-5-1 .6-.3 1.2-.8 1.6-1.5l.4-.7s-.1-.9-.5-1.2l.3-.9.3-1.5-1.4-.5c-.2-.1-.4-.1-.7-.2-.1-.3-.2-.6-.4-.8l-.8-1.5-1.5.9c-.4.2-.7.5-1 .8-.2 0-.5-.1-.7-.1 0 0-.9-.1-1.8.2L73.7 15l-1.5-1.5c-1.3-1.4-3.2-1.9-5-1.2-.7-.7-1.8-1.3-3.5-1.3-.6 0-1.1.1-1.4.1 0 0-2.4.4-3.7 1.7L57 12c-1.1 1.7-2.9 2.2-2.9 2.2-.1-.5-.3-1-.7-1.4l.1-.6s.4-2.1 1.5-3.8l1.9-3-2.7.3v-1l-.4-2.2-2.1 1-.6.3-.4-.9-1 .5c-.1-.2-.2-.5-.4-.8L48.1.5l-1.6 1.7c-.2.2-.3.3-.4.5l-1-1-1 1c-.1-.2-.3-.3-.4-.5L42.1.5 41 2.6c-.2.3-.3.6-.4.8l-1-.5-.4.9c-.2-.1-.4-.2-.7-.3l-2.2-1-.2 2.3v1l-2.7-.3 1.9 3c1.1 1.7 1.5 3.8 1.5 3.8l.1.6c-.3.4-.5.9-.7 1.4 0 0-1.7-.7-2.9-2.2l-1.7.8c-1.9-1.3-3.1-1.8-5.1-1.8-1.7 0-2.8.6-3.5 1.3-1.9-.7-3.7-.3-5 1.2 0 0-.9 1-1.4 1.5-.6.6-1.4 1.1-1.4 1.1s-1.2-.3-2.4 0c-.3-.3-.6-.5-1-.8l-1.5-.9-.8 1.5c-.2.3-.3.6-.4.8-.2 0-.4.1-.7.2l-1.3.5.3 1.5c.1.3.2.7.3.9-.1.2-.2.3-.2.5l-.2.7.4.7c.4.7.9 1.2 1.6 1.5-1.9.2-3.6.7-5 1-.7.2-1.3.3-1.7.4L.4 25l.5 1.1.4.9c.2.5.5 1 .9 1.4-.1.2-.7 1.1-.9 1.3L0 30.9l1.1 1.2c.1.1 1.3 1.4 3.3 1.4.5 0 1.1-.1 1.6-.3.5.8 1.1 1.6 1.7 2-1 1.2-2.2 2.3-3.9 3.1l-1.4.7.6 1.6c.4 1 1.2 2 2.6 2.4-.3.9-.5 1.8-.6 2.6-.3 1.9-.5 2.7-2.1 3.3l-1.5.6.4 1.5c.3 1.2.9 2.1 1.4 2.6l-1 1.1s2.4 1.8 4.7 2c0 0 2 .1 2.9-1 .4 1.3.9 2.5 1.4 3.5 1 2.2 1.6 3.5.9 4.7l-1.6 2.7 3.1-.1c1.4-.1 2.6-.1 3.7-.4v.2l-.3 2.3 2.7-.6c.3-.1.6-.2.8-.3 1.7 2 4.6 3.5 8.4 3.5h.2L24.6 73l3.2 1.7c2.1 1.1 4.5 2 7.2 2.8v1.3l1.6.5c.9.3 4.3 1.2 8.5 1.2s7.5-.9 8.5-1.2l1.6-.5-.4-1.3c2.7-.8 5.1-1.7 7.2-2.8l3.2-1.7-4.5-1.8h.2c3.9 0 6.8-1.5 8.4-3.5.2.1.5.2.8.3l2.7.6-.3-2.3v-.2c1.1.3 2.4.4 3.7.4l3.1.1-1.3-2.7c-.7-1.2-.1-2.5.9-4.7.5-1.1 1.1-2.3 1.4-3.5.6.5 1.2.7 1.9.9l1 .2c1.4 0 2.1-.3 3-.9l1.7-1.1-1-1.1c.6-.5 1.1-1.4 1.4-2.6l.4-1.5-1.5-.5c-1.7-.6-1.8-1.4-2.1-3.3-.1-.8-.3-1.7-.6-2.6 1.5-.4 2.2-1.5 2.6-2.4l.6-1.6-1.4-.7c-1.7-.8-2.9-1.9-3.9-3.1.6-.4 1.2-1.2 1.7-2 .5.2 1 .3 1.6.3 2 0 3.2-1.3 3.3-1.4l1.1-1.2-1-1.4z"/><path fill="#FFE600" d="M31.3 50.6V37.7c0-1.2-.3-2.4-.8-3.5h10c.9 1.3 2.6 2.1 4.5 2.1s3.6-.8 4.5-2.1h10c-.4 1.1-.8 2.3-.8 3.5v12.9H31.3zm13.8 17.6c-1.4-1.4-2.4-1.5-6.2-1.5-4.5 0-7.6-2.6-7.6-6.9v-8.5h27.5v8.5c0 4.2-3.1 6.9-7.6 6.9-3.7 0-4.7.1-6.1 1.5"/><path fill="#fff" d="M32.9 69.8v2.6l-2.2.9c1.9.9 4.2 1.7 7 2.3l1.3-4.1c-2.7-.6-4.6-1.1-6.1-1.7M45.1 73.3c-2.6 0-4.9-.3-5.8-.5L38 77.2c2.1.5 4.6.9 7.1.9s5-.4 7.1-.9l-1.3-4.3c-.9.1-3.2.4-5.8.4"/><path fill="#fff" d="M57.2 69.8c-1.4.6-3.3 1.1-6 1.7l1.3 4.1c2.8-.6 5.1-1.5 7-2.3l-2.2-.9-.1-2.6zM28.3 28.2c3.5-1.9 12.1-6.1 6.3-10.5-.8-.6-1.7-1.2-2.4-1.8-.9.7.3 2.4.7 3.1 0 0-1.9.2-2.4.2-3 0-6.1-1.8-4.5-5.2-1.2.2-1.3 1.4-1.7 2.4-.8-.5-2.1-1.6-3.1-1.5.8 2.7 4.3 5 7 5.6-2.7 1.5-7.8 2.6-10.5-.6-1.9 3.6.7 5.1 3.3 7-9.7 4.4-8.3 9.4-14.7 13.4.8.4 4.5-.4 4.9-.4-1.4 1.8-2 2.6-2.4 3.4-.4.8-.6 1.7-.9 3.7-.3 1.6-.9 3.2-2.8 4.2.5 1.3 2.2.2 2.9.1-.1.1-.3 1.8-1 2.6 3.3-.2 1.8-7.1 5-5.5.9.5 1.2 1.6.8 2.4-2.2 4.5 2.7 8.4 2.5 12.3 1.2 0 2.5 0 3.2-1.7.4.8 1 2 1.4 3.1l1-1.7c.6 2.8 3.2 5.3 6.7 5.6-1.7-2.6.3-6.2-3.7-10 .5-.4 1.7-1.2 2.1-1.7-5 .6-10.1-3.3-7.8-5.2 1.5-1.2 2.2 1.3 4.6.9l-.9-.9 1.1-1.1c-1-.1-2.1-.8-2.1-.8l.6-1c-5.8 0-6-4.5-3.6-4.6 1.1-.1 2.5 2 6.1 1.5-.5-.6-.6-1.4-.9-2 .9 0 1.9 0 2.7-.4-1.7-.2-2.2-.8-3.6-1.9l1.7-.6c-2.4-1.2-2.3-3.4-2.4-5.6 1.3.7 2.8 1.9 4.4 1.3.4-.1.6-.3.6-.7-2.3-.9-3.7-4.4 1.8-7.4m-4.2.4c-3.1 3.3-1.7 5.2-1.1 5.8-1.1-.2-2.8-1.7-2.5-3.1-.4.4-.7.9-1.1 1.4-.8 1-1.4 2-2 3-.9 2.8.8 5.6 3.7 6.9-3.2-.5-4.7-3.3-4.7-5.2-1.5 2.9-2.3 5.6-2.2 7.8 0 .8.1 1.6.2 2.3.7 1.4 1.9 1.9 4 2.2-1.9.1-2.9 0-3.8-.8 1.3 5.6 7.4 10.5 9.9 14.7C22 60.3 16.8 55.5 15 52c-.1 1.3.2 4.5 1.8 6.5-2.3-2.3-2.5-5.7-2.3-7.8-.6-1.5-1-3.1-1-4.9 0-1.7.1-3.2.3-4.5-1.5 2.1-3.6 2.9-4.6 6.1.2-4.1 3.3-4.2 5.5-9.1.9-2.2 2.2-4 3.6-6.2-1.8.6-3.2 1-5.3 3.3 1.5-3.5 10.1-7.5 14-11.3-1.2.2-6 .4-8-1 3.6 1 11.7-.1 14.7-2.2-2.1 3-6.7 3.2-12.3 9.2.9-.5 1.8-1.1 2.7-1.5M82.5 47c-.4-2-.6-2.9-.9-3.7-.4-.9-1.1-1.6-2.4-3.4.3 0 4 .8 4.9.4-6.4-3.9-5-8.9-14.7-13.4 2.6-1.9 5.2-3.4 3.3-7-2.7 3.2-7.7 2.1-10.5.6 2.7-.5 6.2-2.9 7-5.6-1-.2-2.3 1-3.1 1.5-.4-1-.5-2.1-1.7-2.4 1.6 3.4-1.5 5.2-4.5 5.2-.5 0-2.4-.2-2.4-.2.3-.6 1.6-2.4.6-3.1-.7.7-1.6 1.2-2.4 1.8-5.8 4.5 2.8 8.7 6.3 10.5 5.5 3 4 6.5 1.7 7.4 0 .4.3.6.6.7 1.6.5 3.1-.6 4.4-1.3-.1 2.2.1 4.3-2.4 5.6l1.7.6c-1.5 1.1-1.9 1.7-3.6 1.9.8.4 1.8.4 2.7.5-.2.6-.4 1.4-.9 2 3.6.4 5-1.6 6.1-1.5 2.4.2 2.2 4.6-3.6 4.6l.6 1s-1.1.6-2.1.8c.4.3.8.7 1.1 1.1l-.9.8c2.4.4 3-2.1 4.6-.9 2.3 1.9-2.8 5.8-7.8 5.2.4.5 1.6 1.3 2.1 1.7-4 3.8-2.1 7.4-3.7 10 3.5-.2 6.1-2.8 6.7-5.6l1 1.7c.4-1.1 1-2.2 1.4-3.1.8 1.6 2 1.7 3.3 1.7-.3-3.9 4.6-7.8 2.5-12.3-.4-.9-.2-2 .8-2.4 3.3-1.7 1.8 5.3 5.1 5.5-.6-.8-.9-2.4-1-2.6.7.2 2.4 1.2 3.1-.1-2.1-1.1-2.7-2.7-3-4.2m-6.1-5.7c.3 1.3.4 2.8.3 4.5-.1 1.8-.4 3.5-1 4.9.1 2 0 5.5-2.3 7.8 1.6-2 1.9-5.2 1.8-6.5-1.8 3.5-7 8.3-9.5 11.6 2.5-4.2 8.6-9.1 10-14.7-.8.9-1.9 1-3.8.8 2.1-.3 3.3-.8 4-2.2.1-.7.2-1.5.2-2.3.1-2.2-.7-4.9-2.2-7.8 0 1.8-1.4 4.7-4.7 5.2 2.9-1.3 4.6-4.1 3.7-6.9-.6-1-1.3-2-2-3-.4-.5-.8-1-1.1-1.4.4 1.4-1.3 2.9-2.5 3.1.6-.6 1.9-2.6-1.1-5.8.9.4 1.8 1 2.5 1.5-5.6-6-10.1-6.2-12.3-9.2 3.1 2.1 11.1 3.2 14.7 2.2-2 1.3-6.8 1.2-8 1 3.9 3.8 12.5 7.8 14 11.3-2.1-2.3-3.4-2.7-5.2-3.3 1.4 2.1 2.7 4 3.6 6.2 2.3 5 5.3 5 5.5 9.1-1-3.2-3.1-4-4.6-6.1"/><path fill="#fff" d="M49.6 34.2c-.9 1.3-2.6 2.1-4.5 2.1-.4 0-.9 0-1.3-.1.1.5.4 1.1.9 1.5-.2 1.5.4 2.9 2 3.3.2.8.6 1.4 1.5 1.6l-1.1 1.3c-.4.5-1 .7-1.5.6l-5-.6c.2-.6-.4-1.2-2-.9l2-5.5-1.2-2.6-2.3 2-.1 5.7-1-.5c-1.3-.6-1.6 1.8-.4 1.8h.5c0 .2 0 .5.2.6-.2.1-.3.5 0 .7-.3.1-.3.6-.1.8-.2.4-.3 1.4.6 1.6.7.2 1.2-.6 1.3-1l7.8 2.4c1.1.3 1.9.1 2.8-.7l2-1.8c-.3 1.2.2 2.2 1.1 2.6 0 0-.1 1.1-.1 1.5h7V37.7c0-1.2.3-2.4.8-3.5H49.6zM37.8 55.9l.2.2c.2.3.3.2.6.1l.4-.2c.2-.2 1.7.4 1.8-.8.2.9-.9 2.8-.3 3.9l.9 1.4h-2.9c-.3 0-.5.2-.6.4l-.7 1.6c-.2.4-.2.8.1 1.1l.5.6s.4-.4.5-.8L38 63c-.2-.2-.2-.3-.1-.6l.5-1c.2-.4.4-.5.8-.4l2.3.5c.2 0 .4.1.6-.2.3-.5.8-.5 1.3-.5 1.3.2 4.2.5 5.2-.7 1.2 1.6 3.6 1.6 3.5 2.5l-.5 2.8h.8l.5-2.9c.1-.3.3-.8-.1-1-.1-.1-.2-.2-.5-.7-.4-.8-.4-1.9-.8-2.9.4-.5.8-.6 1.2-.5.8.2 1.1 1.7 2.3 2.9-.1-.5-.2-1.1-.5-1.6 0 0 .8.6 1 1.4.1.5.3.8.7 1 .3.1.6 0 1-.4 0 0-.8-1.1-1.4-1.9-.8-1-1.9-2-3.3-1.9-.5 0-.9.2-1.3.5-1.8-.9-3.1.1-3.6.1l-3.1-.2c-.6 0-1.1-.7-1.1-.7-.1-2.6-2.2-3.6-2.9-3.6 0 0 .1-.5-.1-.6l-.6.8-1.8-.7 1.4 1.1-1.5 1.8c-.2.1-.1.4-.1.5"/><path fill="#fff" d="M35.8 59.5c-.4.3-.4.8-.2 1.3l.3.5.7-.5-.2-.3c-.1-.2-.1-.5.1-.6l1-.7c.3-.2.4-.2.6-.2l2 .4s-.3-.4-.4-.9l-1.9-.3c-.3 0-.4.1-.7.3l-1.3 1zM48.8 65.6h.8l1.2-3c0-.1.1-.2.1-.2-.6-.2-.9-.4-1.3-.6.3.4.6.6.4 1l-1.2 2.8zM49.5 24.4l1.4-8.2-5.4 1.8v8.5l4-2.1zm-3.1-5.5l3.6-1.3s-.7.6-1.5 1.1c-.7.5-2.1 1.1-2.1 1.1v-.9zm0 2l3.3-1.2s-.4.4-1.2 1c-.7.5-2.1 1.1-2.1 1.1v-.9zm0 2.1l2.9-1.1s0 .4-.8.9c-.7.5-2.1 1.1-2.1 1.1V23zM39.9 31.7l.1.2h1.1v.2c0 .2.1.4.1.6.2.5.5 1.1 1.1 1.5.6.5 1.6.9 2.8.9 2.7 0 3.9-1.7 4-3v-.2h1.1l.1-.2c1-1.6 2.3-3.5 3.8-3.7L50 25.6l-5 2.7-5-2.7-4.1 2.4c1.6.2 2.9 2 4 3.7"/><path fill="#fff" d="M44.7 26.5V18l-5.4-1.8 1.4 8.2 4 2.1zm-.9-2.6s-1.3-.5-2.1-1.1-.8-.9-.8-.9l2.9 1.1v.9zm0-5v.9s-1.3-.5-2.1-1.1-1.5-1.1-1.5-1.1l3.6 1.3zm0 2v.9s-1.3-.5-2.1-1.1-1.2-1-1.2-1l3.3 1.2zM45.1 12.6c-3.1 0-5.4 1-5.9 2.2l5.9 2.3 5.9-2.3c-.5-1.2-2.8-2.2-5.9-2.2M45.1 9.2c2.3 0 4.5.7 6.1 1.6.2-.8.5-1.4.9-2.1l-1.4.2-1.2-2.4-2.1 1.1-2.3-2.3-2.3 2.3-2.1-1.1-1.1 2.4-1.4-.2c.4.7.6 1.3.9 2.1 1.4-.9 3.7-1.6 6-1.6M83.6 27.8c.8-.1 1.4-.3 2.1-.9-1.6-.4-5-1.6-7.9-1.1-1 .1-1.5.5-1.1.7 1.5 1 3.5 3.4 4.9 6.2 1.2-1.5.7-3.5.5-4.1 2.4 1.5 3.1 2.2 4.2 1.9-.7-.9-1.5-1.7-2.7-2.7M8.6 32.7c1.4-2.8 3.3-5.2 4.9-6.2.3-.2-.2-.6-1.1-.7-2.9-.5-6.3.7-7.9 1.1.8.6 1.4.8 2.1.9-1.2 1-2 1.8-2.6 2.7 1.1.3 1.8-.4 4.2-1.9-.3.6-.8 2.6.4 4.1"/><path d="M25.5 58.5c1.1-.9 2.1-1.3 2-3.5-1.7.9-6.5.8-8.5-1.9-.6-.8 0-1.2.6-.6 1.4 1.5 3.9.8 4.8.4-.1-.5-.6-1.2-.9-1.5.3-.3 1.3-.8 1.5-1.7-.5-.3-2.5-.5-2.5-.5.3-.3.7-.8.5-1.9-2.1.6-4.6-.2-5.2-1-.6-.8 0-1.5.5-1 1 1.1 6.1 2.3 8 .4-.7-.2-1.5-.8-1.6-1.2 1.7-.2 3.1-1.2 3.3-2.5-1 0-2.8-.1-3.4-.5.8-.3 1.4-.6 1.6-1.6-3.2-.2-3.5-2.6-3.5-3 2.1 1.2 5.8.7 4.8-2.3-1.7-.1-3.5-2.9 1.3-5.5 4.3-2.3 9.3-4.9 8.8-9-.3-2.7-4.7-4.5-5.2-5.8-1.8.9-2.2 1.9-1.4 3.6 0 0-4.1.4-4.4-2.1-.1-1.1.6-2.2 1.4-3-.5 0-3.5-.8-4.5 1.7-1.7-1.2-3.2-1.1-4.4.1 1.9 1.1 3 4.9 6.1 6-2.2 1.2-5.7.7-7.8-2.9-1.9 2.9-3.1 5.8 1.1 8.9-7.5 3.5-7.4 10.1-14 13.2.7 1.8 2.1 1.8 3.9 1.5-2.9 3.8-.4 7.6-5 9.2.4 1.5 1.3 2.7 2.9 2.3-.5.7-.8.7-1.5 1.5 2.5 1.6 5.4.4 6.1-4.6.1-.9 1.3-.3.9.5-2.8 5.9 4.3 10.3 1.8 14.6 2.2-.1 3.9-.3 4.8-1 .5.9.7 1.8.6 2.7 1.2-.2 1.7-1 1.8-1.8.8 2.3 3.7 4.9 8.3 4.9-2.4-3.6-.1-7.1-3.6-11.1M21 62.8l-1 1.7c-.4-1.1-1-2.2-1.4-3.1-.8 1.6-2 1.7-3.2 1.7.3-3.9-4.6-7.8-2.5-12.3.4-.9.1-2-.8-2.4-3.3-1.7-1.8 5.3-5 5.5.6-.8.9-2.4 1-2.6-.7.2-2.4 1.2-3.1-.1 1.9-1 2.5-2.6 2.8-4.2.4-2 .6-2.9.9-3.7.4-.9 1.1-1.6 2.4-3.4-.3 0-4 .8-4.9.4 6.4-3.9 5-8.9 14.7-13.4-2.6-1.9-5.2-3.4-3.3-7 2.7 3.2 7.7 2.1 10.5.6-2.7-.5-6.2-2.9-7-5.6 1-.2 2.3 1 3.1 1.5.4-1 .5-2.1 1.7-2.4-1.6 3.4 1.5 5.2 4.5 5.2.5 0 2.4-.2 2.4-.2-.3-.6-1.6-2.4-.7-3.1.7.7 1.6 1.2 2.4 1.8 5.8 4.5-2.8 8.7-6.3 10.5-5.5 3-4 6.5-1.7 7.4 0 .4-.3.6-.6.7-1.6.5-3.1-.6-4.4-1.3.1 2.2-.1 4.3 2.4 5.6l-1.7.6c1.5 1.1 1.9 1.7 3.6 1.9-.8.4-1.8.4-2.7.5.2.6.4 1.4.9 2-3.6.4-5-1.6-6.1-1.5-2.4.2-2.2 4.6 3.6 4.6l-.6 1s1.1.6 2.1.8c-.4.3-.8.7-1.1 1.1l.9.8c-2.4.4-3-2.1-4.6-.9-2.3 1.9 2.8 5.8 7.8 5.2-.4.5-1.6 1.3-2.1 1.7 4 3.8 2 7.4 3.7 10-3.4-.3-6-2.8-6.6-5.6M14.6 48.9c.8.9 1.9 1 3.8.8-2.1-.3-3.3-.8-4-2.2-.1-.7-.2-1.5-.2-2.3-.1-2.2.7-4.9 2.2-7.8 0 1.8 1.4 4.7 4.7 5.2-2.9-1.3-4.6-4.1-3.7-6.9.6-1 1.3-2 2-3 .4-.5.8-1 1.1-1.4-.4 1.4 1.3 2.9 2.5 3.1-.6-.6-1.9-2.6 1.1-5.8-.9.4-1.8 1-2.5 1.5 5.6-6 10.2-6.2 12.3-9.2-3 2.1-11.1 3.2-14.7 2.2 2 1.3 6.8 1.2 8 1-3.9 3.8-12.5 7.8-14 11.3 2.1-2.3 3.4-2.7 5.3-3.3-1.4 2.1-2.7 4-3.6 6.2-2.3 5-5.3 5-5.5 9.1 1-3.2 3.2-4 4.6-6.1-.3 1.3-.4 2.8-.3 4.5.1 1.8.4 3.5 1 4.9-.1 2 0 5.5 2.3 7.8-1.6-2-1.9-5.2-1.8-6.5 1.8 3.5 7 8.3 9.5 11.6-2.7-4.2-8.8-9.1-10.1-14.7M71.9 32.1c1.8.6 3.2 1 5.2 3.3-1.5-3.5-10.1-7.5-14-11.3 1.2.2 6 .4 8-1-3.6 1-11.7-.1-14.7-2.2 2.1 3 6.7 3.2 12.3 9.2-.7-.6-1.7-1.1-2.5-1.5 3.1 3.3 1.7 5.2 1.1 5.8 1.1-.2 2.8-1.7 2.5-3.1.4.4.7.9 1.1 1.4.8 1 1.4 2 2 3 .9 2.8-.8 5.6-3.7 6.9 3.2-.5 4.7-3.3 4.7-5.2 1.5 2.9 2.3 5.6 2.2 7.8 0 .8-.1 1.6-.2 2.3-.7 1.4-1.9 1.9-4 2.2 1.9.1 2.9 0 3.8-.8-1.3 5.6-7.4 10.5-10 14.7 2.5-3.3 7.7-8.1 9.5-11.6.1 1.3-.2 4.5-1.8 6.5 2.3-2.3 2.5-5.7 2.3-7.8.6-1.5 1-3.1 1-4.9.1-1.7-.1-3.2-.3-4.5 1.5 2.1 3.6 2.9 4.6 6.1-.2-4.1-3.3-4.2-5.5-9.1-.9-2.2-2.2-4.1-3.6-6.2M81.8 41.3c1.8.3 3.2.3 3.9-1.5-6.6-3.1-6.6-9.8-14.1-13.2 4.2-3.1 3-6 1.1-8.9-2.1 3.6-5.6 4.1-7.8 2.9 3.1-1.1 4.2-4.9 6.1-6-1.2-1.2-2.6-1.3-4.4-.1-.9-2.5-4-1.7-4.5-1.7.8.8 1.6 1.9 1.4 3-.3 2.5-4.4 2.1-4.4 2.1.8-1.7.5-2.7-1.4-3.6-.6 1.3-4.9 3.2-5.2 5.8-.4 4.2 4.5 6.7 8.8 9 4.8 2.6 3 5.4 1.3 5.5-1 3 2.7 3.5 4.8 2.3 0 .4-.3 2.8-3.5 3 .3.9.8 1.2 1.6 1.6-.6.5-2.5.5-3.4.5.1 1.3 1.5 2.3 3.3 2.5-.1.4-.9 1-1.6 1.2 1.9 1.9 7 .6 8-.4.5-.5 1.1.2.5 1s-3.1 1.6-5.2 1c-.2 1.2.2 1.6.5 1.9 0 0-2 .2-2.6.5.2.9 1.2 1.4 1.5 1.7-.3.3-.8 1-.9 1.5.9.4 3.5 1.1 4.8-.4.6-.6 1.2-.2.6.6-2 2.7-6.8 2.8-8.5 1.9 0 2.2.9 2.6 2 3.5-3.5 4-1.2 7.5-3.6 11 4.6 0 7.5-2.5 8.3-4.9.1.8.5 1.6 1.8 1.8-.1-.9.2-1.8.6-2.7.9.7 2.6.9 4.8 1-2.5-4.3 4.6-8.7 1.8-14.5-.4-.9.8-1.4.9-.5.7 5 3.6 6.1 6.1 4.6-.7-.8-1.1-.8-1.5-1.5 1.7.4 2.5-.8 2.9-2.3-4.4-1.6-1.9-5.4-4.8-9.2m.4 10c.1.1.3 1.8 1 2.6-3.3-.2-1.8-7.1-5.1-5.5-.9.5-1.2 1.6-.8 2.4 2.1 4.5-2.7 8.4-2.5 12.3-1.2 0-2.5 0-3.3-1.7-.4.8-1 2-1.4 3.1l-1-1.7c-.6 2.8-3.2 5.3-6.7 5.6 1.7-2.6-.3-6.2 3.7-10-.5-.4-1.7-1.2-2.1-1.7 5 .6 10.1-3.3 7.8-5.2-1.5-1.2-2.2 1.3-4.6.9l.9-.8-1.1-1.1c1-.1 2.1-.8 2.1-.8l-.6-1c5.8 0 6-4.5 3.6-4.6-1.1-.1-2.5 2-6.1 1.5.5-.6.6-1.4.9-2-.9-.1-1.9-.1-2.7-.5 1.7-.2 2.2-.8 3.6-1.9l-1.7-.6c2.4-1.2 2.3-3.4 2.4-5.6-1.3.7-2.8 1.9-4.4 1.3-.4-.1-.6-.3-.6-.7 2.3-.9 3.8-4.4-1.7-7.4-3.5-1.9-12.1-6.1-6.3-10.5.8-.6 1.7-1.2 2.4-1.8.9.7-.3 2.4-.6 3.1 0 0 1.9.2 2.4.2 3 0 6.1-1.8 4.5-5.2 1.2.2 1.3 1.4 1.7 2.4.8-.5 2.1-1.6 3.1-1.5-.8 2.7-4.3 5-7 5.6 2.7 1.5 7.8 2.6 10.5-.6 1.9 3.6-.7 5.1-3.3 7 9.7 4.4 8.3 9.4 14.7 13.4-.8.4-4.5-.4-4.9-.4 1.4 1.8 2 2.6 2.4 3.4.4.8.6 1.7.9 3.7.3 1.6.9 3.2 2.8 4.2-.5 1.3-2.2.2-2.9.1M35.8 62.2l1.4-1.2-.2-.4c-.2-.3-.1-.3.1-.4l.7-.5c.2-.1.3-.1.6-.1l2.2.5h-2.3c-.5 0-.7.2-.9.6l-.2.3-.6 1.2c-.2.4-.3 1 .2 1.6l.4.5-.9 1.7h.7l.6-1.2s.9-.8 1.1-1.7c-.3-.2-.4-.4-.3-.6l.3-.6c.1-.2.1-.3.4-.2l2.3.5c.3.1.7.2 1-.3s.4-.4 1.1-.4l1.2.1c1.6.2 3.2-.3 3.9-.7.2.5.7.9.9 1.3.1.1-.1.3-.1.6L48 66.1h2l1.2-2.9c.1-.3.3-.5.4-.6l-.7 3.5h2l.5-3.5c.1-.8 0-1-.3-1.3-.8-.7-.8-2.2-1.1-3.1.1-.1.3-.1.5-.1.4 0 .8 1.1 1.3 1.9 1 1.4 2.4 3 4 .8-.2-.3-.3-.5-.5-.7l-.4-.5c-.3-.3-1.5-1.7-2-2.2-1.2-1.2-2.9-1-3.7-.4-1.6-.8-3.3 0-3.7 0l-2.8-.2c-.1 0-.3-.1-.5-.3l.5-.2c-.5-2-1.7-3.7-3.8-4 0 0-.1-.6-.4-.8l-.6.7c-.2 0-.4.1-.5.1l-2.7-1 2 2.1s-1.1 1.5-1.4 1.8c-.2.3-.2.5 0 .8l.4.5c.2.3.4.3.8.1l.4-.2c.2-.2.8.2 1.1-.1-.2.6-.3 1.1-.3 1.6l-1.8-.2c-.4-.1-.6 0-.8.2l-1.6 1.2c-.5.4-.7 1.1-.4 1.7l.7 1.4zm15 .3l-1.2 3h-.8l1.2-2.9c.1-.4-.1-.6-.4-1 .5.3.8.4 1.3.6 0 .2 0 .2-.1.3m-11.9-6.6l-.4.2c-.2.1-.4.2-.6-.1l-.2-.2c-.1-.1-.1-.3.1-.5l1.5-1.8-1.3-1 1.8.7.7-.8c.2.2.1.6.1.6.7 0 2.8 1 2.9 3.6 0 0 .5.7 1.1.7l3.1.2c.5 0 1.8-1 3.4-.1.4-.2.9-.4 1.3-.5 1.4-.1 2.5.9 3.3 1.9.6.7 1.4 1.9 1.4 1.9-.3.4-.7.5-1 .4-.4-.2-.6-.6-.7-1-.2-.8-1-1.4-1-1.4.3.5.3 1.1.5 1.6-1.2-1.2-1.4-2.7-2.3-2.9-.4-.1-.8.1-1.2.5.4 1 .4 2.1.8 2.9.3.6.4.6.5.7.4.3.2.7.1 1l-.5 2.9h-.8l.5-2.8c.2-.9-2.2-.9-3.5-2.5-1 1.2-4 .9-5.2.7-.5-.1-1 0-1.3.5-.2.3-.4.2-.6.2l-2.3-.5c-.4-.1-.6 0-.8.4l-.5 1c-.1.2-.1.4.1.6l.2.2c-.1.5-.5.8-.5.8l-.4-.5c-.2-.3-.3-.7-.1-1.1l.7-1.6c.1-.2.2-.4.6-.4h2.9l-.9-1.4c-.7-1.1.4-3 .3-3.9-.1 1.2-1.6.7-1.8.8m-3.1 3.6l1.4-1c.2-.2.4-.3.7-.3l1.9.3c.1.5.4.9.4.9l-2-.4c-.3 0-.4 0-.6.2l-1 .7c-.2.1-.2.4-.1.6l.2.3-.7.5-.3-.5c-.3-.5-.3-.9.1-1.3M41.7 22.8c.7.5 2.1 1.1 2.1 1.1V23l-2.9-1.1s0 .3.8.9M43.8 21.7v-.9l-3.3-1.2s.4.4 1.2 1 2.1 1.1 2.1 1.1M43.8 19.8v-.9l-3.6-1.3s.7.6 1.5 1.1 2.1 1.1 2.1 1.1M53.9 31.7h3.7c-.2-.5-.7-1.1-1.8-1.1s-1.7.6-1.9 1.1M50 17.6l-3.6 1.3v.9s1.3-.5 2.1-1.1c.8-.6 1.5-1.1 1.5-1.1M49.3 21.9L46.4 23v.9s1.3-.5 2.1-1.1c.8-.6.8-.9.8-.9M49.7 19.7l-3.3 1.2v.9s1.3-.5 2.1-1.1 1.2-1 1.2-1M34.4 30.6c-1.1 0-1.6.5-1.8 1.1h3.7c-.2-.5-.8-1.1-1.9-1.1"/><path d="M52.4 15.2c0-2.1-3.5-3.9-7.3-3.9s-7.3 1.8-7.3 3.9l.1.5 1.5 8.8-7.2 4.2c-.8.5-1.7 1.7-1.9 3h1.3c.2-1.3 1.2-2.6 3.1-2.6 1.7.1 2.7 1.1 3.6 2.6l.3.4.4.6H28.3c.8 1.6 1.5 3.2 1.5 5v22.1c0 5.7 4.4 8.4 9.1 8.4 3.7 0 4.1-.2 6.2 1.9 2-2 2.5-1.9 6.2-1.9 4.7 0 9.1-2.7 9.1-8.4V37.7c0-1.8.7-3.5 1.5-5H51.2l.4-.6.3-.4c1-1.5 2-2.5 3.6-2.6 1.8-.1 2.8 1.3 3.1 2.6h1.3c-.1-1.3-1.1-2.5-1.9-3l-7.2-4.2 1.5-8.8.1-.5zm-13.1 1l5.4 1.8v8.5l-4-2.1-1.4-8.2zm1.3 18c.7 1 1.9 1.7 3.2 2 .1.5.4 1.1.9 1.5-.2 1.5.4 2.9 2 3.3.2.8.6 1.4 1.4 1.6L47 43.9c-.4.5-1 .7-1.5.6l-5-.6c.2-.6-.4-1.2-2-.9l2-5.5-1.2-2.6-2.3 2v5.7l-1-.5c-1.3-.6-1.7 1.8-.4 1.8h.5c0 .2 0 .5.2.6-.2.1-.3.5 0 .7-.3.1-.3.6-.1.8-.3.4-.3 1.4.6 1.6.7.2 1.2-.6 1.3-1l7.8 2.4c1.1.3 1.9.1 2.8-.7l2-1.8c-.3 1.2.2 2.2 1.1 2.6 0 0-.1 1.1-.1 1.5H31.3V37.7c0-1.2-.3-2.4-.8-3.5h10.1zM49 39c-.4.8-.4 1.8.1 2.6l-.3.3c-1.5-.2-2.1-2.4-2.1-2.4v.6c-.9-.3-1.4-1.1-1.4-2.1.3.2.7.3 1.1.4l.1-.6c-1-.2-1.6-.8-1.9-1.6h-.1.6c.6 0 1.2-.1 1.7-.3.4.6 1.2 1 1.9 1.1 0 .6 0 1.3.3 2m2.2 5.9c-.1.2-.3.4-.3.7l-.8.8c.2-1.2-.6-2.6-1.4-3.2l.9-.9.2.2c-.4.7.2 2.2 1.4 2.4m-3.9-.4l.7-.7c.7.6 1.6 1.9 1.3 3.2l-.7.7c-.2.1-.3.3-.5.4.4-1.2-.2-2.9-.8-3.6m-1.5.5c.3 0 .5 0 .8-.1.5.7.9 2.4.3 3.5-.3 0-.7-.1-1-.1l-.3-.1c.5-.8.4-2.3.2-3.2m-1.7-.2l1 .1c.2.8.1 2.2-.5 2.9l-1.1-.3c.5-.6.7-2 .6-2.7m-2-.2l1.2.1c.1.6-.1 2-.5 2.6l-1.2-.3c.4-.6.6-1.7.5-2.4m-4.7-.3c-.5.2-.8-.2-.8-.5 1.1-.4 1.5-.1 1.8.1.3.2.5.7.9 1-.1.4-.2 1.1-.4 1.5-1.1-.3-1.1-1.2-.7-1.8-.1-.4-.3-.5-.8-.3m-.7 2.1s.3.1.7.2c0 .2-.2.4-.5.4-.2-.1-.3-.4-.2-.6m-1.1-3.1c-.3-.2-.1-.6.1-.6.3 0 .8.4 1.2.6.1 0-1.1.1-1.3 0m1.1 2.2c.2.2.9.1.9.1v.1c-.2.5-1.1.3-.9-.2m1-.4c-.5.2-1-.1-.9-.4.2.2.9.1.9.1v.3zm.7-5.8l-1 3.5.3-5.6 1.5-1.3.8 1.6-1.9 5.5.5-3.7c0-.3-.2-.3-.2 0m.1 4.2s1.1-.1 1.4.1c.2.1.1.5-.2.4-.4-.1-1.2-.5-1.2-.5m1.6.8l1.2.1c.1.6-.1 1.7-.5 2.3l-1.1-.2c.3-.7.3-1.4.4-2.2m18.7 15.5c0 2.7-1.2 4.7-3.3 5.9l.7-1.5h-.7l-1 1.9c-1 .4-2.1.6-3.3.6-3.8 0-4.8.2-6.2 1.5-1.4-1.4-2.4-1.5-6.2-1.5-1.2 0-2.3-.2-3.3-.6l1-1.9h-.7l-.8 1.6-.6-.3.7-1.4h-.7l-.5 1c-1.6-1.2-2.6-3-2.6-5.4v-8.5h27.5v8.6zm.8-25.6c-.4 1.1-.8 2.3-.8 3.5v12.9h-1.5c-.7-.7-1.3-2.9-1.3-2.9-.4.8.1 2.4.5 2.9h-1.9c-.5-.6-.9-2.9-.9-2.9-.6.7-.2 2.4.1 2.9h-1.3c-.1-.9.2-1.9.2-1.9-.7-.1-1.4-.5-1.4-1.2.3.3.5.3.9.3l.5-.4c-1.8.1-1.9-1.9-.5-2.9-1.4 0-2.5-.8-2-2.3-1-.5-1.4-2.3-.6-3-.5-.6-.6-1.8-.3-2.5-.7 0-1.5-.3-2-.8h-.1c.9-.4 1.7-.9 2.2-1.7h10.2zm-5.5-6.3c-1.5.3-2.8 2.1-3.8 3.7l-.1.2h-1.1v.2c-.1 1.3-1.3 3-4 3-1.2 0-2.2-.4-2.8-.9-.6-.4-.9-1-1.1-1.5-.1-.2-.1-.4-.1-.6v-.2H40l-.1-.2c-1.1-1.6-2.3-3.5-3.8-3.7l4.1-2.4 5 2.7 5-2.7 3.9 2.4zm-4.6-3.5l-4 2.1V18l5.4-1.8-1.4 8.2zm-4.4-7.3l-5.9-2.3c.5-1.2 2.8-2.2 5.9-2.2 3.1 0 5.4 1 5.9 2.2l-5.9 2.3zM58.2 42.5v-.6c-2 0-2.4-2.4-2.4-2.4-.6 1.7.9 3 2.4 3M55.7 46.5l-.2-.6c-1.7.4-2.6-2.2-2.6-2.2-.5 1.8 1.4 3.2 2.8 2.8M56.9 44c-2 .3-2.9-2-2.9-2-.2 1.3.6 2.6 1.9 2.7-.3 1.7 1.3 2.5 2.6 1.9l-.2-.6c-1.1.4-2.2-.8-1.4-2M55.7 37.3v-.6c-2.7-.6-2.4-2.4-2.4-2.4-.6 1.7.9 2.9 2.4 3"/><path d="M38.8 64.2l-1 1.9h.7l1-1.9zM40.2 64.2l-1 1.9h.8l.9-1.9zM46 64.2l-1 1.9h.7l1-1.9zM47.4 64.2l-.9 1.9h.7l.9-1.9zM44.5 64.2l-.9 1.9h.7l1-1.9zM53 66.1h.7l1-1.9h-.8zM41.6 64.2l-.9 1.9h.7l1-1.9zM43.1 64.2l-1 1.9h.8l.9-1.9zM39.8 53.7c-.1 0-.2.1-.2.3s.1.3.2.3.3-.1.3-.3c0-.1-.1-.3-.3-.3"/><path d="M45.1 10c3 0 5.3 1 6.6 2 0 0 .4-2.4 1.7-4.4l-2.4.3-1.2-2.7-2.4 1.3-2.3-2.3-2.3 2.3-2.4-1.2L39.2 8l-2.4-.3c1.3 2.1 1.7 4.4 1.7 4.4 1.3-1.1 3.6-2.1 6.6-2.1m-5.6-1.1l1.2-2.4 2.1 1.1 2.3-2.3 2.3 2.3 2.1-1.1 1.1 2.4 1.4-.2c-.4.7-.6 1.3-.9 2.1-1.5-.9-3.8-1.6-6.1-1.6s-4.6.7-6.1 1.6c-.3-.8-.5-1.4-.9-2.1l1.5.2zM47.5 5.2c.3 0 .7-.2.7-.6 0-.3-.5-1.3-.5-1.3s-.7.9-.7 1.3c-.1.3.2.6.5.6M51.4 6.7c.3.2.7 0 .8-.3.2-.3.1-1.4.1-1.4s-1 .5-1.2.8c-.1.3 0 .7.3.9M42.7 5.2c.4 0 .6-.3.6-.7 0-.3-.8-1.2-.8-1.2s-.6 1-.5 1.4c0 .3.3.6.7.5M38.7 6.7c.4-.2.5-.6.3-.9-.2-.3-1.2-.8-1.2-.8s-.1 1 .1 1.4c.2.3.5.4.8.3M85.7 28.2c.8-.3 1.5-1.1 1.8-1.8-2.1-.3-7.8-2.7-12.4-.7 1.7-1.6 3.3-1.9 3.4-4.2.7.5 1.9.8 2.6-.4-.5-1.4-1.7-.3-1.9-.7-.2-.5 1.5.2 1.9-1.7-1.4-.5-1.8.6-2 .4s.9-.7.1-2.2c-1.4.8-.7 1.8-1 1.9-.4.1-.1-1-1.6-.9-.2 1.7 1.5 1.7 1.2 2s-.8-1-1.9-.3c0 1.4 1.1 2.1 2.3 1.8-.2 2.6-2.6 2.1-4.3 5 3.7 1.9 5.4 5.3 7.8 7.6.8-.5 2.1-2.9 2.1-2.9 2.5 1.9 4.3 0 4.3 0-1.1-1.1-1.1-1.7-2.4-2.9m-3.7.4c.3.6.8 2.6-.5 4.1-1.4-2.8-3.3-5.2-4.9-6.2-.3-.2.2-.6 1.1-.7 2.9-.5 6.3.7 7.9 1.1-.7.6-1.4.8-2.1.9 1.2 1 2 1.8 2.6 2.7-1 .3-1.6-.4-4.1-1.9"/><path d="M44.4 74.1l-1.6-.1-.2.6h.2c.1 0 .1-.1.1-.2 0 0 .3-.1.6 0l.7.1c-.4.8-1.4 1.6-1.4 2.2 0 .3.3.4.5.3.3 0 .4-.2.5-.6.2-.8.6-1.4.9-2.4l-.3.1zM45.5 75.1v-.5h1.4l-.1-.6c-.4 0-1 .1-1.5.1l-.1 1.1c.7 0 1.1.3 1.1.9 0 .3-.2.7-.5.8h-.2c-.1-.1 0-.2 0-.4s-.2-.3-.4-.3-.3.2-.3.4c0 .4.6.5.9.5.6 0 1.2-.3 1.2-1 .1-.8-.8-1-1.5-1M48.6 74c-.5 0-.9.4-.9.9 0 .8.9 1.1 1.5.8.1.6 0 1.1-.3 1.1-.2 0-.2-.2-.2-.3-.1-.2-.2-.3-.4-.2-.3 0-.3.2-.3.3.1.3.5.3.7.3.8-.1 1.2-.7 1.2-1.4 0-.8-.5-1.5-1.3-1.5m.3 1.5c-.5 0-.6-.8-.6-1.2 0-.1.1-.3.2-.3.5 0 .6 1.1.6 1.4 0 .1-.1.1-.2.1"/><path d="M41.6 73.8c-.1.1-.4.5-1.2 1.1l.1.1c.1 0 .2-.1.4-.2l-.4 1.5c0 .1-.1.1-.2.1H40v.2l1.4.3v-.2l-.2-.1c-.1 0-.1-.1-.1-.2l.7-2.6h-.2zM57.9 71.8v-3.2c-2.4 1.1-5.6 2-9.6 2.4l-.2 1.1c.3 0 .8.1 1.3.1-1.5.2-3.4.3-4.4.3-1.1 0-3-.1-4.5-.3.6 0 1-.1 1.3-.1l-.2-1.1c-4-.4-7.1-1.3-9.6-2.4v3.2l-3.3 1.4c2.5 1.3 5.3 2.3 8.6 3.2l-.4 1.3c1.9.5 4.9 1.1 8 1.1s6.1-.6 8-1.1l-.4-1.3c3.3-.8 6.1-1.9 8.6-3.2l-3.2-1.4zm-27.2 1.5l2.2-.9v-2.6c1.4.6 3.3 1.1 6 1.7l-1.3 4.1c-2.7-.6-5-1.5-6.9-2.3M45.1 78c-2.5 0-5-.4-7.1-.9l1.3-4.3c.9.2 3.1.5 5.8.5 2.6 0 4.9-.3 5.8-.5l1.3 4.3c-2.1.6-4.6.9-7.1.9m7.4-2.4l-1.3-4.1c2.7-.6 4.6-1.1 6-1.7v2.6l2.2.9c-1.8.8-4.1 1.7-6.9 2.3M6.6 30.9s1.3 2.4 2.1 2.9c2.3-2.3 4-5.7 7.8-7.6-1.8-2.9-4.2-2.4-4.3-5 1.1.3 2.2-.4 2.3-1.8-1.2-.7-1.6.6-1.9.3-.3-.3 1.4-.3 1.2-2-1.6 0-1.3 1.1-1.7.9-.3-.1.4-1-1-1.9-.8 1.5.3 1.9.1 2.2-.2.3-.7-.9-2-.4.4 1.8 2.1 1.1 1.9 1.7-.2.4-1.4-.8-1.8.7.7 1.2 1.9.9 2.6.4.2 2.4 1.7 2.6 3.4 4.2-4.6-1.9-10.3.4-12.4.7.3.7 1 1.5 1.8 1.8-1.3 1.2-1.3 1.9-2.2 2.8-.2.1 1.6 2 4.1.1M4 30.5c.6-.9 1.5-1.8 2.6-2.7-.8-.1-1.4-.3-2.1-.9 1.6-.4 5-1.6 7.9-1.1.9.1 1.5.5 1.1.7-1.5 1-3.5 3.4-4.9 6.2-1.2-1.5-.7-3.5-.5-4.1-2.4 1.5-3 2.2-4.1 1.9"/><path d="M43.1 29.1v1.4c.5-.6 1.4-.5 1.4-.5v2s0 1-.4 1.4h2c-.3-.4-.4-1.4-.4-1.4v-2s.9-.1 1.4.5v-1.4h-4z"/><path fill="none" d="M104 33.5v22"/></g></svg>