<?xml version="1.0" encoding="utf-8"?>
<!-- Generator: Adobe Illustrator 19.0.1, SVG Export Plug-In . SVG Version: 6.00 Build 0)  -->
<svg version="1.1" id="Layer_1" xmlns="http://www.w3.org/2000/svg" xmlns:xlink="http://www.w3.org/1999/xlink" x="0px" y="0px"
	 viewBox="0 0 358 46" style="enable-background:new 0 0 358 46;" xml:space="preserve">
<path style="fill:#EE3224;" d="M73.19027,15.90886c-0.97101-1.68399-0.39401-3.83197,1.286-4.80499l15.869-9.16199
	c0.543-0.31201,1.21599-0.31201,1.758,0.00198l15.864,9.16c1.683,0.97302,2.259,3.121,1.287,4.80499
	c-0.97,1.68002-3.12,2.25601-4.802,1.285l-13.23-7.63898l-13.23001,7.63898C76.31226,18.16487,74.16126,17.58888,73.19027,15.90886"
	/>
<g>
	<path style="fill:#FFFFFF;" d="M106.07372,21.04499H76.36873c-0.96886,0-1.75483,0.7859-1.75483,1.75777v17.1367
		c0,2.18371,1.76984,3.95348,3.95354,3.95348c2.18369,0,3.95345-1.76976,3.95345-3.95348V28.07306h4.74537v11.86641
		c0,2.18371,1.77277,3.95348,3.95647,3.95348s3.95345-1.76976,3.95345-3.95348V28.07306h4.74536v11.86641
		c0,2.18371,1.77277,3.95348,3.95345,3.95348c2.18672,0,3.95647-1.76976,3.95647-3.95348v-17.1367
		C107.83147,21.83089,107.0456,21.04499,106.07372,21.04499 M18.94437,32.53946c-0.59986-0.43194-1.21181-0.7139-1.75776-0.92687
		c1.2238-0.66291,2.87364-2.04873,2.87364-4.5684c0-0.89088-0.027-5.9992-7.10903-5.9992H2.31164
		c-0.36003,0-0.65094,0.29096-0.65094,0.65091v21.54313c0,0.35995,0.29092,0.65391,0.65094,0.65391h11.25143
		c7.27106,0,7.75101-5.42028,7.75101-6.53913C21.31408,34.88215,20.16222,33.41234,18.94437,32.53946z M8.61677,26.2343h2.37566
		c0.49496,0,1.13684,0.048,1.64983,0.30596c0.47693,0.23997,0.85783,0.65992,0.85783,1.5178
		c0,1.06186-0.66587,1.69177-2.50766,1.69177H8.61677V26.2343z M11.25039,38.70363H8.61677v-3.7645h2.63362
		c1.97078,0,2.98761,0.7739,2.98761,1.81176C14.238,37.97473,13.33815,38.70363,11.25039,38.70363z M234.84355,19.30823
		c3.4585,0,5.69318-1.45781,7.03699-3.35655c0.20697-0.29396,0.13503-0.70191-0.15891-0.90588l-3.36861-1.69477
		c-0.26694-0.12298-0.58495-0.04499-0.83989,0.28196c-0.68088,0.96588-1.67674,1.43681-2.66959,1.43681
		c-0.98993,0-1.98882-0.47093-2.67271-1.43681c-0.25192-0.32695-0.56993-0.40494-0.83685-0.28196l-3.36559,1.69477
		c-0.29695,0.20398-0.36891,0.61193-0.16194,0.90588C229.14726,17.85042,231.38496,19.30823,234.84355,19.30823z M61.74568,26.43228
		c1.73378,0,3.38956,0.86388,4.51734,2.2107c0.25504,0.25496,0.66898,0.25496,0.92392,0l3.15861-3.95048
		c0.25494-0.25496,0.25494-0.66591-0.01804-0.95386c-2.25867-1.98874-5.31228-3.0896-8.58183-3.0896
		c-6.67413,0-11.64743,4.58939-11.64743,11.81542c0,4.75737,2.85258,11.82742,11.64743,11.82742
		c3.74648,0,6.56611-1.28983,8.5638-3.15258c0.25504-0.25797,0.25504-0.66891-0.02096-0.98386l-3.05663-3.8215
		c-0.25494-0.25496-0.66888-0.25496-0.92383,0c-1.24788,1.44881-3.1046,2.17171-4.56238,2.17171
		c-2.35469,0-4.72138-1.92873-4.72138-6.04119C57.0243,29.09892,58.74609,26.43228,61.74568,26.43228z M35.70617,20.64904
		c-6.67715,0-11.65045,4.58939-11.65045,11.81542c0,4.75737,2.84956,11.82742,11.65045,11.82742
		c8.79778,0,11.65338-7.07005,11.65338-11.82742C47.35955,25.23844,42.38322,20.64904,35.70617,20.64904z M35.70617,38.63765
		c-2.34875,0-4.72138-1.96174-4.72138-6.17318c0-3.44653,1.72178-6.16418,4.72138-6.16418s4.72138,2.71764,4.72138,6.16418
		C40.42755,36.67591,38.05482,38.63765,35.70617,38.63765z M184.00333,21.04499h-5.64822
		c-0.36296,0-0.65398,0.29096-0.65398,0.65091v7.95494h-6.73106V21.6959c0-0.35995-0.29393-0.65091-0.65396-0.65091h-5.65125
		c-0.35692,0-0.65086,0.29096-0.65086,0.65091v21.54313c0,0.35995,0.29395,0.65391,0.65086,0.65391h5.65125
		c0.36003,0,0.65396-0.29396,0.65396-0.65391v-8.37789h6.73106v8.37789c0,0.35995,0.29102,0.65391,0.65398,0.65391h5.64822
		c0.35994,0,0.65085-0.29396,0.65085-0.65391V21.6959C184.65417,21.33595,184.36327,21.04499,184.00333,21.04499z
		 M244.40321,21.04499H238.494c-0.24597,0-0.44992,0.12299-0.57286,0.34196l-6.33223,11.80641V21.6959
		c0-0.35995-0.29393-0.65091-0.65085-0.65091h-5.65427c-0.35692,0-0.65096,0.29096-0.65096,0.65091v21.54313
		c0,0.35995,0.29404,0.65391,0.65096,0.65391h5.91818c0.24002,0,0.47098-0.14698,0.57295-0.34195l6.32315-11.82143v11.50946
		c0,0.35995,0.29395,0.65391,0.65388,0.65391h5.65125c0.35994,0,0.65094-0.29396,0.65094-0.65391V21.6959
		C245.05415,21.33595,244.76315,21.04499,244.40321,21.04499z M123.56435,20.64904c-6.67706,0-11.65045,4.58939-11.65045,11.81542
		c0,4.75737,2.85268,11.82742,11.65045,11.82742c8.79787,0,11.65046-7.07005,11.65046-11.82742
		C135.21481,25.23844,130.23848,20.64904,123.56435,20.64904z M123.56435,38.63765c-2.34866,0-4.72129-1.96174-4.72129-6.17318
		c0-3.44653,1.72472-6.16418,4.72129-6.16418c2.99667,0,4.72138,2.71764,4.72138,6.16418
		C128.28574,36.67591,125.9131,38.63765,123.56435,38.63765z M218.63365,21.04499h-5.65126
		c-0.35994,0-0.64783,0.29096-0.64783,0.65091v21.54313c0,0.35995,0.28789,0.65391,0.64783,0.65391h5.65126
		c0.35994,0,0.65396-0.29396,0.65396-0.65391V21.6959C219.28761,21.33595,218.99359,21.04499,218.63365,21.04499z
		 M200.23117,29.38688h-3.27257V21.6959c0-0.35995-0.29395-0.65091-0.65398-0.65091h-5.65125
		c-0.35994,0-0.65085,0.29096-0.65085,0.65091v21.54313c0,0.35995,0.29091,0.65391,0.65085,0.65391h9.57779
		c5.91818,0,9.05876-2.56166,9.05876-7.34301C209.28993,31.77755,206.13434,29.38688,200.23117,29.38688z M199.63121,38.70363
		h-2.67261v-4.13044h2.67261c0.50092,0,1.19983,0.04499,1.75777,0.31796c0.52196,0.25496,0.94791,0.7169,0.94791,1.65878
		C202.33688,38.36168,200.64209,38.70363,199.63121,38.70363z M158.0148,21.04499h-5.65126
		c-0.35994,0-0.65094,0.29096-0.65094,0.65091v9.37676c-5.41426,0.81589-6.3681-1.09486-6.3681-2.75664V21.6959
		c0-0.35995-0.29395-0.65091-0.65094-0.65091h-5.65428c-0.3029,0-0.55785,0.20997-0.6329,0.49494
		c-0.00595,0.86689-0.02399,2.74463-0.01794,4.5354c0.01199,2.41768,0.05995,5.11731,0.21594,6.06219
		c0.50392,3.05359,3.27861,4.24143,6.10721,4.58039c2.56763,0.31196,5.34525-0.048,7.00102-0.46495v6.98607
		c0,0.35995,0.291,0.65391,0.65094,0.65391h5.65126c0.35994,0,0.65387-0.29396,0.65387-0.65391V21.6959
		C158.66867,21.33595,158.37474,21.04499,158.0148,21.04499z M330.2637,21.04499h-5.64822
		c-0.35992,0-0.65387,0.29096-0.65387,0.65091v7.95494h-6.73114V21.6959c0-0.35995-0.29092-0.65091-0.65088-0.65091h-5.64822
		c-0.36295,0-0.65396,0.29096-0.65396,0.65091v21.54313c0,0.35995,0.29102,0.65391,0.65396,0.65391h5.64822
		c0.35995,0,0.65088-0.29396,0.65088-0.65391v-8.37789h6.73114v8.37789c0,0.35995,0.29395,0.65391,0.65387,0.65391h5.64822
		c0.36298,0,0.65399-0.29396,0.65399-0.65391V21.6959C330.91769,21.33595,330.62668,21.04499,330.2637,21.04499z
		 M274.35718,29.65084h-4.94629v-3.39255h10.42664c0.35995,0,0.65085-0.29396,0.65085-0.65691V21.6959
		c0-0.35995-0.29089-0.65091-0.65085-0.65091h-16.73175c-0.35995,0-0.64795,0.29096-0.64795,0.65091v21.54313
		c0,0.35995,0.28799,0.65391,0.64795,0.65391h11.2514c7.22311,0,7.74496-5.2823,7.75403-7.14205
		C282.10214,34.93014,281.58029,29.65084,274.35718,29.65084z M272.04449,38.70363h-2.63361v-3.86948h2.63361
		c2.0488,0,2.95468,0.70491,2.98761,1.95574C274.99615,38.00472,274.09329,38.70363,272.04449,38.70363z M349.30524,32.46747
		l6.92303-10.40262c0.07202-0.10798,0.11102-0.23397,0.11102-0.36895c0-0.35995-0.28796-0.65091-0.64792-0.65091h-6.01724
		c-0.23697,0-0.4469,0.12598-0.56085,0.31496l-5.89429,9.68271V21.6959c0-0.35995-0.29092-0.65091-0.65085-0.65091h-5.65128
		c-0.35992,0-0.65396,0.29096-0.65396,0.65091v21.54613c0,0.35995,0.29404,0.65091,0.65396,0.65091h5.65128
		c0.35992,0,0.65085-0.29096,0.65085-0.65091v-9.34375l5.89429,9.67971c0.11395,0.18897,0.32388,0.31496,0.56085,0.31496h6.01724
		c0.35995,0,0.64792-0.29396,0.64792-0.65391c0-0.13499-0.039-0.26097-0.11102-0.36296L349.30524,32.46747z M298.99594,21.46793
		c-0.09299-0.24896-0.33292-0.42294-0.61194-0.42294h-6.05319c-0.28195,0-0.51895,0.17398-0.6149,0.42294l-8.19489,21.54313
		c-0.02701,0.06899-0.04202,0.14998-0.04202,0.22797c0,0.35995,0.29395,0.65391,0.6539,0.65391h5.95724
		c0.29697,0,0.54587-0.19797,0.62689-0.46194l1.00189-3.35955h7.27399l1.00485,3.35955
		c0.08405,0.26397,0.33304,0.46194,0.62695,0.46194h5.95718c0.35995,0,0.65094-0.29396,0.65094-0.65391
		c0-0.07799-0.01501-0.15898-0.03897-0.22797L298.99594,21.46793z M293.28473,34.86114l2.06964-6.91707l2.07578,6.91707H293.28473z"
		/>
</g>
</svg>
