<?xml version="1.0" encoding="UTF-8" standalone="no"?>
<svg
   xmlns:dc="http://purl.org/dc/elements/1.1/"
   xmlns:cc="http://creativecommons.org/ns#"
   xmlns:rdf="http://www.w3.org/1999/02/22-rdf-syntax-ns#"
   xmlns:svg="http://www.w3.org/2000/svg"
   xmlns="http://www.w3.org/2000/svg"
   viewBox="0 0 705.77332 170.85333"
   height="170.85333"
   width="705.77332"
   xml:space="preserve"
   version="1.1"
   id="svg2"><metadata
     id="metadata8"><rdf:RDF><cc:Work
         rdf:about=""><dc:format>image/svg+xml</dc:format><dc:type
           rdf:resource="http://purl.org/dc/dcmitype/StillImage" /></cc:Work></rdf:RDF></metadata><defs
     id="defs6" /><g
     transform="matrix(1.3333333,0,0,-1.3333333,0,170.85333)"
     id="g10"><g
       transform="scale(0.1)"
       id="g12"><path
         id="path14"
         style="fill:#13366d;fill-opacity:1;fill-rule:evenodd;stroke:none"
         d="m 0,1237.14 c 0,22.47 18.1094,40.83 40.2539,40.83 l 1197.4561,0 c 22.15,0 40.26,-18.36 40.26,-40.83 l 0,-1196.3314 C 1277.97,18.3711 1259.86,0 1237.71,0 L 40.2539,0 C 18.1094,0 0,18.3711 0,40.8086 L 0,1237.14" /><path
         id="path16"
         style="fill:#ffffff;fill-opacity:1;fill-rule:nonzero;stroke:none"
         d="m 547.031,1028.86 c 4.141,0 6.071,3.05 4.285,6.79 l -9.168,19.24 c -1.773,3.74 -6.601,6.79 -10.742,6.79 l -337.976,0 c -4.133,0 -6.067,-3.05 -4.282,-6.79 l 9.164,-19.24 c 1.786,-3.74 6.622,-6.79 10.75,-6.79 l 337.969,0" /><path
         id="path18"
         style="fill:#ffffff;fill-opacity:1;fill-rule:nonzero;stroke:none"
         d="m 573.242,989.598 c -1.765,3.718 -6.601,6.785 -10.742,6.785 l -337.973,0 c -4.129,0 -6.066,-3.067 -4.277,-6.785 l 9.16,-19.258 c 1.781,-3.723 6.613,-6.778 10.746,-6.778 l 337.973,0 c 4.141,0 6.066,3.055 4.293,6.778 l -9.18,19.258" /><path
         id="path20"
         style="fill:#ffffff;fill-opacity:1;fill-rule:nonzero;stroke:none"
         d="m 604.508,923.977 c -1.793,3.734 -6.625,6.781 -10.754,6.781 l -337.973,0 c -4.136,0 -6.054,-3.047 -4.289,-6.781 l 9.176,-19.254 c 1.77,-3.731 6.598,-6.785 10.738,-6.785 l 337.985,0 c 4.125,0 6.058,3.054 4.269,6.785 l -9.152,19.254" /><path
         id="path22"
         style="fill:#ffffff;fill-opacity:1;fill-rule:nonzero;stroke:none"
         d="m 635.746,858.363 c -1.766,3.731 -6.601,6.778 -10.742,6.778 l -337.984,0 c -4.122,0 -6.051,-3.047 -4.286,-6.778 l 9.196,-19.265 c 1.769,-3.735 6.605,-6.782 10.726,-6.782 l 337.981,0 c 4.136,0 6.074,3.047 4.285,6.782 l -9.176,19.265" /><path
         id="path24"
         style="fill:#ffffff;fill-opacity:1;fill-rule:nonzero;stroke:none"
         d="m 667.008,792.73 c -1.774,3.731 -6.617,6.786 -10.742,6.786 l -337.985,0 c -4.121,0 -6.054,-3.055 -4.289,-6.786 l 9.184,-19.25 c 1.773,-3.742 6.597,-6.789 10.742,-6.789 l 337.977,0 c 4.121,0 6.054,3.047 4.289,6.789 l -9.176,19.25" /><path
         id="path26"
         style="fill:#ffffff;fill-opacity:1;fill-rule:nonzero;stroke:none"
         d="m 698.27,727.078 c -1.79,3.738 -6.61,6.785 -10.747,6.785 l -337.98,0 c -4.129,0 -6.051,-3.047 -4.285,-6.785 l 9.176,-19.25 c 1.789,-3.738 6.613,-6.785 10.742,-6.785 l 337.984,0 c 4.141,0 6.051,3.047 4.281,6.785 l -9.171,19.25" /><path
         id="path28"
         style="fill:#ffffff;fill-opacity:1;fill-rule:nonzero;stroke:none"
         d="m 729.512,661.488 c -1.77,3.719 -6.614,6.782 -10.742,6.782 l -337.977,0 c -4.137,0 -6.063,-3.063 -4.289,-6.782 l 9.172,-19.273 c 1.785,-3.731 6.621,-6.777 10.742,-6.777 l 337.98,0 c 4.141,0 6.063,3.046 4.293,6.777 l -9.179,19.273" /><path
         id="path30"
         style="fill:#ed1834;fill-opacity:1;fill-rule:evenodd;stroke:none"
         d="m 1072.31,635.426 c 45.27,0 82.02,36.765 82.02,82.062 0,45.282 -36.75,82.028 -82.02,82.028 -45.34,0 -82.037,-36.746 -82.037,-82.028 0,-45.297 36.697,-82.062 82.037,-82.062 l 0,0" /><path
         id="path32"
         style="fill:#ffffff;fill-opacity:1;fill-rule:nonzero;stroke:none"
         d="m 632.812,1094.53 c 4.122,0 7.5,3.38 7.5,7.51 l 0,17.79 c 0,4.13 -3.378,7.51 -7.5,7.51 l -524.394,0 c -4.133,0 -7.512,-3.38 -7.512,-7.51 l 0,-17.79 c 0,-4.13 3.379,-7.51 7.512,-7.51 l 524.394,0" /><path
         id="path34"
         style="fill:#ffffff;fill-opacity:1;fill-rule:nonzero;stroke:none"
         d="m 408.984,602.645 c -4.121,0 -6.035,-3.04 -4.25,-6.77 L 618.312,153.391 c 1.805,-3.731 6.126,-3.743 7.915,0 l 195.101,409.605 c 1.77,3.738 6.602,6.785 10.742,6.785 l 314.75,0 c 4.13,0 7.51,3.379 7.51,7.512 l 0,17.84 c 0,4.133 -3.38,7.512 -7.51,7.512 l -737.836,0" /><path
         id="path36"
         style="fill:#ffffff;fill-opacity:1;fill-rule:nonzero;stroke:none"
         d="m 1146.82,1127.38 -270.34,-0.01 c -4.14,0 -7.515,-3.39 -7.515,-7.52 l 0,-17.79 c 0,-4.13 3.375,-7.52 7.515,-7.52 l 40.075,0 c 9.965,-0.6 67.527,-0.88 45.593,-68.1 L 782.461,642.215 c -1.754,-3.75 0.199,-6.817 4.34,-6.817 l 61.445,0 c 4.125,0 8.977,3.055 10.742,6.786 l 194.042,405.736 c 8.88,18.28 19.56,30.68 31.99,37.04 12.45,6.34 28.69,9.62 49.83,9.62 l 11.97,0 c 4.14,-0.01 7.51,3.37 7.51,7.51 l 0,17.78 c 0,4.13 -3.37,7.51 -7.51,7.51" /><path
         id="path38"
         style="fill:#13366d;fill-opacity:1;fill-rule:nonzero;stroke:none"
         d="m 2473.13,869.16 -53.4,0 c -2.44,-0.187 -4.38,-2.133 -4.56,-4.582 l 0,-119.371 -156.65,0 0,119.445 c -0.23,2.41 -2.15,4.321 -4.56,4.508 l -53.42,0 c -2.48,-0.187 -4.44,-2.176 -4.58,-4.676 l 0,-290.004 c 0.14,-2.539 2.17,-4.55 4.72,-4.687 l 53.13,0 c 2.49,0.117 4.47,2.07 4.71,4.531 l 0,122.41 156.65,0 0,-122.351 c 0.18,-2.5 2.19,-4.473 4.69,-4.59 l 53.13,0 c 2.55,0.137 4.6,2.176 4.72,4.734 l 0,289.914 c -0.12,2.504 -2.08,4.532 -4.58,4.719" /><path
         id="path40"
         style="fill:#13366d;fill-opacity:1;fill-rule:nonzero;stroke:none"
         d="m 1709.82,626.09 c -8.22,-7.852 -18.8,-7.852 -29.04,-7.852 l -94.95,-0.008 c -6.22,-0.019 -15.62,-0.039 -19.15,4.629 -0.45,0.672 -1.79,2.579 -1.79,15.2 l -0.01,58.675 115.89,0 c 10.31,0 21.02,-0.574 28.64,-7.472 8.33,-7.578 9.04,-18.789 9.04,-30.524 l 0,-1.113 c 0.02,-8.859 0.05,-23.262 -8.63,-31.535 z m 56.57,96.394 c -12.55,15.293 -31.01,22.715 -56.45,22.715 l -145.06,0 0,59.453 c 0,3.496 0,9.993 3.69,13.157 3.41,2.535 9.8,2.871 14.97,2.871 l 148.65,0 c 2.6,0.125 4.69,2.238 4.76,4.882 l 0,38.704 c -0.07,2.66 -2.19,4.804 -4.86,4.886 l -185.66,0 c -17.15,0 -27.33,-6.285 -32.83,-11.531 -10.1,-10.098 -11.28,-23.996 -11.28,-33.582 l 0,-212.937 c 0,-8.743 1.02,-19.922 8.94,-28.809 7.55,-8.313 18.48,-12.52 32.51,-12.52 l 167.05,0 c 31.34,0 47.65,12.579 54.58,20.079 11.52,12.636 17.35,35.398 17.35,67.632 0,30.266 -5.35,51.258 -16.36,65" /><path
         id="path42"
         style="fill:#13366d;fill-opacity:1;fill-rule:nonzero;stroke:none"
         d="m 1924.25,696.73 48.19,117.145 c 0,0 3.65,10.195 8.28,10.195 4.82,0 8.37,-10.211 8.37,-10.211 l 48.12,-117.129 -112.96,0 z m 223.69,-120.171 -0.16,0.363 -111.04,261.023 c -11.78,25.528 -27.3,34.59 -56.02,34.59 -29.45,0 -43.83,-8.414 -55.93,-34.578 l -111.09,-260.93 -0.26,-0.554 c -0.21,-0.539 -0.34,-1.106 -0.34,-1.7 0,-2.687 2.19,-4.855 4.95,-5 l 50.6,0 c 1.94,0.098 3.58,1.211 4.39,2.801 0.08,0.168 0.15,0.332 0.22,0.52 l 31.01,75.191 152.89,0 31.03,-75.328 c 0.06,-0.09 0.1,-0.187 0.16,-0.293 0.78,-1.641 2.45,-2.793 4.43,-2.891 l 50.59,0 c 2.74,0.145 4.95,2.313 4.95,5 0,0.625 -0.16,1.219 -0.38,1.786" /><path
         id="path44"
         style="fill:#13366d;fill-opacity:1;fill-rule:nonzero;stroke:none"
         d="m 2824.31,578.113 -140.84,119.77 c -6.67,5.738 -19.15,16.437 -19.15,25.371 0,6.086 7.54,13.789 15.67,21.223 l 128.4,116.433 c 0.76,0.883 1.26,2.016 1.26,3.281 0,2.637 -2.03,4.762 -4.62,4.969 l -64.29,0 c -1,-0.082 -1.91,-0.441 -2.68,-1.027 L 2616.95,758.109 c -5.19,-4.957 -8.87,-9.804 -11.48,-14.312 l 0,120.836 c -0.21,2.414 -2.13,4.328 -4.56,4.527 l -53.41,0 c -2.48,-0.207 -4.42,-2.195 -4.58,-4.695 l 0,-289.996 c 0.16,-2.5 2.1,-4.473 4.58,-4.688 l 53.41,0 c 2.43,0.207 4.35,2.11 4.56,4.524 l 0,128.445 c 3.3,-5.809 8.32,-12.273 15.95,-19.012 l 131.28,-113 c 0.76,-0.554 1.67,-0.898 2.66,-0.965 l 65.58,0 c 2.6,0.165 4.69,2.325 4.69,4.989 0,1.289 -0.5,2.453 -1.32,3.351" /><path
         id="path46"
         style="fill:#13366d;fill-opacity:1;fill-rule:nonzero;stroke:none"
         d="m 4983.23,1222.73 c 0,6.23 0,20.77 -6.47,33.09 -7.76,14.7 -22.18,22.16 -42.92,22.16 -23.42,0 -37.42,-8.87 -53.47,-33.86 L 4755.54,1050.3 c -1.69,-2.73 -3.49,-5.92 -5.19,-5.92 -1.1,0 -1.56,0.33 -1.81,0.59 -1.43,1.42 -1.41,5.68 -1.41,9.43 l 0.14,219.05 c -0.23,2.41 -2.14,4.32 -4.57,4.53 l -53.42,0 c -2.48,-0.21 -4.44,-2.2 -4.59,-4.69 l 0.01,-241.97 c 0,-15.77 0,-52.703 47.62,-52.703 32.34,0 42.07,15.164 50.67,28.563 0.16,0.23 127.93,196.36 127.93,196.36 2.55,4.04 5.74,9.07 7.5,9.07 1.08,0 2.32,-0.86 2.32,-7.58 l -0.09,-221.725 c 0.17,-2.5 2.12,-4.489 4.6,-4.688 l 53.42,0 c 2.42,0.199 4.33,2.098 4.55,4.52 l 0.01,239.593" /><path
         id="path48"
         style="fill:#13366d;fill-opacity:1;fill-rule:nonzero;stroke:none"
         d="m 1709.67,1036.9 c -8.57,-9.82 -24.68,-9.82 -32.43,-9.82 l -92.89,-0.01 c -4.41,-0.02 -12.61,-0.07 -16.53,3.99 -1.93,2.23 -2.94,7.57 -2.94,15.83 0,0 0,54.74 0,58.67 4.06,0 116.33,0 116.33,0 18.28,0 26.46,-7.14 29.7,-11.39 4.05,-5.64 6.2,-15.61 6.2,-28.72 0,-9.13 -1.28,-21.51 -7.44,-28.55 z m -144.79,117.12 c 0,3.94 0,61.15 0,61.15 0,5.21 1.19,9.24 3.42,11.63 2.57,2.77 6.19,2.74 10.37,2.7 l 96.8,0 c 9.59,0 19.51,0 27.32,-7.04 8.39,-7.64 9.46,-20.11 9.46,-30.08 0,-18.76 -3.83,-25.92 -6.11,-28.55 -7.42,-9.81 -19.02,-9.81 -30.24,-9.81 0,0 -106.96,0 -111.02,0 z m 201.38,-38.19 c -6.99,7.44 -16.93,12.58 -27.91,14.94 8.85,2.07 16.09,6.64 23.11,14.68 13.96,15.89 15.1,32.45 15.1,49.45 0,19.37 -2.08,47.14 -20.08,64.76 -16.56,16.22 -39.48,18.3 -57.6,18.3 l -152.01,0 c -15.2,0 -26.72,-4.35 -34.3,-12.93 -6.41,-7.35 -10.25,-19.22 -10.25,-31.75 l 0,-210.83 c 0,-16.69 7.01,-26.817 11.18,-31.36 11.75,-12.824 25.09,-12.485 38.91,-12.485 l 152.66,-0.003 c 19.57,0 39.81,0 58.11,19.644 18.25,19.574 18.25,43.874 18.25,63.414 0,16.2 0,38.37 -15.17,54.17" /><path
         id="path50"
         style="fill:#13366d;fill-opacity:1;fill-rule:nonzero;stroke:none"
         d="m 1909.68,1208.73 c 20.42,24.13 53.14,24.13 77.06,24.13 29.11,0 59.08,-1.86 77.47,-24.12 12.95,-15.54 18.97,-41.12 18.97,-80.45 0,-38.41 -6.2,-64.59 -18.97,-80.04 -19.95,-24.55 -54.57,-24.55 -77.47,-24.55 -37.07,0 -60.32,3.92 -77.03,24.53 l -0.01,0.02 c -13.43,16.34 -19.41,41.02 -19.41,80.04 0,40.16 5.8,64.22 19.39,80.44 z m 202.24,40.83 -0.01,0.01 c -34.2,31.77 -88.68,31.77 -124.74,31.77 -37.82,0 -89.63,0 -124.71,-31.75 -33.66,-30.43 -36.48,-78.57 -36.48,-121.3 0,-32.84 0,-87.79 36.48,-121.31 34.62,-31.753 88.84,-31.753 124.71,-31.753 36.24,0 91,0 124.75,31.773 35.58,33.5 35.58,95.02 35.58,121.29 0,40.88 -4.04,91.61 -35.58,121.27" /><path
         id="path52"
         style="fill:#13366d;fill-opacity:1;fill-rule:nonzero;stroke:none"
         d="m 2920.78,1208.73 c 20.39,24.13 53.14,24.13 77.04,24.13 29.11,0 59.07,-1.86 77.47,-24.12 12.95,-15.54 18.98,-41.12 18.98,-80.45 0,-38.41 -6.2,-64.59 -18.98,-80.04 -19.93,-24.55 -54.57,-24.55 -77.47,-24.55 -37.06,0 -60.32,3.92 -77.02,24.53 l 0,0.02 c -13.43,16.33 -19.42,41.02 -19.42,80.04 0,40.16 5.79,64.22 19.4,80.44 z m 202.23,40.83 0,0.01 c -34.2,31.77 -88.68,31.77 -124.76,31.77 -37.82,0 -89.62,0 -124.7,-31.75 -33.66,-30.43 -36.48,-78.57 -36.48,-121.3 0,-32.84 0,-87.79 36.47,-121.31 34.63,-31.753 88.84,-31.753 124.71,-31.753 36.24,0 91,0 124.76,31.773 35.58,33.49 35.58,95.02 35.58,121.29 0,40.88 -4.05,91.61 -35.58,121.27" /><path
         id="path54"
         style="fill:#13366d;fill-opacity:1;fill-rule:nonzero;stroke:none"
         d="m 4278.51,1027.06 -162.56,0 c -7.94,0 -15.32,0.24 -18.43,3.21 -2.24,1.79 -3.77,5.89 -3.77,9.85 l 0,65.44 149.96,0 c 2.6,0.13 4.69,2.24 4.76,4.88 l 0,38.69 c -0.07,2.66 -2.19,4.81 -4.86,4.89 l -149.86,0 0,59.03 c 0,4.09 0,9.16 4.14,12.75 3.77,3.25 9.22,3.7 14.52,3.7 l 164.4,-0.01 c 2.62,0.13 4.7,2.24 4.76,4.88 l 0,38.71 c -0.06,2.67 -2.19,4.81 -4.85,4.89 l -195.68,-0.01 c -14.05,0 -28.44,-1.45 -38.64,-12.02 -6.92,-7.49 -11.19,-19.82 -11.19,-32.24 l 0,-209.14 c 0,-12.99 1.46,-26.357 12.17,-36.138 10.77,-9.824 23.4,-9.824 36.78,-9.824 l 198.41,-0.012 c 2.63,0.133 4.71,2.258 4.77,4.883 l 0,38.711 c -0.06,2.67 -2.19,4.8 -4.83,4.88" /><path
         id="path56"
         style="fill:#13366d;fill-opacity:1;fill-rule:nonzero;stroke:none"
         d="m 5288.51,1027.06 -162.56,0 c -7.94,0 -15.32,0.24 -18.43,3.21 -2.24,1.79 -3.77,5.89 -3.77,9.85 l 0,65.44 149.96,0 c 2.6,0.13 4.69,2.24 4.76,4.88 l 0,38.69 c -0.07,2.66 -2.19,4.81 -4.86,4.89 l -149.86,0 0,59.03 c 0,4.09 0,9.16 4.14,12.75 3.77,3.25 9.22,3.7 14.52,3.7 l 164.4,-0.01 c 2.62,0.13 4.7,2.24 4.76,4.88 l 0,38.71 c -0.06,2.67 -2.19,4.81 -4.85,4.89 l -195.68,-0.01 c -14.05,0 -28.44,-1.45 -38.64,-12.02 -6.92,-7.49 -11.19,-19.82 -11.19,-32.24 l 0,-209.14 c 0,-12.99 1.46,-26.357 12.17,-36.138 10.77,-9.824 23.4,-9.824 36.78,-9.824 l 198.41,-0.012 c 2.63,0.133 4.71,2.258 4.77,4.883 l 0,38.711 c -0.06,2.67 -2.19,4.8 -4.83,4.88" /><path
         id="path58"
         style="fill:#13366d;fill-opacity:1;fill-rule:nonzero;stroke:none"
         d="m 4619.32,1277.96 -53.4,0 c -2.44,-0.19 -4.38,-2.13 -4.56,-4.58 l 0,-119.36 -156.65,0 0,119.43 c -0.23,2.41 -2.15,4.32 -4.56,4.51 l -53.43,0 c -2.48,-0.19 -4.43,-2.17 -4.57,-4.67 l 0,-289.978 c 0.14,-2.542 2.17,-4.558 4.73,-4.695 l 53.12,0 c 2.49,0.125 4.47,2.071 4.71,4.531 l 0,122.412 156.65,0 0,-122.349 c 0.18,-2.496 2.18,-4.469 4.69,-4.594 l 53.12,0 c 2.56,0.137 4.6,2.176 4.73,4.738 l 0,289.885 c -0.13,2.51 -2.08,4.53 -4.58,4.72" /><path
         id="path60"
         style="fill:#13366d;fill-opacity:1;fill-rule:nonzero;stroke:none"
         d="m 2716.02,1141.91 c -9.55,-10.29 -23.84,-10.29 -36.47,-10.29 0,0 -104.76,0 -108.83,0 0,4.01 0,82.27 0,82.27 0,4.95 0,9.22 3.34,12.4 3.43,3.28 7.59,3.25 11.24,3.21 l 95.15,0 c 8.03,0 24.77,0 34.76,-9.52 9.32,-9.3 10.41,-26.73 10.41,-38.99 0,-7.07 0,-28.6 -9.6,-39.08 z m 49.8,117.8 c -19.6,18.27 -46.67,18.27 -62.85,18.27 l -147.16,0 c -16.02,0 -27.92,-3.91 -36.38,-11.97 -11.23,-10.73 -11.23,-23.31 -11.23,-34.4 l 0,-176.39 -0.02,0 0,-71.915 c 0.15,-2.5 2.1,-4.489 4.58,-4.688 l 53.42,0 c 2.41,0.188 4.34,2.098 4.56,4.52 l 0,53.333 c 0,0 0,0 -0.02,0 0,22.81 0,44.8 0,46.69 4.11,0 142.86,0 142.86,0 18.41,0 36.58,5.53 48.58,14.79 18.69,14.59 27.77,41.61 27.77,82.62 0,26.58 -2.73,59.61 -24.11,79.14" /><path
         id="path62"
         style="fill:#13366d;fill-opacity:1;fill-rule:nonzero;stroke:none"
         d="m 3608.96,986.898 -121.25,119.722 c -7.15,6.84 -15.68,16.94 -15.68,26.3 0,7.96 6.16,14.28 12.22,20.49 L 3593.69,1270 c 0.65,0.84 1.03,1.88 1.03,3.02 0,2.56 -1.95,4.66 -4.46,4.94 l -63.95,0 c -1.06,-0.1 -1.99,-0.55 -2.75,-1.21 -0.24,-0.28 -96.78,-109.13 -96.79,-109.14 -4.36,-5.05 -7.82,-9.89 -10.43,-14.57 l 0,120.41 c -0.22,2.41 -2.15,4.32 -4.57,4.52 l -53.41,0 c -2.48,-0.2 -4.43,-2.2 -4.58,-4.68 l 0,-120.27 c -2.61,4.69 -6.07,9.53 -10.44,14.59 -0.01,0.01 -96.52,108.86 -96.8,109.14 -0.74,0.66 -1.68,1.11 -2.73,1.21 l -63.97,0 c -2.5,-0.28 -4.45,-2.38 -4.45,-4.94 0,-1.14 0.4,-2.18 1.04,-3.02 l 109.43,-116.59 c 6.06,-6.21 12.25,-12.53 12.25,-20.49 0,-9.36 -8.55,-19.46 -15.71,-26.3 L 3161.15,986.898 c -0.79,-0.894 -1.27,-2.039 -1.27,-3.3 0,-2.657 2.07,-4.801 4.65,-4.981 l 66.74,0 c 1.11,0.082 2.12,0.504 2.92,1.199 l 0.77,0.825 103.9,111.199 c 7.06,7.52 11.78,14.29 14.92,20.16 l 0,-128.695 c 0.15,-2.5 2.1,-4.489 4.58,-4.688 l 53.41,0 c 2.42,0.199 4.35,2.098 4.57,4.52 l 0,128.843 c 3.14,-5.87 7.86,-12.63 14.91,-20.14 l 103.91,-111.199 0.78,-0.825 c 0.8,-0.695 1.78,-1.117 2.91,-1.199 l 66.72,0 c 2.59,0.18 4.66,2.324 4.66,4.981 0,1.261 -0.48,2.406 -1.27,3.3" /><path
         id="path64"
         style="fill:#13366d;fill-opacity:1;fill-rule:nonzero;stroke:none"
         d="m 3806.65,1222.71 c 0,0 3.57,10.17 8.12,10.17 4.72,0 8.2,-10.19 8.2,-10.19 l 78.91,-195.63 -174.24,0 79.01,195.65 z m 179.03,-195.65 -24.35,0 -91.64,219.73 c -11.56,25.52 -26.76,34.56 -54.92,34.56 -28.87,0 -42.97,-8.39 -54.83,-34.56 l -91.69,-219.72 -24.36,-0.01 c -2.7,-0.08 -4.88,-2.25 -4.93,-4.89 l 0,-38.678 c 0.05,-2.637 2.18,-4.75 4.84,-4.875 l 341.97,0 c 2.66,0.125 4.79,2.238 4.84,4.875 l 0,38.688 c -0.05,2.65 -2.23,4.8 -4.93,4.88" /><path
         id="path66"
         style="fill:#13366d;fill-opacity:1;fill-rule:nonzero;stroke:none"
         d="m 2434.78,1115.83 c -6.99,7.44 -16.93,12.58 -27.9,14.94 8.84,2.07 16.08,6.64 23.11,14.68 13.95,15.89 15.09,32.45 15.09,49.45 0,19.37 -2.07,47.14 -20.08,64.76 -16.56,16.22 -39.48,18.3 -57.6,18.3 l -169.17,0 c -2.66,-0.08 -4.77,-2.23 -4.85,-4.88 l 0,-38.7 c 0.08,-2.62 2.16,-4.74 4.76,-4.88 l 145.85,0 c 9.59,0 19.51,0 27.32,-7.04 8.39,-7.64 9.46,-20.11 9.46,-30.08 0,-18.76 -3.83,-25.92 -6.11,-28.54 -7.42,-9.82 -19.02,-9.82 -30.24,-9.82 l -113.06,0 c -2.65,-0.09 -4.78,-2.23 -4.84,-4.9 l 0,-38.68 c 0.06,-2.64 2.14,-4.75 4.76,-4.89 l 118.45,-0.01 c 18.29,0 26.46,-7.13 29.7,-11.38 4.05,-5.65 6.2,-15.59 6.2,-28.69 0,-9.14 -1.28,-21.54 -7.44,-28.58 -8.57,-9.82 -24.68,-9.82 -32.43,-9.82 l -149.28,-0.01 c -2.66,-0.07 -4.8,-2.22 -4.83,-4.86 l 0,-38.708 c 0.03,-2.637 2.13,-4.75 4.74,-4.875 l 177.19,0 c 19.58,0 39.82,0 58.12,19.641 18.25,19.582 18.25,43.862 18.25,63.402 0,16.2 0,38.37 -15.17,54.17" /></g></g></svg>