<?xml version="1.0" encoding="UTF-8" standalone="no"?>
<svg
   xmlns:dc="http://purl.org/dc/elements/1.1/"
   xmlns:cc="http://creativecommons.org/ns#"
   xmlns:rdf="http://www.w3.org/1999/02/22-rdf-syntax-ns#"
   xmlns:svg="http://www.w3.org/2000/svg"
   xmlns="http://www.w3.org/2000/svg"
   xmlns:sodipodi="http://sodipodi.sourceforge.net/DTD/sodipodi-0.dtd"
   xmlns:inkscape="http://www.inkscape.org/namespaces/inkscape"
   id="Слой_1"
   viewBox="0 0 204.2 142.3"
   version="1.1"
   inkscape:version="0.91 r13725"
   sodipodi:docname="ru-zenit.svg">
  <metadata
     id="metadata64">
    <rdf:RDF>
      <cc:Work
         rdf:about="">
        <dc:format>image/svg+xml</dc:format>
        <dc:type
           rdf:resource="http://purl.org/dc/dcmitype/StillImage" />
      </cc:Work>
    </rdf:RDF>
  </metadata>
  <defs
     id="defs62" />
  <sodipodi:namedview
     pagecolor="#ffffff"
     bordercolor="#666666"
     borderopacity="1"
     objecttolerance="10"
     gridtolerance="10"
     guidetolerance="10"
     inkscape:pageopacity="0"
     inkscape:pageshadow="2"
     inkscape:window-width="842"
     inkscape:window-height="630"
     id="namedview60"
     showgrid="false"
     inkscape:zoom="1.5181195"
     inkscape:cx="93.197219"
     inkscape:cy="97.498388"
     inkscape:window-x="0"
     inkscape:window-y="0"
     inkscape:window-maximized="0"
     inkscape:current-layer="XMLID_421_" />
  <style
     id="style3">.st0{fill:#008996}</style>
  <g
     id="XMLID_421_">
    <g
       id="XMLID_523_"
       style="fill:#ffffff;fill-opacity:1">
      <path
         id="XMLID_548_"
         class="st0"
         d="M52.9 55.7h9V117.6H0V55.7h24v1.4H1.4v59.1h59.2V57.1h-7.7v-1.4z"
         style="fill:#ffffff;fill-opacity:1" />
      <path
         id="XMLID_534_"
         class="st0"
         d="M3.8 114.2l.2-11.6v-.1c1.1-.4 2.3-.8 3.4-1.2l.3 12.8-3.9.1zm9.6-.1H9l.8-13.7c1.1-.4 2.2-.9 3.2-1.3l.4 15zm5.6-.1h-4.4l.9-16.1c1-.5 2-1 3.1-1.5L19 114zm5.7 0h-4.4l1-19c1-.5 1.9-1 2.8-1.5l.6 20.5zm5.6-.1h-4.4l1.2-22.3c.9-.5 1.7-1.1 2.6-1.6l.6 23.9zm5.7 0h-4.3l1.4-26.2c.7-.6 1.5-1.1 2.2-1.7l.7 27.9zm5.6 0h-4.4l1.7-31c.6-.6 1.2-1.1 1.8-1.7l.9 32.7zm5.7-.1H43L45 77c.5-.5.9-1 1.4-1.6l.9 38.4zm5.6 0h-4.4L51 69.4c.3-.4.5-.8.8-1.1l1.1 45.5zm5.7-.1h-4.3L57 59.3h.2l1.4 54.4z"
         style="fill:#ffffff;fill-opacity:1" />
      <path
         id="XMLID_528_"
         class="st0"
         d="M29.7 83.8L27.8 85l-2.7 1.6c.2-2.4.4-6.9.6-10.9l2-35.6c.3.5.7 1 1 1.4l1 42.3zm5.5-4.5c-1.4 1.2-2.9 2.4-4.3 3.5L33 45.1c.5.2.9.5 1.4.7l.8 33.5zm5.5-5.3c-1.3 1.3-2.6 2.6-3.9 3.8l1.7-31c.5.1 1 .1 1.5.2l.7 27zm5.5-6.5c-1.1 1.5-2.2 2.9-3.4 4.2L44.2 47c.5-.1 1-.1 1.5-.2l.5 20.7zm5-8.4c-.8 1.7-1.8 3.4-2.8 5.1l1-18.3c.5-.2 1-.4 1.4-.5l.4 13.7z"
         style="fill:#ffffff;fill-opacity:1" />
      <path
         id="XMLID_524_"
         class="st0"
         d="M31.1 38.9c-1.2-.8-2.2-1.8-3.2-2.8l1.7-36h.2l1.3 38.8zm4.9 2.3c-1.1-.3-2.3-.8-3.4-1.5l1.4-30 .9 1.5 1.1 30zm3.5-26.8l1.2 22.8.2 4.3c-1 .3-2.3.3-3.5 0l1.2-27.2c.3.1.6.1.9.1z"
         style="fill:#ffffff;fill-opacity:1" />
    </g>
    <g
       id="XMLID_502_"
       style="fill:#ffffff;fill-opacity:1">
      <g
         id="XMLID_514_"
         style="fill:#ffffff;fill-opacity:1">
        <path
           id="XMLID_522_"
           class="st0"
           d="M98 55.7v5.6h-2.8v-3.4L83 58v23.6h7.8c6.2.4 8.5-13.8-3.3-13.2v3.4h-2.2v-5.6H89c8.2-.3 11.7 5.2 11.8 9.3-.2 4.9-4.5 8.4-10.1 8.4H75.5v-2.3h2.8V58h-2.8v-2.2l22.5-.1z"
           style="fill:#ffffff;fill-opacity:1" />
        <path
           id="XMLID_519_"
           class="st0"
           d="M119.4 71l-4.9-10.7-4.2 10.6 9.1.1zm-18.6 10.6h2.5l12.1-29.8 13.8 29.8h2.8v2.3h-10.4v-2.3h2.8l-3.9-8.4h-11l-3.4 8.5h2.5V84h-7.9v-2.4z"
           style="fill:#ffffff;fill-opacity:1" />
        <path
           id="XMLID_518_"
           class="st0"
           d="M142.4 81.6h2.8v2.2h-10.4v-2.2h2.8V57.9h-2.8v-2.2h10.4v2.2h-2.8v8.2h14v-8.2h-2.8v-2.2H164v2.2h-2.8v23.7h2.8v2.2h-10.4v-2.2h2.8V68.4h-14z"
           style="fill:#ffffff;fill-opacity:1" />
        <g
           id="XMLID_515_"
           style="fill:#ffffff;fill-opacity:1">
          <path
             id="XMLID_517_"
             class="st0"
             d="M189.6 81.6h-2.8v2.2h11.3v-2.2h-2.9l-13.6-15.4 10.5-8.2h2.9v-2.3h-9.6V58h2.8l-11.5 9z"
             style="fill:#ffffff;fill-opacity:1" />
          <path
             id="XMLID_516_"
             class="st0"
             d="M174.4 81.6h2.8v2.2h-10.4v-2.2h2.9V57.9h-2.9v-2.2h10.4v2.2l-2.8.1z"
             style="fill:#ffffff;fill-opacity:1" />
        </g>
      </g>
      <g
         id="XMLID_503_"
         style="fill:#ffffff;fill-opacity:1">
        <path
           id="XMLID_513_"
           class="st0"
           d="M80.8 102.1c7.9 0 8.2 13.2.5 13.2h-9.2v-3.4h-2.8v5.6h11.9c5.5 0 10.6-2.6 10.5-8.4 0-5.1-3-7.3-7.9-8.3-.4-.1-.4-.3 0-.4 4.2-.7 5.9-2.4 5.9-5.5 0-3.7-4.2-5.6-11.5-5.6H69.3v5.6h2.8v-3.4H78c4.9-.1 7 .9 7 3.4s-1.8 4.7-5.3 4.8h-4.8v5.6h2.2v-3.4l3.7.2z"
           style="fill:#ffffff;fill-opacity:1" />
        <path
           id="XMLID_512_"
           class="st0"
           d="M115.9 117.6v-5.7h-2.2v3.4H101v-13.2h6.5v3.4h2.3v-5.6H101l.1-8.3 10.9.1v3.4h2.3v-5.7H93.5v2.3h2.8v23.6h-2.8v2.3z"
           style="fill:#ffffff;fill-opacity:1" />
        <path
           id="XMLID_511_"
           class="st0"
           d="M125.8 115.3h2.8v2.3h-10.4v-2.3h2.8V91.7h-2.8v-2.3h10.4v2.3h-2.8v8.2h14v-8.2H137v-2.3h10.4v2.3h-2.8v23.6h2.8v2.3H137v-2.3h2.8v-13.2h-14z"
           style="fill:#ffffff;fill-opacity:1" />
        <path
           id="XMLID_509_"
           class="st0"
           d="M177.8 86.6v28.7h2.8v2.3h-10.4v-2.3h2.8V96.5l-20.5 23.9V91.7h-2.8v-2.3h10.4v2.3h-2.8v18.8z"
           style="fill:#ffffff;fill-opacity:1" />
        <path
           id="XMLID_507_"
           class="st0"
           d="M204.2 89.4v5.7H202v-3.4h-7.2v23.6h2.8v2.3h-10.4v-2.3h2.8V91.7h-7.1v3.4h-2.3v-5.7z"
           style="fill:#ffffff;fill-opacity:1" />
      </g>
    </g>
    <g
       id="XMLID_424_"
       style="fill:#ffffff;fill-opacity:1">
      <g
         id="XMLID_496_"
         style="fill:#ffffff;fill-opacity:1">
        <path
           id="XMLID_501_"
           class="st0"
           d="M166.3 132.7c2.4 0 2.5 4 .1 4h-2.8v-1h-.9v1.7h3.7c1.7 0 3.2-.8 3.2-2.6 0-1.6-.9-2.2-2.4-2.5-.1 0-.1-.1 0-.1 1.3-.2 1.8-.7 1.8-1.7 0-1.1-1.3-1.7-3.5-1.7H162.7v1.7h.9v-1h1.8c1.5 0 2.2.3 2.2 1 0 .8-.5 1.4-1.6 1.5h-1.5v1.7h.7v-1h1.1z"
           style="fill:#ffffff;fill-opacity:1" />
        <path
           id="XMLID_500_"
           class="st0"
           d="M177.1 137.5v-1.8h-.7v1.1h-3.9v-4.1h2v1.1h.7V132h-2.7v-2.5h3.4v1.1h.7v-1.8h-6.4v.7h.8v7.3h-.8v.7z"
           style="fill:#ffffff;fill-opacity:1" />
        <path
           id="XMLID_499_"
           class="st0"
           d="M180.1 136.8h.9v.7h-3.2v-.7h.8v-7.3h-.8v-.7h3.2v.7h-.9v2.5h4.3v-2.5h-.8v-.7h3.1v.7h-.8v7.3h.8v.7h-3.1v-.7h.8v-4.1h-4.3z"
           style="fill:#ffffff;fill-opacity:1" />
        <path
           id="XMLID_498_"
           class="st0"
           d="M196.1 128v8.8h.8v.7h-3.2v-.7h.9V131l-6.3 7.3v-8.8h-.9v-.7h3.2v.7h-.8v5.8z"
           style="fill:#ffffff;fill-opacity:1" />
        <path
           id="XMLID_497_"
           class="st0"
           d="M204.2 128.9v1.7h-.7v-1.1h-2.2v7.3h.9v.7H199v-.7h.8v-7.2l-2.2-.1v1.1h-.7v-1.7z"
           style="fill:#ffffff;fill-opacity:1" />
      </g>
      <g
         id="XMLID_439_"
         style="fill:#ffffff;fill-opacity:1">
        <path
           id="XMLID_495_"
           class="st0"
           d="M6.9 128.9v1.7H6v-1H2.3v7.3h2.4c1.9.1 2.6-4.2-1-4.1v1H3v-1.7h1.1c2.5-.1 3.6 1.6 3.6 2.8-.1 1.5-1.4 2.6-3.1 2.6H0v-.7h.9v-7.3H0v-.7h6.9z"
           style="fill:#ffffff;fill-opacity:1" />
        <path
           id="XMLID_492_"
           class="st0"
           d="M13.8 133.5l-1.5-3.3-1.3 3.2 2.8.1zm-5.7 3.3h.8l3.7-9.2 4.2 9.2h.9v.7h-3.2v-.7h.9l-1.2-2.6h-3.4l-1 2.6h.8v.7H8.2v-.7z"
           style="fill:#ffffff;fill-opacity:1" />
        <path
           id="XMLID_489_"
           class="st0"
           d="M78.9 133.5l-1.5-3.3-1.3 3.2 2.8.1zm-5.7 3.3h.8l3.7-9.2 4.2 9.2h.9v.7h-3.2v-.7h.9l-1.2-2.6h-3.4l-1 2.6h.8v.7h-2.4v-.7z"
           style="fill:#ffffff;fill-opacity:1" />
        <path
           id="XMLID_488_"
           class="st0"
           d="M20.9 136.8h.8v.7h-3.1v-.7h.8v-7.3h-.8v-.6h3.1v.6h-.8v2.5h4.3v-2.5h-.9v-.6h3.2v.6h-.8v7.3h.8v.7h-3.2v-.7h.9v-4.1h-4.3z"
           style="fill:#ffffff;fill-opacity:1" />
        <g
           id="XMLID_485_"
           style="fill:#ffffff;fill-opacity:1">
          <path
             id="XMLID_487_"
             class="st0"
             d="M35.6 136.8h-.9v.7h3.4v-.7h-.8l-4.2-4.7 3.2-2.5h.9v-.7h-2.9v.7h.8l-3.5 2.7z"
             style="fill:#ffffff;fill-opacity:1" />
          <path
             id="XMLID_486_"
             class="st0"
             d="M30.9 136.8h.9v.7h-3.2v-.7h.8v-7.3h-.8v-.6h3.2v.6l-.9.1z"
             style="fill:#ffffff;fill-opacity:1" />
        </g>
        <g
           id="XMLID_482_"
           style="fill:#ffffff;fill-opacity:1">
          <path
             id="XMLID_484_"
             class="st0"
             d="M69.9 136.8H69v.7h3.5v-.7h-.9l-4.1-4.7 3.2-2.5h.8v-.7h-2.9v.7h.9l-3.6 2.7z"
             style="fill:#ffffff;fill-opacity:1" />
          <path
             id="XMLID_483_"
             class="st0"
             d="M65.2 136.8h.9v.7h-3.2v-.7h.9v-7.3h-.9v-.6h3.2v.6l-.9.1z"
             style="fill:#ffffff;fill-opacity:1" />
        </g>
        <g
           id="XMLID_455_"
           style="fill:#ffffff;fill-opacity:1">
          <g
             id="XMLID_547_"
             style="fill:#ffffff;fill-opacity:1">
            <path
               id="XMLID_549_"
               class="st0"
               d="M42.2 128.8c-2.4 0-4.3 1.9-4.3 4.3s1.9 4.3 4.3 4.3 4.3-1.9 4.3-4.3c0-2.3-1.9-4.3-4.3-4.3zm0 8c-1.5 0-2.7-1.6-2.7-3.6s1.2-3.6 2.7-3.6c1.5 0 2.7 1.6 2.7 3.6s-1.2 3.6-2.7 3.6z"
               style="fill:#ffffff;fill-opacity:1" />
          </g>
        </g>
        <g
           id="XMLID_442_"
           style="fill:#ffffff;fill-opacity:1">
          <g
             id="XMLID_552_"
             style="fill:#ffffff;fill-opacity:1">
            <path
               id="XMLID_553_"
               class="st0"
               d="M52.6 132.3c-.1 0-.1 0 0 0 .9-.3 1.4-.8 1.4-1.4 0-1-.9-2.1-3.4-2.1h-3.7v.7h.9v7.3h-.9v.7h4.5c2.3 0 3.3-.9 3.3-2.6-.1-.4-.4-2.2-2.1-2.6zm-1.3 4.5h-2.2v-7.3h1.4c.9 0 1.9.3 1.9 1.4 0 .9-.7 1.1-1.1 1.1h-1.5v1.7h.7v-1h.8c.4 0 1.8-.1 1.8 2.2.1 1.9-1.8 1.9-1.8 1.9z"
               style="fill:#ffffff;fill-opacity:1" />
          </g>
        </g>
        <path
           id="XMLID_441_"
           class="st0"
           d="M57.2 133.2c0-1.7.9-4.3 4.1-3.6v1h.7v-1.7h-1.7c-3.9 0-4.8 2.6-4.8 4.3 0 1.7.9 4.3 4.3 4.3H62v-1.7h-.7v1c-3.2.7-4.1-1.9-4.1-3.6z"
           style="fill:#ffffff;fill-opacity:1" />
        <path
           id="XMLID_440_"
           class="st0"
           d="M89 134.2l-2.9 2.6h.9v.7h-3.4v-.7h.9l2.8-2.6c-2.2 0-3.1-1.3-3.1-2.8 0-1.5 1.3-2.6 3.1-2.6h4.6v.8H91v7.1h.9v.7h-3.2v-.7h.9v-7.2h-2.1c-1.3 0-2 1-2 1.9 0 .8.2 2.3 2.8 2v-1h.7v1.8z"
           style="fill:#ffffff;fill-opacity:1" />
      </g>
      <g
         id="XMLID_425_"
         style="fill:#ffffff;fill-opacity:1">
        <path
           id="XMLID_433_"
           class="st0"
           d="M151.6 133.5l-1.5-3.3-1.3 3.3h2.8zm-5.7 3.3h.8l3.7-9.1 4.2 9.1h.9v.7h-3.2v-.7h.9l-1.2-2.6h-3.4l-1 2.6h.8v.7H146v-.7z"
           style="fill:#ffffff;fill-opacity:1" />
        <path
           id="XMLID_431_"
           class="st0"
           d="M128.4 129.5v7.3h.9v.7h-3.2v-.7h.9v-7.3h-.9v-.7h9v.7h-.9v7.3h.9v.7h-3.2v-.7h.9l-.1-7.3z"
           style="fill:#ffffff;fill-opacity:1" />
        <path
           id="XMLID_429_"
           class="st0"
           d="M138.4 129.5v7.3h.9v.7h-3.2v-.7h.9v-7.3h-.9v-.7h9v.7h-.9v7.3h.9v.7h-3.2v-.7h.9v-7.3z"
           style="fill:#ffffff;fill-opacity:1" />
        <path
           id="XMLID_428_"
           class="st0"
           d="M120.6 135.9l-3.9-6.4h-.9v-.7h3.2v.7h-.9l3.1 4.9 2.3-4.9h-.9v-.7h2.6v.7h-.9l-3.3 7.1c-.7 1.2-2.4.9-3.3-.2l-.7-.8 1.1-1.3.7.6-.7.8c.4.8 1.9 1.4 2.4.3-.1.2.1-.1.1-.1z"
           style="fill:#ffffff;fill-opacity:1" />
        <path
           id="XMLID_427_"
           class="st0"
           d="M111 137.5v-.7h-.9v-7.3h2.4c1.9-.1 2.6 4.2-1 4.1v-1h-.7v1.7h1.1c2.5.1 3.6-1.6 3.6-2.8-.1-1.5-1.4-2.6-3.1-2.6h-4.7v.7h.9v7.3h-.9v.7h3.3z"
           style="fill:#ffffff;fill-opacity:1" />
        <path
           id="XMLID_426_"
           class="st0"
           d="M107 128.9v1.7h-.7v-1.1h-3.9v7.3h.8v.7H100v-.7h.9v-7.2l-.9-.1v-.6z"
           style="fill:#ffffff;fill-opacity:1" />
      </g>
    </g>
    <path
       id="XMLID_423_"
       class="st0"
       d="M0 123.8h204.2v1.2H0z"
       style="fill:#ffffff;fill-opacity:1" />
    <path
       id="XMLID_422_"
       class="st0"
       d="M0 142.3v-1.2h204.2v1.2"
       style="fill:#ffffff;fill-opacity:1" />
  </g>
</svg>
