<?xml version="1.0" encoding="UTF-8" standalone="no"?>
<svg
   xmlns:sketch="http://www.bohemiancoding.com/sketch/ns"
   xmlns:dc="http://purl.org/dc/elements/1.1/"
   xmlns:cc="http://creativecommons.org/ns#"
   xmlns:rdf="http://www.w3.org/1999/02/22-rdf-syntax-ns#"
   xmlns:svg="http://www.w3.org/2000/svg"
   xmlns="http://www.w3.org/2000/svg"
   xmlns:sodipodi="http://sodipodi.sourceforge.net/DTD/sodipodi-0.dtd"
   xmlns:inkscape="http://www.inkscape.org/namespaces/inkscape"
   width="780px"
   height="501px"
   viewBox="0 0 780 501"
   version="1.1"
   id="svg2"
   inkscape:version="0.91 r13725"
   sodipodi:docname="diners-white.svg">
  <metadata
     id="metadata18">
    <rdf:RDF>
      <cc:Work
         rdf:about="">
        <dc:format>image/svg+xml</dc:format>
        <dc:type
           rdf:resource="http://purl.org/dc/dcmitype/StillImage" />
      </cc:Work>
    </rdf:RDF>
  </metadata>
  <sodipodi:namedview
     pagecolor="#ffffff"
     bordercolor="#666666"
     borderopacity="1"
     objecttolerance="10"
     gridtolerance="10"
     guidetolerance="10"
     inkscape:pageopacity="0"
     inkscape:pageshadow="2"
     inkscape:window-width="814"
     inkscape:window-height="556"
     id="namedview16"
     showgrid="false"
     inkscape:zoom="0.3974359"
     inkscape:cx="390"
     inkscape:cy="250.5"
     inkscape:window-x="0"
     inkscape:window-y="0"
     inkscape:window-maximized="0"
     inkscape:current-layer="Page-1" />
  <!-- Generator: Sketch 3.3.1 (12005) - http://www.bohemiancoding.com/sketch -->
  <title
     id="title4">diners-outline</title>
  <desc
     id="desc6">Created with Sketch.</desc>
  <defs
     id="defs8" />
  <g
     id="Page-1"
     stroke="none"
     stroke-width="1"
     fill="none"
     fill-rule="evenodd"
     sketch:type="MSPage">
    <rect
       id="Rectangle-1"
       stroke="#393939"
       stroke-width="30"
       sketch:type="MSShapeGroup"
       x="15"
       y="15"
       width="750"
       height="471"
       rx="40"
       style="stroke:#ffffff;stroke-opacity:1" />
    <path
       d="M599.933911,252.947339 C599.933911,153.53154 516.952976,84.8140806 426.038924,84.8471464 L347.79674,84.8471464 C255.793699,84.8140806 180.066089,153.552041 180.066089,252.947339 C180.066089,343.877778 255.793699,418.587432 347.79674,418.150963 L426.038924,418.150963 C516.952976,418.586771 599.933911,343.857939 599.933911,252.947339 Z M348.280302,98.9308394 C264.210378,98.9572921 196.085889,167.238282 196.066089,251.510581 C196.085889,335.768331 264.209719,404.042708 348.280302,404.069161 C432.370025,404.042708 500.508375,335.768331 500.520254,251.510581 C500.507715,167.238282 432.370025,98.9572921 348.280302,98.9308394 Z"
       id="Shape"
       fill="#373737"
       sketch:type="MSShapeGroup"
       style="fill:#ffffff;fill-opacity:1" />
    <path
       d="M252.066089,251.09774 L252.066089,251.09774 C252.145288,209.917524 277.812421,174.801587 314.006443,160.847134 L314.006443,341.327183 C277.812421,327.380667 252.144628,292.283907 252.066089,251.09774 L252.066089,251.09774 Z"
       id="Path"
       fill="#393939"
       sketch:type="MSShapeGroup"
       style="fill:#ffffff;fill-opacity:1" />
    <path
       d="M383.066089,341.372814 L383.066089,341.372814 L383.066089,160.847134 C419.273312,174.767859 444.980043,209.903637 445.046043,251.103692 C444.980043,292.316312 419.273312,327.425636 383.066089,341.372814 L383.066089,341.372814 Z"
       id="path14"
       fill="#393939"
       sketch:type="MSShapeGroup"
       style="fill:#ffffff;fill-opacity:1" />
  </g>
</svg>
