<?xml version="1.0" encoding="UTF-8" standalone="no"?>
<svg
   xmlns:dc="http://purl.org/dc/elements/1.1/"
   xmlns:cc="http://creativecommons.org/ns#"
   xmlns:rdf="http://www.w3.org/1999/02/22-rdf-syntax-ns#"
   xmlns:svg="http://www.w3.org/2000/svg"
   xmlns="http://www.w3.org/2000/svg"
   xmlns:sodipodi="http://sodipodi.sourceforge.net/DTD/sodipodi-0.dtd"
   xmlns:inkscape="http://www.inkscape.org/namespaces/inkscape"
   width="780"
   height="501"
   viewBox="0 0 780 501"
   id="svg2"
   version="1.1"
   inkscape:version="0.91 r13725"
   sodipodi:docname="jcb-colored.svg">
  <metadata
     id="metadata37">
    <rdf:RDF>
      <cc:Work
         rdf:about="">
        <dc:format>image/svg+xml</dc:format>
        <dc:type
           rdf:resource="http://purl.org/dc/dcmitype/StillImage" />
        <dc:title>Slice 1</dc:title>
      </cc:Work>
    </rdf:RDF>
  </metadata>
  <sodipodi:namedview
     pagecolor="#ffffff"
     bordercolor="#666666"
     borderopacity="1"
     objecttolerance="10"
     gridtolerance="10"
     guidetolerance="10"
     inkscape:pageopacity="0"
     inkscape:pageshadow="2"
     inkscape:window-width="720"
     inkscape:window-height="480"
     id="namedview35"
     showgrid="false"
     fit-margin-top="0"
     fit-margin-left="0"
     fit-margin-right="0"
     fit-margin-bottom="0"
     inkscape:zoom="0.41333333"
     inkscape:cx="390"
     inkscape:cy="250.5"
     inkscape:window-x="0"
     inkscape:window-y="0"
     inkscape:window-maximized="0"
     inkscape:current-layer="g23" />
  <title
     id="title4">Slice 1</title>
  <defs
     id="defs6">
    <linearGradient
       x1="713.38519"
       y1="151.04114"
       x2="920.43941"
       y2="151.04114"
       id="a"
       gradientTransform="scale(0.64136158,1.5591829)"
       gradientUnits="userSpaceOnUse">
      <stop
         stop-color="#007B40"
         offset="0%"
         id="stop9" />
      <stop
         stop-color="#55B330"
         offset="100%"
         id="stop11" />
    </linearGradient>
    <linearGradient
       x1="248.43379"
       y1="151.3583"
       x2="455.03202"
       y2="151.3583"
       id="b"
       gradientTransform="scale(0.64270588,1.5559217)"
       gradientUnits="userSpaceOnUse">
      <stop
         stop-color="#1D2970"
         offset="0%"
         id="stop14" />
      <stop
         stop-color="#006DBA"
         offset="100%"
         id="stop16" />
    </linearGradient>
    <linearGradient
       x1="481.02563"
       y1="151.08855"
       x2="688.00177"
       y2="151.08855"
       id="c"
       gradientTransform="scale(0.64155996,1.5587008)"
       gradientUnits="userSpaceOnUse">
      <stop
         stop-color="#6E2B2F"
         offset="0%"
         id="stop19" />
      <stop
         stop-color="#E30138"
         offset="100%"
         id="stop21" />
    </linearGradient>
  </defs>
  <g
     id="g23"
     style="fill:none;fill-rule:evenodd"
     transform="translate(15,15)">
    <rect
       width="750"
       height="471"
       rx="40"
       id="rect25"
       style="fill:#0e4c96;stroke:#0e4c96;stroke-width:30;stroke-miterlimit:4;stroke-dasharray:none;stroke-opacity:1"
       x="0"
       y="0" />
    <path
       d="m 617.243,346.766 c 0,41.615 -33.728,75.36 -75.36,75.36 l -409.126,0 0,-297.88 c 0,-41.627 33.733,-75.372 75.365,-75.372 l 409.12,0 0,297.892 z"
       id="path27"
       inkscape:connector-curvature="0"
       style="fill:#ffffff" />
    <path
       d="m 483.86,242.045 c 11.683,0.253 23.436,-0.516 35.076,0.4 11.787,2.2 14.628,20.043 4.156,25.888 -7.14,3.85 -15.633,1.432 -23.38,2.113 l -15.852,0 0,-28.4 z M 525.69,209.9 c 2.596,9.165 -6.238,17.392 -15.066,16.13 l -26.764,0 c 0.184,-8.642 -0.37,-18.02 0.27,-26.208 10.725,0.3 21.55,-0.616 32.21,0.48 4.582,1.15 8.414,4.916 9.352,9.598 z M 590.12,73.997 c 0.498,17.5 0.07,35.927 0.214,53.783 -0.035,72.596 0.072,145.194 -0.055,217.79 -0.47,27.207 -24.583,50.844 -51.6,51.387 -27.047,0.11 -54.096,0.016 -81.143,0.047 l 0,-109.75 c 29.47,-0.154 58.96,0.307 88.417,-0.232 13.667,-0.86 28.632,-9.876 29.27,-24.915 1.61,-15.102 -12.632,-25.55 -26.153,-27.2 -5.197,-0.136 -5.043,-1.516 0,-2.118 12.893,-2.788 23.02,-16.134 19.227,-29.5 -3.236,-14.058 -18.773,-19.5 -31.697,-19.472 -26.35,-0.18 -52.71,-0.026 -79.063,-0.077 0.172,-20.488 -0.354,-41 0.286,-61.473 2.087,-26.716 26.806,-48.747 53.447,-48.27 l 78.85,0 z"
       id="path29"
       inkscape:connector-curvature="0"
       style="fill:url(#a)" />
    <path
       d="m 159.74,125.04 c 0.674,-27.163 24.89,-50.61 51.875,-51.007 26.944,-0.083 53.89,-0.012 80.837,-0.036 -0.074,90.885 0.148,181.777 -0.112,272.658 -1.038,26.834 -24.99,49.834 -51.68,50.307 -26.995,0.1 -53.994,0.014 -80.99,0.042 l 0,-113.454 c 26.222,6.195 53.72,8.833 80.472,4.722 15.993,-2.575 33.488,-10.424 38.902,-27.014 3.986,-14.192 1.742,-29.126 2.334,-43.692 l 0,-33.824 -46.298,0 c -0.207,22.37 0.427,44.78 -0.334,67.125 -1.248,13.734 -14.846,22.46 -27.8,21.995 -16.066,0.17 -47.898,-11.64 -47.898,-11.64 -0.08,-41.917 0.466,-94.408 0.692,-136.182 z"
       id="path31"
       inkscape:connector-curvature="0"
       style="fill:url(#b)" />
    <path
       d="m 309.72,197.39 c -2.434,0.517 -0.49,-8.3 -1.114,-11.646 0.166,-21.15 -0.346,-42.323 0.284,-63.458 2.083,-26.83 26.99,-48.916 53.74,-48.288 l 78.765,0 c -0.074,90.884 0.147,181.775 -0.112,272.656 -1.04,26.834 -24.992,49.833 -51.68,50.308 -26.998,0.1 -53.998,0.015 -80.997,0.043 l 0,-124.297 c 18.44,15.128 43.5,17.484 66.472,17.525 17.317,-0.006 34.534,-2.675 51.35,-6.67 l 0,-22.773 c -18.953,9.447 -41.233,15.446 -62.243,10.018 -14.656,-3.65 -25.294,-17.81 -25.056,-32.936 -1.7,-15.728 7.523,-32.335 22.98,-37.01 19.19,-6.01 40.108,-1.414 58.096,6.397 3.855,2.017 7.765,4.52 6.222,-1.922 l 0,-17.9 c -30.084,-7.157 -62.1,-9.792 -92.33,-2.004 -8.747,2.468 -17.27,6.21 -24.378,11.956 z"
       id="path33"
       inkscape:connector-curvature="0"
       style="fill:url(#c)" />
  </g>
</svg>
