<?xml version="1.0" encoding="UTF-8" standalone="no"?>
<svg
   xmlns:sketch="http://www.bohemiancoding.com/sketch/ns"
   xmlns:dc="http://purl.org/dc/elements/1.1/"
   xmlns:cc="http://creativecommons.org/ns#"
   xmlns:rdf="http://www.w3.org/1999/02/22-rdf-syntax-ns#"
   xmlns:svg="http://www.w3.org/2000/svg"
   xmlns="http://www.w3.org/2000/svg"
   xmlns:sodipodi="http://sodipodi.sourceforge.net/DTD/sodipodi-0.dtd"
   xmlns:inkscape="http://www.inkscape.org/namespaces/inkscape"
   width="780px"
   height="501px"
   viewBox="0 0 780 501"
   version="1.1"
   id="svg2"
   inkscape:version="0.91 r13725"
   sodipodi:docname="master-card-white.svg">
  <metadata
     id="metadata45">
    <rdf:RDF>
      <cc:Work
         rdf:about="">
        <dc:format>image/svg+xml</dc:format>
        <dc:type
           rdf:resource="http://purl.org/dc/dcmitype/StillImage" />
        <dc:title>jcb copy</dc:title>
      </cc:Work>
    </rdf:RDF>
  </metadata>
  <sodipodi:namedview
     pagecolor="#ffffff"
     bordercolor="#666666"
     borderopacity="1"
     objecttolerance="10"
     gridtolerance="10"
     guidetolerance="10"
     inkscape:pageopacity="0"
     inkscape:pageshadow="2"
     inkscape:window-width="1440"
     inkscape:window-height="851"
     id="namedview43"
     showgrid="false"
     inkscape:zoom="0.36664165"
     inkscape:cx="-44.161165"
     inkscape:cy="258.48311"
     inkscape:window-x="0"
     inkscape:window-y="23"
     inkscape:window-maximized="1"
     inkscape:current-layer="g5439" />
  <!-- Generator: Sketch 3.3.1 (12005) - http://www.bohemiancoding.com/sketch -->
  <title
     id="title4">jcb copy</title>
  <desc
     id="desc6">Created with Sketch.</desc>
  <defs
     id="defs8">
    <clipPath
       clipPathUnits="userSpaceOnUse"
       id="clipPath3944">
      <path
         inkscape:connector-curvature="0"
         d="M 0,612 792,612 792,0 0,0 0,612 z"
         id="path3946" />
    </clipPath>
    <clipPath
       clipPathUnits="userSpaceOnUse"
       id="clipPath3538">
      <path
         inkscape:connector-curvature="0"
         d="M 218.25,0 792,0 l 0,489.1 -573.75,0 0,-489.1 z"
         id="path3540" />
    </clipPath>
    <clipPath
       clipPathUnits="userSpaceOnUse"
       id="clipPath3518">
      <path
         inkscape:connector-curvature="0"
         d="M 218.25,0 792,0 l 0,489.1 -573.75,0 0,-489.1 z"
         id="path3520" />
    </clipPath>
  </defs>
  <g
     id="Page-1"
     stroke="none"
     stroke-width="1"
     fill="none"
     fill-rule="evenodd"
     sketch:type="MSPage">
    <rect
       id="Rectangle-1"
       stroke="#393939"
       stroke-width="30"
       sketch:type="MSShapeGroup"
       x="15"
       y="15"
       width="750"
       height="471"
       rx="40"
       style="stroke:#ffffff;stroke-opacity:1;fill:none;fill-opacity:1" />
    <g
       id="path14-path-+-path14-path"
       sketch:type="MSLayerGroup"
       transform="translate(691.000000, 357.000000)"
       fill="#393939" />
    <g
       id="path14-path-+-path14-path-copy"
       sketch:type="MSLayerGroup"
       transform="translate(673.000000, 288.000000)"
       fill="#393939" />
    <g
       transform="translate(-2567.0756,-813.89284)"
       id="layer1"
       inkscape:label="Layer 1"
       style="display:inline">
      <g
         transform="matrix(18.862379,0,0,18.862379,-18863.918,-11685.954)"
         id="g5473"
         style="display:inline">
        <g
           id="g3806"
           transform="matrix(1.25,0,0,-1.25,1128.8575,692.75226)"
           style="fill:#ffffff;fill-opacity:1">
          <path
             inkscape:connector-curvature="0"
             d="m 16.511756,6.0777816 c 0,0.3067728 0.201033,0.558794 0.529539,0.558794 0.313877,0 0.525775,-0.2411551 0.525775,-0.558794 0,-0.3176388 -0.211898,-0.5587939 -0.525775,-0.5587939 -0.328506,0 -0.529539,0.2520211 -0.529539,0.5587939 m 1.413077,0 0,0.872671 -0.379496,0 0,-0.2118983 c -0.120369,0.1571477 -0.303011,0.2557829 -0.55127,0.2557829 -0.489416,0 -0.87309,-0.3836738 -0.87309,-0.9165556 0,-0.533299 0.383674,-0.9165556 0.87309,-0.9165556 0.248259,0 0.430901,0.09864 0.55127,0.255783 l 0,-0.2118994 0.379496,0 z m 12.824259,0 c 0,0.3067728 0.201032,0.558794 0.529538,0.558794 0.314295,0 0.525776,-0.2411551 0.525776,-0.558794 0,-0.3176388 -0.211481,-0.5587939 -0.525776,-0.5587939 -0.328506,0 -0.529538,0.2520211 -0.529538,0.5587939 m 1.413493,0 0,1.5735675 -0.379913,0 0,-0.9127948 c -0.120368,0.1571477 -0.30301,0.2557829 -0.55127,0.2557829 -0.489416,0 -0.87309,-0.3836738 -0.87309,-0.9165556 0,-0.533299 0.383674,-0.9165556 0.87309,-0.9165556 0.24826,0 0.430902,0.09864 0.55127,0.255783 l 0,-0.2118994 0.379913,0 z m -9.527081,0.5767653 c 0.244498,0 0.401646,-0.1533859 0.441769,-0.4233794 l -0.90569,0 c 0.04054,0.2520222 0.19351,0.4233794 0.463921,0.4233794 m 0.0076,0.3397903 c -0.511566,0 -0.869329,-0.3723895 -0.869329,-0.9165556 0,-0.5550321 0.372391,-0.9165556 0.894824,-0.9165556 0.262888,0 0.503625,0.065616 0.715523,0.2444986 L 23.198103,5.6870025 C 23.051822,5.5703948 22.865418,5.5043598 22.690299,5.5043598 c -0.244499,0 -0.467264,0.1132631 -0.522015,0.4275585 l 1.29605,0 c 0.0038,0.047228 0.0076,0.094878 0.0076,0.1458633 -0.0038,0.5441661 -0.33979,0.9165556 -0.828787,0.9165556 m 4.582362,-0.9165556 c 0,0.3067728 0.201032,0.558794 0.529538,0.558794 0.313877,0 0.525775,-0.2411551 0.525775,-0.558794 0,-0.3176388 -0.211898,-0.5587939 -0.525775,-0.5587939 -0.328506,0 -0.529538,0.2520211 -0.529538,0.5587939 m 1.413076,0 0,0.872671 -0.379496,0 0,-0.2118983 c -0.120786,0.1571477 -0.303011,0.2557829 -0.55127,0.2557829 -0.489416,0 -0.87309,-0.3836738 -0.87309,-0.9165556 0,-0.533299 0.383674,-0.9165556 0.87309,-0.9165556 0.248259,0 0.430484,0.09864 0.55127,0.255783 l 0,-0.2118994 0.379496,0 z m -3.556304,0 c 0,-0.5295382 0.368629,-0.9165556 0.931184,-0.9165556 0.262888,0 0.438008,0.058514 0.627755,0.2081365 L 26.458962,5.6761354 C 26.316443,5.573734 26.166818,5.5189877 26.002147,5.5189877 c -0.303011,0.00378 -0.525776,0.2227654 -0.525776,0.5587939 0,0.3360285 0.222765,0.5550321 0.525776,0.558794 0.164671,0 0.314296,-0.054752 0.456815,-0.1571477 l 0.182225,0.3067728 c -0.189747,0.1496241 -0.364867,0.2081365 -0.627755,0.2081365 -0.562555,0 -0.931184,-0.3870173 -0.931184,-0.9165556 m 4.892895,0.9165556 c -0.219003,0 -0.361523,-0.1024014 -0.460158,-0.2557829 l 0,0.2118983 -0.376152,0 0,-1.745343 0.379914,0 0,0.9784126 c 0,0.2888004 0.124129,0.4492915 0.372389,0.4492915 0.0769,0 0.157148,-0.010864 0.237393,-0.043888 l 0.117025,0.3577616 c -0.084,0.033013 -0.193508,0.04765 -0.270411,0.04765 M 19.801916,6.8116946 c -0.182643,0.1203694 -0.434246,0.1826426 -0.711763,0.1826426 -0.442186,0 -0.726807,-0.2118983 -0.726807,-0.5587939 0,-0.2846214 0.211898,-0.4601587 0.60226,-0.5149094 l 0.179299,-0.0255 c 0.208137,-0.029251 0.306355,-0.084003 0.306355,-0.1826427 0,-0.1349962 -0.138759,-0.2118983 -0.397886,-0.2118983 -0.262888,0 -0.452635,0.084003 -0.580527,0.1826427 L 18.293966,5.3877468 c 0.208138,-0.1533859 0.471026,-0.2265262 0.755647,-0.2265262 0.504043,0 0.796188,0.2373933 0.796188,0.56966 0,0.3067728 -0.229871,0.467264 -0.609784,0.5220146 l -0.178881,0.025911 c -0.164253,0.021739 -0.295906,0.05433 -0.295906,0.1713571 0,0.127892 0.12413,0.2043758 0.332267,0.2043758 0.222765,0 0.438426,-0.084003 0.544166,-0.149624 z m 4.896657,0.1826426 c -0.219003,0 -0.361523,-0.1024014 -0.45974,-0.2557829 l 0,0.2118983 -0.376151,0 0,-1.745343 0.379494,0 0,0.9784126 c 0,0.2888004 0.12413,0.4492915 0.37239,0.4492915 0.0769,0 0.157147,-0.010864 0.237394,-0.043888 l 0.117025,0.3577616 c -0.084,0.033013 -0.19351,0.04765 -0.270412,0.04765 m -3.238664,-0.043888 -0.620651,0 0,0.5295382 -0.383675,0 0,-0.5295382 -0.353999,0 0,-0.3468946 0.353999,0 0,-0.7961872 c 0,-0.4049897 0.157148,-0.6461448 0.606024,-0.6461448 0.16467,0 0.354418,0.05099 0.474786,0.1349962 l -0.109502,0.3251625 c -0.113263,-0.065616 -0.237394,-0.09864 -0.336029,-0.09864 -0.189748,0 -0.251604,0.1170249 -0.251604,0.2921439 l 0,0.7886647 0.620651,0 z m -5.674455,-1.7453431 0,1.0954375 c 0,0.4125123 -0.262889,0.6900294 -0.686685,0.6937902 -0.222766,0.00378 -0.452637,-0.065616 -0.613546,-0.3105336 -0.120368,0.1935087 -0.310116,0.3105336 -0.576765,0.3105336 -0.186405,0 -0.368629,-0.054752 -0.511149,-0.2591264 l 0,0.2152418 -0.379913,0 0,-1.7453431 0.383257,0 0,0.9675455 c 0,0.303011 0.168014,0.4639205 0.427559,0.4639205 0.252021,0 0.379495,-0.164253 0.379495,-0.4601587 l 0,-0.9713073 0.383675,0 0,0.9675455 c 0,0.303011 0.175119,0.4639205 0.42714,0.4639205 0.259127,0 0.383257,-0.164253 0.383257,-0.4601587 l 0,-0.9713073 z"
             style="fill:#ffffff;fill-opacity:1;fill-rule:nonzero;stroke:none"
             id="path3808"
             sodipodi:nodetypes="cssscccccssscccccssscccccssscccccccccssccscccccssscccccssscccccscccscccscccccccssccccssccssccssccssccccccccsscccccccccccssccssccccsccscccccsssccssscc" />
        </g>
        <g
           id="g5446"
           transform="matrix(0.41794614,0,0,0.41794614,709.01198,381.9247)">
          <g
             transform="matrix(1.25,0,0,-1.25,1103.1881,710.77105)"
             id="g3816" />
          <g
             id="g5439">
            <g
               id="g3812"
               transform="matrix(1.1241372,0,0,-1.1241372,1065.2394,698.58818)"
               style="fill:none;stroke:#ffffff;stroke-width:3.38520637;stroke-miterlimit:4;stroke-dasharray:none;stroke-opacity:1">
              <path
                 inkscape:connector-curvature="0"
                 d="m 0,0 c 0,5.017 2.349,9.486 6.007,12.366 -2.675,2.106 -6.051,3.363 -9.72,3.363 -8.686,0 -15.727,-7.042 -15.727,-15.729 0,-8.687 7.041,-15.729 15.727,-15.729 3.669,0 7.045,1.257 9.72,3.363 C 2.349,-9.486 0,-5.017 0,0"
                 style="fill:none;fill-opacity:1;fill-rule:nonzero;stroke:#ffffff;stroke-width:3.38520637;stroke-miterlimit:4;stroke-dasharray:none;stroke-opacity:1"
                 id="path3814" />
            </g>
            <g
               id="g3820"
               transform="matrix(1.1241372,0,0,-1.1241372,1100.5991,698.58818)"
               style="fill:none;stroke:#ffffff;stroke-width:3.38520637;stroke-miterlimit:4;stroke-dasharray:none;stroke-opacity:1">
              <path
                 inkscape:connector-curvature="0"
                 d="m 0,0 c 0,-8.687 -7.041,-15.729 -15.727,-15.729 -3.669,0 -7.045,1.257 -9.721,3.363 3.659,2.88 6.008,7.349 6.008,12.366 0,5.017 -2.349,9.486 -6.008,12.366 2.676,2.106 6.052,3.363 9.721,3.363 C -7.041,15.729 0,8.687 0,0"
                 style="fill:none;fill-opacity:1;fill-rule:nonzero;stroke:#ffffff;stroke-width:3.38520637;stroke-miterlimit:4;stroke-dasharray:none;stroke-opacity:1"
                 id="path3822" />
            </g>
          </g>
        </g>
      </g>
    </g>
  </g>
</svg>
