<?xml version="1.0" encoding="UTF-8" standalone="no"?>
<svg
   xmlns:sketch="http://www.bohemiancoding.com/sketch/ns"
   xmlns:dc="http://purl.org/dc/elements/1.1/"
   xmlns:cc="http://creativecommons.org/ns#"
   xmlns:rdf="http://www.w3.org/1999/02/22-rdf-syntax-ns#"
   xmlns:svg="http://www.w3.org/2000/svg"
   xmlns="http://www.w3.org/2000/svg"
   xmlns:sodipodi="http://sodipodi.sourceforge.net/DTD/sodipodi-0.dtd"
   xmlns:inkscape="http://www.inkscape.org/namespaces/inkscape"
   width="780"
   height="501"
   viewBox="0 0 780 501"
   id="svg2"
   version="1.1"
   inkscape:version="0.91 r13725"
   sodipodi:docname="unionpay-white.svg">
  <metadata
     id="metadata28">
    <rdf:RDF>
      <cc:Work
         rdf:about="">
        <dc:format>image/svg+xml</dc:format>
        <dc:type
           rdf:resource="http://purl.org/dc/dcmitype/StillImage" />
        <dc:title></dc:title>
      </cc:Work>
    </rdf:RDF>
  </metadata>
  <defs
     id="defs26" />
  <sodipodi:namedview
     pagecolor="#ffffff"
     bordercolor="#666666"
     borderopacity="1"
     objecttolerance="10"
     gridtolerance="10"
     guidetolerance="10"
     inkscape:pageopacity="0"
     inkscape:pageshadow="2"
     inkscape:window-width="1117"
     inkscape:window-height="586"
     id="namedview24"
     showgrid="false"
     inkscape:zoom="0.41333333"
     inkscape:cx="-28.548391"
     inkscape:cy="250.5"
     inkscape:window-x="0"
     inkscape:window-y="0"
     inkscape:window-maximized="0"
     inkscape:current-layer="g4"
     fit-margin-top="0"
     fit-margin-left="0"
     fit-margin-right="0"
     fit-margin-bottom="0" />
  <g
     id="g4"
     style="fill:none;fill-rule:evenodd"
     transform="translate(14.999999,15)">
    <path
       d="m 201.80958,55 142.39369,0 c 19.86888,0 32.28694,16.406386 27.63017,36.470247 L 305.50033,378.94775 C 300.84356,399.01161 280.87119,415.418 261.0023,415.418 l -142.39368,0 c -19.868886,0 -32.28694,-16.40639 -27.63017,-36.47025 L 157.31155,91.470247 C 161.96832,71.301887 181.83721,55 201.7061,55 l 0.10348,0 z"
       id="path8"
       inkscape:connector-curvature="0"
       style="fill:#7e7e7e" />
    <path
       d="m 331.75007,55 163.81483,0 c 19.86889,0 10.8658,16.406386 6.20903,36.470247 L 435.44082,378.94775 c -4.65677,20.06386 -3.20799,36.47025 -23.07688,36.47025 l -163.81483,0 c -19.97237,0 -32.28694,-16.40639 -27.52668,-36.47025 L 287.35553,91.470247 C 292.0123,71.301887 311.88119,55 331.85356,55 l -0.10349,0 z"
       id="path10"
       inkscape:connector-curvature="0"
       style="fill:#393939" />
    <path
       d="m 489.81498,55 142.39369,0 c 19.86888,0 32.28694,16.406386 27.63017,36.470247 L 593.50573,378.94775 C 588.84896,399.01161 568.87659,415.418 549.0077,415.418 l -142.39368,0 c -19.97237,0 -32.28694,-16.40639 -27.63017,-36.47025 L 445.31695,91.470247 C 449.97372,71.301887 469.84261,55 489.7115,55 l 0.10348,0 z"
       id="path12"
       style="opacity:1;fill:#000000"
       inkscape:connector-curvature="0" />
    <path
       d="m 465.90475,326.01451 13.45289,0 3.82891,-13.06241 -13.34941,0 -3.93239,13.06241 0,0 z m 10.76232,-35.94775 0,0 -4.65677,15.4659 c 0,0 5.0707,-2.61249 7.86476,-3.44848 2.79407,-0.627 6.93342,-1.14949 6.93342,-1.14949 l 3.208,-10.76343 -13.4529,0 0.10349,-0.1045 z m 6.72644,-22.15384 0,0 -4.4498,14.83889 c 0,0 4.96722,-2.29898 7.76128,-3.03048 2.79407,-0.73149 6.93342,-0.94049 6.93342,-0.94049 l 3.20799,-10.76342 -13.3494,0 -0.10349,-0.1045 z m 29.69985,0 0,0 -17.38528,57.99709 4.65677,0 -3.62193,12.01742 -4.65677,0 -1.13832,3.65748 -16.55741,0 1.13833,-3.65748 -33.52875,0 3.31148,-11.07692 3.41497,0 17.59224,-58.93759 3.51845,-11.91292 16.86785,0 -1.75922,5.95646 c 0,0 4.4498,-3.23948 8.79612,-4.38897 C 497.98473,256.418 522.4069,256 522.4069,256 l -3.62193,11.80842 -5.7951,0 0.10349,0.1045 z"
       id="path14"
       inkscape:connector-curvature="0"
       style="fill:#fefefe" />
    <path
       d="m 520,256 18.00618,0 0.20697,6.79245 c -0.10349,1.14949 0.82787,1.67199 3.00102,1.67199 l 3.62194,0 -3.31148,11.18142 -9.72748,0 c -8.38218,0.627 -11.59018,-3.03048 -11.38321,-7.10595 L 520.10348,256.1045 520,256 Z m 2.21623,53.20029 -17.1783,0 2.89754,-9.92743 19.66192,0 2.79406,-9.09144 -19.35146,0 3.31148,-11.18142 53.81156,0 -3.31148,11.18142 -18.10966,0 -2.79406,9.09144 18.10966,0 -3.00103,9.92743 -19.55843,0 -3.51845,4.17997 7.96825,0 1.96619,12.53991 c 0.20697,1.254 0.20697,2.08999 0.6209,2.61249 0.41394,0.41799 2.79407,0.62699 4.13935,0.62699 l 2.38013,0 -3.72541,12.22642 -6.10555,0 c -0.93135,0 -2.38012,-0.1045 -4.34632,-0.1045 -1.8627,-0.209 -3.10451,-1.25399 -4.34632,-1.88099 -1.13832,-0.5225 -2.79406,-1.88099 -3.20799,-4.28447 l -1.86271,-12.53991 -8.89961,12.33091 c -2.79406,3.86648 -6.62296,6.89695 -13.14244,6.89695 l -12.41805,0 3.31148,-10.86792 4.76025,0 c 1.34529,0 2.5871,-0.5225 3.51845,-1.04499 0.93136,-0.418 1.75923,-0.836 2.5871,-2.19449 l 13.03895,-18.49637 0,0 z M 334.31354,282 l 45.42938,0 -3.31148,10.97242 -18.10966,0 -2.79406,9.30044 18.62708,0 -3.41497,11.28592 -18.5236,0 -4.55328,15.1524 c -0.51742,1.67198 4.4498,1.88098 6.20903,1.88098 l 9.31354,-1.25399 -3.72542,12.53991 -20.90373,0 c -1.65573,0 -2.89754,-0.20899 -4.76025,-0.62699 -1.75922,-0.418 -2.58709,-1.25399 -3.31148,-2.40349 -0.72439,-1.25399 -1.96619,-2.19448 -1.13832,-4.91146 l 6.00206,-20.06386 -10.34838,0 3.41496,-11.49492 10.34838,0 2.79407,-9.30044 -10.34838,0 3.31148,-10.97242 L 334.31354,282 Z m 31.38733,-19.83454 18.62709,0 -3.41497,11.39042 -25.45701,0 -2.79406,2.40348 c -1.24181,1.14949 -1.55226,0.7315 -3.10451,1.56749 -1.44878,0.7315 -4.44981,2.19448 -8.38219,2.19448 l -8.17522,0 3.31148,-10.97242 2.48361,0 c 2.06968,0 3.51845,-0.209 4.24284,-0.62699 0.82787,-0.5225 1.75922,-1.67199 2.69057,-3.55298 L 350.38527,256 l 18.5236,0 -3.208,6.26996 0,-0.1045 z m 35.10786,18.80987 c 0,0 5.0707,-4.70247 13.76334,-6.16546 1.96619,-0.418 14.38424,-0.209 14.38424,-0.209 l 1.86271,-6.26996 -26.18139,0 -3.8289,12.74892 0,-0.1045 z m 24.62914,4.80696 0,0 -25.97443,0 -1.55226,5.32947 22.55946,0 c 2.69058,-0.3135 3.208,0.10449 3.41497,-0.1045 l 1.65574,-5.22497 -0.10348,0 z m -33.73572,-29.67779 0,0 15.83302,0 -2.27664,8.04644 c 0,0 4.96722,-4.07547 8.48567,-5.53846 3.51845,-1.25399 11.38321,-2.50798 11.38321,-2.50798 L 450.79139,256 l -8.79612,29.46879 c -1.44877,5.01597 -3.208,8.25545 -4.24283,9.82294 -0.93136,1.46299 -2.06968,2.82148 -4.34632,4.07547 -2.17316,1.14949 -4.13935,1.88099 -6.00206,1.98548 -1.65574,0.1045 -4.34632,0.209 -7.86477,0.209 l -24.73262,0 -6.93342,23.30334 c -0.6209,2.29899 -0.93135,3.44848 -0.51742,4.07547 0.31046,0.5225 1.24181,1.1495 2.38013,1.1495 l 10.8658,-1.045 -3.72542,12.74891 -12.21108,0 c -3.93239,0 -6.72645,-0.10449 -8.69264,-0.20899 -1.86271,-0.209 -3.8289,0 -5.17419,-1.045 -1.13832,-1.04499 -2.89755,-2.40348 -2.79406,-3.76197 0.10348,-1.25399 0.6209,-3.34398 1.44877,-6.26996 l 22.24901,-74.40348 0,0 z"
       id="path16"
       inkscape:connector-curvature="0"
       style="fill:#fefefe" />
    <path
       d="m 437.84023,303 -1.44878,7.10595 c -0.6209,2.19448 -1.13832,3.86647 -2.79406,5.32946 -1.75922,1.46299 -3.72541,3.03048 -8.48567,3.03048 l -8.79612,0.418 -0.10348,7.94194 c -0.10349,2.19449 0.51741,1.98549 0.82787,2.40349 0.41393,0.41799 0.72438,0.52249 1.13832,0.73149 l 2.79406,-0.209 8.38219,-0.41799 -3.51845,11.70392 -9.62399,0 c -6.72645,0 -11.79716,-0.209 -13.34941,-1.46299 C 401.20697,338.52975 401,337.27576 401,334.97678 l 0.6209,-31.14079 15.41909,0 -0.20697,6.37446 3.72541,0 c 1.24181,0 2.17316,-0.1045 2.69058,-0.418 0.51742,-0.3135 0.82787,-0.83599 1.03484,-1.56749 l 1.55226,-5.01596 12.1076,0 L 437.84023,303 Z M 218.4704,147 c -0.51742,2.50798 -10.45187,48.59216 -10.45187,48.59216 -2.17316,9.30044 -3.72541,15.98839 -8.8996,20.27286 -3.00103,2.50798 -6.51948,3.65748 -10.55535,3.65748 -6.51948,0 -10.24489,-3.23948 -10.86579,-9.40494 l -0.10349,-2.08998 c 0,0 1.96619,-12.43542 1.96619,-12.53992 0,0 10.34838,-42.0087 12.21109,-47.54717 0.10348,-0.31349 0.10348,-0.52249 0.10348,-0.62699 -20.17933,0.209 -23.80127,0 -24.00823,-0.3135 -0.10349,0.418 -0.62091,3.03048 -0.62091,3.03048 l -10.55534,47.33817 -0.93136,3.97097 L 154,214.50653 c 0,3.86647 0.72439,7.10595 2.27664,9.71843 4.86374,8.56894 18.62708,9.82294 26.38837,9.82294 10.03792,0 19.45495,-2.19449 25.76746,-6.06096 11.07276,-6.58346 13.97031,-16.92889 16.45392,-26.02032 l 1.24181,-4.70247 c 0,0 10.65883,-43.5762 12.52153,-49.21916 0.10349,-0.3135 0.10349,-0.52249 0.20697,-0.62699 -14.6947,0.1045 -18.93753,0 -20.3863,-0.3135 l 0,-0.1045 z m 59.02866,86.62264 c -7.14039,-0.1045 -9.72748,-0.1045 -18.10967,0.3135 l -0.31045,-0.627 c 0.72439,-3.23947 1.55226,-6.37445 2.17316,-9.61393 l 1.03484,-4.38897 c 1.55226,-6.79245 3.00103,-14.8389 3.208,-17.24238 0.20696,-1.46299 0.6209,-5.12046 -3.51845,-5.12046 -1.75923,0 -3.51845,0.83599 -5.38116,1.67198 -1.03484,3.65748 -3.00103,13.89841 -4.03587,18.49638 -2.06967,9.82293 -2.17316,10.97242 -3.10451,15.77939 l -0.6209,0.62699 c -7.34735,-0.1045 -9.93445,-0.1045 -18.42012,0.3135 L 230,233.10014 c 1.44877,-5.85195 2.79406,-11.70391 4.13935,-17.55587 3.51845,-15.77939 4.4498,-21.84035 5.38116,-29.8868 l 0.72438,-0.41799 c 8.27871,-1.14949 10.2449,-1.46299 19.24799,-3.23948 l 0.72438,0.83599 -1.34528,5.01597 c 1.55225,-0.94049 3.00102,-1.88099 4.55328,-2.61248 4.24284,-2.08999 8.89961,-2.71698 11.4867,-2.71698 3.93238,0 8.2787,1.14949 10.03793,5.74746 1.65574,4.07547 0.6209,9.09143 -1.65574,19.01886 l -1.13832,5.01597 c -2.27665,11.07692 -2.69058,13.06241 -3.93239,20.58636 l -0.82787,0.62699 0.10349,0.1045 z m 29.05937,0.0276 c -4.34631,0 -7.14038,-0.1045 -9.83095,0 -2.69058,0 -5.27768,0.209 -9.31355,0.3135 l -0.20696,-0.3135 -0.20697,-0.418 c 1.13832,-4.17997 1.65574,-5.64296 2.27664,-7.10595 0.51742,-1.46299 1.03484,-2.92598 2.06968,-7.21045 1.2418,-5.53846 2.06967,-9.40494 2.58709,-12.85341 0.62091,-3.23948 0.93136,-6.06096 1.34529,-9.30044 l 0.31045,-0.209 0.31045,-0.31349 c 4.34632,-0.627 7.0369,-1.045 9.83097,-1.46299 2.79406,-0.418 5.6916,-0.9405 10.14141,-1.77649 l 0.20696,0.418 0.10349,0.41799 c -0.82787,3.44848 -1.65574,6.89696 -2.48361,10.34543 -0.82787,3.44848 -1.65575,6.89695 -2.38013,10.34543 -1.55226,7.31495 -2.27664,10.03193 -2.5871,12.01742 -0.41393,1.88098 -0.51742,2.82148 -1.13832,6.58345 l -0.41393,0.3135 -0.41394,0.3135 -0.20697,-0.1045 z m 45.94089,-25.67489 c -0.31045,1.88098 -1.96619,8.88243 -4.13935,11.80841 -1.55226,2.19449 -3.31148,3.55298 -5.38116,3.55298 -0.6209,0 -4.13935,0 -4.24283,-5.32946 0,-2.61249 0.51741,-5.32947 1.13832,-8.25545 1.86271,-8.46444 4.13935,-15.46589 9.83096,-15.46589 4.4498,0 4.76025,5.22496 2.79406,13.68941 l 0,0 z m 18.73056,0.83599 0,0 c 2.48362,-11.07692 0.51742,-16.30189 -1.8627,-19.43686 C 365.64176,184.56749 359.0188,183 352.18887,183 c -4.13935,0 -13.86683,0.418 -21.52463,7.52395 -5.48464,5.12046 -8.07173,12.12191 -9.52051,18.80987 -1.55225,6.79245 -3.31148,19.01886 7.86477,23.61683 3.41497,1.46299 8.38219,1.88099 11.59018,1.88099 8.17522,0 16.55741,-2.29898 22.86992,-8.98694 4.86374,-5.43396 7.0369,-13.5849 7.86477,-17.03338 l -0.10349,0 z m 174.43204,26.07983 c -8.69264,-0.1045 -11.17625,-0.1045 -19.1445,0.31349 L 526,234.57765 c 2.17316,-8.25544 4.34632,-16.61539 6.31251,-24.97533 2.48361,-10.86792 3.10451,-15.46589 3.93238,-21.84035 l 0.62091,-0.52249 c 8.58915,-1.25399 10.96928,-1.56749 19.97237,-3.23948 l 0.20696,0.73149 c -1.65574,6.89696 -3.20799,13.68941 -4.86373,20.48186 -3.31148,14.3164 -4.44981,21.63135 -5.69161,29.1553 l -0.82787,0.627 0,-0.1045 z"
       id="path18"
       inkscape:connector-curvature="0"
       style="fill:#fefefe" />
    <path
       d="m 533.15991,209.37378 c -0.41394,1.77648 -2.06968,8.88244 -4.24284,11.80841 -1.44877,2.08999 -4.96722,3.44848 -6.93341,3.44848 -0.6209,0 -4.03587,0 -4.24283,-5.22496 0,-2.61248 0.51741,-5.32947 1.13832,-8.25545 1.8627,-8.25544 4.13935,-15.25689 9.83096,-15.25689 4.4498,0 6.41599,5.12047 4.4498,13.58491 l 0,-0.1045 z m 17.07482,0.83599 0,0 c 2.48361,-11.07692 -7.6578,-0.94049 -9.21005,-4.59797 -2.48361,-5.74746 -0.93136,-17.24238 -10.8658,-21.10885 -3.8289,-1.56749 -12.83199,0.418 -20.48979,7.52395 -5.38116,5.01596 -8.07174,12.01741 -9.52051,18.70537 -1.55225,6.68795 -3.31148,19.01887 7.76129,23.30334 3.51844,1.56748 6.72644,1.98548 9.93444,1.77648 11.17625,-0.62699 19.66192,-17.66037 25.97443,-24.34833 4.86374,-5.32946 5.69161,1.98549 6.41599,-1.25399 l 0,0 z m -129.94264,23.41287 c -7.14038,-0.1045 -9.62399,-0.1045 -18.00618,0.3135 l -0.31045,-0.627 c 0.72439,-3.23947 1.55226,-6.37445 2.27664,-9.61393 l 0.93136,-4.38897 c 1.55225,-6.79245 3.10451,-14.8389 3.20799,-17.24238 0.20697,-1.46299 0.62091,-5.12046 -3.41496,-5.12046 -1.75923,0 -3.62193,0.83599 -5.38116,1.67198 -0.93135,3.65748 -3.00103,13.89841 -4.03587,18.49638 -1.96619,9.82293 -2.17316,10.97242 -3.10451,15.77939 l -0.6209,0.62699 c -7.34735,-0.1045 -9.93445,-0.1045 -18.42012,0.3135 L 373,233.10014 c 1.44877,-5.85195 2.79406,-11.70391 4.13935,-17.55587 3.51845,-15.77939 4.34632,-21.84035 5.38116,-29.8868 l 0.6209,-0.41799 c 8.2787,-1.14949 10.34838,-1.46299 19.24798,-3.23948 l 0.72439,0.83599 -1.2418,5.01597 c 1.44877,-0.94049 3.00102,-1.88099 4.4498,-2.61248 4.24283,-2.08999 8.8996,-2.71698 11.4867,-2.71698 3.93238,0 8.17522,1.14949 10.03792,5.74746 1.65574,4.07547 0.51742,9.09143 -1.75922,19.01886 l -1.13832,5.01597 c -2.38013,11.07692 -2.69058,13.06241 -3.93238,20.58636 l -0.82788,0.62699 0.10349,0.1045 z m 62.00103,-86.51814 -6.00206,0.1045 c -15.52257,0.209 -21.7316,0.1045 -24.21521,-0.209 -0.20696,1.14949 -0.6209,3.13498 -0.6209,3.13498 0,0 -5.58812,25.91582 -5.58812,26.02032 0,0 -13.24593,55.17561 -13.86683,57.7881 13.55637,-0.209 19.04102,-0.209 21.42114,0.1045 0.51742,-2.61249 3.62193,-17.97388 3.72542,-17.97388 0,0 2.69058,-11.28592 2.79406,-11.70392 0,0 0.82787,-1.14949 1.65574,-1.67199 l 1.24181,0 c 11.69366,0 24.83611,0 35.18448,-7.62844 7.0369,-5.22497 11.79715,-13.06241 13.97031,-22.46735 0.51742,-2.29898 0.93136,-5.01596 0.93136,-7.83744 0,-3.65748 -0.72439,-7.21045 -2.79406,-10.03193 -5.27768,-7.41945 -15.72954,-7.52395 -27.83714,-7.62845 l 0,0 z m 7.76128,27.06531 0,0 c -1.2418,5.74746 -4.96722,10.65893 -9.72747,12.95791 -3.93239,1.98549 -8.69264,2.19449 -13.65986,2.19449 l -3.208,0 0.20697,-1.254 c 0,0 5.89857,-25.91581 5.89857,-25.81132 l 0.20697,-1.35849 0.10348,-1.04499 2.38013,0.209 c 0,0 12.21109,1.04499 12.41805,1.04499 4.76026,1.88099 6.82993,6.68796 5.38116,13.06241 l 0,0 z M 617.26137,182.83599 616.53698,182 c -8.79612,1.77649 -10.45186,2.08999 -18.52359,3.23948 l -0.62091,0.62699 c 0,0.1045 -0.10348,0.209 -0.10348,0.418 l 0,-0.1045 c -6.00206,14.1074 -5.89858,11.07692 -10.76231,22.15385 0,-0.5225 0,-0.836 -0.10349,-1.35849 l -1.2418,-24.03484 -0.72439,-0.83599 c -9.31354,1.77649 -9.52051,2.08998 -18.00618,3.23948 l -0.6209,0.62699 c -0.10348,0.3135 -0.10348,0.627 -0.10348,0.9405 l 0.10348,0.10449 c 1.03484,5.53847 0.82787,4.28447 1.86271,12.95791 0.51742,4.28447 1.13832,8.56895 1.65574,12.74892 0.82787,7.10595 1.34529,10.55442 2.38013,21.31785 -5.7951,9.61393 -7.14039,13.27141 -12.72851,21.73585 l 0.31045,0.83599 c 8.38219,-0.3135 10.2449,-0.3135 16.45392,-0.3135 l 1.34529,-1.56749 c 4.65677,-10.13643 40.25519,-71.791 40.25519,-71.791 l -0.10348,-0.1045 z m -302.71776,6.92238 c 4.76025,-3.34398 5.38115,-7.94195 1.34529,-10.34543 -4.03587,-2.40348 -11.17625,-1.67199 -15.9365,1.67199 -4.76026,3.23948 -5.27768,7.83745 -1.24181,10.34543 3.93238,2.29898 11.07276,1.67199 15.83302,-1.67199 l 0,0 z"
       id="path20"
       inkscape:connector-curvature="0"
       style="fill:#fefefe" />
    <path
       d="m 575.73468,256.1045 -6.93341,12.01742 c -2.17316,4.07547 -6.31251,7.21045 -12.72851,7.21045 L 545,275.12337 l 3.208,-10.86793 2.17316,0 c 1.13832,0 1.96619,-0.1045 2.58709,-0.41799 0.6209,-0.209 0.93135,-0.627 1.44877,-1.254 L 558.55637,256 l 17.2818,0 -0.10349,0.1045 z"
       id="path22"
       inkscape:connector-curvature="0"
       style="fill:#fefefe" />
    <g
       sketch:type="MSPage"
       id="Page-1"
       style="fill:none;fill-rule:evenodd;stroke:none;stroke-width:1"
       transform="translate(-433.5484,-60.967743)">
      <rect
         style="stroke:#ffffff;stroke-width:30;stroke-opacity:1"
         rx="40"
         height="471"
         width="750"
         y="60.967743"
         x="433.5484"
         sketch:type="MSShapeGroup"
         id="Rectangle-1" />
    </g>
  </g>
</svg>
