<?xml version="1.0" encoding="UTF-8" standalone="no"?>
<svg
   xmlns:dc="http://purl.org/dc/elements/1.1/"
   xmlns:cc="http://creativecommons.org/ns#"
   xmlns:rdf="http://www.w3.org/1999/02/22-rdf-syntax-ns#"
   xmlns:svg="http://www.w3.org/2000/svg"
   xmlns="http://www.w3.org/2000/svg"
   xmlns:sodipodi="http://sodipodi.sourceforge.net/DTD/sodipodi-0.dtd"
   xmlns:inkscape="http://www.inkscape.org/namespaces/inkscape"
   width="780"
   height="501"
   id="svg2"
   version="1.1"
   inkscape:version="0.91 r13725"
   sodipodi:docname="unionpay-colored.svg">
  <metadata
     id="metadata28">
    <rdf:RDF>
      <cc:Work
         rdf:about="">
        <dc:format>image/svg+xml</dc:format>
        <dc:type
           rdf:resource="http://purl.org/dc/dcmitype/StillImage" />
        <dc:title></dc:title>
      </cc:Work>
    </rdf:RDF>
  </metadata>
  <defs
     id="defs26" />
  <sodipodi:namedview
     pagecolor="#ffffff"
     bordercolor="#666666"
     borderopacity="1"
     objecttolerance="10"
     gridtolerance="10"
     guidetolerance="10"
     inkscape:pageopacity="0"
     inkscape:pageshadow="2"
     inkscape:window-width="820"
     inkscape:window-height="662"
     id="namedview24"
     showgrid="false"
     inkscape:zoom="0.41333333"
     inkscape:cx="-447.09677"
     inkscape:cy="250.5"
     inkscape:window-x="0"
     inkscape:window-y="0"
     inkscape:window-maximized="0"
     inkscape:current-layer="g4"
     fit-margin-top="0"
     fit-margin-left="0"
     fit-margin-right="0"
     fit-margin-bottom="0" />
  <g
     id="g4"
     style="fill:none;fill-rule:evenodd"
     transform="translate(15,15)">
    <rect
       width="750"
       height="471"
       rx="40"
       id="rect6"
       style="fill:#ffffff;stroke:#ffffff;stroke-width:30;stroke-miterlimit:4;stroke-dasharray:none;stroke-opacity:1"
       x="0"
       y="0" />
    <path
       d="m 201.81,55 142.393,0 c 19.87,0 32.287,16.406 27.63,36.47 L 305.5,378.948 c -4.656,20.064 -24.63,36.47 -44.498,36.47 l -142.392,0 c -19.87,0 -32.288,-16.406 -27.632,-36.47 L 157.312,91.47 C 161.968,71.302 181.837,55 201.706,55 l 0.104,0 z"
       id="path8"
       inkscape:connector-curvature="0"
       style="fill:#d10429" />
    <path
       d="m 331.75,55 163.815,0 c 19.87,0 10.866,16.406 6.21,36.47 L 435.44,378.948 c -4.656,20.064 -3.207,36.47 -23.076,36.47 l -163.814,0 c -19.973,0 -32.288,-16.406 -27.528,-36.47 L 287.356,91.47 C 292.012,71.302 311.88,55 331.854,55 l -0.104,0 z"
       id="path10"
       inkscape:connector-curvature="0"
       style="fill:#022e64" />
    <path
       d="m 489.815,55 142.395,0 c 19.868,0 32.286,16.406 27.63,36.47 l -66.334,287.478 c -4.657,20.064 -24.63,36.47 -44.498,36.47 l -142.394,0 c -19.972,0 -32.287,-16.406 -27.63,-36.47 L 445.317,91.47 C 449.974,71.302 469.843,55 489.71,55 l 0.105,0 z"
       id="path12"
       inkscape:connector-curvature="0"
       style="fill:#076f74" />
    <path
       d="m 465.905,326.015 13.453,0 3.83,-13.063 -13.35,0 -3.933,13.063 z m 10.762,-35.948 -4.657,15.466 c 0,0 5.07,-2.613 7.865,-3.45 2.794,-0.626 6.933,-1.148 6.933,-1.148 l 3.208,-10.764 -13.452,0 0.103,-0.103 z m 6.727,-22.154 -4.45,14.84 c 0,0 4.967,-2.3 7.76,-3.032 2.795,-0.73 6.934,-0.94 6.934,-0.94 l 3.208,-10.763 -13.35,0 -0.102,-0.104 z m 29.7,0 -17.386,57.997 4.657,0 -3.622,12.017 -4.657,0 -1.138,3.658 -16.558,0 1.14,-3.658 -33.53,0 3.31,-11.076 3.416,0 17.593,-58.937 3.517,-11.914 16.868,0 -1.76,5.956 c 0,0 4.45,-3.24 8.797,-4.39 4.243,-1.148 28.665,-1.566 28.665,-1.566 l -3.622,11.808 -5.795,0 0.103,0.105 z"
       id="path14"
       inkscape:connector-curvature="0"
       style="fill:#fefefe" />
    <path
       d="m 520,256 18.006,0 0.207,6.792 c -0.103,1.15 0.828,1.672 3,1.672 l 3.623,0 -3.31,11.182 -9.73,0 c -8.38,0.627 -11.59,-3.03 -11.382,-7.106 L 520.104,256.104 520,256 Z m 2.216,53.2 -17.178,0 2.897,-9.927 19.662,0 2.794,-9.092 -19.35,0 3.31,-11.18 53.813,0 -3.31,11.18 -18.11,0 -2.795,9.093 18.11,0 -3.002,9.927 -19.558,0 -3.518,4.18 7.968,0 1.966,12.54 c 0.207,1.254 0.207,2.09 0.62,2.613 0.415,0.418 2.795,0.627 4.14,0.627 l 2.38,0 -3.725,12.226 -6.107,0 c -0.93,0 -2.38,-0.104 -4.346,-0.104 -1.863,-0.21 -3.104,-1.254 -4.346,-1.88 -1.138,-0.524 -2.793,-1.882 -3.207,-4.286 l -1.863,-12.54 -8.9,12.33 c -2.794,3.868 -6.622,6.898 -13.142,6.898 l -12.419,0 3.31,-10.868 4.762,0 c 1.345,0 2.587,-0.522 3.518,-1.045 0.932,-0.417 1.76,-0.835 2.587,-2.193 l 13.04,-18.497 z M 334.314,282 l 45.43,0 -3.313,10.972 -18.108,0 -2.794,9.3 18.627,0 -3.415,11.287 -18.524,0 -4.553,15.15 c -0.517,1.673 4.45,1.882 6.21,1.882 l 9.313,-1.254 -3.726,12.54 -20.904,0 c -1.655,0 -2.897,-0.21 -4.76,-0.627 -1.76,-0.417 -2.587,-1.253 -3.31,-2.402 -0.726,-1.254 -1.968,-2.195 -1.14,-4.912 l 6.002,-20.064 -10.349,0 3.415,-11.495 10.348,0 2.794,-9.3 -10.347,0 3.31,-10.973 -0.206,-0.104 z m 31.387,-19.835 18.628,0 -3.415,11.39 -25.457,0 -2.794,2.404 c -1.242,1.15 -1.552,0.73 -3.105,1.567 -1.448,0.73 -4.45,2.194 -8.382,2.194 l -8.176,0 3.31,-10.97 2.485,0 c 2.07,0 3.52,-0.21 4.243,-0.628 0.828,-0.523 1.76,-1.672 2.69,-3.553 l 4.657,-8.57 18.524,0 -3.21,6.27 0,-0.105 z m 35.11,18.81 c 0,0 5.07,-4.702 13.762,-6.165 1.966,-0.418 14.384,-0.21 14.384,-0.21 l 1.863,-6.27 -26.182,0 -3.83,12.75 0,-0.105 z m 24.628,4.807 -25.975,0 -1.552,5.33 22.56,0 c 2.69,-0.314 3.21,0.104 3.416,-0.105 l 1.655,-5.225 -0.102,0 z m -33.736,-29.678 15.833,0 -2.276,8.047 c 0,0 4.966,-4.075 8.484,-5.538 3.52,-1.254 11.383,-2.508 11.383,-2.508 L 450.79,256 l -8.795,29.47 c -1.45,5.015 -3.208,8.254 -4.243,9.822 -0.93,1.463 -2.07,2.82 -4.346,4.075 -2.173,1.15 -4.14,1.88 -6.002,1.986 -1.656,0.104 -4.346,0.21 -7.865,0.21 l -24.733,0 -6.934,23.302 c -0.62,2.3 -0.93,3.448 -0.517,4.075 0.31,0.523 1.242,1.15 2.38,1.15 l 10.866,-1.045 -3.726,12.75 -12.21,0 c -3.933,0 -6.727,-0.106 -8.693,-0.21 -1.863,-0.21 -3.83,0 -5.175,-1.045 -1.138,-1.045 -2.897,-2.404 -2.794,-3.762 0.104,-1.254 0.62,-3.344 1.45,-6.27 l 22.248,-74.404 z"
       id="path16"
       inkscape:connector-curvature="0"
       style="fill:#fefefe" />
    <path
       d="m 437.84,303 -1.45,7.106 c -0.62,2.194 -1.137,3.866 -2.793,5.33 -1.76,1.462 -3.725,3.03 -8.485,3.03 l -8.796,0.418 -0.104,7.942 c -0.103,2.194 0.518,1.985 0.828,2.403 0.414,0.417 0.724,0.522 1.138,0.73 l 2.794,-0.208 8.383,-0.418 -3.52,11.704 -9.623,0 c -6.726,0 -11.797,-0.21 -13.35,-1.463 -1.655,-1.045 -1.862,-2.3 -1.862,-4.598 l 0.62,-31.14 15.42,0 -0.207,6.373 3.725,0 c 1.242,0 2.174,-0.104 2.69,-0.418 0.518,-0.313 0.83,-0.836 1.036,-1.567 l 1.552,-5.016 12.108,0 -0.104,-0.21 z M 218.47,147 c -0.517,2.508 -10.45,48.592 -10.45,48.592 -2.175,9.3 -3.727,15.99 -8.9,20.273 -3.002,2.508 -6.52,3.657 -10.556,3.657 -6.52,0 -10.245,-3.24 -10.866,-9.404 l -0.104,-2.09 c 0,0 1.966,-12.436 1.966,-12.54 0,0 10.35,-42.01 12.212,-47.548 0.103,-0.313 0.103,-0.522 0.103,-0.627 -20.18,0.21 -23.8,0 -24.008,-0.313 -0.104,0.418 -0.62,3.03 -0.62,3.03 l -10.556,47.34 -0.93,3.97 -1.76,13.167 c 0,3.866 0.724,7.105 2.277,9.718 4.863,8.57 18.627,9.823 26.388,9.823 10.038,0 19.455,-2.195 25.767,-6.06 11.073,-6.585 13.97,-16.93 16.454,-26.02 l 1.242,-4.704 c 0,0 10.66,-43.576 12.522,-49.22 0.103,-0.313 0.103,-0.522 0.207,-0.626 -14.695,0.104 -18.938,0 -20.387,-0.314 l 0,-0.104 z m 59.03,86.623 c -7.14,-0.105 -9.728,-0.105 -18.11,0.313 l -0.31,-0.627 c 0.723,-3.24 1.55,-6.375 2.172,-9.615 l 1.035,-4.39 c 1.552,-6.79 3,-14.838 3.208,-17.24 0.207,-1.464 0.62,-5.122 -3.52,-5.122 -1.758,0 -3.517,0.836 -5.38,1.672 -1.035,3.658 -3,13.9 -4.036,18.497 -2.07,9.823 -2.174,10.972 -3.105,15.78 l -0.62,0.626 c -7.348,-0.104 -9.935,-0.104 -18.42,0.314 L 230,233.1 c 1.45,-5.852 2.794,-11.704 4.14,-17.556 3.518,-15.78 4.45,-21.84 5.38,-29.887 l 0.725,-0.418 c 8.28,-1.15 10.245,-1.464 19.248,-3.24 l 0.724,0.836 -1.345,5.016 c 1.552,-0.94 3,-1.88 4.553,-2.613 4.243,-2.09 8.9,-2.718 11.487,-2.718 3.932,0 8.28,1.15 10.038,5.748 1.656,4.075 0.62,9.09 -1.656,19.02 l -1.138,5.015 c -2.277,11.077 -2.69,13.062 -3.933,20.586 l -0.827,0.628 0.103,0.105 z m 29.058,0.027 c -4.346,0 -7.14,-0.104 -9.83,0 -2.69,0 -5.278,0.21 -9.314,0.314 L 287.207,233.65 287,233.232 c 1.138,-4.18 1.656,-5.643 2.277,-7.106 0.517,-1.463 1.034,-2.926 2.07,-7.21 1.24,-5.54 2.07,-9.405 2.586,-12.854 0.62,-3.24 0.932,-6.06 1.346,-9.3 l 0.31,-0.21 0.31,-0.313 c 4.346,-0.628 7.037,-1.046 9.83,-1.464 2.795,-0.418 5.692,-0.94 10.142,-1.776 l 0.207,0.418 0.102,0.418 -2.483,10.345 c -0.83,3.45 -1.657,6.898 -2.38,10.347 -1.554,7.315 -2.278,10.032 -2.588,12.017 -0.414,1.88 -0.518,2.822 -1.14,6.584 l -0.413,0.313 -0.415,0.315 -0.207,-0.105 z m 45.94,-25.675 c -0.31,1.88 -1.965,8.883 -4.138,11.81 -1.552,2.193 -3.312,3.552 -5.38,3.552 -0.622,0 -4.14,0 -4.244,-5.33 0,-2.612 0.517,-5.33 1.138,-8.255 1.863,-8.465 4.14,-15.466 9.83,-15.466 4.45,0 4.762,5.225 2.795,13.69 z m 18.732,0.836 c 2.483,-11.076 0.517,-16.3 -1.863,-19.436 -3.725,-4.807 -10.348,-6.374 -17.178,-6.374 -4.14,0 -13.868,0.418 -21.526,7.524 -5.484,5.12 -8.07,12.122 -9.52,18.81 -1.553,6.792 -3.312,19.02 7.865,23.617 3.413,1.464 8.38,1.882 11.59,1.882 8.174,0 16.556,-2.3 22.87,-8.987 4.862,-5.434 7.035,-13.585 7.863,-17.034 l -0.103,0 z m 174.432,26.08 c -8.693,-0.103 -11.176,-0.103 -19.145,0.315 L 526,234.579 c 2.173,-8.256 4.346,-16.616 6.313,-24.976 2.483,-10.868 3.104,-15.466 3.932,-21.84 l 0.62,-0.523 c 8.59,-1.255 10.97,-1.568 19.973,-3.24 l 0.207,0.73 c -1.656,6.898 -3.208,13.69 -4.864,20.483 -3.31,14.317 -4.448,21.632 -5.69,29.156 l -0.828,0.626 0,-0.105 z"
       id="path18"
       inkscape:connector-curvature="0"
       style="fill:#fefefe" />
    <path
       d="m 533.16,209.374 c -0.414,1.776 -2.07,8.882 -4.243,11.808 -1.45,2.09 -4.967,3.45 -6.933,3.45 -0.62,0 -4.036,0 -4.243,-5.226 0,-2.613 0.518,-5.33 1.14,-8.256 1.862,-8.255 4.138,-15.257 9.83,-15.257 4.45,0 6.416,5.12 4.45,13.585 l 0,-0.104 z m 17.075,0.836 c 2.483,-11.077 -7.658,-0.94 -9.21,-4.598 -2.484,-5.748 -0.932,-17.243 -10.866,-21.11 -3.83,-1.567 -12.833,0.42 -20.49,7.525 -5.382,5.016 -8.073,12.017 -9.52,18.705 -1.554,6.688 -3.313,19.02 7.76,23.304 3.518,1.567 6.726,1.985 9.934,1.776 11.177,-0.627 19.662,-17.66 25.975,-24.348 4.862,-5.33 5.69,1.985 6.415,-1.254 z m -129.943,23.413 c -7.14,-0.105 -9.624,-0.105 -18.006,0.313 l -0.31,-0.627 c 0.724,-3.24 1.552,-6.375 2.276,-9.615 l 0.93,-4.39 c 1.554,-6.79 3.106,-14.838 3.21,-17.24 0.206,-1.464 0.62,-5.122 -3.416,-5.122 -1.76,0 -3.62,0.836 -5.38,1.672 -0.932,3.658 -3.002,13.9 -4.037,18.497 -1.967,9.823 -2.174,10.972 -3.105,15.78 l -0.62,0.626 c -7.348,-0.104 -9.935,-0.104 -18.42,0.314 L 373,233.1 c 1.45,-5.852 2.794,-11.704 4.14,-17.556 3.518,-15.78 4.346,-21.84 5.38,-29.887 l 0.62,-0.418 c 8.28,-1.15 10.35,-1.464 19.25,-3.24 l 0.724,0.836 -1.242,5.016 c 1.45,-0.94 3,-1.88 4.45,-2.613 4.243,-2.09 8.9,-2.718 11.486,-2.718 3.933,0 8.176,1.15 10.038,5.748 1.656,4.075 0.518,9.09 -1.76,19.02 l -1.137,5.015 c -2.38,11.077 -2.692,13.062 -3.934,20.586 l -0.827,0.628 0.102,0.105 z m 62,-86.52 -6,0.106 c -15.524,0.208 -21.733,0.103 -24.216,-0.21 -0.207,1.15 -0.62,3.135 -0.62,3.135 0,0 -5.59,25.916 -5.59,26.02 0,0 -13.245,55.176 -13.866,57.788 13.556,-0.21 19.04,-0.21 21.42,0.105 0.52,-2.613 3.623,-17.974 3.727,-17.974 0,0 2.69,-11.286 2.794,-11.704 0,0 0.828,-1.15 1.656,-1.672 l 1.242,0 c 11.694,0 24.836,0 35.185,-7.628 7.037,-5.225 11.797,-13.063 13.97,-22.468 0.517,-2.3 0.93,-5.016 0.93,-7.837 0,-3.658 -0.723,-7.21 -2.793,-10.032 -5.277,-7.42 -15.73,-7.524 -27.837,-7.63 z m 7.762,27.067 c -1.24,5.747 -4.967,10.66 -9.727,12.958 -3.932,1.985 -8.693,2.194 -13.66,2.194 l -3.208,0 0.206,-1.254 c 0,0 5.9,-25.916 5.9,-25.81 l 0.206,-1.36 0.103,-1.045 2.38,0.21 c 0,0 12.21,1.044 12.418,1.044 4.76,1.88 6.83,6.688 5.38,13.063 z m 127.207,8.666 -0.723,-0.836 c -8.796,1.776 -10.452,2.09 -18.524,3.24 l -0.62,0.626 c 0,0.105 -0.104,0.21 -0.104,0.418 l 0,-0.104 c -6.003,14.107 -5.9,11.077 -10.763,22.154 0,-0.523 0,-0.836 -0.104,-1.36 l -1.242,-24.034 -0.723,-0.836 c -9.314,1.777 -9.52,2.09 -18.006,3.24 l -0.62,0.627 c -0.104,0.314 -0.104,0.628 -0.104,0.94 l 0.104,0.106 c 1.035,5.538 0.828,4.284 1.863,12.958 0.517,4.284 1.138,8.57 1.655,12.75 0.828,7.105 1.346,10.553 2.38,21.317 -5.795,9.615 -7.14,13.272 -12.728,21.736 l 0.31,0.836 c 8.383,-0.313 10.245,-0.313 16.454,-0.313 l 1.346,-1.57 c 4.656,-10.135 40.255,-71.79 40.255,-71.79 l -0.104,-0.104 z m -302.716,6.922 c 4.76,-3.344 5.38,-7.942 1.345,-10.345 -4.037,-2.404 -11.177,-1.672 -15.938,1.672 -4.76,3.24 -5.277,7.837 -1.24,10.345 3.93,2.3 11.07,1.672 15.832,-1.672 z"
       id="path20"
       inkscape:connector-curvature="0"
       style="fill:#fefefe" />
    <path
       d="m 575.735,256.104 -6.934,12.018 c -2.172,4.075 -6.31,7.21 -12.727,7.21 l -11.073,-0.21 3.208,-10.867 2.173,0 c 1.14,0 1.967,-0.104 2.588,-0.418 0.62,-0.21 0.932,-0.627 1.45,-1.254 l 4.138,-6.583 17.282,0 -0.103,0.104 z"
       id="path22"
       inkscape:connector-curvature="0"
       style="fill:#fefefe" />
  </g>
</svg>
