<?xml version="1.0" encoding="UTF-8" standalone="no"?>
<svg
   xmlns:dc="http://purl.org/dc/elements/1.1/"
   xmlns:cc="http://creativecommons.org/ns#"
   xmlns:rdf="http://www.w3.org/1999/02/22-rdf-syntax-ns#"
   xmlns:svg="http://www.w3.org/2000/svg"
   xmlns="http://www.w3.org/2000/svg"
   xmlns:sodipodi="http://sodipodi.sourceforge.net/DTD/sodipodi-0.dtd"
   xmlns:inkscape="http://www.inkscape.org/namespaces/inkscape"
   width="780"
   height="501"
   viewBox="0 0 780 501"
   id="svg2"
   version="1.1"
   inkscape:version="0.91 r13725"
   sodipodi:docname="american-express-colored.svg">
  <metadata
     id="metadata16">
    <rdf:RDF>
      <cc:Work
         rdf:about="">
        <dc:format>image/svg+xml</dc:format>
        <dc:type
           rdf:resource="http://purl.org/dc/dcmitype/StillImage" />
        <dc:title>Slice 1</dc:title>
      </cc:Work>
    </rdf:RDF>
  </metadata>
  <defs
     id="defs14" />
  <sodipodi:namedview
     pagecolor="#ffffff"
     bordercolor="#666666"
     borderopacity="1"
     objecttolerance="10"
     gridtolerance="10"
     guidetolerance="10"
     inkscape:pageopacity="0"
     inkscape:pageshadow="2"
     inkscape:window-width="882"
     inkscape:window-height="600"
     id="namedview12"
     showgrid="false"
     fit-margin-top="0"
     fit-margin-left="0"
     fit-margin-right="0"
     fit-margin-bottom="0"
     inkscape:zoom="0.41223404"
     inkscape:cx="358.46452"
     inkscape:cy="250.5"
     inkscape:window-x="0"
     inkscape:window-y="0"
     inkscape:window-maximized="0"
     inkscape:current-layer="g6" />
  <title
     id="title4">Slice 1</title>
  <g
     id="g6"
     style="fill:none;fill-rule:evenodd"
     transform="translate(14,15)">
    <rect
       x="1"
       width="750"
       height="471"
       rx="40"
       id="rect8"
       style="fill:#2557d6;stroke:#2557d6;stroke-width:30;stroke-miterlimit:4;stroke-dasharray:none;stroke-opacity:1"
       y="0" />
    <path
       d="m -13.996879,215.13989 37.464909,0 8.447908,-20.29037 18.912375,0 8.423989,20.29037 73.715108,0 0,-15.51158 6.58109,15.57917 38.2678,0 6.57903,-15.81109 0,15.7435 183.19575,0 -0.0832,-33.307 3.54328,0 c 2.48143,0.0853 3.20631,0.312 3.20631,4.39401 l 0,28.91195 94.75012,0 0,-7.75318 c 7.64399,4.07678 19.53117,7.75318 35.17275,7.75318 l 39.86002,0 8.53007,-20.29037 18.91238,0 8.34078,20.29037 76.81429,0 0,-19.27325 11.63448,19.27325 61.5544,0 0,-127.406064 -60.91793,0 0,15.046704 -8.53007,-15.046704 -62.5091,0 0,15.046704 -7.83328,-15.046704 -84.43541,0 c -14.13358,0 -26.5574,1.965595 -36.59338,7.439118 l 0,-7.437037 -58.26696,0 0,7.439108 C 404.355,89.531978 395.6523,87.735907 385.97616,87.735907 l -212.87212,0 -14.28334,32.905553 -14.66814,-32.905553 -67.048704,0 0,15.046713 -7.36631,-15.046713 -57.182243,0 -26.555302,60.572643 0,66.8303 0.0031,0 z m 236.491529,-18.37676 -22.47958,0 -0.0832,-71.54567 -31.79587,71.54567 -19.25142,0 -31.87805,-71.60807 0,71.60807 -44.599288,0 -8.423988,-20.37567 -45.655938,0 -8.511349,20.37463 -23.815967,0 39.266187,-91.35037 32.578995,0 37.294358,86.49044 0,-86.4894 35.78634,0 28.69773,61.9704 26.36083,-61.9704 36.50812,0 0,91.35037 0.003,0 z m -166.007705,-39.33588 -15.00718,-36.41763 -14.923979,36.41763 29.931159,0 z m 255.467335,39.33276 -73.25126,0 0,-91.34933 73.25022,0 0,19.02157 -51.32393,0 0,16.46735 50.09256,0 0,18.72621 -50.08944,0 0,18.24365 51.32393,0 0,18.89263 z m 103.22506,-66.74712 c 0,14.56518 -9.76143,22.08957 -15.45022,24.34949 4.79647,1.81791 8.89407,5.03151 10.84511,7.69287 3.09606,4.54478 3.62959,8.60078 3.62959,16.76062 l 0,17.94414 -22.11557,0 -0.0832,-11.52008 c 0,-5.49639 0.52832,-13.40141 -3.46112,-17.79645 -3.20319,-3.21359 -8.08807,-3.91039 -15.9827,-3.91039 l -23.53829,0 0,33.22796 -21.9242,0 0,-91.35141 50.43577,0 c 11.20598,0 19.46253,0.29431 26.55115,4.37528 6.9368,4.08095 11.0968,10.03805 11.0968,20.22797 z m -27.71804,13.5647 c -3.01392,1.82208 -6.57696,1.8824 -10.84719,1.8824 l -26.63541,0 0,-20.29037 27.00045,0 c 3.82095,0 7.80831,0.17056 10.39791,1.64735 2.84439,1.3312 4.60407,4.16311 4.60407,8.07559 0,3.9936 -1.6744,7.2072 -4.51775,8.68399 z m 62.88454,53.18346 -22.37452,0 0,-91.35037 22.37348,0 0,91.35037 z m 259.72925,0 -31.07516,0 -41.56251,-68.564 0,68.564 -44.65752,0 -8.53216,-20.37567 -45.55194,0 -8.27838,20.37567 -25.65677,0 c -10.65998,0 -24.15396,-2.34729 -31.79587,-10.10359 -7.70638,-7.75839 -11.71663,-18.26239 -11.71663,-34.87532 0,-13.54807 2.39616,-25.9334 11.82064,-35.72083 7.08863,-7.29039 18.18956,-10.65271 33.30075,-10.65271 l 21.22845,0 0,19.57278 -20.78334,0 c -8.00175,0 -12.52158,1.1856 -16.87294,5.41215 -3.73775,3.848 -6.30239,11.11966 -6.30239,20.69389 0,9.78639 1.95312,16.84382 6.02887,21.4531 3.37584,3.61502 9.51079,4.71118 15.28278,4.71118 l 9.8488,0 30.90355,-71.83894 32.85563,0 37.12379,86.40308 0,-86.40308 33.38708,0 38.54547,63.62087 0,-63.61879 22.4598,0 0,91.34725 z m -133.28621,-39.33276 -15.17358,-36.41867 -15.09038,36.41763 30.26396,0 z m 189.16431,185.19672 c -5.3248,7.7563 -15.70399,11.68957 -29.75437,11.68957 l -42.34875,0 0,-19.59357 42.17611,0 c 4.18288,0 7.11047,-0.54912 8.87328,-2.26304 1.52879,-1.41232 2.5927,-3.46527 2.5927,-5.9592 0,-2.66238 -1.06495,-4.77358 -2.67798,-6.04238 -1.59121,-1.39359 -3.90728,-2.028 -7.72719,-2.028 -20.58782,-0.69679 -46.2737,0.63441 -46.2737,-28.28067 0,-13.25272 8.44999,-27.20326 31.45996,-27.20326 l 43.67786,0 0,-18.17918 -40.58076,0 c -12.24701,0 -21.14317,2.92033 -27.44347,7.46096 l 0,-7.462 -60.02458,0 c -9.59917,0 -20.86548,2.36913 -26.19443,7.46096 l 0,-7.462 -107.18745,0 0,7.46096 c -8.53111,-6.12768 -22.9247,-7.462 -29.56717,-7.462 l -70.70326,0 0,7.46096 c -6.74959,-6.50832 -21.75677,-7.46199 -30.9046,-7.46199 l -79.1283,0 -18.10636,19.51245 -16.95926,-19.51349 -118.20209,0 0,127.49343 115.97753,0 18.65757,-19.82029 17.57599,19.82237 71.4895,0.0624 0,-29.99147 7.02623,0 c 9.48478,0.1456 20.67309,-0.23504 30.54268,-4.48241 l 0,34.40836 58.96583,0 0,-33.23108 2.8444,0 c 3.62959,0 3.98735,0.14872 3.98735,3.76065 l 0,29.46627 179.12104,0 c 11.37343,0 23.26061,-2.89848 29.84379,-8.15879 l 0,8.15983 56.81722,0 c 11.82478,0 23.36876,-1.65048 32.15468,-5.87599 l 0,-23.75356 z M 410.79054,293.5849 c 0,25.38221 -19.01741,30.62277 -38.18458,30.62277 l -27.35925,0 0,30.64875 -42.61914,0 -27.00149,-30.24939 -28.05916,30.24835 -86.85755,0 0,-91.37428 88.19186,0 26.97758,29.95196 27.89276,-29.95196 70.0647,0 c 17.4023,0 36.95427,4.79856 36.95427,30.1038 z m -174.32975,42.05131 -53.91354,0 0,-18.17918 48.14155,0 0,-18.64406 -48.14155,0 0,-16.61189 54.97433,0 23.9855,26.62812 -25.04525,26.80805 z m 86.86691,10.46238 -33.66476,-37.21947 33.66476,-36.03803 0,73.2575 z m 49.78785,-40.62858 -28.33684,0 0,-23.26789 28.59164,0 c 7.91647,0 13.41183,3.21359 13.41183,11.20391 0,7.9019 -5.2416,12.06398 -13.66559,12.06398 z m 148.45252,-41.98579 73.1847,0 0,18.89678 -51.3468,0 0,16.61189 50.09361,0 0,18.64302 -50.09361,0 0,18.17918 51.3468,0.0832 0,18.95917 -73.1847,0 0,-91.37324 z m -28.13508,48.91114 c 4.88071,1.79295 8.87119,5.00863 10.74319,7.66999 3.09503,4.4616 3.54327,8.62471 3.63166,16.67846 l 0,18.11365 -22.01676,0 0,-11.43167 c 0,-5.49743 0.53249,-13.63646 -3.54328,-17.88588 -3.20319,-3.27288 -8.08806,-4.05599 -16.0867,-4.05599 l -23.43428,0 0,33.37354 -22.03342,0 0,-91.37428 50.62506,0 c 11.10095,0 19.18589,0.48881 26.38476,4.31288 6.91912,4.16416 11.27151,9.86752 11.27151,20.29038 -0.003,14.58494 -9.77079,22.02716 -15.54278,24.30788 z m -12.39366,-11.55439 c -2.9328,1.73368 -6.5624,1.8824 -10.82846,1.8824 l -26.63749,0 0,-20.52229 27.00045,0 c 3.90414,0 7.81038,0.0832 10.46446,1.65047 2.83919,1.47992 4.5396,4.30977 4.5396,8.21912 0,3.9104 -1.69937,7.0595 -4.54064,8.7703 z m 197.94814,5.82088 c 4.27023,4.39919 6.55822,9.95486 6.55822,19.35854 0,19.65805 -12.33125,28.83291 -34.44475,28.83291 l -42.70858,0 0,-19.59357 42.53593,0 c 4.16,0 7.10943,-0.54808 8.95752,-2.262 1.50798,-1.4144 2.58958,-3.46735 2.58958,-5.95918 0,-2.6624 -1.17,-4.77672 -2.67589,-6.0424 -1.67649,-1.39567 -3.98945,-2.028 -7.80832,-2.028 -20.50565,-0.69888 -46.18633,0.63233 -46.18633,-28.28172 0,-13.25374 8.36158,-27.20429 31.34971,-27.20429 l 43.96073,0 0,19.44797 -40.22818,0 c -3.98735,0 -6.58007,0.14872 -8.78486,1.65049 -2.40241,1.47888 -3.29264,3.67536 -3.29264,6.57279 0,3.44759 2.03839,5.79279 4.79647,6.80679 2.31296,0.80079 4.79751,1.03583 8.53319,1.03583 l 11.80398,0.3172 c 11.90383,0.2912 20.07509,2.34 25.04109,7.34968 z m 87.01147,-24.46077 -39.96404,0 c -3.98941,0 -6.64037,0.14873 -8.87326,1.65047 -2.3119,1.47992 -3.20319,3.67536 -3.20319,6.57488 0,3.44656 1.95311,5.7928 4.7944,6.80576 2.31399,0.80079 4.79854,1.03582 8.45101,1.03582 l 11.88407,0.31616 c 11.99118,0.29537 19.99711,2.34832 24.87677,7.35488 0.89025,0.69679 1.4248,1.47887 2.03528,2.26199 l 0,-25.99996 z"
       id="path10"
       inkscape:connector-curvature="0"
       style="fill:#ffffff" />
  </g>
</svg>
