<?xml version="1.0" encoding="UTF-8" standalone="no"?>
<svg
   xmlns:dc="http://purl.org/dc/elements/1.1/"
   xmlns:cc="http://creativecommons.org/ns#"
   xmlns:rdf="http://www.w3.org/1999/02/22-rdf-syntax-ns#"
   xmlns:svg="http://www.w3.org/2000/svg"
   xmlns="http://www.w3.org/2000/svg"
   xmlns:sodipodi="http://sodipodi.sourceforge.net/DTD/sodipodi-0.dtd"
   xmlns:inkscape="http://www.inkscape.org/namespaces/inkscape"
   width="780"
   height="501"
   viewBox="0 0 780 501"
   id="svg2"
   version="1.1"
   inkscape:version="0.91 r13725"
   sodipodi:docname="diners-club-colored.svg">
  <metadata
     id="metadata20">
    <rdf:RDF>
      <cc:Work
         rdf:about="">
        <dc:format>image/svg+xml</dc:format>
        <dc:type
           rdf:resource="http://purl.org/dc/dcmitype/StillImage" />
        <dc:title>diners</dc:title>
      </cc:Work>
    </rdf:RDF>
  </metadata>
  <defs
     id="defs18" />
  <sodipodi:namedview
     pagecolor="#ffffff"
     bordercolor="#666666"
     borderopacity="1"
     objecttolerance="10"
     gridtolerance="10"
     guidetolerance="10"
     inkscape:pageopacity="0"
     inkscape:pageshadow="2"
     inkscape:window-width="916"
     inkscape:window-height="671"
     id="namedview16"
     showgrid="false"
     inkscape:zoom="0.41333333"
     inkscape:cx="-447.09677"
     inkscape:cy="250.5"
     inkscape:window-x="0"
     inkscape:window-y="0"
     inkscape:window-maximized="0"
     inkscape:current-layer="g6"
     fit-margin-top="0"
     fit-margin-left="0"
     fit-margin-right="0"
     fit-margin-bottom="0" />
  <title
     id="title4">diners</title>
  <g
     id="g6"
     style="fill:none;fill-rule:evenodd"
     transform="translate(15,15)">
    <rect
       width="750"
       height="471"
       rx="40"
       id="rect8"
       style="fill:#0079be;stroke:#0079be;stroke-width:30;stroke-miterlimit:4;stroke-dasharray:none;stroke-opacity:1"
       x="0"
       y="0" />
    <path
       d="m 584.934,237.947 c 0,-99.415 -82.98,-168.133 -173.895,-168.1 l -78.243,0 c -92.003,-0.033 -167.73,68.705 -167.73,168.1 0,90.93 75.727,165.64 167.73,165.204 l 78.242,0 c 90.913,0.437 173.894,-74.292 173.894,-165.203 z"
       id="path10"
       inkscape:connector-curvature="0"
       style="fill:#ffffff" />
    <path
       d="m 333.28,83.93 c -84.07,0.027 -152.194,68.308 -152.214,152.58 0.02,84.258 68.144,152.533 152.214,152.56 84.09,-0.027 152.228,-68.302 152.24,-152.56 C 485.508,152.238 417.37,83.957 333.28,83.93 Z"
       id="path12"
       inkscape:connector-curvature="0"
       style="fill:#0079be" />
    <path
       d="m 237.066,236.098 c 0.08,-41.18 25.746,-76.296 61.94,-90.25 l 0,180.48 c -36.194,-13.947 -61.86,-49.044 -61.94,-90.23 z m 131,90.275 0,-180.526 c 36.207,13.92 61.914,49.057 61.98,90.257 -0.066,41.212 -25.773,76.322 -61.98,90.27 z"
       id="path14"
       inkscape:connector-curvature="0"
       style="fill:#ffffff" />
  </g>
</svg>
