<?xml version="1.0" encoding="UTF-8" standalone="no"?>
<svg
   xmlns:sketch="http://www.bohemiancoding.com/sketch/ns"
   xmlns:dc="http://purl.org/dc/elements/1.1/"
   xmlns:cc="http://creativecommons.org/ns#"
   xmlns:rdf="http://www.w3.org/1999/02/22-rdf-syntax-ns#"
   xmlns:svg="http://www.w3.org/2000/svg"
   xmlns="http://www.w3.org/2000/svg"
   xmlns:sodipodi="http://sodipodi.sourceforge.net/DTD/sodipodi-0.dtd"
   xmlns:inkscape="http://www.inkscape.org/namespaces/inkscape"
   width="780"
   height="501"
   viewBox="0 0 780 501"
   version="1.1"
   id="svg2"
   inkscape:version="0.91 r13725"
   sodipodi:docname="maestro-colored.svg">
  <metadata
     id="metadata45">
    <rdf:RDF>
      <cc:Work
         rdf:about="">
        <dc:format>image/svg+xml</dc:format>
        <dc:type
           rdf:resource="http://purl.org/dc/dcmitype/StillImage" />
        <dc:title>jcb copy</dc:title>
      </cc:Work>
    </rdf:RDF>
  </metadata>
  <sodipodi:namedview
     pagecolor="#ffffff"
     bordercolor="#666666"
     borderopacity="1"
     objecttolerance="10"
     gridtolerance="10"
     guidetolerance="10"
     inkscape:pageopacity="0"
     inkscape:pageshadow="2"
     inkscape:window-width="1440"
     inkscape:window-height="851"
     id="namedview43"
     showgrid="false"
     inkscape:zoom="0.36664165"
     inkscape:cx="-461.46237"
     inkscape:cy="422.13064"
     inkscape:window-x="0"
     inkscape:window-y="23"
     inkscape:window-maximized="1"
     inkscape:current-layer="Page-1"
     fit-margin-top="0"
     fit-margin-left="0"
     fit-margin-right="0"
     fit-margin-bottom="0" />
  <!-- Generator: Sketch 3.3.1 (12005) - http://www.bohemiancoding.com/sketch -->
  <title
     id="title4">jcb copy</title>
  <desc
     id="desc6">Created with Sketch.</desc>
  <defs
     id="defs8">
    <clipPath
       clipPathUnits="userSpaceOnUse"
       id="clipPath3944">
      <path
         inkscape:connector-curvature="0"
         d="M 0,612 792,612 792,0 0,0 0,612 Z"
         id="path3946" />
    </clipPath>
    <clipPath
       clipPathUnits="userSpaceOnUse"
       id="clipPath3538">
      <path
         inkscape:connector-curvature="0"
         d="M 218.25,0 792,0 l 0,489.1 -573.75,0 0,-489.1 z"
         id="path3540" />
    </clipPath>
    <clipPath
       clipPathUnits="userSpaceOnUse"
       id="clipPath3518">
      <path
         inkscape:connector-curvature="0"
         d="M 218.25,0 792,0 l 0,489.1 -573.75,0 0,-489.1 z"
         id="path3520" />
    </clipPath>
  </defs>
  <g
     id="Page-1"
     sketch:type="MSPage"
     style="fill:none;fill-rule:evenodd;stroke:none;stroke-width:1">
    <rect
       id="Rectangle-1"
       sketch:type="MSShapeGroup"
       x="15"
       y="15"
       width="750"
       height="471"
       rx="40"
       style="fill:#000000;fill-opacity:1;stroke:#000000;stroke-width:30;stroke-miterlimit:4;stroke-dasharray:none;stroke-opacity:1" />
    <g
       id="path14-path-+-path14-path"
       sketch:type="MSLayerGroup"
       transform="translate(691,357)"
       style="fill:#393939" />
    <g
       id="path14-path-+-path14-path-copy"
       sketch:type="MSLayerGroup"
       transform="translate(673,288)"
       style="fill:#393939" />
    <g
       transform="translate(-2567.0756,-815.09284)"
       id="layer1"
       inkscape:label="Layer 1"
       style="display:inline">
      <g
         transform="matrix(7.8834705,0,0,7.8834705,-6063.8878,-4482.0951)"
         id="g5486">
        <g
           id="g5463">
          <g
             id="g5456">
            <path
               inkscape:connector-curvature="0"
               d="m 1153.3657,714.04505 -17.2025,0 0,-30.915 17.2025,0 0,30.915 z"
               style="fill:#6c6bbd;fill-opacity:1;fill-rule:nonzero;stroke:none"
               id="path3554" />
            <g
               id="g3556"
               transform="matrix(1.25,0,0,-1.25,1137.2551,698.58818)">
              <path
                 inkscape:connector-curvature="0"
                 d="m 0,0 c 0,5.017 2.349,9.486 6.007,12.366 -2.675,2.106 -6.051,3.363 -9.72,3.363 -8.686,0 -15.727,-7.042 -15.727,-15.729 0,-8.687 7.041,-15.729 15.727,-15.729 3.669,0 7.045,1.257 9.72,3.363 C 2.349,-9.486 0,-5.017 0,0"
                 style="fill:#eb001b;fill-opacity:1;fill-rule:nonzero;stroke:none"
                 id="path3558" />
            </g>
            <g
               id="g3560"
               transform="matrix(1.25,0,0,-1.25,1176.5737,698.58818)">
              <path
                 inkscape:connector-curvature="0"
                 d="m 0,0 c 0,-8.687 -7.041,-15.729 -15.727,-15.729 -3.669,0 -7.045,1.257 -9.721,3.363 3.659,2.88 6.008,7.349 6.008,12.366 0,5.017 -2.349,9.486 -6.008,12.366 2.676,2.106 6.052,3.363 9.721,3.363 C -7.041,15.729 0,8.687 0,0"
                 style="fill:#0099df;fill-opacity:1;fill-rule:nonzero;stroke:none"
                 id="path3562" />
            </g>
          </g>
        </g>
        <g
           id="g5404">
          <g
             transform="matrix(1.25,0,0,-1.25,1159.1861,722.78068)"
             id="g3564"
             style="fill:#ffffff;fill-opacity:1">
            <path
               id="path3566"
               style="fill:#ffffff;fill-opacity:1;fill-rule:nonzero;stroke:none"
               d="M 0,0 C 0.183,0 0.446,-0.035 0.647,-0.114 L 0.367,-0.97 c -0.192,0.079 -0.384,0.105 -0.568,0.105 -0.594,0 -0.891,-0.384 -0.891,-1.074 l 0,-2.342 -0.909,0 0,4.176 0.9,0 0,-0.507 C -0.865,-0.245 -0.524,0 0,0 m -3.358,-0.935 -1.485,0 0,-1.887 c 0,-0.419 0.148,-0.699 0.603,-0.699 0.236,0 0.533,0.079 0.803,0.236 l 0.262,-0.777 c -0.288,-0.201 -0.742,-0.324 -1.135,-0.324 -1.075,0 -1.45,0.577 -1.45,1.547 l 0,1.904 -0.848,0 0,0.83 0.848,0 0,1.267 0.917,0 0,-1.267 1.485,0 0,-0.83 z m -11.629,-0.891 c 0.097,0.603 0.463,1.014 1.11,1.014 0.585,0 0.961,-0.367 1.057,-1.014 l -2.167,0 z m 3.111,-0.367 C -11.885,-0.891 -12.689,0 -13.86,0 c -1.223,0 -2.079,-0.891 -2.079,-2.193 0,-1.327 0.891,-2.192 2.141,-2.192 0.629,0 1.205,0.157 1.712,0.585 l -0.446,0.673 c -0.349,-0.28 -0.795,-0.437 -1.214,-0.437 -0.585,0 -1.118,0.271 -1.249,1.022 l 3.101,0 c 0.009,0.114 0.018,0.227 0.018,0.349 m 3.992,1.022 c -0.253,0.158 -0.768,0.359 -1.301,0.359 -0.498,0 -0.795,-0.184 -0.795,-0.49 0,-0.279 0.314,-0.358 0.707,-0.41 l 0.428,-0.061 c 0.909,-0.132 1.459,-0.516 1.459,-1.25 0,-0.795 -0.699,-1.363 -1.904,-1.363 -0.682,0 -1.311,0.175 -1.809,0.542 l 0.428,0.708 c 0.306,-0.236 0.761,-0.437 1.39,-0.437 0.62,0 0.952,0.183 0.952,0.507 0,0.235 -0.236,0.367 -0.734,0.436 l -0.428,0.061 c -0.935,0.132 -1.442,0.551 -1.442,1.232 0,0.83 0.682,1.337 1.739,1.337 0.664,0 1.267,-0.149 1.703,-0.437 L -7.884,-1.171 Z M 3.321,-0.863 C 3.134,-0.863 2.961,-0.896 2.8,-0.961 2.64,-1.027 2.501,-1.119 2.384,-1.237 2.267,-1.355 2.175,-1.497 2.108,-1.662 c -0.067,-0.165 -0.1,-0.347 -0.1,-0.545 0,-0.199 0.033,-0.38 0.1,-0.545 0.067,-0.165 0.159,-0.307 0.276,-0.425 0.117,-0.118 0.256,-0.21 0.416,-0.276 0.161,-0.066 0.334,-0.098 0.521,-0.098 0.187,0 0.361,0.032 0.521,0.098 0.161,0.066 0.301,0.158 0.418,0.276 0.119,0.118 0.211,0.26 0.279,0.425 0.067,0.165 0.1,0.346 0.1,0.545 0,0.198 -0.033,0.38 -0.1,0.545 -0.068,0.165 -0.16,0.307 -0.279,0.425 -0.117,0.118 -0.257,0.21 -0.418,0.276 -0.16,0.065 -0.334,0.098 -0.521,0.098 M 3.321,0 C 3.645,0 3.945,-0.056 4.221,-0.169 4.497,-0.281 4.736,-0.436 4.937,-0.633 5.139,-0.83 5.296,-1.063 5.41,-1.331 5.524,-1.6 5.581,-1.892 5.581,-2.207 5.581,-2.522 5.524,-2.814 5.41,-3.083 5.296,-3.351 5.139,-3.585 4.937,-3.782 4.736,-3.979 4.497,-4.133 4.221,-4.246 3.945,-4.358 3.645,-4.414 3.321,-4.414 c -0.324,0 -0.624,0.056 -0.9,0.168 -0.276,0.113 -0.513,0.267 -0.713,0.464 -0.2,0.197 -0.357,0.431 -0.471,0.699 -0.114,0.269 -0.171,0.561 -0.171,0.876 0,0.315 0.057,0.607 0.171,0.876 0.114,0.268 0.271,0.501 0.471,0.698 0.2,0.197 0.437,0.352 0.713,0.464 C 2.697,-0.056 2.997,0 3.321,0 m -23.616,-2.193 c 0,0.734 0.481,1.337 1.267,1.337 0.751,0 1.258,-0.577 1.258,-1.337 0,-0.76 -0.507,-1.336 -1.258,-1.336 -0.786,0 -1.267,0.602 -1.267,1.336 m 3.381,0 0,2.088 -0.908,0 0,-0.507 C -18.111,-0.236 -18.547,0 -19.141,0 c -1.171,0 -2.088,-0.917 -2.088,-2.193 0,-1.275 0.917,-2.193 2.088,-2.193 0.594,0 1.03,0.236 1.319,0.612 l 0,-0.507 0.908,0 0,2.088 z m -5.119,-2.088 0,2.621 c 0,0.987 -0.629,1.651 -1.642,1.66 -0.533,0.009 -1.084,-0.157 -1.468,-0.743 C -25.431,-0.28 -25.886,0 -26.524,0 c -0.445,0 -0.882,-0.131 -1.223,-0.62 l 0,0.515 -0.908,0 0,-4.176 0.917,0 0,2.315 c 0,0.725 0.402,1.11 1.022,1.11 0.603,0 0.909,-0.393 0.909,-1.101 l 0,-2.324 0.917,0 0,2.315 c 0,0.725 0.42,1.11 1.022,1.11 0.621,0 0.918,-0.393 0.918,-1.101 l 0,-2.324 0.917,0 z"
               inkscape:connector-curvature="0" />
          </g>
        </g>
      </g>
    </g>
  </g>
</svg>
